<?xml version="1.0" encoding="UTF-8" standalone="no"?>
<!DOCTYPE svg PUBLIC "-//W3C//DTD SVG 1.1//EN"
 "http://www.w3.org/Graphics/SVG/1.1/DTD/svg11.dtd">
<!-- Generated by graphviz version 2.44.1 (20200629.0846)
 -->
<!-- Title: dependencies Pages: 1 -->
<svg width="1601pt" height="284pt"
 viewBox="0.00 0.00 1601.00 284.00" xmlns="http://www.w3.org/2000/svg" xmlns:xlink="http://www.w3.org/1999/xlink">
<g id="graph0" class="graph" transform="scale(1 1) rotate(0) translate(4 280)">
<title>dependencies</title>
<polygon fill="white" stroke="transparent" points="-4,4 -4,-280 1597,-280 1597,4 -4,4"/>
<text text-anchor="start" x="775.51" y="-42.4" font-family="sans-serif" font-weight="bold" font-size="14.00">Legend</text>
<polygon fill="#ffffb3" stroke="transparent" points="562.5,-10 562.5,-30 582.5,-30 582.5,-10 562.5,-10"/>
<text text-anchor="start" x="586.13" y="-15.4" font-family="sans-serif" font-size="14.00"> &#160;Declarations</text>
<polygon fill="#8dd3c7" stroke="transparent" points="675.5,-10 675.5,-30 695.5,-30 695.5,-10 675.5,-10"/>
<text text-anchor="start" x="699.23" y="-15.4" font-family="sans-serif" font-size="14.00"> &#160;Module</text>
<polygon fill="#80b1d3" stroke="transparent" points="761.5,-10 761.5,-30 781.5,-30 781.5,-10 761.5,-10"/>
<text text-anchor="start" x="785.28" y="-15.4" font-family="sans-serif" font-size="14.00"> &#160;Bootstrap</text>
<polygon fill="#fdb462" stroke="transparent" points="858.5,-10 858.5,-30 878.5,-30 878.5,-10 858.5,-10"/>
<text text-anchor="start" x="882.17" y="-15.4" font-family="sans-serif" font-size="14.00"> &#160;Providers</text>
<polygon fill="#fb8072" stroke="transparent" points="954.5,-10 954.5,-30 974.5,-30 974.5,-10 954.5,-10"/>
<text text-anchor="start" x="978.23" y="-15.4" font-family="sans-serif" font-size="14.00"> &#160;Exports</text>
<g id="clust1" class="cluster">
<title>cluster_ContainerModule</title>
<polygon fill="none" stroke="black" stroke-dasharray="1,5" points="8,-70 8,-268 1585,-268 1585,-70 8,-70"/>
</g>
<g id="clust2" class="cluster">
<title>cluster_ContainerModule_declarations</title>
<polygon fill="none" stroke="black" points="1425,-78 1425,-130 1577,-130 1577,-78 1425,-78"/>
</g>
<g id="clust4" class="cluster">
<title>cluster_ContainerModule_imports</title>
<polygon fill="none" stroke="black" points="765,-78 765,-130 1417,-130 1417,-78 765,-78"/>
</g>
<g id="clust7" class="cluster">
<title>cluster_ContainerModule_providers</title>
<polygon fill="none" stroke="black" points="16,-78 16,-130 757,-130 757,-78 16,-78"/>
</g>
<g id="clust5" class="cluster">
<title>cluster_ContainerModule_exports</title>
<polygon fill="none" stroke="black" points="579,-208 579,-260 1225,-260 1225,-208 579,-208"/>
</g>
<!-- ContainerComponent -->
<g id="node1" class="node">
<title>ContainerComponent</title>
<polygon fill="#ffffb3" stroke="black" points="1569.04,-122 1432.96,-122 1432.96,-86 1569.04,-86 1569.04,-122"/>
<text text-anchor="middle" x="1501" y="-99.8" font-family="Times,serif" font-size="14.00">ContainerComponent</text>
</g>
<!-- ContainerModule -->
<g id="node2" class="node">
<title>ContainerModule</title>
<polygon fill="#8dd3c7" stroke="black" points="941.26,-187 938.26,-191 917.26,-191 914.26,-187 826.74,-187 826.74,-151 941.26,-151 941.26,-187"/>
<text text-anchor="middle" x="884" y="-164.8" font-family="Times,serif" font-size="14.00">ContainerModule</text>
</g>
<!-- ContainerComponent&#45;&gt;ContainerModule -->
<g id="edge1" class="edge">
<title>ContainerComponent&#45;&gt;ContainerModule</title>
<path fill="none" stroke="black" d="M1501,-122.22C1501,-142.37 1501,-172 1501,-172 1501,-172 951.49,-172 951.49,-172"/>
<polygon fill="black" stroke="black" points="951.49,-168.5 941.49,-172 951.49,-175.5 951.49,-168.5"/>
</g>
<!-- ContainerComponent  -->
<g id="node8" class="node">
<title>ContainerComponent </title>
<polygon fill="#fb8072" stroke="black" points="1217.04,-252 1076.96,-252 1076.96,-216 1217.04,-216 1217.04,-252"/>
<text text-anchor="middle" x="1147" y="-229.8" font-family="Times,serif" font-size="14.00">ContainerComponent </text>
</g>
<!-- ContainerModule&#45;&gt;ContainerComponent  -->
<g id="edge7" class="edge">
<title>ContainerModule&#45;&gt;ContainerComponent </title>
<path fill="none" stroke="black" stroke-dasharray="5,2" d="M941.38,-177C1003.55,-177 1093.98,-177 1093.98,-177 1093.98,-177 1093.98,-205.96 1093.98,-205.96"/>
<polygon fill="black" stroke="black" points="1090.48,-205.96 1093.98,-215.96 1097.48,-205.96 1090.48,-205.96"/>
</g>
<!-- FeatureModule  -->
<g id="node9" class="node">
<title>FeatureModule </title>
<polygon fill="#fb8072" stroke="black" points="1058.53,-252 953.47,-252 953.47,-216 1058.53,-216 1058.53,-252"/>
<text text-anchor="middle" x="1006" y="-229.8" font-family="Times,serif" font-size="14.00">FeatureModule </text>
</g>
<!-- ContainerModule&#45;&gt;FeatureModule  -->
<g id="edge8" class="edge">
<title>ContainerModule&#45;&gt;FeatureModule </title>
<path fill="none" stroke="black" stroke-dasharray="5,2" d="M941.47,-182C958.72,-182 973.15,-182 973.15,-182 973.15,-182 973.15,-205.81 973.15,-205.81"/>
<polygon fill="black" stroke="black" points="969.65,-205.81 973.15,-215.81 976.65,-205.81 969.65,-205.81"/>
</g>
<!-- HeaderModule  -->
<g id="node10" class="node">
<title>HeaderModule </title>
<polygon fill="#fb8072" stroke="black" points="935.96,-252 832.04,-252 832.04,-216 935.96,-216 935.96,-252"/>
<text text-anchor="middle" x="884" y="-229.8" font-family="Times,serif" font-size="14.00">HeaderModule </text>
</g>
<!-- ContainerModule&#45;&gt;HeaderModule  -->
<g id="edge9" class="edge">
<title>ContainerModule&#45;&gt;HeaderModule </title>
<path fill="none" stroke="black" stroke-dasharray="5,2" d="M884,-187.11C884,-187.11 884,-205.99 884,-205.99"/>
<polygon fill="black" stroke="black" points="880.5,-205.99 884,-215.99 887.5,-205.99 880.5,-205.99"/>
</g>
<!-- SearchModule  -->
<g id="node11" class="node">
<title>SearchModule </title>
<polygon fill="#fb8072" stroke="black" points="814.64,-252 713.36,-252 713.36,-216 814.64,-216 814.64,-252"/>
<text text-anchor="middle" x="764" y="-229.8" font-family="Times,serif" font-size="14.00">SearchModule </text>
</g>
<!-- ContainerModule&#45;&gt;SearchModule  -->
<g id="edge10" class="edge">
<title>ContainerModule&#45;&gt;SearchModule </title>
<path fill="none" stroke="black" stroke-dasharray="5,2" d="M826.51,-182C808.68,-182 793.62,-182 793.62,-182 793.62,-182 793.62,-205.81 793.62,-205.81"/>
<polygon fill="black" stroke="black" points="790.12,-205.81 793.62,-215.81 797.12,-205.81 790.12,-205.81"/>
</g>
<!-- SidenavModule  -->
<g id="node12" class="node">
<title>SidenavModule </title>
<polygon fill="#fb8072" stroke="black" points="695.15,-252 586.85,-252 586.85,-216 695.15,-216 695.15,-252"/>
<text text-anchor="middle" x="641" y="-229.8" font-family="Times,serif" font-size="14.00">SidenavModule </text>
</g>
<!-- ContainerModule&#45;&gt;SidenavModule  -->
<g id="edge11" class="edge">
<title>ContainerModule&#45;&gt;SidenavModule </title>
<path fill="none" stroke="black" stroke-dasharray="5,2" d="M826.72,-177C754.88,-177 641,-177 641,-177 641,-177 641,-205.96 641,-205.96"/>
<polygon fill="black" stroke="black" points="637.5,-205.96 641,-215.96 644.5,-205.96 637.5,-205.96"/>
</g>
<!-- ContainerRoutingModule -->
<g id="node3" class="node">
<title>ContainerRoutingModule</title>
<polygon fill="#8dd3c7" stroke="black" points="1408.88,-122 1405.88,-126 1384.88,-126 1381.88,-122 1249.12,-122 1249.12,-86 1408.88,-86 1408.88,-122"/>
<text text-anchor="middle" x="1329" y="-99.8" font-family="Times,serif" font-size="14.00">ContainerRoutingModule</text>
</g>
<!-- ContainerRoutingModule&#45;&gt;ContainerModule -->
<g id="edge2" class="edge">
<title>ContainerRoutingModule&#45;&gt;ContainerModule</title>
<path fill="none" stroke="black" d="M1329,-122.22C1329,-140.83 1329,-167 1329,-167 1329,-167 951.26,-167 951.26,-167"/>
<polygon fill="black" stroke="black" points="951.26,-163.5 941.26,-167 951.26,-170.5 951.26,-163.5"/>
</g>
<!-- FeatureModule -->
<g id="node4" class="node">
<title>FeatureModule</title>
<polygon fill="#8dd3c7" stroke="black" points="1230.53,-122 1227.53,-126 1206.53,-126 1203.53,-122 1129.47,-122 1129.47,-86 1230.53,-86 1230.53,-122"/>
<text text-anchor="middle" x="1180" y="-99.8" font-family="Times,serif" font-size="14.00">FeatureModule</text>
</g>
<!-- FeatureModule&#45;&gt;ContainerModule -->
<g id="edge3" class="edge">
<title>FeatureModule&#45;&gt;ContainerModule</title>
<path fill="none" stroke="black" d="M1173.13,-122.03C1173.13,-139.06 1173.13,-162 1173.13,-162 1173.13,-162 951.47,-162 951.47,-162"/>
<polygon fill="black" stroke="black" points="951.47,-158.5 941.47,-162 951.47,-165.5 951.47,-158.5"/>
</g>
<!-- HeaderModule -->
<g id="node5" class="node">
<title>HeaderModule</title>
<polygon fill="#8dd3c7" stroke="black" points="1110.96,-122 1107.96,-126 1086.96,-126 1083.96,-122 1011.04,-122 1011.04,-86 1110.96,-86 1110.96,-122"/>
<text text-anchor="middle" x="1061" y="-99.8" font-family="Times,serif" font-size="14.00">HeaderModule</text>
</g>
<!-- HeaderModule&#45;&gt;ContainerModule -->
<g id="edge4" class="edge">
<title>HeaderModule&#45;&gt;ContainerModule</title>
<path fill="none" stroke="black" d="M1034.77,-122.24C1034.77,-137.57 1034.77,-157 1034.77,-157 1034.77,-157 951.43,-157 951.43,-157"/>
<polygon fill="black" stroke="black" points="951.43,-153.5 941.43,-157 951.43,-160.5 951.43,-153.5"/>
</g>
<!-- SearchModule -->
<g id="node6" class="node">
<title>SearchModule</title>
<polygon fill="#8dd3c7" stroke="black" points="992.64,-122 989.64,-126 968.64,-126 965.64,-122 895.36,-122 895.36,-86 992.64,-86 992.64,-122"/>
<text text-anchor="middle" x="944" y="-99.8" font-family="Times,serif" font-size="14.00">SearchModule</text>
</g>
<!-- SearchModule&#45;&gt;ContainerModule -->
<g id="edge5" class="edge">
<title>SearchModule&#45;&gt;ContainerModule</title>
<path fill="none" stroke="black" d="M918.28,-122.11C918.28,-122.11 918.28,-140.99 918.28,-140.99"/>
<polygon fill="black" stroke="black" points="914.78,-140.99 918.28,-150.99 921.78,-140.99 914.78,-140.99"/>
</g>
<!-- SidenavModule -->
<g id="node7" class="node">
<title>SidenavModule</title>
<polygon fill="#8dd3c7" stroke="black" points="877.15,-122 874.15,-126 853.15,-126 850.15,-122 772.85,-122 772.85,-86 877.15,-86 877.15,-122"/>
<text text-anchor="middle" x="825" y="-99.8" font-family="Times,serif" font-size="14.00">SidenavModule</text>
</g>
<!-- SidenavModule&#45;&gt;ContainerModule -->
<g id="edge6" class="edge">
<title>SidenavModule&#45;&gt;ContainerModule</title>
<path fill="none" stroke="black" d="M851.97,-122.11C851.97,-122.11 851.97,-140.99 851.97,-140.99"/>
<polygon fill="black" stroke="black" points="848.47,-140.99 851.97,-150.99 855.47,-140.99 848.47,-140.99"/>
</g>
<!-- ApplicationService -->
<g id="node13" class="node">
<title>ApplicationService</title>
<ellipse fill="#fdb462" stroke="black" cx="663" cy="-104" rx="85.67" ry="18"/>
<text text-anchor="middle" x="663" y="-99.8" font-family="Times,serif" font-size="14.00">ApplicationService</text>
</g>
<!-- ApplicationService&#45;&gt;ContainerModule -->
<g id="edge12" class="edge">
<title>ApplicationService&#45;&gt;ContainerModule</title>
<path fill="none" stroke="black" d="M731.01,-114.98C731.01,-130.51 731.01,-157 731.01,-157 731.01,-157 816.6,-157 816.6,-157"/>
<polygon fill="black" stroke="black" points="816.6,-160.5 826.6,-157 816.6,-153.5 816.6,-160.5"/>
</g>
<!-- ExceptionInterceptor -->
<g id="node14" class="node">
<title>ExceptionInterceptor</title>
<ellipse fill="#fdb462" stroke="black" cx="467" cy="-104" rx="92.6" ry="18"/>
<text text-anchor="middle" x="467" y="-99.8" font-family="Times,serif" font-size="14.00">ExceptionInterceptor</text>
</g>
<!-- ExceptionInterceptor&#45;&gt;ContainerModule -->
<g id="edge13" class="edge">
<title>ExceptionInterceptor&#45;&gt;ContainerModule</title>
<path fill="none" stroke="black" d="M467,-122.03C467,-139.06 467,-162 467,-162 467,-162 816.46,-162 816.46,-162"/>
<polygon fill="black" stroke="black" points="816.46,-165.5 826.46,-162 816.46,-158.5 816.46,-165.5"/>
</g>
<!-- RequestInterceptor -->
<g id="node15" class="node">
<title>RequestInterceptor</title>
<ellipse fill="#fdb462" stroke="black" cx="272" cy="-104" rx="84.51" ry="18"/>
<text text-anchor="middle" x="272" y="-99.8" font-family="Times,serif" font-size="14.00">RequestInterceptor</text>
</g>
<!-- RequestInterceptor&#45;&gt;ContainerModule -->
<g id="edge14" class="edge">
<title>RequestInterceptor&#45;&gt;ContainerModule</title>
<path fill="none" stroke="black" d="M272,-122.22C272,-140.83 272,-167 272,-167 272,-167 816.7,-167 816.7,-167"/>
<polygon fill="black" stroke="black" points="816.7,-170.5 826.7,-167 816.7,-163.5 816.7,-170.5"/>
</g>
<!-- WeatherService -->
<g id="node16" class="node">
<title>WeatherService</title>
<ellipse fill="#fdb462" stroke="black" cx="97" cy="-104" rx="72.89" ry="18"/>
<text text-anchor="middle" x="97" y="-99.8" font-family="Times,serif" font-size="14.00">WeatherService</text>
</g>
<!-- WeatherService&#45;&gt;ContainerModule -->
<g id="edge15" class="edge">
<title>WeatherService&#45;&gt;ContainerModule</title>
<path fill="none" stroke="black" d="M97,-122.22C97,-142.37 97,-172 97,-172 97,-172 816.45,-172 816.45,-172"/>
<polygon fill="black" stroke="black" points="816.45,-175.5 826.45,-172 816.45,-168.5 816.45,-175.5"/>
</g>
</g>
</svg>
