<?xml version="1.0" encoding="UTF-8" standalone="no"?>
<!DOCTYPE svg PUBLIC "-//W3C//DTD SVG 1.1//EN"
 "http://www.w3.org/Graphics/SVG/1.1/DTD/svg11.dtd">
<!-- Generated by graphviz version 2.44.1 (20200629.0846)
 -->
<!-- Title: dependencies Pages: 1 -->
<svg width="1684pt" height="284pt"
 viewBox="0.00 0.00 1684.00 284.00" xmlns="http://www.w3.org/2000/svg" xmlns:xlink="http://www.w3.org/1999/xlink">
<g id="graph0" class="graph" transform="scale(1 1) rotate(0) translate(4 280)">
<title>dependencies</title>
<polygon fill="white" stroke="transparent" points="-4,4 -4,-280 1680,-280 1680,4 -4,4"/>
<text text-anchor="start" x="817.01" y="-42.4" font-family="sans-serif" font-weight="bold" font-size="14.00">Legend</text>
<polygon fill="#ffffb3" stroke="transparent" points="604,-10 604,-30 624,-30 624,-10 604,-10"/>
<text text-anchor="start" x="627.63" y="-15.4" font-family="sans-serif" font-size="14.00"> &#160;Declarations</text>
<polygon fill="#8dd3c7" stroke="transparent" points="717,-10 717,-30 737,-30 737,-10 717,-10"/>
<text text-anchor="start" x="740.73" y="-15.4" font-family="sans-serif" font-size="14.00"> &#160;Module</text>
<polygon fill="#80b1d3" stroke="transparent" points="803,-10 803,-30 823,-30 823,-10 803,-10"/>
<text text-anchor="start" x="826.78" y="-15.4" font-family="sans-serif" font-size="14.00"> &#160;Bootstrap</text>
<polygon fill="#fdb462" stroke="transparent" points="900,-10 900,-30 920,-30 920,-10 900,-10"/>
<text text-anchor="start" x="923.67" y="-15.4" font-family="sans-serif" font-size="14.00"> &#160;Providers</text>
<polygon fill="#fb8072" stroke="transparent" points="996,-10 996,-30 1016,-30 1016,-10 996,-10"/>
<text text-anchor="start" x="1019.73" y="-15.4" font-family="sans-serif" font-size="14.00"> &#160;Exports</text>
<g id="clust1" class="cluster">
<title>cluster_ContainerModule</title>
<polygon fill="none" stroke="black" stroke-dasharray="1,5" points="8,-70 8,-268 1668,-268 1668,-70 8,-70"/>
</g>
<g id="clust5" class="cluster">
<title>cluster_ContainerModule_exports</title>
<polygon fill="none" stroke="black" points="484,-208 484,-260 1011,-260 1011,-208 484,-208"/>
</g>
<g id="clust2" class="cluster">
<title>cluster_ContainerModule_declarations</title>
<polygon fill="none" stroke="black" points="1508,-78 1508,-130 1660,-130 1660,-78 1508,-78"/>
</g>
<g id="clust7" class="cluster">
<title>cluster_ContainerModule_providers</title>
<polygon fill="none" stroke="black" points="560,-78 560,-130 1500,-130 1500,-78 560,-78"/>
</g>
<g id="clust4" class="cluster">
<title>cluster_ContainerModule_imports</title>
<polygon fill="none" stroke="black" points="16,-78 16,-130 552,-130 552,-78 16,-78"/>
</g>
<!-- ContainerComponent -->
<g id="node1" class="node">
<title>ContainerComponent</title>
<polygon fill="#ffffb3" stroke="black" points="1652.04,-122 1515.96,-122 1515.96,-86 1652.04,-86 1652.04,-122"/>
<text text-anchor="middle" x="1584" y="-99.8" font-family="Times,serif" font-size="14.00">ContainerComponent</text>
</g>
<!-- ContainerModule -->
<g id="node2" class="node">
<title>ContainerModule</title>
<polygon fill="#8dd3c7" stroke="black" points="788.26,-187 785.26,-191 764.26,-191 761.26,-187 673.74,-187 673.74,-151 788.26,-151 788.26,-187"/>
<text text-anchor="middle" x="731" y="-164.8" font-family="Times,serif" font-size="14.00">ContainerModule</text>
</g>
<!-- ContainerComponent&#45;&gt;ContainerModule -->
<g id="edge1" class="edge">
<title>ContainerComponent&#45;&gt;ContainerModule</title>
<path fill="none" stroke="black" d="M1584,-122.28C1584,-143.32 1584,-175 1584,-175 1584,-175 798.29,-175 798.29,-175"/>
<polygon fill="black" stroke="black" points="798.29,-171.5 788.29,-175 798.29,-178.5 798.29,-171.5"/>
</g>
<!-- ContainerComponent  -->
<g id="node7" class="node">
<title>ContainerComponent </title>
<polygon fill="#fb8072" stroke="black" points="1003.04,-252 862.96,-252 862.96,-216 1003.04,-216 1003.04,-252"/>
<text text-anchor="middle" x="933" y="-229.8" font-family="Times,serif" font-size="14.00">ContainerComponent </text>
</g>
<!-- ContainerModule&#45;&gt;ContainerComponent  -->
<g id="edge6" class="edge">
<title>ContainerModule&#45;&gt;ContainerComponent </title>
<path fill="none" stroke="black" stroke-dasharray="5,2" d="M788.46,-181C833.18,-181 887.69,-181 887.69,-181 887.69,-181 887.69,-205.76 887.69,-205.76"/>
<polygon fill="black" stroke="black" points="884.19,-205.76 887.69,-215.76 891.19,-205.76 884.19,-205.76"/>
</g>
<!-- FeatureModule  -->
<g id="node8" class="node">
<title>FeatureModule </title>
<polygon fill="#fb8072" stroke="black" points="844.53,-252 739.47,-252 739.47,-216 844.53,-216 844.53,-252"/>
<text text-anchor="middle" x="792" y="-229.8" font-family="Times,serif" font-size="14.00">FeatureModule </text>
</g>
<!-- ContainerModule&#45;&gt;FeatureModule  -->
<g id="edge7" class="edge">
<title>ContainerModule&#45;&gt;FeatureModule </title>
<path fill="none" stroke="black" stroke-dasharray="5,2" d="M763.93,-187.11C763.93,-187.11 763.93,-205.99 763.93,-205.99"/>
<polygon fill="black" stroke="black" points="760.43,-205.99 763.93,-215.99 767.43,-205.99 760.43,-205.99"/>
</g>
<!-- HeaderModule  -->
<g id="node9" class="node">
<title>HeaderModule </title>
<polygon fill="#fb8072" stroke="black" points="721.96,-252 618.04,-252 618.04,-216 721.96,-216 721.96,-252"/>
<text text-anchor="middle" x="670" y="-229.8" font-family="Times,serif" font-size="14.00">HeaderModule </text>
</g>
<!-- ContainerModule&#45;&gt;HeaderModule  -->
<g id="edge8" class="edge">
<title>ContainerModule&#45;&gt;HeaderModule </title>
<path fill="none" stroke="black" stroke-dasharray="5,2" d="M697.68,-187.11C697.68,-187.11 697.68,-205.99 697.68,-205.99"/>
<polygon fill="black" stroke="black" points="694.18,-205.99 697.68,-215.99 701.18,-205.99 694.18,-205.99"/>
</g>
<!-- SidenavModule  -->
<g id="node10" class="node">
<title>SidenavModule </title>
<polygon fill="#fb8072" stroke="black" points="600.15,-252 491.85,-252 491.85,-216 600.15,-216 600.15,-252"/>
<text text-anchor="middle" x="546" y="-229.8" font-family="Times,serif" font-size="14.00">SidenavModule </text>
</g>
<!-- ContainerModule&#45;&gt;SidenavModule  -->
<g id="edge9" class="edge">
<title>ContainerModule&#45;&gt;SidenavModule </title>
<path fill="none" stroke="black" stroke-dasharray="5,2" d="M673.4,-181C632.27,-181 584.19,-181 584.19,-181 584.19,-181 584.19,-205.76 584.19,-205.76"/>
<polygon fill="black" stroke="black" points="580.69,-205.76 584.19,-215.76 587.69,-205.76 580.69,-205.76"/>
</g>
<!-- ContainerRoutingModule -->
<g id="node3" class="node">
<title>ContainerRoutingModule</title>
<polygon fill="#8dd3c7" stroke="black" points="543.88,-122 540.88,-126 519.88,-126 516.88,-122 384.12,-122 384.12,-86 543.88,-86 543.88,-122"/>
<text text-anchor="middle" x="464" y="-99.8" font-family="Times,serif" font-size="14.00">ContainerRoutingModule</text>
</g>
<!-- ContainerRoutingModule&#45;&gt;ContainerModule -->
<g id="edge2" class="edge">
<title>ContainerRoutingModule&#45;&gt;ContainerModule</title>
<path fill="none" stroke="black" d="M517.93,-122.24C517.93,-137.57 517.93,-157 517.93,-157 517.93,-157 663.62,-157 663.62,-157"/>
<polygon fill="black" stroke="black" points="663.62,-160.5 673.62,-157 663.62,-153.5 663.62,-160.5"/>
</g>
<!-- FeatureModule -->
<g id="node4" class="node">
<title>FeatureModule</title>
<polygon fill="#8dd3c7" stroke="black" points="365.53,-122 362.53,-126 341.53,-126 338.53,-122 264.47,-122 264.47,-86 365.53,-86 365.53,-122"/>
<text text-anchor="middle" x="315" y="-99.8" font-family="Times,serif" font-size="14.00">FeatureModule</text>
</g>
<!-- FeatureModule&#45;&gt;ContainerModule -->
<g id="edge3" class="edge">
<title>FeatureModule&#45;&gt;ContainerModule</title>
<path fill="none" stroke="black" d="M315,-122.02C315,-139.37 315,-163 315,-163 315,-163 663.59,-163 663.59,-163"/>
<polygon fill="black" stroke="black" points="663.59,-166.5 673.59,-163 663.59,-159.5 663.59,-166.5"/>
</g>
<!-- HeaderModule -->
<g id="node5" class="node">
<title>HeaderModule</title>
<polygon fill="#8dd3c7" stroke="black" points="245.96,-122 242.96,-126 221.96,-126 218.96,-122 146.04,-122 146.04,-86 245.96,-86 245.96,-122"/>
<text text-anchor="middle" x="196" y="-99.8" font-family="Times,serif" font-size="14.00">HeaderModule</text>
</g>
<!-- HeaderModule&#45;&gt;ContainerModule -->
<g id="edge4" class="edge">
<title>HeaderModule&#45;&gt;ContainerModule</title>
<path fill="none" stroke="black" d="M196,-122.11C196,-141.34 196,-169 196,-169 196,-169 663.49,-169 663.49,-169"/>
<polygon fill="black" stroke="black" points="663.49,-172.5 673.49,-169 663.49,-165.5 663.49,-172.5"/>
</g>
<!-- SidenavModule -->
<g id="node6" class="node">
<title>SidenavModule</title>
<polygon fill="#8dd3c7" stroke="black" points="128.15,-122 125.15,-126 104.15,-126 101.15,-122 23.85,-122 23.85,-86 128.15,-86 128.15,-122"/>
<text text-anchor="middle" x="76" y="-99.8" font-family="Times,serif" font-size="14.00">SidenavModule</text>
</g>
<!-- SidenavModule&#45;&gt;ContainerModule -->
<g id="edge5" class="edge">
<title>SidenavModule&#45;&gt;ContainerModule</title>
<path fill="none" stroke="black" d="M76,-122.28C76,-143.32 76,-175 76,-175 76,-175 663.73,-175 663.73,-175"/>
<polygon fill="black" stroke="black" points="663.73,-178.5 673.73,-175 663.73,-171.5 663.73,-178.5"/>
</g>
<!-- ApplicationService -->
<g id="node11" class="node">
<title>ApplicationService</title>
<ellipse fill="#fdb462" stroke="black" cx="1406" cy="-104" rx="85.67" ry="18"/>
<text text-anchor="middle" x="1406" y="-99.8" font-family="Times,serif" font-size="14.00">ApplicationService</text>
</g>
<!-- ApplicationService&#45;&gt;ContainerModule -->
<g id="edge10" class="edge">
<title>ApplicationService&#45;&gt;ContainerModule</title>
<path fill="none" stroke="black" d="M1406,-122.11C1406,-141.34 1406,-169 1406,-169 1406,-169 798.26,-169 798.26,-169"/>
<polygon fill="black" stroke="black" points="798.26,-165.5 788.26,-169 798.26,-172.5 798.26,-165.5"/>
</g>
<!-- ExceptionInterceptor -->
<g id="node12" class="node">
<title>ExceptionInterceptor</title>
<ellipse fill="#fdb462" stroke="black" cx="1210" cy="-104" rx="92.6" ry="18"/>
<text text-anchor="middle" x="1210" y="-99.8" font-family="Times,serif" font-size="14.00">ExceptionInterceptor</text>
</g>
<!-- ExceptionInterceptor&#45;&gt;ContainerModule -->
<g id="edge11" class="edge">
<title>ExceptionInterceptor&#45;&gt;ContainerModule</title>
<path fill="none" stroke="black" d="M1210,-122.02C1210,-139.37 1210,-163 1210,-163 1210,-163 798.3,-163 798.3,-163"/>
<polygon fill="black" stroke="black" points="798.3,-159.5 788.3,-163 798.3,-166.5 798.3,-159.5"/>
</g>
<!-- RequestInterceptor -->
<g id="node13" class="node">
<title>RequestInterceptor</title>
<ellipse fill="#fdb462" stroke="black" cx="1015" cy="-104" rx="84.51" ry="18"/>
<text text-anchor="middle" x="1015" y="-99.8" font-family="Times,serif" font-size="14.00">RequestInterceptor</text>
</g>
<!-- RequestInterceptor&#45;&gt;ContainerModule -->
<g id="edge12" class="edge">
<title>RequestInterceptor&#45;&gt;ContainerModule</title>
<path fill="none" stroke="black" d="M966.76,-119.05C966.76,-134.72 966.76,-157 966.76,-157 966.76,-157 798.37,-157 798.37,-157"/>
<polygon fill="black" stroke="black" points="798.37,-153.5 788.37,-157 798.37,-160.5 798.37,-153.5"/>
</g>
<!-- ResponseInterceptor -->
<g id="node14" class="node">
<title>ResponseInterceptor</title>
<ellipse fill="#fdb462" stroke="black" cx="822" cy="-104" rx="90.31" ry="18"/>
<text text-anchor="middle" x="822" y="-99.8" font-family="Times,serif" font-size="14.00">ResponseInterceptor</text>
</g>
<!-- ResponseInterceptor&#45;&gt;ContainerModule -->
<g id="edge13" class="edge">
<title>ResponseInterceptor&#45;&gt;ContainerModule</title>
<path fill="none" stroke="black" d="M759.99,-117.15C759.99,-117.15 759.99,-140.69 759.99,-140.69"/>
<polygon fill="black" stroke="black" points="756.49,-140.69 759.99,-150.69 763.49,-140.69 756.49,-140.69"/>
</g>
<!-- WeatherService -->
<g id="node15" class="node">
<title>WeatherService</title>
<ellipse fill="#fdb462" stroke="black" cx="641" cy="-104" rx="72.89" ry="18"/>
<text text-anchor="middle" x="641" y="-99.8" font-family="Times,serif" font-size="14.00">WeatherService</text>
</g>
<!-- WeatherService&#45;&gt;ContainerModule -->
<g id="edge14" class="edge">
<title>WeatherService&#45;&gt;ContainerModule</title>
<path fill="none" stroke="black" d="M693.66,-116.53C693.66,-116.53 693.66,-140.85 693.66,-140.85"/>
<polygon fill="black" stroke="black" points="690.16,-140.85 693.66,-150.85 697.16,-140.85 690.16,-140.85"/>
</g>
</g>
</svg>
