<?xml version="1.0" encoding="UTF-8" standalone="no"?>
<!DOCTYPE svg PUBLIC "-//W3C//DTD SVG 1.1//EN"
 "http://www.w3.org/Graphics/SVG/1.1/DTD/svg11.dtd">
<!-- Generated by graphviz version 2.44.1 (20200629.0846)
 -->
<!-- Title: dependencies Pages: 1 -->
<svg width="1601pt" height="284pt"
 viewBox="0.00 0.00 1601.00 284.00" xmlns="http://www.w3.org/2000/svg" xmlns:xlink="http://www.w3.org/1999/xlink">
<g id="graph0" class="graph" transform="scale(1 1) rotate(0) translate(4 280)">
<title>dependencies</title>
<polygon fill="white" stroke="transparent" points="-4,4 -4,-280 1597,-280 1597,4 -4,4"/>
<text text-anchor="start" x="775.51" y="-42.4" font-family="sans-serif" font-weight="bold" font-size="14.00">Legend</text>
<polygon fill="#ffffb3" stroke="transparent" points="562.5,-10 562.5,-30 582.5,-30 582.5,-10 562.5,-10"/>
<text text-anchor="start" x="586.13" y="-15.4" font-family="sans-serif" font-size="14.00"> &#160;Declarations</text>
<polygon fill="#8dd3c7" stroke="transparent" points="675.5,-10 675.5,-30 695.5,-30 695.5,-10 675.5,-10"/>
<text text-anchor="start" x="699.23" y="-15.4" font-family="sans-serif" font-size="14.00"> &#160;Module</text>
<polygon fill="#80b1d3" stroke="transparent" points="761.5,-10 761.5,-30 781.5,-30 781.5,-10 761.5,-10"/>
<text text-anchor="start" x="785.28" y="-15.4" font-family="sans-serif" font-size="14.00"> &#160;Bootstrap</text>
<polygon fill="#fdb462" stroke="transparent" points="858.5,-10 858.5,-30 878.5,-30 878.5,-10 858.5,-10"/>
<text text-anchor="start" x="882.17" y="-15.4" font-family="sans-serif" font-size="14.00"> &#160;Providers</text>
<polygon fill="#fb8072" stroke="transparent" points="954.5,-10 954.5,-30 974.5,-30 974.5,-10 954.5,-10"/>
<text text-anchor="start" x="978.23" y="-15.4" font-family="sans-serif" font-size="14.00"> &#160;Exports</text>
<g id="clust1" class="cluster">
<title>cluster_ContainerModule</title>
<polygon fill="none" stroke="black" stroke-dasharray="1,5" points="8,-70 8,-268 1585,-268 1585,-70 8,-70"/>
</g>
<g id="clust5" class="cluster">
<title>cluster_ContainerModule_exports</title>
<polygon fill="none" stroke="black" points="363,-208 363,-260 1009,-260 1009,-208 363,-208"/>
</g>
<g id="clust2" class="cluster">
<title>cluster_ContainerModule_declarations</title>
<polygon fill="none" stroke="black" points="1425,-78 1425,-130 1577,-130 1577,-78 1425,-78"/>
</g>
<g id="clust7" class="cluster">
<title>cluster_ContainerModule_providers</title>
<polygon fill="none" stroke="black" points="676,-78 676,-130 1417,-130 1417,-78 676,-78"/>
</g>
<g id="clust4" class="cluster">
<title>cluster_ContainerModule_imports</title>
<polygon fill="none" stroke="black" points="16,-78 16,-130 668,-130 668,-78 16,-78"/>
</g>
<!-- ContainerComponent -->
<g id="node1" class="node">
<title>ContainerComponent</title>
<polygon fill="#ffffb3" stroke="black" points="1569.04,-122 1432.96,-122 1432.96,-86 1569.04,-86 1569.04,-122"/>
<text text-anchor="middle" x="1501" y="-99.8" font-family="Times,serif" font-size="14.00">ContainerComponent</text>
</g>
<!-- ContainerModule -->
<g id="node2" class="node">
<title>ContainerModule</title>
<polygon fill="#8dd3c7" stroke="black" points="725.26,-187 722.26,-191 701.26,-191 698.26,-187 610.74,-187 610.74,-151 725.26,-151 725.26,-187"/>
<text text-anchor="middle" x="668" y="-164.8" font-family="Times,serif" font-size="14.00">ContainerModule</text>
</g>
<!-- ContainerComponent&#45;&gt;ContainerModule -->
<g id="edge1" class="edge">
<title>ContainerComponent&#45;&gt;ContainerModule</title>
<path fill="none" stroke="black" d="M1501,-122.22C1501,-142.37 1501,-172 1501,-172 1501,-172 735.58,-172 735.58,-172"/>
<polygon fill="black" stroke="black" points="735.58,-168.5 725.58,-172 735.58,-175.5 735.58,-168.5"/>
</g>
<!-- ContainerComponent  -->
<g id="node8" class="node">
<title>ContainerComponent </title>
<polygon fill="#fb8072" stroke="black" points="1001.04,-252 860.96,-252 860.96,-216 1001.04,-216 1001.04,-252"/>
<text text-anchor="middle" x="931" y="-229.8" font-family="Times,serif" font-size="14.00">ContainerComponent </text>
</g>
<!-- ContainerModule&#45;&gt;ContainerComponent  -->
<g id="edge7" class="edge">
<title>ContainerModule&#45;&gt;ContainerComponent </title>
<path fill="none" stroke="black" stroke-dasharray="5,2" d="M725.39,-177C802.78,-177 931,-177 931,-177 931,-177 931,-205.96 931,-205.96"/>
<polygon fill="black" stroke="black" points="927.5,-205.96 931,-215.96 934.5,-205.96 927.5,-205.96"/>
</g>
<!-- FeatureModule  -->
<g id="node9" class="node">
<title>FeatureModule </title>
<polygon fill="#fb8072" stroke="black" points="842.53,-252 737.47,-252 737.47,-216 842.53,-216 842.53,-252"/>
<text text-anchor="middle" x="790" y="-229.8" font-family="Times,serif" font-size="14.00">FeatureModule </text>
</g>
<!-- ContainerModule&#45;&gt;FeatureModule  -->
<g id="edge8" class="edge">
<title>ContainerModule&#45;&gt;FeatureModule </title>
<path fill="none" stroke="black" stroke-dasharray="5,2" d="M725.46,-182C754.47,-182 783.59,-182 783.59,-182 783.59,-182 783.59,-205.81 783.59,-205.81"/>
<polygon fill="black" stroke="black" points="780.09,-205.81 783.59,-215.81 787.09,-205.81 780.09,-205.81"/>
</g>
<!-- HeaderModule  -->
<g id="node10" class="node">
<title>HeaderModule </title>
<polygon fill="#fb8072" stroke="black" points="719.96,-252 616.04,-252 616.04,-216 719.96,-216 719.96,-252"/>
<text text-anchor="middle" x="668" y="-229.8" font-family="Times,serif" font-size="14.00">HeaderModule </text>
</g>
<!-- ContainerModule&#45;&gt;HeaderModule  -->
<g id="edge9" class="edge">
<title>ContainerModule&#45;&gt;HeaderModule </title>
<path fill="none" stroke="black" stroke-dasharray="5,2" d="M668,-187.11C668,-187.11 668,-205.99 668,-205.99"/>
<polygon fill="black" stroke="black" points="664.5,-205.99 668,-215.99 671.5,-205.99 664.5,-205.99"/>
</g>
<!-- SearchModule  -->
<g id="node11" class="node">
<title>SearchModule </title>
<polygon fill="#fb8072" stroke="black" points="598.64,-252 497.36,-252 497.36,-216 598.64,-216 598.64,-252"/>
<text text-anchor="middle" x="548" y="-229.8" font-family="Times,serif" font-size="14.00">SearchModule </text>
</g>
<!-- ContainerModule&#45;&gt;SearchModule  -->
<g id="edge10" class="edge">
<title>ContainerModule&#45;&gt;SearchModule </title>
<path fill="none" stroke="black" stroke-dasharray="5,2" d="M610.4,-182C580.16,-182 549.32,-182 549.32,-182 549.32,-182 549.32,-205.81 549.32,-205.81"/>
<polygon fill="black" stroke="black" points="545.82,-205.81 549.32,-215.81 552.82,-205.81 545.82,-205.81"/>
</g>
<!-- SidenavModule  -->
<g id="node12" class="node">
<title>SidenavModule </title>
<polygon fill="#fb8072" stroke="black" points="479.15,-252 370.85,-252 370.85,-216 479.15,-216 479.15,-252"/>
<text text-anchor="middle" x="425" y="-229.8" font-family="Times,serif" font-size="14.00">SidenavModule </text>
</g>
<!-- ContainerModule&#45;&gt;SidenavModule  -->
<g id="edge11" class="edge">
<title>ContainerModule&#45;&gt;SidenavModule </title>
<path fill="none" stroke="black" stroke-dasharray="5,2" d="M610.5,-177C535.34,-177 413.18,-177 413.18,-177 413.18,-177 413.18,-205.96 413.18,-205.96"/>
<polygon fill="black" stroke="black" points="409.68,-205.96 413.18,-215.96 416.68,-205.96 409.68,-205.96"/>
</g>
<!-- ContainerRoutingModule -->
<g id="node3" class="node">
<title>ContainerRoutingModule</title>
<polygon fill="#8dd3c7" stroke="black" points="659.88,-122 656.88,-126 635.88,-126 632.88,-122 500.12,-122 500.12,-86 659.88,-86 659.88,-122"/>
<text text-anchor="middle" x="580" y="-99.8" font-family="Times,serif" font-size="14.00">ContainerRoutingModule</text>
</g>
<!-- ContainerRoutingModule&#45;&gt;ContainerModule -->
<g id="edge2" class="edge">
<title>ContainerRoutingModule&#45;&gt;ContainerModule</title>
<path fill="none" stroke="black" d="M635.28,-122.11C635.28,-122.11 635.28,-140.99 635.28,-140.99"/>
<polygon fill="black" stroke="black" points="631.78,-140.99 635.28,-150.99 638.78,-140.99 631.78,-140.99"/>
</g>
<!-- FeatureModule -->
<g id="node4" class="node">
<title>FeatureModule</title>
<polygon fill="#8dd3c7" stroke="black" points="481.53,-122 478.53,-126 457.53,-126 454.53,-122 380.47,-122 380.47,-86 481.53,-86 481.53,-122"/>
<text text-anchor="middle" x="431" y="-99.8" font-family="Times,serif" font-size="14.00">FeatureModule</text>
</g>
<!-- FeatureModule&#45;&gt;ContainerModule -->
<g id="edge3" class="edge">
<title>FeatureModule&#45;&gt;ContainerModule</title>
<path fill="none" stroke="black" d="M446.13,-122.24C446.13,-137.57 446.13,-157 446.13,-157 446.13,-157 600.57,-157 600.57,-157"/>
<polygon fill="black" stroke="black" points="600.57,-160.5 610.57,-157 600.57,-153.5 600.57,-160.5"/>
</g>
<!-- HeaderModule -->
<g id="node5" class="node">
<title>HeaderModule</title>
<polygon fill="#8dd3c7" stroke="black" points="361.96,-122 358.96,-126 337.96,-126 334.96,-122 262.04,-122 262.04,-86 361.96,-86 361.96,-122"/>
<text text-anchor="middle" x="312" y="-99.8" font-family="Times,serif" font-size="14.00">HeaderModule</text>
</g>
<!-- HeaderModule&#45;&gt;ContainerModule -->
<g id="edge4" class="edge">
<title>HeaderModule&#45;&gt;ContainerModule</title>
<path fill="none" stroke="black" d="M312,-122.03C312,-139.06 312,-162 312,-162 312,-162 600.41,-162 600.41,-162"/>
<polygon fill="black" stroke="black" points="600.41,-165.5 610.41,-162 600.41,-158.5 600.41,-165.5"/>
</g>
<!-- SearchModule -->
<g id="node6" class="node">
<title>SearchModule</title>
<polygon fill="#8dd3c7" stroke="black" points="243.64,-122 240.64,-126 219.64,-126 216.64,-122 146.36,-122 146.36,-86 243.64,-86 243.64,-122"/>
<text text-anchor="middle" x="195" y="-99.8" font-family="Times,serif" font-size="14.00">SearchModule</text>
</g>
<!-- SearchModule&#45;&gt;ContainerModule -->
<g id="edge5" class="edge">
<title>SearchModule&#45;&gt;ContainerModule</title>
<path fill="none" stroke="black" d="M195,-122.22C195,-140.83 195,-167 195,-167 195,-167 600.47,-167 600.47,-167"/>
<polygon fill="black" stroke="black" points="600.47,-170.5 610.47,-167 600.47,-163.5 600.47,-170.5"/>
</g>
<!-- SidenavModule -->
<g id="node7" class="node">
<title>SidenavModule</title>
<polygon fill="#8dd3c7" stroke="black" points="128.15,-122 125.15,-126 104.15,-126 101.15,-122 23.85,-122 23.85,-86 128.15,-86 128.15,-122"/>
<text text-anchor="middle" x="76" y="-99.8" font-family="Times,serif" font-size="14.00">SidenavModule</text>
</g>
<!-- SidenavModule&#45;&gt;ContainerModule -->
<g id="edge6" class="edge">
<title>SidenavModule&#45;&gt;ContainerModule</title>
<path fill="none" stroke="black" d="M76,-122.22C76,-142.37 76,-172 76,-172 76,-172 600.7,-172 600.7,-172"/>
<polygon fill="black" stroke="black" points="600.7,-175.5 610.7,-172 600.7,-168.5 600.7,-175.5"/>
</g>
<!-- ApplicationService -->
<g id="node13" class="node">
<title>ApplicationService</title>
<ellipse fill="#fdb462" stroke="black" cx="1323" cy="-104" rx="85.67" ry="18"/>
<text text-anchor="middle" x="1323" y="-99.8" font-family="Times,serif" font-size="14.00">ApplicationService</text>
</g>
<!-- ApplicationService&#45;&gt;ContainerModule -->
<g id="edge12" class="edge">
<title>ApplicationService&#45;&gt;ContainerModule</title>
<path fill="none" stroke="black" d="M1323,-122.22C1323,-140.83 1323,-167 1323,-167 1323,-167 735.27,-167 735.27,-167"/>
<polygon fill="black" stroke="black" points="735.27,-163.5 725.27,-167 735.27,-170.5 735.27,-163.5"/>
</g>
<!-- ExceptionInterceptor -->
<g id="node14" class="node">
<title>ExceptionInterceptor</title>
<ellipse fill="#fdb462" stroke="black" cx="1127" cy="-104" rx="92.6" ry="18"/>
<text text-anchor="middle" x="1127" y="-99.8" font-family="Times,serif" font-size="14.00">ExceptionInterceptor</text>
</g>
<!-- ExceptionInterceptor&#45;&gt;ContainerModule -->
<g id="edge13" class="edge">
<title>ExceptionInterceptor&#45;&gt;ContainerModule</title>
<path fill="none" stroke="black" d="M1127,-122.03C1127,-139.06 1127,-162 1127,-162 1127,-162 735.67,-162 735.67,-162"/>
<polygon fill="black" stroke="black" points="735.67,-158.5 725.67,-162 735.67,-165.5 735.67,-158.5"/>
</g>
<!-- RequestInterceptor -->
<g id="node15" class="node">
<title>RequestInterceptor</title>
<ellipse fill="#fdb462" stroke="black" cx="932" cy="-104" rx="84.51" ry="18"/>
<text text-anchor="middle" x="932" y="-99.8" font-family="Times,serif" font-size="14.00">RequestInterceptor</text>
</g>
<!-- RequestInterceptor&#45;&gt;ContainerModule -->
<g id="edge14" class="edge">
<title>RequestInterceptor&#45;&gt;ContainerModule</title>
<path fill="none" stroke="black" d="M854.24,-111.37C854.24,-125.93 854.24,-157 854.24,-157 854.24,-157 735.4,-157 735.4,-157"/>
<polygon fill="black" stroke="black" points="735.4,-153.5 725.4,-157 735.4,-160.5 735.4,-153.5"/>
</g>
<!-- WeatherService -->
<g id="node16" class="node">
<title>WeatherService</title>
<ellipse fill="#fdb462" stroke="black" cx="757" cy="-104" rx="72.89" ry="18"/>
<text text-anchor="middle" x="757" y="-99.8" font-family="Times,serif" font-size="14.00">WeatherService</text>
</g>
<!-- WeatherService&#45;&gt;ContainerModule -->
<g id="edge15" class="edge">
<title>WeatherService&#45;&gt;ContainerModule</title>
<path fill="none" stroke="black" d="M704.84,-116.84C704.84,-116.84 704.84,-140.52 704.84,-140.52"/>
<polygon fill="black" stroke="black" points="701.34,-140.52 704.84,-150.52 708.34,-140.52 701.34,-140.52"/>
</g>
</g>
</svg>
