<?xml version="1.0" encoding="UTF-8" standalone="no"?>
<!DOCTYPE svg PUBLIC "-//W3C//DTD SVG 1.1//EN"
 "http://www.w3.org/Graphics/SVG/1.1/DTD/svg11.dtd">
<!-- Generated by graphviz version 2.44.1 (20200629.0846)
 -->
<!-- Title: dependencies Pages: 1 -->
<svg width="1800pt" height="284pt"
 viewBox="0.00 0.00 1800.00 284.00" xmlns="http://www.w3.org/2000/svg" xmlns:xlink="http://www.w3.org/1999/xlink">
<g id="graph0" class="graph" transform="scale(1 1) rotate(0) translate(4 280)">
<title>dependencies</title>
<polygon fill="white" stroke="transparent" points="-4,4 -4,-280 1796,-280 1796,4 -4,4"/>
<text text-anchor="start" x="875.01" y="-42.4" font-family="sans-serif" font-weight="bold" font-size="14.00">Legend</text>
<polygon fill="#ffffb3" stroke="transparent" points="662,-10 662,-30 682,-30 682,-10 662,-10"/>
<text text-anchor="start" x="685.63" y="-15.4" font-family="sans-serif" font-size="14.00"> &#160;Declarations</text>
<polygon fill="#8dd3c7" stroke="transparent" points="775,-10 775,-30 795,-30 795,-10 775,-10"/>
<text text-anchor="start" x="798.73" y="-15.4" font-family="sans-serif" font-size="14.00"> &#160;Module</text>
<polygon fill="#80b1d3" stroke="transparent" points="861,-10 861,-30 881,-30 881,-10 861,-10"/>
<text text-anchor="start" x="884.78" y="-15.4" font-family="sans-serif" font-size="14.00"> &#160;Bootstrap</text>
<polygon fill="#fdb462" stroke="transparent" points="958,-10 958,-30 978,-30 978,-10 958,-10"/>
<text text-anchor="start" x="981.67" y="-15.4" font-family="sans-serif" font-size="14.00"> &#160;Providers</text>
<polygon fill="#fb8072" stroke="transparent" points="1054,-10 1054,-30 1074,-30 1074,-10 1054,-10"/>
<text text-anchor="start" x="1077.73" y="-15.4" font-family="sans-serif" font-size="14.00"> &#160;Exports</text>
<g id="clust1" class="cluster">
<title>cluster_ContainerModule</title>
<polygon fill="none" stroke="black" stroke-dasharray="1,5" points="8,-70 8,-268 1784,-268 1784,-70 8,-70"/>
</g>
<g id="clust7" class="cluster">
<title>cluster_ContainerModule_providers</title>
<polygon fill="none" stroke="black" points="836,-78 836,-130 1776,-130 1776,-78 836,-78"/>
</g>
<g id="clust2" class="cluster">
<title>cluster_ContainerModule_declarations</title>
<polygon fill="none" stroke="black" points="676,-78 676,-130 828,-130 828,-78 676,-78"/>
</g>
<g id="clust5" class="cluster">
<title>cluster_ContainerModule_exports</title>
<polygon fill="none" stroke="black" points="447,-208 447,-260 1093,-260 1093,-208 447,-208"/>
</g>
<g id="clust4" class="cluster">
<title>cluster_ContainerModule_imports</title>
<polygon fill="none" stroke="black" points="16,-78 16,-130 668,-130 668,-78 16,-78"/>
</g>
<!-- ContainerComponent -->
<g id="node1" class="node">
<title>ContainerComponent</title>
<polygon fill="#ffffb3" stroke="black" points="820.04,-122 683.96,-122 683.96,-86 820.04,-86 820.04,-122"/>
<text text-anchor="middle" x="752" y="-99.8" font-family="Times,serif" font-size="14.00">ContainerComponent</text>
</g>
<!-- ContainerModule -->
<g id="node2" class="node">
<title>ContainerModule</title>
<polygon fill="#8dd3c7" stroke="black" points="809.26,-187 806.26,-191 785.26,-191 782.26,-187 694.74,-187 694.74,-151 809.26,-151 809.26,-187"/>
<text text-anchor="middle" x="752" y="-164.8" font-family="Times,serif" font-size="14.00">ContainerModule</text>
</g>
<!-- ContainerComponent&#45;&gt;ContainerModule -->
<g id="edge1" class="edge">
<title>ContainerComponent&#45;&gt;ContainerModule</title>
<path fill="none" stroke="black" d="M752,-122.11C752,-122.11 752,-140.99 752,-140.99"/>
<polygon fill="black" stroke="black" points="748.5,-140.99 752,-150.99 755.5,-140.99 748.5,-140.99"/>
</g>
<!-- ContainerComponent  -->
<g id="node8" class="node">
<title>ContainerComponent </title>
<polygon fill="#fb8072" stroke="black" points="1085.04,-252 944.96,-252 944.96,-216 1085.04,-216 1085.04,-252"/>
<text text-anchor="middle" x="1015" y="-229.8" font-family="Times,serif" font-size="14.00">ContainerComponent </text>
</g>
<!-- ContainerModule&#45;&gt;ContainerComponent  -->
<g id="edge7" class="edge">
<title>ContainerModule&#45;&gt;ContainerComponent </title>
<path fill="none" stroke="black" stroke-dasharray="5,2" d="M809.42,-178C873.21,-178 967.34,-178 967.34,-178 967.34,-178 967.34,-205.97 967.34,-205.97"/>
<polygon fill="black" stroke="black" points="963.84,-205.97 967.34,-215.97 970.84,-205.97 963.84,-205.97"/>
</g>
<!-- FeatureModule  -->
<g id="node9" class="node">
<title>FeatureModule </title>
<polygon fill="#fb8072" stroke="black" points="926.53,-252 821.47,-252 821.47,-216 926.53,-216 926.53,-252"/>
<text text-anchor="middle" x="874" y="-229.8" font-family="Times,serif" font-size="14.00">FeatureModule </text>
</g>
<!-- ContainerModule&#45;&gt;FeatureModule  -->
<g id="edge8" class="edge">
<title>ContainerModule&#45;&gt;FeatureModule </title>
<path fill="none" stroke="black" stroke-dasharray="5,2" d="M809.5,-183C822.67,-183 832.9,-183 832.9,-183 832.9,-183 832.9,-205.88 832.9,-205.88"/>
<polygon fill="black" stroke="black" points="829.4,-205.88 832.9,-215.88 836.4,-205.88 829.4,-205.88"/>
</g>
<!-- HeaderModule  -->
<g id="node10" class="node">
<title>HeaderModule </title>
<polygon fill="#fb8072" stroke="black" points="803.96,-252 700.04,-252 700.04,-216 803.96,-216 803.96,-252"/>
<text text-anchor="middle" x="752" y="-229.8" font-family="Times,serif" font-size="14.00">HeaderModule </text>
</g>
<!-- ContainerModule&#45;&gt;HeaderModule  -->
<g id="edge9" class="edge">
<title>ContainerModule&#45;&gt;HeaderModule </title>
<path fill="none" stroke="black" stroke-dasharray="5,2" d="M752,-187.11C752,-187.11 752,-205.99 752,-205.99"/>
<polygon fill="black" stroke="black" points="748.5,-205.99 752,-215.99 755.5,-205.99 748.5,-205.99"/>
</g>
<!-- SearchModule  -->
<g id="node11" class="node">
<title>SearchModule </title>
<polygon fill="#fb8072" stroke="black" points="682.64,-252 581.36,-252 581.36,-216 682.64,-216 682.64,-252"/>
<text text-anchor="middle" x="632" y="-229.8" font-family="Times,serif" font-size="14.00">SearchModule </text>
</g>
<!-- ContainerModule&#45;&gt;SearchModule  -->
<g id="edge10" class="edge">
<title>ContainerModule&#45;&gt;SearchModule </title>
<path fill="none" stroke="black" stroke-dasharray="5,2" d="M694.61,-183C681.46,-183 671.25,-183 671.25,-183 671.25,-183 671.25,-205.88 671.25,-205.88"/>
<polygon fill="black" stroke="black" points="667.75,-205.88 671.25,-215.88 674.75,-205.88 667.75,-205.88"/>
</g>
<!-- SidenavModule  -->
<g id="node12" class="node">
<title>SidenavModule </title>
<polygon fill="#fb8072" stroke="black" points="563.15,-252 454.85,-252 454.85,-216 563.15,-216 563.15,-252"/>
<text text-anchor="middle" x="509" y="-229.8" font-family="Times,serif" font-size="14.00">SidenavModule </text>
</g>
<!-- ContainerModule&#45;&gt;SidenavModule  -->
<g id="edge11" class="edge">
<title>ContainerModule&#45;&gt;SidenavModule </title>
<path fill="none" stroke="black" stroke-dasharray="5,2" d="M694.66,-178C629.35,-178 531.57,-178 531.57,-178 531.57,-178 531.57,-205.97 531.57,-205.97"/>
<polygon fill="black" stroke="black" points="528.07,-205.97 531.57,-215.97 535.07,-205.97 528.07,-205.97"/>
</g>
<!-- ContainerRoutingModule -->
<g id="node3" class="node">
<title>ContainerRoutingModule</title>
<polygon fill="#8dd3c7" stroke="black" points="659.88,-122 656.88,-126 635.88,-126 632.88,-122 500.12,-122 500.12,-86 659.88,-86 659.88,-122"/>
<text text-anchor="middle" x="580" y="-99.8" font-family="Times,serif" font-size="14.00">ContainerRoutingModule</text>
</g>
<!-- ContainerRoutingModule&#45;&gt;ContainerModule -->
<g id="edge2" class="edge">
<title>ContainerRoutingModule&#45;&gt;ContainerModule</title>
<path fill="none" stroke="black" d="M620.68,-122.19C620.68,-137.18 620.68,-156 620.68,-156 620.68,-156 684.4,-156 684.4,-156"/>
<polygon fill="black" stroke="black" points="684.4,-159.5 694.4,-156 684.4,-152.5 684.4,-159.5"/>
</g>
<!-- FeatureModule -->
<g id="node4" class="node">
<title>FeatureModule</title>
<polygon fill="#8dd3c7" stroke="black" points="481.53,-122 478.53,-126 457.53,-126 454.53,-122 380.47,-122 380.47,-86 481.53,-86 481.53,-122"/>
<text text-anchor="middle" x="431" y="-99.8" font-family="Times,serif" font-size="14.00">FeatureModule</text>
</g>
<!-- FeatureModule&#45;&gt;ContainerModule -->
<g id="edge3" class="edge">
<title>FeatureModule&#45;&gt;ContainerModule</title>
<path fill="none" stroke="black" d="M468.34,-122.03C468.34,-138.4 468.34,-160 468.34,-160 468.34,-160 684.6,-160 684.6,-160"/>
<polygon fill="black" stroke="black" points="684.6,-163.5 694.6,-160 684.6,-156.5 684.6,-163.5"/>
</g>
<!-- HeaderModule -->
<g id="node5" class="node">
<title>HeaderModule</title>
<polygon fill="#8dd3c7" stroke="black" points="361.96,-122 358.96,-126 337.96,-126 334.96,-122 262.04,-122 262.04,-86 361.96,-86 361.96,-122"/>
<text text-anchor="middle" x="312" y="-99.8" font-family="Times,serif" font-size="14.00">HeaderModule</text>
</g>
<!-- HeaderModule&#45;&gt;ContainerModule -->
<g id="edge4" class="edge">
<title>HeaderModule&#45;&gt;ContainerModule</title>
<path fill="none" stroke="black" d="M312,-122.3C312,-140.27 312,-165 312,-165 312,-165 684.48,-165 684.48,-165"/>
<polygon fill="black" stroke="black" points="684.48,-168.5 694.48,-165 684.48,-161.5 684.48,-168.5"/>
</g>
<!-- SearchModule -->
<g id="node6" class="node">
<title>SearchModule</title>
<polygon fill="#8dd3c7" stroke="black" points="243.64,-122 240.64,-126 219.64,-126 216.64,-122 146.36,-122 146.36,-86 243.64,-86 243.64,-122"/>
<text text-anchor="middle" x="195" y="-99.8" font-family="Times,serif" font-size="14.00">SearchModule</text>
</g>
<!-- SearchModule&#45;&gt;ContainerModule -->
<g id="edge5" class="edge">
<title>SearchModule&#45;&gt;ContainerModule</title>
<path fill="none" stroke="black" d="M195,-122.11C195,-141.34 195,-169 195,-169 195,-169 684.49,-169 684.49,-169"/>
<polygon fill="black" stroke="black" points="684.49,-172.5 694.49,-169 684.49,-165.5 684.49,-172.5"/>
</g>
<!-- SidenavModule -->
<g id="node7" class="node">
<title>SidenavModule</title>
<polygon fill="#8dd3c7" stroke="black" points="128.15,-122 125.15,-126 104.15,-126 101.15,-122 23.85,-122 23.85,-86 128.15,-86 128.15,-122"/>
<text text-anchor="middle" x="76" y="-99.8" font-family="Times,serif" font-size="14.00">SidenavModule</text>
</g>
<!-- SidenavModule&#45;&gt;ContainerModule -->
<g id="edge6" class="edge">
<title>SidenavModule&#45;&gt;ContainerModule</title>
<path fill="none" stroke="black" d="M76,-122.03C76,-142.77 76,-174 76,-174 76,-174 684.66,-174 684.66,-174"/>
<polygon fill="black" stroke="black" points="684.66,-177.5 694.66,-174 684.66,-170.5 684.66,-177.5"/>
</g>
<!-- ApplicationService -->
<g id="node13" class="node">
<title>ApplicationService</title>
<ellipse fill="#fdb462" stroke="black" cx="1682" cy="-104" rx="85.67" ry="18"/>
<text text-anchor="middle" x="1682" y="-99.8" font-family="Times,serif" font-size="14.00">ApplicationService</text>
</g>
<!-- ApplicationService&#45;&gt;ContainerModule -->
<g id="edge12" class="edge">
<title>ApplicationService&#45;&gt;ContainerModule</title>
<path fill="none" stroke="black" d="M1682,-122.03C1682,-142.77 1682,-174 1682,-174 1682,-174 819.47,-174 819.47,-174"/>
<polygon fill="black" stroke="black" points="819.47,-170.5 809.47,-174 819.47,-177.5 819.47,-170.5"/>
</g>
<!-- ExceptionInterceptor -->
<g id="node14" class="node">
<title>ExceptionInterceptor</title>
<ellipse fill="#fdb462" stroke="black" cx="1486" cy="-104" rx="92.6" ry="18"/>
<text text-anchor="middle" x="1486" y="-99.8" font-family="Times,serif" font-size="14.00">ExceptionInterceptor</text>
</g>
<!-- ExceptionInterceptor&#45;&gt;ContainerModule -->
<g id="edge13" class="edge">
<title>ExceptionInterceptor&#45;&gt;ContainerModule</title>
<path fill="none" stroke="black" d="M1486,-122.11C1486,-141.34 1486,-169 1486,-169 1486,-169 819.29,-169 819.29,-169"/>
<polygon fill="black" stroke="black" points="819.29,-165.5 809.29,-169 819.29,-172.5 819.29,-165.5"/>
</g>
<!-- RequestInterceptor -->
<g id="node15" class="node">
<title>RequestInterceptor</title>
<ellipse fill="#fdb462" stroke="black" cx="1291" cy="-104" rx="84.51" ry="18"/>
<text text-anchor="middle" x="1291" y="-99.8" font-family="Times,serif" font-size="14.00">RequestInterceptor</text>
</g>
<!-- RequestInterceptor&#45;&gt;ContainerModule -->
<g id="edge14" class="edge">
<title>RequestInterceptor&#45;&gt;ContainerModule</title>
<path fill="none" stroke="black" d="M1291,-122.3C1291,-140.27 1291,-165 1291,-165 1291,-165 819.43,-165 819.43,-165"/>
<polygon fill="black" stroke="black" points="819.43,-161.5 809.43,-165 819.43,-168.5 819.43,-161.5"/>
</g>
<!-- ResponseInterceptor -->
<g id="node16" class="node">
<title>ResponseInterceptor</title>
<ellipse fill="#fdb462" stroke="black" cx="1098" cy="-104" rx="90.31" ry="18"/>
<text text-anchor="middle" x="1098" y="-99.8" font-family="Times,serif" font-size="14.00">ResponseInterceptor</text>
</g>
<!-- ResponseInterceptor&#45;&gt;ContainerModule -->
<g id="edge15" class="edge">
<title>ResponseInterceptor&#45;&gt;ContainerModule</title>
<path fill="none" stroke="black" d="M1046.31,-119.01C1046.31,-135.59 1046.31,-160 1046.31,-160 1046.31,-160 819.44,-160 819.44,-160"/>
<polygon fill="black" stroke="black" points="819.44,-156.5 809.44,-160 819.44,-163.5 819.44,-156.5"/>
</g>
<!-- WeatherService -->
<g id="node17" class="node">
<title>WeatherService</title>
<ellipse fill="#fdb462" stroke="black" cx="917" cy="-104" rx="72.89" ry="18"/>
<text text-anchor="middle" x="917" y="-99.8" font-family="Times,serif" font-size="14.00">WeatherService</text>
</g>
<!-- WeatherService&#45;&gt;ContainerModule -->
<g id="edge16" class="edge">
<title>WeatherService&#45;&gt;ContainerModule</title>
<path fill="none" stroke="black" d="M885.41,-120.45C885.41,-135.69 885.41,-156 885.41,-156 885.41,-156 819.35,-156 819.35,-156"/>
<polygon fill="black" stroke="black" points="819.35,-152.5 809.35,-156 819.35,-159.5 819.35,-152.5"/>
</g>
</g>
</svg>
