<?xml version="1.0" encoding="UTF-8" standalone="no"?>
<!DOCTYPE svg PUBLIC "-//W3C//DTD SVG 1.1//EN"
 "http://www.w3.org/Graphics/SVG/1.1/DTD/svg11.dtd">
<!-- Generated by graphviz version 2.44.1 (20200629.0846)
 -->
<!-- Title: dependencies Pages: 1 -->
<svg width="1601pt" height="284pt"
 viewBox="0.00 0.00 1601.00 284.00" xmlns="http://www.w3.org/2000/svg" xmlns:xlink="http://www.w3.org/1999/xlink">
<g id="graph0" class="graph" transform="scale(1 1) rotate(0) translate(4 280)">
<title>dependencies</title>
<polygon fill="white" stroke="transparent" points="-4,4 -4,-280 1597,-280 1597,4 -4,4"/>
<text text-anchor="start" x="775.51" y="-42.4" font-family="sans-serif" font-weight="bold" font-size="14.00">Legend</text>
<polygon fill="#ffffb3" stroke="transparent" points="562.5,-10 562.5,-30 582.5,-30 582.5,-10 562.5,-10"/>
<text text-anchor="start" x="586.13" y="-15.4" font-family="sans-serif" font-size="14.00"> &#160;Declarations</text>
<polygon fill="#8dd3c7" stroke="transparent" points="675.5,-10 675.5,-30 695.5,-30 695.5,-10 675.5,-10"/>
<text text-anchor="start" x="699.23" y="-15.4" font-family="sans-serif" font-size="14.00"> &#160;Module</text>
<polygon fill="#80b1d3" stroke="transparent" points="761.5,-10 761.5,-30 781.5,-30 781.5,-10 761.5,-10"/>
<text text-anchor="start" x="785.28" y="-15.4" font-family="sans-serif" font-size="14.00"> &#160;Bootstrap</text>
<polygon fill="#fdb462" stroke="transparent" points="858.5,-10 858.5,-30 878.5,-30 878.5,-10 858.5,-10"/>
<text text-anchor="start" x="882.17" y="-15.4" font-family="sans-serif" font-size="14.00"> &#160;Providers</text>
<polygon fill="#fb8072" stroke="transparent" points="954.5,-10 954.5,-30 974.5,-30 974.5,-10 954.5,-10"/>
<text text-anchor="start" x="978.23" y="-15.4" font-family="sans-serif" font-size="14.00"> &#160;Exports</text>
<g id="clust1" class="cluster">
<title>cluster_ContainerModule</title>
<polygon fill="none" stroke="black" stroke-dasharray="1,5" points="8,-70 8,-268 1585,-268 1585,-70 8,-70"/>
</g>
<g id="clust4" class="cluster">
<title>cluster_ContainerModule_imports</title>
<polygon fill="none" stroke="black" points="925,-78 925,-130 1577,-130 1577,-78 925,-78"/>
</g>
<g id="clust7" class="cluster">
<title>cluster_ContainerModule_providers</title>
<polygon fill="none" stroke="black" points="176,-78 176,-130 917,-130 917,-78 176,-78"/>
</g>
<g id="clust5" class="cluster">
<title>cluster_ContainerModule_exports</title>
<polygon fill="none" stroke="black" points="599,-208 599,-260 1245,-260 1245,-208 599,-208"/>
</g>
<g id="clust2" class="cluster">
<title>cluster_ContainerModule_declarations</title>
<polygon fill="none" stroke="black" points="16,-78 16,-130 168,-130 168,-78 16,-78"/>
</g>
<!-- ContainerComponent -->
<g id="node1" class="node">
<title>ContainerComponent</title>
<polygon fill="#ffffb3" stroke="black" points="160.04,-122 23.96,-122 23.96,-86 160.04,-86 160.04,-122"/>
<text text-anchor="middle" x="92" y="-99.8" font-family="Times,serif" font-size="14.00">ContainerComponent</text>
</g>
<!-- ContainerModule -->
<g id="node2" class="node">
<title>ContainerModule</title>
<polygon fill="#8dd3c7" stroke="black" points="961.26,-187 958.26,-191 937.26,-191 934.26,-187 846.74,-187 846.74,-151 961.26,-151 961.26,-187"/>
<text text-anchor="middle" x="904" y="-164.8" font-family="Times,serif" font-size="14.00">ContainerModule</text>
</g>
<!-- ContainerComponent&#45;&gt;ContainerModule -->
<g id="edge1" class="edge">
<title>ContainerComponent&#45;&gt;ContainerModule</title>
<path fill="none" stroke="black" d="M92,-122.22C92,-142.37 92,-172 92,-172 92,-172 836.58,-172 836.58,-172"/>
<polygon fill="black" stroke="black" points="836.58,-175.5 846.58,-172 836.58,-168.5 836.58,-175.5"/>
</g>
<!-- ContainerComponent  -->
<g id="node8" class="node">
<title>ContainerComponent </title>
<polygon fill="#fb8072" stroke="black" points="1237.04,-252 1096.96,-252 1096.96,-216 1237.04,-216 1237.04,-252"/>
<text text-anchor="middle" x="1167" y="-229.8" font-family="Times,serif" font-size="14.00">ContainerComponent </text>
</g>
<!-- ContainerModule&#45;&gt;ContainerComponent  -->
<g id="edge7" class="edge">
<title>ContainerModule&#45;&gt;ContainerComponent </title>
<path fill="none" stroke="black" stroke-dasharray="5,2" d="M961.46,-177C1026.91,-177 1124.9,-177 1124.9,-177 1124.9,-177 1124.9,-205.96 1124.9,-205.96"/>
<polygon fill="black" stroke="black" points="1121.4,-205.96 1124.9,-215.96 1128.4,-205.96 1121.4,-205.96"/>
</g>
<!-- FeatureModule  -->
<g id="node9" class="node">
<title>FeatureModule </title>
<polygon fill="#fb8072" stroke="black" points="1078.53,-252 973.47,-252 973.47,-216 1078.53,-216 1078.53,-252"/>
<text text-anchor="middle" x="1026" y="-229.8" font-family="Times,serif" font-size="14.00">FeatureModule </text>
</g>
<!-- ContainerModule&#45;&gt;FeatureModule  -->
<g id="edge8" class="edge">
<title>ContainerModule&#45;&gt;FeatureModule </title>
<path fill="none" stroke="black" stroke-dasharray="5,2" d="M961.52,-182C984.41,-182 1005.41,-182 1005.41,-182 1005.41,-182 1005.41,-205.81 1005.41,-205.81"/>
<polygon fill="black" stroke="black" points="1001.91,-205.81 1005.41,-215.81 1008.91,-205.81 1001.91,-205.81"/>
</g>
<!-- HeaderModule  -->
<g id="node10" class="node">
<title>HeaderModule </title>
<polygon fill="#fb8072" stroke="black" points="955.96,-252 852.04,-252 852.04,-216 955.96,-216 955.96,-252"/>
<text text-anchor="middle" x="904" y="-229.8" font-family="Times,serif" font-size="14.00">HeaderModule </text>
</g>
<!-- ContainerModule&#45;&gt;HeaderModule  -->
<g id="edge9" class="edge">
<title>ContainerModule&#45;&gt;HeaderModule </title>
<path fill="none" stroke="black" stroke-dasharray="5,2" d="M904,-187.11C904,-187.11 904,-205.99 904,-205.99"/>
<polygon fill="black" stroke="black" points="900.5,-205.99 904,-215.99 907.5,-205.99 900.5,-205.99"/>
</g>
<!-- SearchModule  -->
<g id="node11" class="node">
<title>SearchModule </title>
<polygon fill="#fb8072" stroke="black" points="834.64,-252 733.36,-252 733.36,-216 834.64,-216 834.64,-252"/>
<text text-anchor="middle" x="784" y="-229.8" font-family="Times,serif" font-size="14.00">SearchModule </text>
</g>
<!-- ContainerModule&#45;&gt;SearchModule  -->
<g id="edge10" class="edge">
<title>ContainerModule&#45;&gt;SearchModule </title>
<path fill="none" stroke="black" stroke-dasharray="5,2" d="M846.72,-182C816.66,-182 785.99,-182 785.99,-182 785.99,-182 785.99,-205.81 785.99,-205.81"/>
<polygon fill="black" stroke="black" points="782.49,-205.81 785.99,-215.81 789.49,-205.81 782.49,-205.81"/>
</g>
<!-- SidenavModule  -->
<g id="node12" class="node">
<title>SidenavModule </title>
<polygon fill="#fb8072" stroke="black" points="715.15,-252 606.85,-252 606.85,-216 715.15,-216 715.15,-252"/>
<text text-anchor="middle" x="661" y="-229.8" font-family="Times,serif" font-size="14.00">SidenavModule </text>
</g>
<!-- ContainerModule&#45;&gt;SidenavModule  -->
<g id="edge11" class="edge">
<title>ContainerModule&#45;&gt;SidenavModule </title>
<path fill="none" stroke="black" stroke-dasharray="5,2" d="M846.65,-177C779.99,-177 679.03,-177 679.03,-177 679.03,-177 679.03,-205.96 679.03,-205.96"/>
<polygon fill="black" stroke="black" points="675.53,-205.96 679.03,-215.96 682.53,-205.96 675.53,-205.96"/>
</g>
<!-- ContainerRoutingModule -->
<g id="node3" class="node">
<title>ContainerRoutingModule</title>
<polygon fill="#8dd3c7" stroke="black" points="1568.88,-122 1565.88,-126 1544.88,-126 1541.88,-122 1409.12,-122 1409.12,-86 1568.88,-86 1568.88,-122"/>
<text text-anchor="middle" x="1489" y="-99.8" font-family="Times,serif" font-size="14.00">ContainerRoutingModule</text>
</g>
<!-- ContainerRoutingModule&#45;&gt;ContainerModule -->
<g id="edge2" class="edge">
<title>ContainerRoutingModule&#45;&gt;ContainerModule</title>
<path fill="none" stroke="black" d="M1489,-122.22C1489,-142.37 1489,-172 1489,-172 1489,-172 971.42,-172 971.42,-172"/>
<polygon fill="black" stroke="black" points="971.43,-168.5 961.42,-172 971.42,-175.5 971.43,-168.5"/>
</g>
<!-- FeatureModule -->
<g id="node4" class="node">
<title>FeatureModule</title>
<polygon fill="#8dd3c7" stroke="black" points="1390.53,-122 1387.53,-126 1366.53,-126 1363.53,-122 1289.47,-122 1289.47,-86 1390.53,-86 1390.53,-122"/>
<text text-anchor="middle" x="1340" y="-99.8" font-family="Times,serif" font-size="14.00">FeatureModule</text>
</g>
<!-- FeatureModule&#45;&gt;ContainerModule -->
<g id="edge3" class="edge">
<title>FeatureModule&#45;&gt;ContainerModule</title>
<path fill="none" stroke="black" d="M1340,-122.22C1340,-140.83 1340,-167 1340,-167 1340,-167 971.45,-167 971.45,-167"/>
<polygon fill="black" stroke="black" points="971.45,-163.5 961.45,-167 971.45,-170.5 971.45,-163.5"/>
</g>
<!-- HeaderModule -->
<g id="node5" class="node">
<title>HeaderModule</title>
<polygon fill="#8dd3c7" stroke="black" points="1270.96,-122 1267.96,-126 1246.96,-126 1243.96,-122 1171.04,-122 1171.04,-86 1270.96,-86 1270.96,-122"/>
<text text-anchor="middle" x="1221" y="-99.8" font-family="Times,serif" font-size="14.00">HeaderModule</text>
</g>
<!-- HeaderModule&#45;&gt;ContainerModule -->
<g id="edge4" class="edge">
<title>HeaderModule&#45;&gt;ContainerModule</title>
<path fill="none" stroke="black" d="M1204.02,-122.03C1204.02,-139.06 1204.02,-162 1204.02,-162 1204.02,-162 971.49,-162 971.49,-162"/>
<polygon fill="black" stroke="black" points="971.49,-158.5 961.49,-162 971.49,-165.5 971.49,-158.5"/>
</g>
<!-- SearchModule -->
<g id="node6" class="node">
<title>SearchModule</title>
<polygon fill="#8dd3c7" stroke="black" points="1152.64,-122 1149.64,-126 1128.64,-126 1125.64,-122 1055.36,-122 1055.36,-86 1152.64,-86 1152.64,-122"/>
<text text-anchor="middle" x="1104" y="-99.8" font-family="Times,serif" font-size="14.00">SearchModule</text>
</g>
<!-- SearchModule&#45;&gt;ContainerModule -->
<g id="edge5" class="edge">
<title>SearchModule&#45;&gt;ContainerModule</title>
<path fill="none" stroke="black" d="M1066.85,-122.24C1066.85,-137.57 1066.85,-157 1066.85,-157 1066.85,-157 971.41,-157 971.41,-157"/>
<polygon fill="black" stroke="black" points="971.41,-153.5 961.41,-157 971.41,-160.5 971.41,-153.5"/>
</g>
<!-- SidenavModule -->
<g id="node7" class="node">
<title>SidenavModule</title>
<polygon fill="#8dd3c7" stroke="black" points="1037.15,-122 1034.15,-126 1013.15,-126 1010.15,-122 932.85,-122 932.85,-86 1037.15,-86 1037.15,-122"/>
<text text-anchor="middle" x="985" y="-99.8" font-family="Times,serif" font-size="14.00">SidenavModule</text>
</g>
<!-- SidenavModule&#45;&gt;ContainerModule -->
<g id="edge6" class="edge">
<title>SidenavModule&#45;&gt;ContainerModule</title>
<path fill="none" stroke="black" d="M947.03,-122.11C947.03,-122.11 947.03,-140.99 947.03,-140.99"/>
<polygon fill="black" stroke="black" points="943.53,-140.99 947.03,-150.99 950.53,-140.99 943.53,-140.99"/>
</g>
<!-- ApplicationService -->
<g id="node13" class="node">
<title>ApplicationService</title>
<ellipse fill="#fdb462" stroke="black" cx="823" cy="-104" rx="85.67" ry="18"/>
<text text-anchor="middle" x="823" y="-99.8" font-family="Times,serif" font-size="14.00">ApplicationService</text>
</g>
<!-- ApplicationService&#45;&gt;ContainerModule -->
<g id="edge12" class="edge">
<title>ApplicationService&#45;&gt;ContainerModule</title>
<path fill="none" stroke="black" d="M877.6,-118.1C877.6,-118.1 877.6,-140.72 877.6,-140.72"/>
<polygon fill="black" stroke="black" points="874.1,-140.72 877.6,-150.72 881.1,-140.72 874.1,-140.72"/>
</g>
<!-- ExceptionInterceptor -->
<g id="node14" class="node">
<title>ExceptionInterceptor</title>
<ellipse fill="#fdb462" stroke="black" cx="627" cy="-104" rx="92.6" ry="18"/>
<text text-anchor="middle" x="627" y="-99.8" font-family="Times,serif" font-size="14.00">ExceptionInterceptor</text>
</g>
<!-- ExceptionInterceptor&#45;&gt;ContainerModule -->
<g id="edge13" class="edge">
<title>ExceptionInterceptor&#45;&gt;ContainerModule</title>
<path fill="none" stroke="black" d="M642.97,-121.94C642.97,-137.32 642.97,-157 642.97,-157 642.97,-157 836.72,-157 836.72,-157"/>
<polygon fill="black" stroke="black" points="836.72,-160.5 846.72,-157 836.72,-153.5 836.72,-160.5"/>
</g>
<!-- RequestInterceptor -->
<g id="node15" class="node">
<title>RequestInterceptor</title>
<ellipse fill="#fdb462" stroke="black" cx="432" cy="-104" rx="84.51" ry="18"/>
<text text-anchor="middle" x="432" y="-99.8" font-family="Times,serif" font-size="14.00">RequestInterceptor</text>
</g>
<!-- RequestInterceptor&#45;&gt;ContainerModule -->
<g id="edge14" class="edge">
<title>RequestInterceptor&#45;&gt;ContainerModule</title>
<path fill="none" stroke="black" d="M432,-122.03C432,-139.06 432,-162 432,-162 432,-162 836.6,-162 836.6,-162"/>
<polygon fill="black" stroke="black" points="836.6,-165.5 846.6,-162 836.6,-158.5 836.6,-165.5"/>
</g>
<!-- WeatherService -->
<g id="node16" class="node">
<title>WeatherService</title>
<ellipse fill="#fdb462" stroke="black" cx="257" cy="-104" rx="72.89" ry="18"/>
<text text-anchor="middle" x="257" y="-99.8" font-family="Times,serif" font-size="14.00">WeatherService</text>
</g>
<!-- WeatherService&#45;&gt;ContainerModule -->
<g id="edge15" class="edge">
<title>WeatherService&#45;&gt;ContainerModule</title>
<path fill="none" stroke="black" d="M257,-122.22C257,-140.83 257,-167 257,-167 257,-167 836.58,-167 836.58,-167"/>
<polygon fill="black" stroke="black" points="836.58,-170.5 846.58,-167 836.58,-163.5 836.58,-170.5"/>
</g>
</g>
</svg>
