<?xml version="1.0" encoding="UTF-8" standalone="no"?>
<!DOCTYPE svg PUBLIC "-//W3C//DTD SVG 1.1//EN"
 "http://www.w3.org/Graphics/SVG/1.1/DTD/svg11.dtd">
<!-- Generated by graphviz version 2.44.1 (20200629.0846)
 -->
<!-- Title: dependencies Pages: 1 -->
<svg width="1800pt" height="284pt"
 viewBox="0.00 0.00 1800.00 284.00" xmlns="http://www.w3.org/2000/svg" xmlns:xlink="http://www.w3.org/1999/xlink">
<g id="graph0" class="graph" transform="scale(1 1) rotate(0) translate(4 280)">
<title>dependencies</title>
<polygon fill="white" stroke="transparent" points="-4,4 -4,-280 1796,-280 1796,4 -4,4"/>
<text text-anchor="start" x="875.01" y="-42.4" font-family="sans-serif" font-weight="bold" font-size="14.00">Legend</text>
<polygon fill="#ffffb3" stroke="transparent" points="662,-10 662,-30 682,-30 682,-10 662,-10"/>
<text text-anchor="start" x="685.63" y="-15.4" font-family="sans-serif" font-size="14.00"> &#160;Declarations</text>
<polygon fill="#8dd3c7" stroke="transparent" points="775,-10 775,-30 795,-30 795,-10 775,-10"/>
<text text-anchor="start" x="798.73" y="-15.4" font-family="sans-serif" font-size="14.00"> &#160;Module</text>
<polygon fill="#80b1d3" stroke="transparent" points="861,-10 861,-30 881,-30 881,-10 861,-10"/>
<text text-anchor="start" x="884.78" y="-15.4" font-family="sans-serif" font-size="14.00"> &#160;Bootstrap</text>
<polygon fill="#fdb462" stroke="transparent" points="958,-10 958,-30 978,-30 978,-10 958,-10"/>
<text text-anchor="start" x="981.67" y="-15.4" font-family="sans-serif" font-size="14.00"> &#160;Providers</text>
<polygon fill="#fb8072" stroke="transparent" points="1054,-10 1054,-30 1074,-30 1074,-10 1054,-10"/>
<text text-anchor="start" x="1077.73" y="-15.4" font-family="sans-serif" font-size="14.00"> &#160;Exports</text>
<g id="clust1" class="cluster">
<title>cluster_ContainerModule</title>
<polygon fill="none" stroke="black" stroke-dasharray="1,5" points="8,-70 8,-268 1784,-268 1784,-70 8,-70"/>
</g>
<g id="clust7" class="cluster">
<title>cluster_ContainerModule_providers</title>
<polygon fill="none" stroke="black" points="836,-78 836,-130 1776,-130 1776,-78 836,-78"/>
</g>
<g id="clust4" class="cluster">
<title>cluster_ContainerModule_imports</title>
<polygon fill="none" stroke="black" points="176,-78 176,-130 828,-130 828,-78 176,-78"/>
</g>
<g id="clust5" class="cluster">
<title>cluster_ContainerModule_exports</title>
<polygon fill="none" stroke="black" points="435,-208 435,-260 1081,-260 1081,-208 435,-208"/>
</g>
<g id="clust2" class="cluster">
<title>cluster_ContainerModule_declarations</title>
<polygon fill="none" stroke="black" points="16,-78 16,-130 168,-130 168,-78 16,-78"/>
</g>
<!-- ContainerComponent -->
<g id="node1" class="node">
<title>ContainerComponent</title>
<polygon fill="#ffffb3" stroke="black" points="160.04,-122 23.96,-122 23.96,-86 160.04,-86 160.04,-122"/>
<text text-anchor="middle" x="92" y="-99.8" font-family="Times,serif" font-size="14.00">ContainerComponent</text>
</g>
<!-- ContainerModule -->
<g id="node2" class="node">
<title>ContainerModule</title>
<polygon fill="#8dd3c7" stroke="black" points="797.26,-187 794.26,-191 773.26,-191 770.26,-187 682.74,-187 682.74,-151 797.26,-151 797.26,-187"/>
<text text-anchor="middle" x="740" y="-164.8" font-family="Times,serif" font-size="14.00">ContainerModule</text>
</g>
<!-- ContainerComponent&#45;&gt;ContainerModule -->
<g id="edge1" class="edge">
<title>ContainerComponent&#45;&gt;ContainerModule</title>
<path fill="none" stroke="black" d="M92,-122.03C92,-142.77 92,-174 92,-174 92,-174 672.49,-174 672.49,-174"/>
<polygon fill="black" stroke="black" points="672.49,-177.5 682.49,-174 672.49,-170.5 672.49,-177.5"/>
</g>
<!-- ContainerComponent  -->
<g id="node8" class="node">
<title>ContainerComponent </title>
<polygon fill="#fb8072" stroke="black" points="1073.04,-252 932.96,-252 932.96,-216 1073.04,-216 1073.04,-252"/>
<text text-anchor="middle" x="1003" y="-229.8" font-family="Times,serif" font-size="14.00">ContainerComponent </text>
</g>
<!-- ContainerModule&#45;&gt;ContainerComponent  -->
<g id="edge7" class="edge">
<title>ContainerModule&#45;&gt;ContainerComponent </title>
<path fill="none" stroke="black" stroke-dasharray="5,2" d="M797.29,-178C862.87,-178 961.34,-178 961.34,-178 961.34,-178 961.34,-205.97 961.34,-205.97"/>
<polygon fill="black" stroke="black" points="957.84,-205.97 961.34,-215.97 964.84,-205.97 957.84,-205.97"/>
</g>
<!-- FeatureModule  -->
<g id="node9" class="node">
<title>FeatureModule </title>
<polygon fill="#fb8072" stroke="black" points="914.53,-252 809.47,-252 809.47,-216 914.53,-216 914.53,-252"/>
<text text-anchor="middle" x="862" y="-229.8" font-family="Times,serif" font-size="14.00">FeatureModule </text>
</g>
<!-- ContainerModule&#45;&gt;FeatureModule  -->
<g id="edge8" class="edge">
<title>ContainerModule&#45;&gt;FeatureModule </title>
<path fill="none" stroke="black" stroke-dasharray="5,2" d="M797.38,-183C807.42,-183 814.71,-183 814.71,-183 814.71,-183 814.71,-205.88 814.71,-205.88"/>
<polygon fill="black" stroke="black" points="811.21,-205.88 814.71,-215.88 818.21,-205.88 811.21,-205.88"/>
</g>
<!-- HeaderModule  -->
<g id="node10" class="node">
<title>HeaderModule </title>
<polygon fill="#fb8072" stroke="black" points="791.96,-252 688.04,-252 688.04,-216 791.96,-216 791.96,-252"/>
<text text-anchor="middle" x="740" y="-229.8" font-family="Times,serif" font-size="14.00">HeaderModule </text>
</g>
<!-- ContainerModule&#45;&gt;HeaderModule  -->
<g id="edge9" class="edge">
<title>ContainerModule&#45;&gt;HeaderModule </title>
<path fill="none" stroke="black" stroke-dasharray="5,2" d="M740,-187.11C740,-187.11 740,-205.99 740,-205.99"/>
<polygon fill="black" stroke="black" points="736.5,-205.99 740,-215.99 743.5,-205.99 736.5,-205.99"/>
</g>
<!-- SearchModule  -->
<g id="node11" class="node">
<title>SearchModule </title>
<polygon fill="#fb8072" stroke="black" points="670.64,-252 569.36,-252 569.36,-216 670.64,-216 670.64,-252"/>
<text text-anchor="middle" x="620" y="-229.8" font-family="Times,serif" font-size="14.00">SearchModule </text>
</g>
<!-- ContainerModule&#45;&gt;SearchModule  -->
<g id="edge10" class="edge">
<title>ContainerModule&#45;&gt;SearchModule </title>
<path fill="none" stroke="black" stroke-dasharray="5,2" d="M682.64,-183C672.61,-183 665.32,-183 665.32,-183 665.32,-183 665.32,-205.88 665.32,-205.88"/>
<polygon fill="black" stroke="black" points="661.82,-205.88 665.32,-215.88 668.82,-205.88 661.82,-205.88"/>
</g>
<!-- SidenavModule  -->
<g id="node12" class="node">
<title>SidenavModule </title>
<polygon fill="#fb8072" stroke="black" points="551.15,-252 442.85,-252 442.85,-216 551.15,-216 551.15,-252"/>
<text text-anchor="middle" x="497" y="-229.8" font-family="Times,serif" font-size="14.00">SidenavModule </text>
</g>
<!-- ContainerModule&#45;&gt;SidenavModule  -->
<g id="edge11" class="edge">
<title>ContainerModule&#45;&gt;SidenavModule </title>
<path fill="none" stroke="black" stroke-dasharray="5,2" d="M682.74,-178C625.41,-178 545.66,-178 545.66,-178 545.66,-178 545.66,-205.97 545.66,-205.97"/>
<polygon fill="black" stroke="black" points="542.16,-205.97 545.66,-215.97 549.16,-205.97 542.16,-205.97"/>
</g>
<!-- ContainerRoutingModule -->
<g id="node3" class="node">
<title>ContainerRoutingModule</title>
<polygon fill="#8dd3c7" stroke="black" points="819.88,-122 816.88,-126 795.88,-126 792.88,-122 660.12,-122 660.12,-86 819.88,-86 819.88,-122"/>
<text text-anchor="middle" x="740" y="-99.8" font-family="Times,serif" font-size="14.00">ContainerRoutingModule</text>
</g>
<!-- ContainerRoutingModule&#45;&gt;ContainerModule -->
<g id="edge2" class="edge">
<title>ContainerRoutingModule&#45;&gt;ContainerModule</title>
<path fill="none" stroke="black" d="M740,-122.11C740,-122.11 740,-140.99 740,-140.99"/>
<polygon fill="black" stroke="black" points="736.5,-140.99 740,-150.99 743.5,-140.99 736.5,-140.99"/>
</g>
<!-- FeatureModule -->
<g id="node4" class="node">
<title>FeatureModule</title>
<polygon fill="#8dd3c7" stroke="black" points="641.53,-122 638.53,-126 617.53,-126 614.53,-122 540.47,-122 540.47,-86 641.53,-86 641.53,-122"/>
<text text-anchor="middle" x="591" y="-99.8" font-family="Times,serif" font-size="14.00">FeatureModule</text>
</g>
<!-- FeatureModule&#45;&gt;ContainerModule -->
<g id="edge3" class="edge">
<title>FeatureModule&#45;&gt;ContainerModule</title>
<path fill="none" stroke="black" d="M605.6,-122.19C605.6,-137.18 605.6,-156 605.6,-156 605.6,-156 672.61,-156 672.61,-156"/>
<polygon fill="black" stroke="black" points="672.61,-159.5 682.61,-156 672.61,-152.5 672.61,-159.5"/>
</g>
<!-- HeaderModule -->
<g id="node5" class="node">
<title>HeaderModule</title>
<polygon fill="#8dd3c7" stroke="black" points="521.96,-122 518.96,-126 497.96,-126 494.96,-122 422.04,-122 422.04,-86 521.96,-86 521.96,-122"/>
<text text-anchor="middle" x="472" y="-99.8" font-family="Times,serif" font-size="14.00">HeaderModule</text>
</g>
<!-- HeaderModule&#45;&gt;ContainerModule -->
<g id="edge4" class="edge">
<title>HeaderModule&#45;&gt;ContainerModule</title>
<path fill="none" stroke="black" d="M482.45,-122.03C482.45,-138.4 482.45,-160 482.45,-160 482.45,-160 672.52,-160 672.52,-160"/>
<polygon fill="black" stroke="black" points="672.52,-163.5 682.52,-160 672.52,-156.5 672.52,-163.5"/>
</g>
<!-- SearchModule -->
<g id="node6" class="node">
<title>SearchModule</title>
<polygon fill="#8dd3c7" stroke="black" points="403.64,-122 400.64,-126 379.64,-126 376.64,-122 306.36,-122 306.36,-86 403.64,-86 403.64,-122"/>
<text text-anchor="middle" x="355" y="-99.8" font-family="Times,serif" font-size="14.00">SearchModule</text>
</g>
<!-- SearchModule&#45;&gt;ContainerModule -->
<g id="edge5" class="edge">
<title>SearchModule&#45;&gt;ContainerModule</title>
<path fill="none" stroke="black" d="M355,-122.3C355,-140.27 355,-165 355,-165 355,-165 672.36,-165 672.36,-165"/>
<polygon fill="black" stroke="black" points="672.36,-168.5 682.36,-165 672.36,-161.5 672.36,-168.5"/>
</g>
<!-- SidenavModule -->
<g id="node7" class="node">
<title>SidenavModule</title>
<polygon fill="#8dd3c7" stroke="black" points="288.15,-122 285.15,-126 264.15,-126 261.15,-122 183.85,-122 183.85,-86 288.15,-86 288.15,-122"/>
<text text-anchor="middle" x="236" y="-99.8" font-family="Times,serif" font-size="14.00">SidenavModule</text>
</g>
<!-- SidenavModule&#45;&gt;ContainerModule -->
<g id="edge6" class="edge">
<title>SidenavModule&#45;&gt;ContainerModule</title>
<path fill="none" stroke="black" d="M236,-122.11C236,-141.34 236,-169 236,-169 236,-169 672.68,-169 672.68,-169"/>
<polygon fill="black" stroke="black" points="672.68,-172.5 682.68,-169 672.68,-165.5 672.68,-172.5"/>
</g>
<!-- ApplicationService -->
<g id="node13" class="node">
<title>ApplicationService</title>
<ellipse fill="#fdb462" stroke="black" cx="1682" cy="-104" rx="85.67" ry="18"/>
<text text-anchor="middle" x="1682" y="-99.8" font-family="Times,serif" font-size="14.00">ApplicationService</text>
</g>
<!-- ApplicationService&#45;&gt;ContainerModule -->
<g id="edge12" class="edge">
<title>ApplicationService&#45;&gt;ContainerModule</title>
<path fill="none" stroke="black" d="M1682,-122.03C1682,-142.77 1682,-174 1682,-174 1682,-174 807.51,-174 807.51,-174"/>
<polygon fill="black" stroke="black" points="807.51,-170.5 797.51,-174 807.51,-177.5 807.51,-170.5"/>
</g>
<!-- ExceptionInterceptor -->
<g id="node14" class="node">
<title>ExceptionInterceptor</title>
<ellipse fill="#fdb462" stroke="black" cx="1486" cy="-104" rx="92.6" ry="18"/>
<text text-anchor="middle" x="1486" y="-99.8" font-family="Times,serif" font-size="14.00">ExceptionInterceptor</text>
</g>
<!-- ExceptionInterceptor&#45;&gt;ContainerModule -->
<g id="edge13" class="edge">
<title>ExceptionInterceptor&#45;&gt;ContainerModule</title>
<path fill="none" stroke="black" d="M1486,-122.11C1486,-141.34 1486,-169 1486,-169 1486,-169 807.3,-169 807.3,-169"/>
<polygon fill="black" stroke="black" points="807.3,-165.5 797.3,-169 807.3,-172.5 807.3,-165.5"/>
</g>
<!-- RequestInterceptor -->
<g id="node15" class="node">
<title>RequestInterceptor</title>
<ellipse fill="#fdb462" stroke="black" cx="1291" cy="-104" rx="84.51" ry="18"/>
<text text-anchor="middle" x="1291" y="-99.8" font-family="Times,serif" font-size="14.00">RequestInterceptor</text>
</g>
<!-- RequestInterceptor&#45;&gt;ContainerModule -->
<g id="edge14" class="edge">
<title>RequestInterceptor&#45;&gt;ContainerModule</title>
<path fill="none" stroke="black" d="M1291,-122.3C1291,-140.27 1291,-165 1291,-165 1291,-165 807.41,-165 807.41,-165"/>
<polygon fill="black" stroke="black" points="807.41,-161.5 797.41,-165 807.41,-168.5 807.41,-161.5"/>
</g>
<!-- ResponseInterceptor -->
<g id="node16" class="node">
<title>ResponseInterceptor</title>
<ellipse fill="#fdb462" stroke="black" cx="1098" cy="-104" rx="90.31" ry="18"/>
<text text-anchor="middle" x="1098" y="-99.8" font-family="Times,serif" font-size="14.00">ResponseInterceptor</text>
</g>
<!-- ResponseInterceptor&#45;&gt;ContainerModule -->
<g id="edge15" class="edge">
<title>ResponseInterceptor&#45;&gt;ContainerModule</title>
<path fill="none" stroke="black" d="M1040.31,-118.13C1040.31,-134.72 1040.31,-160 1040.31,-160 1040.31,-160 807.55,-160 807.55,-160"/>
<polygon fill="black" stroke="black" points="807.55,-156.5 797.55,-160 807.55,-163.5 807.55,-156.5"/>
</g>
<!-- WeatherService -->
<g id="node17" class="node">
<title>WeatherService</title>
<ellipse fill="#fdb462" stroke="black" cx="917" cy="-104" rx="72.89" ry="18"/>
<text text-anchor="middle" x="917" y="-99.8" font-family="Times,serif" font-size="14.00">WeatherService</text>
</g>
<!-- WeatherService&#45;&gt;ContainerModule -->
<g id="edge16" class="edge">
<title>WeatherService&#45;&gt;ContainerModule</title>
<path fill="none" stroke="black" d="M879.41,-119.6C879.41,-134.92 879.41,-156 879.41,-156 879.41,-156 807.51,-156 807.51,-156"/>
<polygon fill="black" stroke="black" points="807.51,-152.5 797.51,-156 807.51,-159.5 807.51,-152.5"/>
</g>
</g>
</svg>
