<?xml version="1.0" encoding="UTF-8" standalone="no"?>
<!DOCTYPE svg PUBLIC "-//W3C//DTD SVG 1.1//EN"
 "http://www.w3.org/Graphics/SVG/1.1/DTD/svg11.dtd">
<!-- Generated by graphviz version 2.44.1 (20200629.0846)
 -->
<!-- Title: dependencies Pages: 1 -->
<svg width="1601pt" height="284pt"
 viewBox="0.00 0.00 1601.00 284.00" xmlns="http://www.w3.org/2000/svg" xmlns:xlink="http://www.w3.org/1999/xlink">
<g id="graph0" class="graph" transform="scale(1 1) rotate(0) translate(4 280)">
<title>dependencies</title>
<polygon fill="white" stroke="transparent" points="-4,4 -4,-280 1597,-280 1597,4 -4,4"/>
<text text-anchor="start" x="775.51" y="-42.4" font-family="sans-serif" font-weight="bold" font-size="14.00">Legend</text>
<polygon fill="#ffffb3" stroke="transparent" points="562.5,-10 562.5,-30 582.5,-30 582.5,-10 562.5,-10"/>
<text text-anchor="start" x="586.13" y="-15.4" font-family="sans-serif" font-size="14.00"> &#160;Declarations</text>
<polygon fill="#8dd3c7" stroke="transparent" points="675.5,-10 675.5,-30 695.5,-30 695.5,-10 675.5,-10"/>
<text text-anchor="start" x="699.23" y="-15.4" font-family="sans-serif" font-size="14.00"> &#160;Module</text>
<polygon fill="#80b1d3" stroke="transparent" points="761.5,-10 761.5,-30 781.5,-30 781.5,-10 761.5,-10"/>
<text text-anchor="start" x="785.28" y="-15.4" font-family="sans-serif" font-size="14.00"> &#160;Bootstrap</text>
<polygon fill="#fdb462" stroke="transparent" points="858.5,-10 858.5,-30 878.5,-30 878.5,-10 858.5,-10"/>
<text text-anchor="start" x="882.17" y="-15.4" font-family="sans-serif" font-size="14.00"> &#160;Providers</text>
<polygon fill="#fb8072" stroke="transparent" points="954.5,-10 954.5,-30 974.5,-30 974.5,-10 954.5,-10"/>
<text text-anchor="start" x="978.23" y="-15.4" font-family="sans-serif" font-size="14.00"> &#160;Exports</text>
<g id="clust1" class="cluster">
<title>cluster_ContainerModule</title>
<polygon fill="none" stroke="black" stroke-dasharray="1,5" points="8,-70 8,-268 1585,-268 1585,-70 8,-70"/>
</g>
<g id="clust4" class="cluster">
<title>cluster_ContainerModule_imports</title>
<polygon fill="none" stroke="black" points="925,-78 925,-130 1577,-130 1577,-78 925,-78"/>
</g>
<g id="clust2" class="cluster">
<title>cluster_ContainerModule_declarations</title>
<polygon fill="none" stroke="black" points="765,-78 765,-130 917,-130 917,-78 765,-78"/>
</g>
<g id="clust5" class="cluster">
<title>cluster_ContainerModule_exports</title>
<polygon fill="none" stroke="black" points="608,-208 608,-260 1254,-260 1254,-208 608,-208"/>
</g>
<g id="clust7" class="cluster">
<title>cluster_ContainerModule_providers</title>
<polygon fill="none" stroke="black" points="16,-78 16,-130 757,-130 757,-78 16,-78"/>
</g>
<!-- ContainerComponent -->
<g id="node1" class="node">
<title>ContainerComponent</title>
<polygon fill="#ffffb3" stroke="black" points="909.04,-122 772.96,-122 772.96,-86 909.04,-86 909.04,-122"/>
<text text-anchor="middle" x="841" y="-99.8" font-family="Times,serif" font-size="14.00">ContainerComponent</text>
</g>
<!-- ContainerModule -->
<g id="node2" class="node">
<title>ContainerModule</title>
<polygon fill="#8dd3c7" stroke="black" points="970.26,-187 967.26,-191 946.26,-191 943.26,-187 855.74,-187 855.74,-151 970.26,-151 970.26,-187"/>
<text text-anchor="middle" x="913" y="-164.8" font-family="Times,serif" font-size="14.00">ContainerModule</text>
</g>
<!-- ContainerComponent&#45;&gt;ContainerModule -->
<g id="edge1" class="edge">
<title>ContainerComponent&#45;&gt;ContainerModule</title>
<path fill="none" stroke="black" d="M882.45,-122.11C882.45,-122.11 882.45,-140.99 882.45,-140.99"/>
<polygon fill="black" stroke="black" points="878.95,-140.99 882.45,-150.99 885.95,-140.99 878.95,-140.99"/>
</g>
<!-- ContainerComponent  -->
<g id="node8" class="node">
<title>ContainerComponent </title>
<polygon fill="#fb8072" stroke="black" points="1246.04,-252 1105.96,-252 1105.96,-216 1246.04,-216 1246.04,-252"/>
<text text-anchor="middle" x="1176" y="-229.8" font-family="Times,serif" font-size="14.00">ContainerComponent </text>
</g>
<!-- ContainerModule&#45;&gt;ContainerComponent  -->
<g id="edge7" class="edge">
<title>ContainerModule&#45;&gt;ContainerComponent </title>
<path fill="none" stroke="black" stroke-dasharray="5,2" d="M970.42,-177C1034.53,-177 1129.4,-177 1129.4,-177 1129.4,-177 1129.4,-205.96 1129.4,-205.96"/>
<polygon fill="black" stroke="black" points="1125.9,-205.96 1129.4,-215.96 1132.9,-205.96 1125.9,-205.96"/>
</g>
<!-- FeatureModule  -->
<g id="node9" class="node">
<title>FeatureModule </title>
<polygon fill="#fb8072" stroke="black" points="1087.53,-252 982.47,-252 982.47,-216 1087.53,-216 1087.53,-252"/>
<text text-anchor="middle" x="1035" y="-229.8" font-family="Times,serif" font-size="14.00">FeatureModule </text>
</g>
<!-- ContainerModule&#45;&gt;FeatureModule  -->
<g id="edge8" class="edge">
<title>ContainerModule&#45;&gt;FeatureModule </title>
<path fill="none" stroke="black" stroke-dasharray="5,2" d="M970.49,-182C991.36,-182 1009.91,-182 1009.91,-182 1009.91,-182 1009.91,-205.81 1009.91,-205.81"/>
<polygon fill="black" stroke="black" points="1006.41,-205.81 1009.91,-215.81 1013.41,-205.81 1006.41,-205.81"/>
</g>
<!-- HeaderModule  -->
<g id="node10" class="node">
<title>HeaderModule </title>
<polygon fill="#fb8072" stroke="black" points="964.96,-252 861.04,-252 861.04,-216 964.96,-216 964.96,-252"/>
<text text-anchor="middle" x="913" y="-229.8" font-family="Times,serif" font-size="14.00">HeaderModule </text>
</g>
<!-- ContainerModule&#45;&gt;HeaderModule  -->
<g id="edge9" class="edge">
<title>ContainerModule&#45;&gt;HeaderModule </title>
<path fill="none" stroke="black" stroke-dasharray="5,2" d="M913,-187.11C913,-187.11 913,-205.99 913,-205.99"/>
<polygon fill="black" stroke="black" points="909.5,-205.99 913,-215.99 916.5,-205.99 909.5,-205.99"/>
</g>
<!-- SearchModule  -->
<g id="node11" class="node">
<title>SearchModule </title>
<polygon fill="#fb8072" stroke="black" points="843.64,-252 742.36,-252 742.36,-216 843.64,-216 843.64,-252"/>
<text text-anchor="middle" x="793" y="-229.8" font-family="Times,serif" font-size="14.00">SearchModule </text>
</g>
<!-- ContainerModule&#45;&gt;SearchModule  -->
<g id="edge10" class="edge">
<title>ContainerModule&#45;&gt;SearchModule </title>
<path fill="none" stroke="black" stroke-dasharray="5,2" d="M855.67,-182C831.19,-182 808.15,-182 808.15,-182 808.15,-182 808.15,-205.81 808.15,-205.81"/>
<polygon fill="black" stroke="black" points="804.65,-205.81 808.15,-215.81 811.65,-205.81 804.65,-205.81"/>
</g>
<!-- SidenavModule  -->
<g id="node12" class="node">
<title>SidenavModule </title>
<polygon fill="#fb8072" stroke="black" points="724.15,-252 615.85,-252 615.85,-216 724.15,-216 724.15,-252"/>
<text text-anchor="middle" x="670" y="-229.8" font-family="Times,serif" font-size="14.00">SidenavModule </text>
</g>
<!-- ContainerModule&#45;&gt;SidenavModule  -->
<g id="edge11" class="edge">
<title>ContainerModule&#45;&gt;SidenavModule </title>
<path fill="none" stroke="black" stroke-dasharray="5,2" d="M855.72,-177C783.88,-177 670,-177 670,-177 670,-177 670,-205.96 670,-205.96"/>
<polygon fill="black" stroke="black" points="666.5,-205.96 670,-215.96 673.5,-205.96 666.5,-205.96"/>
</g>
<!-- ContainerRoutingModule -->
<g id="node3" class="node">
<title>ContainerRoutingModule</title>
<polygon fill="#8dd3c7" stroke="black" points="1568.88,-122 1565.88,-126 1544.88,-126 1541.88,-122 1409.12,-122 1409.12,-86 1568.88,-86 1568.88,-122"/>
<text text-anchor="middle" x="1489" y="-99.8" font-family="Times,serif" font-size="14.00">ContainerRoutingModule</text>
</g>
<!-- ContainerRoutingModule&#45;&gt;ContainerModule -->
<g id="edge2" class="edge">
<title>ContainerRoutingModule&#45;&gt;ContainerModule</title>
<path fill="none" stroke="black" d="M1489,-122.22C1489,-142.37 1489,-172 1489,-172 1489,-172 980.33,-172 980.33,-172"/>
<polygon fill="black" stroke="black" points="980.33,-168.5 970.33,-172 980.33,-175.5 980.33,-168.5"/>
</g>
<!-- FeatureModule -->
<g id="node4" class="node">
<title>FeatureModule</title>
<polygon fill="#8dd3c7" stroke="black" points="1390.53,-122 1387.53,-126 1366.53,-126 1363.53,-122 1289.47,-122 1289.47,-86 1390.53,-86 1390.53,-122"/>
<text text-anchor="middle" x="1340" y="-99.8" font-family="Times,serif" font-size="14.00">FeatureModule</text>
</g>
<!-- FeatureModule&#45;&gt;ContainerModule -->
<g id="edge3" class="edge">
<title>FeatureModule&#45;&gt;ContainerModule</title>
<path fill="none" stroke="black" d="M1340,-122.22C1340,-140.83 1340,-167 1340,-167 1340,-167 980.59,-167 980.59,-167"/>
<polygon fill="black" stroke="black" points="980.59,-163.5 970.59,-167 980.59,-170.5 980.59,-163.5"/>
</g>
<!-- HeaderModule -->
<g id="node5" class="node">
<title>HeaderModule</title>
<polygon fill="#8dd3c7" stroke="black" points="1270.96,-122 1267.96,-126 1246.96,-126 1243.96,-122 1171.04,-122 1171.04,-86 1270.96,-86 1270.96,-122"/>
<text text-anchor="middle" x="1221" y="-99.8" font-family="Times,serif" font-size="14.00">HeaderModule</text>
</g>
<!-- HeaderModule&#45;&gt;ContainerModule -->
<g id="edge4" class="edge">
<title>HeaderModule&#45;&gt;ContainerModule</title>
<path fill="none" stroke="black" d="M1208.52,-122.03C1208.52,-139.06 1208.52,-162 1208.52,-162 1208.52,-162 980.33,-162 980.33,-162"/>
<polygon fill="black" stroke="black" points="980.33,-158.5 970.33,-162 980.33,-165.5 980.33,-158.5"/>
</g>
<!-- SearchModule -->
<g id="node6" class="node">
<title>SearchModule</title>
<polygon fill="#8dd3c7" stroke="black" points="1152.64,-122 1149.64,-126 1128.64,-126 1125.64,-122 1055.36,-122 1055.36,-86 1152.64,-86 1152.64,-122"/>
<text text-anchor="middle" x="1104" y="-99.8" font-family="Times,serif" font-size="14.00">SearchModule</text>
</g>
<!-- SearchModule&#45;&gt;ContainerModule -->
<g id="edge5" class="edge">
<title>SearchModule&#45;&gt;ContainerModule</title>
<path fill="none" stroke="black" d="M1071.35,-122.24C1071.35,-137.57 1071.35,-157 1071.35,-157 1071.35,-157 980.62,-157 980.62,-157"/>
<polygon fill="black" stroke="black" points="980.62,-153.5 970.62,-157 980.62,-160.5 980.62,-153.5"/>
</g>
<!-- SidenavModule -->
<g id="node7" class="node">
<title>SidenavModule</title>
<polygon fill="#8dd3c7" stroke="black" points="1037.15,-122 1034.15,-126 1013.15,-126 1010.15,-122 932.85,-122 932.85,-86 1037.15,-86 1037.15,-122"/>
<text text-anchor="middle" x="985" y="-99.8" font-family="Times,serif" font-size="14.00">SidenavModule</text>
</g>
<!-- SidenavModule&#45;&gt;ContainerModule -->
<g id="edge6" class="edge">
<title>SidenavModule&#45;&gt;ContainerModule</title>
<path fill="none" stroke="black" d="M951.53,-122.11C951.53,-122.11 951.53,-140.99 951.53,-140.99"/>
<polygon fill="black" stroke="black" points="948.03,-140.99 951.53,-150.99 955.03,-140.99 948.03,-140.99"/>
</g>
<!-- ApplicationService -->
<g id="node13" class="node">
<title>ApplicationService</title>
<ellipse fill="#fdb462" stroke="black" cx="663" cy="-104" rx="85.67" ry="18"/>
<text text-anchor="middle" x="663" y="-99.8" font-family="Times,serif" font-size="14.00">ApplicationService</text>
</g>
<!-- ApplicationService&#45;&gt;ContainerModule -->
<g id="edge12" class="edge">
<title>ApplicationService&#45;&gt;ContainerModule</title>
<path fill="none" stroke="black" d="M733.25,-114.47C733.25,-129.92 733.25,-157 733.25,-157 733.25,-157 845.63,-157 845.63,-157"/>
<polygon fill="black" stroke="black" points="845.63,-160.5 855.63,-157 845.63,-153.5 845.63,-160.5"/>
</g>
<!-- ExceptionInterceptor -->
<g id="node14" class="node">
<title>ExceptionInterceptor</title>
<ellipse fill="#fdb462" stroke="black" cx="467" cy="-104" rx="92.6" ry="18"/>
<text text-anchor="middle" x="467" y="-99.8" font-family="Times,serif" font-size="14.00">ExceptionInterceptor</text>
</g>
<!-- ExceptionInterceptor&#45;&gt;ContainerModule -->
<g id="edge13" class="edge">
<title>ExceptionInterceptor&#45;&gt;ContainerModule</title>
<path fill="none" stroke="black" d="M467,-122.03C467,-139.06 467,-162 467,-162 467,-162 845.61,-162 845.61,-162"/>
<polygon fill="black" stroke="black" points="845.61,-165.5 855.61,-162 845.61,-158.5 845.61,-165.5"/>
</g>
<!-- RequestInterceptor -->
<g id="node15" class="node">
<title>RequestInterceptor</title>
<ellipse fill="#fdb462" stroke="black" cx="272" cy="-104" rx="84.51" ry="18"/>
<text text-anchor="middle" x="272" y="-99.8" font-family="Times,serif" font-size="14.00">RequestInterceptor</text>
</g>
<!-- RequestInterceptor&#45;&gt;ContainerModule -->
<g id="edge14" class="edge">
<title>RequestInterceptor&#45;&gt;ContainerModule</title>
<path fill="none" stroke="black" d="M272,-122.22C272,-140.83 272,-167 272,-167 272,-167 845.55,-167 845.55,-167"/>
<polygon fill="black" stroke="black" points="845.55,-170.5 855.55,-167 845.55,-163.5 845.55,-170.5"/>
</g>
<!-- WeatherService -->
<g id="node16" class="node">
<title>WeatherService</title>
<ellipse fill="#fdb462" stroke="black" cx="97" cy="-104" rx="72.89" ry="18"/>
<text text-anchor="middle" x="97" y="-99.8" font-family="Times,serif" font-size="14.00">WeatherService</text>
</g>
<!-- WeatherService&#45;&gt;ContainerModule -->
<g id="edge15" class="edge">
<title>WeatherService&#45;&gt;ContainerModule</title>
<path fill="none" stroke="black" d="M97,-122.22C97,-142.37 97,-172 97,-172 97,-172 845.62,-172 845.62,-172"/>
<polygon fill="black" stroke="black" points="845.62,-175.5 855.62,-172 845.62,-168.5 845.62,-175.5"/>
</g>
</g>
</svg>
