<?xml version="1.0" encoding="UTF-8" standalone="no"?>
<!DOCTYPE svg PUBLIC "-//W3C//DTD SVG 1.1//EN"
 "http://www.w3.org/Graphics/SVG/1.1/DTD/svg11.dtd">
<!-- Generated by graphviz version 2.44.1 (20200629.0846)
 -->
<!-- Title: dependencies Pages: 1 -->
<svg width="1123pt" height="284pt"
 viewBox="0.00 0.00 1123.00 284.00" xmlns="http://www.w3.org/2000/svg" xmlns:xlink="http://www.w3.org/1999/xlink">
<g id="graph0" class="graph" transform="scale(1 1) rotate(0) translate(4 280)">
<title>dependencies</title>
<polygon fill="white" stroke="transparent" points="-4,4 -4,-280 1119,-280 1119,4 -4,4"/>
<text text-anchor="start" x="536.51" y="-42.4" font-family="sans-serif" font-weight="bold" font-size="14.00">Legend</text>
<polygon fill="#ffffb3" stroke="transparent" points="323.5,-10 323.5,-30 343.5,-30 343.5,-10 323.5,-10"/>
<text text-anchor="start" x="347.13" y="-15.4" font-family="sans-serif" font-size="14.00"> &#160;Declarations</text>
<polygon fill="#8dd3c7" stroke="transparent" points="436.5,-10 436.5,-30 456.5,-30 456.5,-10 436.5,-10"/>
<text text-anchor="start" x="460.23" y="-15.4" font-family="sans-serif" font-size="14.00"> &#160;Module</text>
<polygon fill="#80b1d3" stroke="transparent" points="522.5,-10 522.5,-30 542.5,-30 542.5,-10 522.5,-10"/>
<text text-anchor="start" x="546.28" y="-15.4" font-family="sans-serif" font-size="14.00"> &#160;Bootstrap</text>
<polygon fill="#fdb462" stroke="transparent" points="619.5,-10 619.5,-30 639.5,-30 639.5,-10 619.5,-10"/>
<text text-anchor="start" x="643.17" y="-15.4" font-family="sans-serif" font-size="14.00"> &#160;Providers</text>
<polygon fill="#fb8072" stroke="transparent" points="715.5,-10 715.5,-30 735.5,-30 735.5,-10 715.5,-10"/>
<text text-anchor="start" x="739.23" y="-15.4" font-family="sans-serif" font-size="14.00"> &#160;Exports</text>
<g id="clust1" class="cluster">
<title>cluster_ContainerModule</title>
<polygon fill="none" stroke="black" stroke-dasharray="1,5" points="8,-70 8,-268 1107,-268 1107,-70 8,-70"/>
</g>
<g id="clust7" class="cluster">
<title>cluster_ContainerModule_providers</title>
<polygon fill="none" stroke="black" points="358,-78 358,-130 1099,-130 1099,-78 358,-78"/>
</g>
<g id="clust2" class="cluster">
<title>cluster_ContainerModule_declarations</title>
<polygon fill="none" stroke="black" points="200,-78 200,-130 350,-130 350,-78 200,-78"/>
</g>
<g id="clust4" class="cluster">
<title>cluster_ContainerModule_imports</title>
<polygon fill="none" stroke="black" points="16,-78 16,-130 192,-130 192,-78 16,-78"/>
</g>
<g id="clust5" class="cluster">
<title>cluster_ContainerModule_exports</title>
<polygon fill="none" stroke="black" points="450,-208 450,-260 602,-260 602,-208 450,-208"/>
</g>
<!-- FavoritesComponent -->
<g id="node1" class="node">
<title>FavoritesComponent</title>
<polygon fill="#ffffb3" stroke="black" points="341.93,-122 208.07,-122 208.07,-86 341.93,-86 341.93,-122"/>
<text text-anchor="middle" x="275" y="-99.8" font-family="Times,serif" font-size="14.00">FavoritesComponent</text>
</g>
<!-- ContainerModule -->
<g id="node2" class="node">
<title>ContainerModule</title>
<polygon fill="#8dd3c7" stroke="black" points="583.26,-187 580.26,-191 559.26,-191 556.26,-187 468.74,-187 468.74,-151 583.26,-151 583.26,-187"/>
<text text-anchor="middle" x="526" y="-164.8" font-family="Times,serif" font-size="14.00">ContainerModule</text>
</g>
<!-- FavoritesComponent&#45;&gt;ContainerModule -->
<g id="edge1" class="edge">
<title>FavoritesComponent&#45;&gt;ContainerModule</title>
<path fill="none" stroke="black" d="M275,-122.02C275,-139.37 275,-163 275,-163 275,-163 458.73,-163 458.73,-163"/>
<polygon fill="black" stroke="black" points="458.73,-166.5 468.73,-163 458.73,-159.5 458.73,-166.5"/>
</g>
<!-- FavoritesComponent  -->
<g id="node4" class="node">
<title>FavoritesComponent </title>
<polygon fill="#fb8072" stroke="black" points="594.43,-252 457.57,-252 457.57,-216 594.43,-216 594.43,-252"/>
<text text-anchor="middle" x="526" y="-229.8" font-family="Times,serif" font-size="14.00">FavoritesComponent </text>
</g>
<!-- ContainerModule&#45;&gt;FavoritesComponent  -->
<g id="edge3" class="edge">
<title>ContainerModule&#45;&gt;FavoritesComponent </title>
<path fill="none" stroke="black" stroke-dasharray="5,2" d="M526,-187.11C526,-187.11 526,-205.99 526,-205.99"/>
<polygon fill="black" stroke="black" points="522.5,-205.99 526,-215.99 529.5,-205.99 522.5,-205.99"/>
</g>
<!-- ContainerRoutingModule -->
<g id="node3" class="node">
<title>ContainerRoutingModule</title>
<polygon fill="#8dd3c7" stroke="black" points="183.88,-122 180.88,-126 159.88,-126 156.88,-122 24.12,-122 24.12,-86 183.88,-86 183.88,-122"/>
<text text-anchor="middle" x="104" y="-99.8" font-family="Times,serif" font-size="14.00">ContainerRoutingModule</text>
</g>
<!-- ContainerRoutingModule&#45;&gt;ContainerModule -->
<g id="edge2" class="edge">
<title>ContainerRoutingModule&#45;&gt;ContainerModule</title>
<path fill="none" stroke="black" d="M104,-122.28C104,-143.32 104,-175 104,-175 104,-175 458.65,-175 458.65,-175"/>
<polygon fill="black" stroke="black" points="458.65,-178.5 468.65,-175 458.65,-171.5 458.65,-178.5"/>
</g>
<!-- ApplicationService -->
<g id="node5" class="node">
<title>ApplicationService</title>
<ellipse fill="#fdb462" stroke="black" cx="1005" cy="-104" rx="85.67" ry="18"/>
<text text-anchor="middle" x="1005" y="-99.8" font-family="Times,serif" font-size="14.00">ApplicationService</text>
</g>
<!-- ApplicationService&#45;&gt;ContainerModule -->
<g id="edge4" class="edge">
<title>ApplicationService&#45;&gt;ContainerModule</title>
<path fill="none" stroke="black" d="M1005,-122.28C1005,-143.32 1005,-175 1005,-175 1005,-175 593.3,-175 593.3,-175"/>
<polygon fill="black" stroke="black" points="593.3,-171.5 583.3,-175 593.3,-178.5 593.3,-171.5"/>
</g>
<!-- ExceptionInterceptor -->
<g id="node6" class="node">
<title>ExceptionInterceptor</title>
<ellipse fill="#fdb462" stroke="black" cx="809" cy="-104" rx="92.6" ry="18"/>
<text text-anchor="middle" x="809" y="-99.8" font-family="Times,serif" font-size="14.00">ExceptionInterceptor</text>
</g>
<!-- ExceptionInterceptor&#45;&gt;ContainerModule -->
<g id="edge5" class="edge">
<title>ExceptionInterceptor&#45;&gt;ContainerModule</title>
<path fill="none" stroke="black" d="M809,-122.02C809,-139.37 809,-163 809,-163 809,-163 593.27,-163 593.27,-163"/>
<polygon fill="black" stroke="black" points="593.27,-159.5 583.27,-163 593.27,-166.5 593.27,-159.5"/>
</g>
<!-- RequestInterceptor -->
<g id="node7" class="node">
<title>RequestInterceptor</title>
<ellipse fill="#fdb462" stroke="black" cx="614" cy="-104" rx="84.51" ry="18"/>
<text text-anchor="middle" x="614" y="-99.8" font-family="Times,serif" font-size="14.00">RequestInterceptor</text>
</g>
<!-- RequestInterceptor&#45;&gt;ContainerModule -->
<g id="edge6" class="edge">
<title>RequestInterceptor&#45;&gt;ContainerModule</title>
<path fill="none" stroke="black" d="M556.44,-117.47C556.44,-117.47 556.44,-140.86 556.44,-140.86"/>
<polygon fill="black" stroke="black" points="552.94,-140.86 556.44,-150.86 559.94,-140.86 552.94,-140.86"/>
</g>
<!-- WeatherService -->
<g id="node8" class="node">
<title>WeatherService</title>
<ellipse fill="#fdb462" stroke="black" cx="439" cy="-104" rx="72.89" ry="18"/>
<text text-anchor="middle" x="439" y="-99.8" font-family="Times,serif" font-size="14.00">WeatherService</text>
</g>
<!-- WeatherService&#45;&gt;ContainerModule -->
<g id="edge7" class="edge">
<title>WeatherService&#45;&gt;ContainerModule</title>
<path fill="none" stroke="black" d="M490.16,-116.84C490.16,-116.84 490.16,-140.52 490.16,-140.52"/>
<polygon fill="black" stroke="black" points="486.66,-140.52 490.16,-150.52 493.66,-140.52 486.66,-140.52"/>
</g>
</g>
</svg>
