<?xml version="1.0" encoding="UTF-8" standalone="no"?>
<!DOCTYPE svg PUBLIC "-//W3C//DTD SVG 1.1//EN"
 "http://www.w3.org/Graphics/SVG/1.1/DTD/svg11.dtd">
<!-- Generated by graphviz version 2.44.1 (20200629.0846)
 -->
<!-- Title: dependencies Pages: 1 -->
<svg width="1272pt" height="284pt"
 viewBox="0.00 0.00 1272.00 284.00" xmlns="http://www.w3.org/2000/svg" xmlns:xlink="http://www.w3.org/1999/xlink">
<g id="graph0" class="graph" transform="scale(1 1) rotate(0) translate(4 280)">
<title>dependencies</title>
<polygon fill="white" stroke="transparent" points="-4,4 -4,-280 1268,-280 1268,4 -4,4"/>
<text text-anchor="start" x="611.01" y="-42.4" font-family="sans-serif" font-weight="bold" font-size="14.00">Legend</text>
<polygon fill="#ffffb3" stroke="transparent" points="398,-10 398,-30 418,-30 418,-10 398,-10"/>
<text text-anchor="start" x="421.63" y="-15.4" font-family="sans-serif" font-size="14.00"> &#160;Declarations</text>
<polygon fill="#8dd3c7" stroke="transparent" points="511,-10 511,-30 531,-30 531,-10 511,-10"/>
<text text-anchor="start" x="534.73" y="-15.4" font-family="sans-serif" font-size="14.00"> &#160;Module</text>
<polygon fill="#80b1d3" stroke="transparent" points="597,-10 597,-30 617,-30 617,-10 597,-10"/>
<text text-anchor="start" x="620.78" y="-15.4" font-family="sans-serif" font-size="14.00"> &#160;Bootstrap</text>
<polygon fill="#fdb462" stroke="transparent" points="694,-10 694,-30 714,-30 714,-10 694,-10"/>
<text text-anchor="start" x="717.67" y="-15.4" font-family="sans-serif" font-size="14.00"> &#160;Providers</text>
<polygon fill="#fb8072" stroke="transparent" points="790,-10 790,-30 810,-30 810,-10 790,-10"/>
<text text-anchor="start" x="813.73" y="-15.4" font-family="sans-serif" font-size="14.00"> &#160;Exports</text>
<g id="clust1" class="cluster">
<title>cluster_ContainerModule</title>
<polygon fill="none" stroke="black" stroke-dasharray="1,5" points="8,-70 8,-268 1256,-268 1256,-70 8,-70"/>
</g>
<g id="clust7" class="cluster">
<title>cluster_ContainerModule_providers</title>
<polygon fill="none" stroke="black" points="352,-78 352,-130 1248,-130 1248,-78 352,-78"/>
</g>
<g id="clust4" class="cluster">
<title>cluster_ContainerModule_imports</title>
<polygon fill="none" stroke="black" points="168,-78 168,-130 344,-130 344,-78 168,-78"/>
</g>
<g id="clust5" class="cluster">
<title>cluster_ContainerModule_exports</title>
<polygon fill="none" stroke="black" points="540,-208 540,-260 688,-260 688,-208 540,-208"/>
</g>
<g id="clust2" class="cluster">
<title>cluster_ContainerModule_declarations</title>
<polygon fill="none" stroke="black" points="16,-78 16,-130 160,-130 160,-78 16,-78"/>
</g>
<!-- ForecastComponent -->
<g id="node1" class="node">
<title>ForecastComponent</title>
<polygon fill="#ffffb3" stroke="black" points="152.25,-122 23.75,-122 23.75,-86 152.25,-86 152.25,-122"/>
<text text-anchor="middle" x="88" y="-99.8" font-family="Times,serif" font-size="14.00">ForecastComponent</text>
</g>
<!-- ContainerModule -->
<g id="node2" class="node">
<title>ContainerModule</title>
<polygon fill="#8dd3c7" stroke="black" points="671.26,-187 668.26,-191 647.26,-191 644.26,-187 556.74,-187 556.74,-151 671.26,-151 671.26,-187"/>
<text text-anchor="middle" x="614" y="-164.8" font-family="Times,serif" font-size="14.00">ContainerModule</text>
</g>
<!-- ForecastComponent&#45;&gt;ContainerModule -->
<g id="edge1" class="edge">
<title>ForecastComponent&#45;&gt;ContainerModule</title>
<path fill="none" stroke="black" d="M88,-122.29C88,-144.21 88,-178 88,-178 88,-178 546.71,-178 546.71,-178"/>
<polygon fill="black" stroke="black" points="546.71,-181.5 556.71,-178 546.71,-174.5 546.71,-181.5"/>
</g>
<!-- ForecastComponent  -->
<g id="node4" class="node">
<title>ForecastComponent </title>
<polygon fill="#fb8072" stroke="black" points="680.25,-252 547.75,-252 547.75,-216 680.25,-216 680.25,-252"/>
<text text-anchor="middle" x="614" y="-229.8" font-family="Times,serif" font-size="14.00">ForecastComponent </text>
</g>
<!-- ContainerModule&#45;&gt;ForecastComponent  -->
<g id="edge3" class="edge">
<title>ContainerModule&#45;&gt;ForecastComponent </title>
<path fill="none" stroke="black" stroke-dasharray="5,2" d="M614,-187.11C614,-187.11 614,-205.99 614,-205.99"/>
<polygon fill="black" stroke="black" points="610.5,-205.99 614,-215.99 617.5,-205.99 610.5,-205.99"/>
</g>
<!-- ContainerRoutingModule -->
<g id="node3" class="node">
<title>ContainerRoutingModule</title>
<polygon fill="#8dd3c7" stroke="black" points="335.88,-122 332.88,-126 311.88,-126 308.88,-122 176.12,-122 176.12,-86 335.88,-86 335.88,-122"/>
<text text-anchor="middle" x="256" y="-99.8" font-family="Times,serif" font-size="14.00">ContainerRoutingModule</text>
</g>
<!-- ContainerRoutingModule&#45;&gt;ContainerModule -->
<g id="edge2" class="edge">
<title>ContainerRoutingModule&#45;&gt;ContainerModule</title>
<path fill="none" stroke="black" d="M256,-122.11C256,-141.34 256,-169 256,-169 256,-169 546.48,-169 546.48,-169"/>
<polygon fill="black" stroke="black" points="546.48,-172.5 556.48,-169 546.48,-165.5 546.48,-172.5"/>
</g>
<!-- ApplicationService -->
<g id="node5" class="node">
<title>ApplicationService</title>
<ellipse fill="#fdb462" stroke="black" cx="1154" cy="-104" rx="85.67" ry="18"/>
<text text-anchor="middle" x="1154" y="-99.8" font-family="Times,serif" font-size="14.00">ApplicationService</text>
</g>
<!-- ApplicationService&#45;&gt;ContainerModule -->
<g id="edge4" class="edge">
<title>ApplicationService&#45;&gt;ContainerModule</title>
<path fill="none" stroke="black" d="M1154,-122.29C1154,-144.21 1154,-178 1154,-178 1154,-178 681.28,-178 681.28,-178"/>
<polygon fill="black" stroke="black" points="681.28,-174.5 671.28,-178 681.28,-181.5 681.28,-174.5"/>
</g>
<!-- ContextService -->
<g id="node6" class="node">
<title>ContextService</title>
<ellipse fill="#fdb462" stroke="black" cx="980" cy="-104" rx="70.64" ry="18"/>
<text text-anchor="middle" x="980" y="-99.8" font-family="Times,serif" font-size="14.00">ContextService</text>
</g>
<!-- ContextService&#45;&gt;ContainerModule -->
<g id="edge5" class="edge">
<title>ContextService&#45;&gt;ContainerModule</title>
<path fill="none" stroke="black" d="M980,-122.11C980,-141.34 980,-169 980,-169 980,-169 681.59,-169 681.59,-169"/>
<polygon fill="black" stroke="black" points="681.59,-165.5 671.59,-169 681.59,-172.5 681.59,-165.5"/>
</g>
<!-- RequestInterceptor -->
<g id="node7" class="node">
<title>RequestInterceptor</title>
<ellipse fill="#fdb462" stroke="black" cx="807" cy="-104" rx="84.51" ry="18"/>
<text text-anchor="middle" x="807" y="-99.8" font-family="Times,serif" font-size="14.00">RequestInterceptor</text>
</g>
<!-- RequestInterceptor&#45;&gt;ContainerModule -->
<g id="edge6" class="edge">
<title>RequestInterceptor&#45;&gt;ContainerModule</title>
<path fill="none" stroke="black" d="M807,-122.03C807,-138.4 807,-160 807,-160 807,-160 681.38,-160 681.38,-160"/>
<polygon fill="black" stroke="black" points="681.38,-156.5 671.38,-160 681.38,-163.5 681.38,-156.5"/>
</g>
<!-- ResponseInterceptor -->
<g id="node8" class="node">
<title>ResponseInterceptor</title>
<ellipse fill="#fdb462" stroke="black" cx="614" cy="-104" rx="90.31" ry="18"/>
<text text-anchor="middle" x="614" y="-99.8" font-family="Times,serif" font-size="14.00">ResponseInterceptor</text>
</g>
<!-- ResponseInterceptor&#45;&gt;ContainerModule -->
<g id="edge7" class="edge">
<title>ResponseInterceptor&#45;&gt;ContainerModule</title>
<path fill="none" stroke="black" d="M614,-122.11C614,-122.11 614,-140.99 614,-140.99"/>
<polygon fill="black" stroke="black" points="610.5,-140.99 614,-150.99 617.5,-140.99 610.5,-140.99"/>
</g>
<!-- WeatherService -->
<g id="node9" class="node">
<title>WeatherService</title>
<ellipse fill="#fdb462" stroke="black" cx="433" cy="-104" rx="72.89" ry="18"/>
<text text-anchor="middle" x="433" y="-99.8" font-family="Times,serif" font-size="14.00">WeatherService</text>
</g>
<!-- WeatherService&#45;&gt;ContainerModule -->
<g id="edge8" class="edge">
<title>WeatherService&#45;&gt;ContainerModule</title>
<path fill="none" stroke="black" d="M433,-122.03C433,-138.4 433,-160 433,-160 433,-160 546.73,-160 546.73,-160"/>
<polygon fill="black" stroke="black" points="546.73,-163.5 556.73,-160 546.73,-156.5 546.73,-163.5"/>
</g>
</g>
</svg>
