<?xml version="1.0" encoding="UTF-8" standalone="no"?>
<!DOCTYPE svg PUBLIC "-//W3C//DTD SVG 1.1//EN"
 "http://www.w3.org/Graphics/SVG/1.1/DTD/svg11.dtd">
<!-- Generated by graphviz version 2.44.1 (20200629.0846)
 -->
<!-- Title: dependencies Pages: 1 -->
<svg width="1521pt" height="284pt"
 viewBox="0.00 0.00 1521.00 284.00" xmlns="http://www.w3.org/2000/svg" xmlns:xlink="http://www.w3.org/1999/xlink">
<g id="graph0" class="graph" transform="scale(1 1) rotate(0) translate(4 280)">
<title>dependencies</title>
<polygon fill="white" stroke="transparent" points="-4,4 -4,-280 1517,-280 1517,4 -4,4"/>
<text text-anchor="start" x="735.51" y="-42.4" font-family="sans-serif" font-weight="bold" font-size="14.00">Legend</text>
<polygon fill="#ffffb3" stroke="transparent" points="522.5,-10 522.5,-30 542.5,-30 542.5,-10 522.5,-10"/>
<text text-anchor="start" x="546.13" y="-15.4" font-family="sans-serif" font-size="14.00"> &#160;Declarations</text>
<polygon fill="#8dd3c7" stroke="transparent" points="635.5,-10 635.5,-30 655.5,-30 655.5,-10 635.5,-10"/>
<text text-anchor="start" x="659.23" y="-15.4" font-family="sans-serif" font-size="14.00"> &#160;Module</text>
<polygon fill="#80b1d3" stroke="transparent" points="721.5,-10 721.5,-30 741.5,-30 741.5,-10 721.5,-10"/>
<text text-anchor="start" x="745.28" y="-15.4" font-family="sans-serif" font-size="14.00"> &#160;Bootstrap</text>
<polygon fill="#fdb462" stroke="transparent" points="818.5,-10 818.5,-30 838.5,-30 838.5,-10 818.5,-10"/>
<text text-anchor="start" x="842.17" y="-15.4" font-family="sans-serif" font-size="14.00"> &#160;Providers</text>
<polygon fill="#fb8072" stroke="transparent" points="914.5,-10 914.5,-30 934.5,-30 934.5,-10 914.5,-10"/>
<text text-anchor="start" x="938.23" y="-15.4" font-family="sans-serif" font-size="14.00"> &#160;Exports</text>
<g id="clust1" class="cluster">
<title>cluster_ContainerModule</title>
<polygon fill="none" stroke="black" stroke-dasharray="1,5" points="8,-70 8,-268 1505,-268 1505,-70 8,-70"/>
</g>
<g id="clust2" class="cluster">
<title>cluster_ContainerModule_declarations</title>
<polygon fill="none" stroke="black" points="1345,-78 1345,-130 1497,-130 1497,-78 1345,-78"/>
</g>
<g id="clust7" class="cluster">
<title>cluster_ContainerModule_providers</title>
<polygon fill="none" stroke="black" points="440,-78 440,-130 1337,-130 1337,-78 440,-78"/>
</g>
<g id="clust5" class="cluster">
<title>cluster_ContainerModule_exports</title>
<polygon fill="none" stroke="black" points="545,-208 545,-260 949,-260 949,-208 545,-208"/>
</g>
<g id="clust4" class="cluster">
<title>cluster_ContainerModule_imports</title>
<polygon fill="none" stroke="black" points="16,-78 16,-130 432,-130 432,-78 16,-78"/>
</g>
<!-- ContainerComponent -->
<g id="node1" class="node">
<title>ContainerComponent</title>
<polygon fill="#ffffb3" stroke="black" points="1489.04,-122 1352.96,-122 1352.96,-86 1489.04,-86 1489.04,-122"/>
<text text-anchor="middle" x="1421" y="-99.8" font-family="Times,serif" font-size="14.00">ContainerComponent</text>
</g>
<!-- ContainerModule -->
<g id="node2" class="node">
<title>ContainerModule</title>
<polygon fill="#8dd3c7" stroke="black" points="788.26,-187 785.26,-191 764.26,-191 761.26,-187 673.74,-187 673.74,-151 788.26,-151 788.26,-187"/>
<text text-anchor="middle" x="731" y="-164.8" font-family="Times,serif" font-size="14.00">ContainerModule</text>
</g>
<!-- ContainerComponent&#45;&gt;ContainerModule -->
<g id="edge1" class="edge">
<title>ContainerComponent&#45;&gt;ContainerModule</title>
<path fill="none" stroke="black" d="M1421,-122.28C1421,-143.32 1421,-175 1421,-175 1421,-175 798.35,-175 798.35,-175"/>
<polygon fill="black" stroke="black" points="798.35,-171.5 788.35,-175 798.35,-178.5 798.35,-171.5"/>
</g>
<!-- ContainerComponent  -->
<g id="node6" class="node">
<title>ContainerComponent </title>
<polygon fill="#fb8072" stroke="black" points="941.04,-252 800.96,-252 800.96,-216 941.04,-216 941.04,-252"/>
<text text-anchor="middle" x="871" y="-229.8" font-family="Times,serif" font-size="14.00">ContainerComponent </text>
</g>
<!-- ContainerModule&#45;&gt;ContainerComponent  -->
<g id="edge5" class="edge">
<title>ContainerModule&#45;&gt;ContainerComponent </title>
<path fill="none" stroke="black" stroke-dasharray="5,2" d="M788.35,-181C799.73,-181 808.24,-181 808.24,-181 808.24,-181 808.24,-205.76 808.24,-205.76"/>
<polygon fill="black" stroke="black" points="804.74,-205.76 808.24,-215.76 811.74,-205.76 804.74,-205.76"/>
</g>
<!-- HeaderModule  -->
<g id="node7" class="node">
<title>HeaderModule </title>
<polygon fill="#fb8072" stroke="black" points="782.96,-252 679.04,-252 679.04,-216 782.96,-216 782.96,-252"/>
<text text-anchor="middle" x="731" y="-229.8" font-family="Times,serif" font-size="14.00">HeaderModule </text>
</g>
<!-- ContainerModule&#45;&gt;HeaderModule  -->
<g id="edge6" class="edge">
<title>ContainerModule&#45;&gt;HeaderModule </title>
<path fill="none" stroke="black" stroke-dasharray="5,2" d="M731,-187.11C731,-187.11 731,-205.99 731,-205.99"/>
<polygon fill="black" stroke="black" points="727.5,-205.99 731,-215.99 734.5,-205.99 727.5,-205.99"/>
</g>
<!-- SidenavModule  -->
<g id="node8" class="node">
<title>SidenavModule </title>
<polygon fill="#fb8072" stroke="black" points="661.15,-252 552.85,-252 552.85,-216 661.15,-216 661.15,-252"/>
<text text-anchor="middle" x="607" y="-229.8" font-family="Times,serif" font-size="14.00">SidenavModule </text>
</g>
<!-- ContainerModule&#45;&gt;SidenavModule  -->
<g id="edge7" class="edge">
<title>ContainerModule&#45;&gt;SidenavModule </title>
<path fill="none" stroke="black" stroke-dasharray="5,2" d="M673.67,-181C662.3,-181 653.79,-181 653.79,-181 653.79,-181 653.79,-205.76 653.79,-205.76"/>
<polygon fill="black" stroke="black" points="650.29,-205.76 653.79,-215.76 657.29,-205.76 650.29,-205.76"/>
</g>
<!-- ContainerRoutingModule -->
<g id="node3" class="node">
<title>ContainerRoutingModule</title>
<polygon fill="#8dd3c7" stroke="black" points="423.88,-122 420.88,-126 399.88,-126 396.88,-122 264.12,-122 264.12,-86 423.88,-86 423.88,-122"/>
<text text-anchor="middle" x="344" y="-99.8" font-family="Times,serif" font-size="14.00">ContainerRoutingModule</text>
</g>
<!-- ContainerRoutingModule&#45;&gt;ContainerModule -->
<g id="edge2" class="edge">
<title>ContainerRoutingModule&#45;&gt;ContainerModule</title>
<path fill="none" stroke="black" d="M344,-122.02C344,-139.37 344,-163 344,-163 344,-163 663.48,-163 663.48,-163"/>
<polygon fill="black" stroke="black" points="663.48,-166.5 673.48,-163 663.48,-159.5 663.48,-166.5"/>
</g>
<!-- HeaderModule -->
<g id="node4" class="node">
<title>HeaderModule</title>
<polygon fill="#8dd3c7" stroke="black" points="245.96,-122 242.96,-126 221.96,-126 218.96,-122 146.04,-122 146.04,-86 245.96,-86 245.96,-122"/>
<text text-anchor="middle" x="196" y="-99.8" font-family="Times,serif" font-size="14.00">HeaderModule</text>
</g>
<!-- HeaderModule&#45;&gt;ContainerModule -->
<g id="edge3" class="edge">
<title>HeaderModule&#45;&gt;ContainerModule</title>
<path fill="none" stroke="black" d="M196,-122.11C196,-141.34 196,-169 196,-169 196,-169 663.49,-169 663.49,-169"/>
<polygon fill="black" stroke="black" points="663.49,-172.5 673.49,-169 663.49,-165.5 663.49,-172.5"/>
</g>
<!-- SidenavModule -->
<g id="node5" class="node">
<title>SidenavModule</title>
<polygon fill="#8dd3c7" stroke="black" points="128.15,-122 125.15,-126 104.15,-126 101.15,-122 23.85,-122 23.85,-86 128.15,-86 128.15,-122"/>
<text text-anchor="middle" x="76" y="-99.8" font-family="Times,serif" font-size="14.00">SidenavModule</text>
</g>
<!-- SidenavModule&#45;&gt;ContainerModule -->
<g id="edge4" class="edge">
<title>SidenavModule&#45;&gt;ContainerModule</title>
<path fill="none" stroke="black" d="M76,-122.28C76,-143.32 76,-175 76,-175 76,-175 663.73,-175 663.73,-175"/>
<polygon fill="black" stroke="black" points="663.73,-178.5 673.73,-175 663.73,-171.5 663.73,-178.5"/>
</g>
<!-- ApplicationService -->
<g id="node9" class="node">
<title>ApplicationService</title>
<ellipse fill="#fdb462" stroke="black" cx="1243" cy="-104" rx="85.67" ry="18"/>
<text text-anchor="middle" x="1243" y="-99.8" font-family="Times,serif" font-size="14.00">ApplicationService</text>
</g>
<!-- ApplicationService&#45;&gt;ContainerModule -->
<g id="edge8" class="edge">
<title>ApplicationService&#45;&gt;ContainerModule</title>
<path fill="none" stroke="black" d="M1243,-122.11C1243,-141.34 1243,-169 1243,-169 1243,-169 798.74,-169 798.74,-169"/>
<polygon fill="black" stroke="black" points="798.74,-165.5 788.74,-169 798.74,-172.5 798.74,-165.5"/>
</g>
<!-- ContextService -->
<g id="node10" class="node">
<title>ContextService</title>
<ellipse fill="#fdb462" stroke="black" cx="1069" cy="-104" rx="70.64" ry="18"/>
<text text-anchor="middle" x="1069" y="-99.8" font-family="Times,serif" font-size="14.00">ContextService</text>
</g>
<!-- ContextService&#45;&gt;ContainerModule -->
<g id="edge9" class="edge">
<title>ContextService&#45;&gt;ContainerModule</title>
<path fill="none" stroke="black" d="M1069,-122.02C1069,-139.37 1069,-163 1069,-163 1069,-163 798.34,-163 798.34,-163"/>
<polygon fill="black" stroke="black" points="798.34,-159.5 788.34,-163 798.34,-166.5 798.34,-159.5"/>
</g>
<!-- NetworkService -->
<g id="node11" class="node">
<title>NetworkService</title>
<ellipse fill="#fdb462" stroke="black" cx="907" cy="-104" rx="73.55" ry="18"/>
<text text-anchor="middle" x="907" y="-99.8" font-family="Times,serif" font-size="14.00">NetworkService</text>
</g>
<!-- NetworkService&#45;&gt;ContainerModule -->
<g id="edge10" class="edge">
<title>NetworkService&#45;&gt;ContainerModule</title>
<path fill="none" stroke="black" d="M887.12,-121.35C887.12,-136.81 887.12,-157 887.12,-157 887.12,-157 798.69,-157 798.69,-157"/>
<polygon fill="black" stroke="black" points="798.69,-153.5 788.69,-157 798.69,-160.5 798.69,-153.5"/>
</g>
<!-- RequestInterceptor -->
<g id="node12" class="node">
<title>RequestInterceptor</title>
<ellipse fill="#fdb462" stroke="black" cx="731" cy="-104" rx="84.51" ry="18"/>
<text text-anchor="middle" x="731" y="-99.8" font-family="Times,serif" font-size="14.00">RequestInterceptor</text>
</g>
<!-- RequestInterceptor&#45;&gt;ContainerModule -->
<g id="edge11" class="edge">
<title>RequestInterceptor&#45;&gt;ContainerModule</title>
<path fill="none" stroke="black" d="M731,-122.11C731,-122.11 731,-140.99 731,-140.99"/>
<polygon fill="black" stroke="black" points="727.5,-140.99 731,-150.99 734.5,-140.99 727.5,-140.99"/>
</g>
<!-- ResponseInterceptor -->
<g id="node13" class="node">
<title>ResponseInterceptor</title>
<ellipse fill="#fdb462" stroke="black" cx="538" cy="-104" rx="90.31" ry="18"/>
<text text-anchor="middle" x="538" y="-99.8" font-family="Times,serif" font-size="14.00">ResponseInterceptor</text>
</g>
<!-- ResponseInterceptor&#45;&gt;ContainerModule -->
<g id="edge12" class="edge">
<title>ResponseInterceptor&#45;&gt;ContainerModule</title>
<path fill="none" stroke="black" d="M590.66,-118.76C590.66,-134.45 590.66,-157 590.66,-157 590.66,-157 663.52,-157 663.52,-157"/>
<polygon fill="black" stroke="black" points="663.52,-160.5 673.52,-157 663.52,-153.5 663.52,-160.5"/>
</g>
</g>
</svg>
