<?xml version="1.0" encoding="UTF-8" standalone="no"?>
<!DOCTYPE svg PUBLIC "-//W3C//DTD SVG 1.1//EN"
 "http://www.w3.org/Graphics/SVG/1.1/DTD/svg11.dtd">
<!-- Generated by graphviz version 2.44.1 (20200629.0846)
 -->
<!-- Title: dependencies Pages: 1 -->
<svg width="1123pt" height="284pt"
 viewBox="0.00 0.00 1123.00 284.00" xmlns="http://www.w3.org/2000/svg" xmlns:xlink="http://www.w3.org/1999/xlink">
<g id="graph0" class="graph" transform="scale(1 1) rotate(0) translate(4 280)">
<title>dependencies</title>
<polygon fill="white" stroke="transparent" points="-4,4 -4,-280 1119,-280 1119,4 -4,4"/>
<text text-anchor="start" x="536.51" y="-42.4" font-family="sans-serif" font-weight="bold" font-size="14.00">Legend</text>
<polygon fill="#ffffb3" stroke="transparent" points="323.5,-10 323.5,-30 343.5,-30 343.5,-10 323.5,-10"/>
<text text-anchor="start" x="347.13" y="-15.4" font-family="sans-serif" font-size="14.00"> &#160;Declarations</text>
<polygon fill="#8dd3c7" stroke="transparent" points="436.5,-10 436.5,-30 456.5,-30 456.5,-10 436.5,-10"/>
<text text-anchor="start" x="460.23" y="-15.4" font-family="sans-serif" font-size="14.00"> &#160;Module</text>
<polygon fill="#80b1d3" stroke="transparent" points="522.5,-10 522.5,-30 542.5,-30 542.5,-10 522.5,-10"/>
<text text-anchor="start" x="546.28" y="-15.4" font-family="sans-serif" font-size="14.00"> &#160;Bootstrap</text>
<polygon fill="#fdb462" stroke="transparent" points="619.5,-10 619.5,-30 639.5,-30 639.5,-10 619.5,-10"/>
<text text-anchor="start" x="643.17" y="-15.4" font-family="sans-serif" font-size="14.00"> &#160;Providers</text>
<polygon fill="#fb8072" stroke="transparent" points="715.5,-10 715.5,-30 735.5,-30 735.5,-10 715.5,-10"/>
<text text-anchor="start" x="739.23" y="-15.4" font-family="sans-serif" font-size="14.00"> &#160;Exports</text>
<g id="clust1" class="cluster">
<title>cluster_ContainerModule</title>
<polygon fill="none" stroke="black" stroke-dasharray="1,5" points="8,-70 8,-268 1107,-268 1107,-70 8,-70"/>
</g>
<g id="clust2" class="cluster">
<title>cluster_ContainerModule_declarations</title>
<polygon fill="none" stroke="black" points="949,-78 949,-130 1099,-130 1099,-78 949,-78"/>
</g>
<g id="clust7" class="cluster">
<title>cluster_ContainerModule_providers</title>
<polygon fill="none" stroke="black" points="200,-78 200,-130 941,-130 941,-78 200,-78"/>
</g>
<g id="clust5" class="cluster">
<title>cluster_ContainerModule_exports</title>
<polygon fill="none" stroke="black" points="477,-208 477,-260 629,-260 629,-208 477,-208"/>
</g>
<g id="clust4" class="cluster">
<title>cluster_ContainerModule_imports</title>
<polygon fill="none" stroke="black" points="16,-78 16,-130 192,-130 192,-78 16,-78"/>
</g>
<!-- FavoritesComponent -->
<g id="node1" class="node">
<title>FavoritesComponent</title>
<polygon fill="#ffffb3" stroke="black" points="1090.93,-122 957.07,-122 957.07,-86 1090.93,-86 1090.93,-122"/>
<text text-anchor="middle" x="1024" y="-99.8" font-family="Times,serif" font-size="14.00">FavoritesComponent</text>
</g>
<!-- ContainerModule -->
<g id="node2" class="node">
<title>ContainerModule</title>
<polygon fill="#8dd3c7" stroke="black" points="610.26,-187 607.26,-191 586.26,-191 583.26,-187 495.74,-187 495.74,-151 610.26,-151 610.26,-187"/>
<text text-anchor="middle" x="553" y="-164.8" font-family="Times,serif" font-size="14.00">ContainerModule</text>
</g>
<!-- FavoritesComponent&#45;&gt;ContainerModule -->
<g id="edge1" class="edge">
<title>FavoritesComponent&#45;&gt;ContainerModule</title>
<path fill="none" stroke="black" d="M1024,-122.28C1024,-143.32 1024,-175 1024,-175 1024,-175 620.28,-175 620.28,-175"/>
<polygon fill="black" stroke="black" points="620.28,-171.5 610.28,-175 620.28,-178.5 620.28,-171.5"/>
</g>
<!-- FavoritesComponent  -->
<g id="node4" class="node">
<title>FavoritesComponent </title>
<polygon fill="#fb8072" stroke="black" points="621.43,-252 484.57,-252 484.57,-216 621.43,-216 621.43,-252"/>
<text text-anchor="middle" x="553" y="-229.8" font-family="Times,serif" font-size="14.00">FavoritesComponent </text>
</g>
<!-- ContainerModule&#45;&gt;FavoritesComponent  -->
<g id="edge3" class="edge">
<title>ContainerModule&#45;&gt;FavoritesComponent </title>
<path fill="none" stroke="black" stroke-dasharray="5,2" d="M553,-187.11C553,-187.11 553,-205.99 553,-205.99"/>
<polygon fill="black" stroke="black" points="549.5,-205.99 553,-215.99 556.5,-205.99 549.5,-205.99"/>
</g>
<!-- ContainerRoutingModule -->
<g id="node3" class="node">
<title>ContainerRoutingModule</title>
<polygon fill="#8dd3c7" stroke="black" points="183.88,-122 180.88,-126 159.88,-126 156.88,-122 24.12,-122 24.12,-86 183.88,-86 183.88,-122"/>
<text text-anchor="middle" x="104" y="-99.8" font-family="Times,serif" font-size="14.00">ContainerRoutingModule</text>
</g>
<!-- ContainerRoutingModule&#45;&gt;ContainerModule -->
<g id="edge2" class="edge">
<title>ContainerRoutingModule&#45;&gt;ContainerModule</title>
<path fill="none" stroke="black" d="M104,-122.28C104,-143.32 104,-175 104,-175 104,-175 485.68,-175 485.68,-175"/>
<polygon fill="black" stroke="black" points="485.68,-178.5 495.68,-175 485.68,-171.5 485.68,-178.5"/>
</g>
<!-- ApplicationService -->
<g id="node5" class="node">
<title>ApplicationService</title>
<ellipse fill="#fdb462" stroke="black" cx="847" cy="-104" rx="85.67" ry="18"/>
<text text-anchor="middle" x="847" y="-99.8" font-family="Times,serif" font-size="14.00">ApplicationService</text>
</g>
<!-- ApplicationService&#45;&gt;ContainerModule -->
<g id="edge4" class="edge">
<title>ApplicationService&#45;&gt;ContainerModule</title>
<path fill="none" stroke="black" d="M847,-122.02C847,-139.37 847,-163 847,-163 847,-163 620.38,-163 620.38,-163"/>
<polygon fill="black" stroke="black" points="620.38,-159.5 610.38,-163 620.38,-166.5 620.38,-159.5"/>
</g>
<!-- ExceptionInterceptor -->
<g id="node6" class="node">
<title>ExceptionInterceptor</title>
<ellipse fill="#fdb462" stroke="black" cx="651" cy="-104" rx="92.6" ry="18"/>
<text text-anchor="middle" x="651" y="-99.8" font-family="Times,serif" font-size="14.00">ExceptionInterceptor</text>
</g>
<!-- ExceptionInterceptor&#45;&gt;ContainerModule -->
<g id="edge5" class="edge">
<title>ExceptionInterceptor&#45;&gt;ContainerModule</title>
<path fill="none" stroke="black" d="M584.42,-116.53C584.42,-116.53 584.42,-140.85 584.42,-140.85"/>
<polygon fill="black" stroke="black" points="580.92,-140.85 584.42,-150.85 587.92,-140.85 580.92,-140.85"/>
</g>
<!-- RequestInterceptor -->
<g id="node7" class="node">
<title>RequestInterceptor</title>
<ellipse fill="#fdb462" stroke="black" cx="456" cy="-104" rx="84.51" ry="18"/>
<text text-anchor="middle" x="456" y="-99.8" font-family="Times,serif" font-size="14.00">RequestInterceptor</text>
</g>
<!-- RequestInterceptor&#45;&gt;ContainerModule -->
<g id="edge6" class="edge">
<title>RequestInterceptor&#45;&gt;ContainerModule</title>
<path fill="none" stroke="black" d="M518.06,-116.23C518.06,-116.23 518.06,-140.68 518.06,-140.68"/>
<polygon fill="black" stroke="black" points="514.56,-140.68 518.06,-150.68 521.56,-140.68 514.56,-140.68"/>
</g>
<!-- WeatherService -->
<g id="node8" class="node">
<title>WeatherService</title>
<ellipse fill="#fdb462" stroke="black" cx="281" cy="-104" rx="72.89" ry="18"/>
<text text-anchor="middle" x="281" y="-99.8" font-family="Times,serif" font-size="14.00">WeatherService</text>
</g>
<!-- WeatherService&#45;&gt;ContainerModule -->
<g id="edge7" class="edge">
<title>WeatherService&#45;&gt;ContainerModule</title>
<path fill="none" stroke="black" d="M281,-122.02C281,-139.37 281,-163 281,-163 281,-163 485.65,-163 485.65,-163"/>
<polygon fill="black" stroke="black" points="485.65,-166.5 495.65,-163 485.65,-159.5 485.65,-166.5"/>
</g>
</g>
</svg>
