<?xml version="1.0" encoding="UTF-8" standalone="no"?>
<!DOCTYPE svg PUBLIC "-//W3C//DTD SVG 1.1//EN"
 "http://www.w3.org/Graphics/SVG/1.1/DTD/svg11.dtd">
<!-- Generated by graphviz version 2.44.1 (20200629.0846)
 -->
<!-- Title: dependencies Pages: 1 -->
<svg width="1322pt" height="284pt"
 viewBox="0.00 0.00 1322.00 284.00" xmlns="http://www.w3.org/2000/svg" xmlns:xlink="http://www.w3.org/1999/xlink">
<g id="graph0" class="graph" transform="scale(1 1) rotate(0) translate(4 280)">
<title>dependencies</title>
<polygon fill="white" stroke="transparent" points="-4,4 -4,-280 1318,-280 1318,4 -4,4"/>
<text text-anchor="start" x="636.01" y="-42.4" font-family="sans-serif" font-weight="bold" font-size="14.00">Legend</text>
<polygon fill="#ffffb3" stroke="transparent" points="423,-10 423,-30 443,-30 443,-10 423,-10"/>
<text text-anchor="start" x="446.63" y="-15.4" font-family="sans-serif" font-size="14.00"> &#160;Declarations</text>
<polygon fill="#8dd3c7" stroke="transparent" points="536,-10 536,-30 556,-30 556,-10 536,-10"/>
<text text-anchor="start" x="559.73" y="-15.4" font-family="sans-serif" font-size="14.00"> &#160;Module</text>
<polygon fill="#80b1d3" stroke="transparent" points="622,-10 622,-30 642,-30 642,-10 622,-10"/>
<text text-anchor="start" x="645.78" y="-15.4" font-family="sans-serif" font-size="14.00"> &#160;Bootstrap</text>
<polygon fill="#fdb462" stroke="transparent" points="719,-10 719,-30 739,-30 739,-10 719,-10"/>
<text text-anchor="start" x="742.67" y="-15.4" font-family="sans-serif" font-size="14.00"> &#160;Providers</text>
<polygon fill="#fb8072" stroke="transparent" points="815,-10 815,-30 835,-30 835,-10 815,-10"/>
<text text-anchor="start" x="838.73" y="-15.4" font-family="sans-serif" font-size="14.00"> &#160;Exports</text>
<g id="clust1" class="cluster">
<title>cluster_ContainerModule</title>
<polygon fill="none" stroke="black" stroke-dasharray="1,5" points="8,-70 8,-268 1306,-268 1306,-70 8,-70"/>
</g>
<g id="clust2" class="cluster">
<title>cluster_ContainerModule_declarations</title>
<polygon fill="none" stroke="black" points="1148,-78 1148,-130 1298,-130 1298,-78 1148,-78"/>
</g>
<g id="clust4" class="cluster">
<title>cluster_ContainerModule_imports</title>
<polygon fill="none" stroke="black" points="964,-78 964,-130 1140,-130 1140,-78 964,-78"/>
</g>
<g id="clust5" class="cluster">
<title>cluster_ContainerModule_exports</title>
<polygon fill="none" stroke="black" points="590,-208 590,-260 742,-260 742,-208 590,-208"/>
</g>
<g id="clust7" class="cluster">
<title>cluster_ContainerModule_providers</title>
<polygon fill="none" stroke="black" points="16,-78 16,-130 956,-130 956,-78 16,-78"/>
</g>
<!-- FavoritesComponent -->
<g id="node1" class="node">
<title>FavoritesComponent</title>
<polygon fill="#ffffb3" stroke="black" points="1289.93,-122 1156.07,-122 1156.07,-86 1289.93,-86 1289.93,-122"/>
<text text-anchor="middle" x="1223" y="-99.8" font-family="Times,serif" font-size="14.00">FavoritesComponent</text>
</g>
<!-- ContainerModule -->
<g id="node2" class="node">
<title>ContainerModule</title>
<polygon fill="#8dd3c7" stroke="black" points="723.26,-187 720.26,-191 699.26,-191 696.26,-187 608.74,-187 608.74,-151 723.26,-151 723.26,-187"/>
<text text-anchor="middle" x="666" y="-164.8" font-family="Times,serif" font-size="14.00">ContainerModule</text>
</g>
<!-- FavoritesComponent&#45;&gt;ContainerModule -->
<g id="edge1" class="edge">
<title>FavoritesComponent&#45;&gt;ContainerModule</title>
<path fill="none" stroke="black" d="M1223,-122.29C1223,-144.21 1223,-178 1223,-178 1223,-178 733.51,-178 733.51,-178"/>
<polygon fill="black" stroke="black" points="733.51,-174.5 723.51,-178 733.51,-181.5 733.51,-174.5"/>
</g>
<!-- FavoritesComponent  -->
<g id="node4" class="node">
<title>FavoritesComponent </title>
<polygon fill="#fb8072" stroke="black" points="734.43,-252 597.57,-252 597.57,-216 734.43,-216 734.43,-252"/>
<text text-anchor="middle" x="666" y="-229.8" font-family="Times,serif" font-size="14.00">FavoritesComponent </text>
</g>
<!-- ContainerModule&#45;&gt;FavoritesComponent  -->
<g id="edge3" class="edge">
<title>ContainerModule&#45;&gt;FavoritesComponent </title>
<path fill="none" stroke="black" stroke-dasharray="5,2" d="M666,-187.11C666,-187.11 666,-205.99 666,-205.99"/>
<polygon fill="black" stroke="black" points="662.5,-205.99 666,-215.99 669.5,-205.99 662.5,-205.99"/>
</g>
<!-- ContainerRoutingModule -->
<g id="node3" class="node">
<title>ContainerRoutingModule</title>
<polygon fill="#8dd3c7" stroke="black" points="1131.88,-122 1128.88,-126 1107.88,-126 1104.88,-122 972.12,-122 972.12,-86 1131.88,-86 1131.88,-122"/>
<text text-anchor="middle" x="1052" y="-99.8" font-family="Times,serif" font-size="14.00">ContainerRoutingModule</text>
</g>
<!-- ContainerRoutingModule&#45;&gt;ContainerModule -->
<g id="edge2" class="edge">
<title>ContainerRoutingModule&#45;&gt;ContainerModule</title>
<path fill="none" stroke="black" d="M1052,-122.11C1052,-141.34 1052,-169 1052,-169 1052,-169 733.37,-169 733.37,-169"/>
<polygon fill="black" stroke="black" points="733.37,-165.5 723.37,-169 733.37,-172.5 733.37,-165.5"/>
</g>
<!-- ApplicationService -->
<g id="node5" class="node">
<title>ApplicationService</title>
<ellipse fill="#fdb462" stroke="black" cx="862" cy="-104" rx="85.67" ry="18"/>
<text text-anchor="middle" x="862" y="-99.8" font-family="Times,serif" font-size="14.00">ApplicationService</text>
</g>
<!-- ApplicationService&#45;&gt;ContainerModule -->
<g id="edge4" class="edge">
<title>ApplicationService&#45;&gt;ContainerModule</title>
<path fill="none" stroke="black" d="M862,-122.03C862,-138.4 862,-160 862,-160 862,-160 733.48,-160 733.48,-160"/>
<polygon fill="black" stroke="black" points="733.48,-156.5 723.48,-160 733.48,-163.5 733.48,-156.5"/>
</g>
<!-- ExceptionInterceptor -->
<g id="node6" class="node">
<title>ExceptionInterceptor</title>
<ellipse fill="#fdb462" stroke="black" cx="666" cy="-104" rx="92.6" ry="18"/>
<text text-anchor="middle" x="666" y="-99.8" font-family="Times,serif" font-size="14.00">ExceptionInterceptor</text>
</g>
<!-- ExceptionInterceptor&#45;&gt;ContainerModule -->
<g id="edge5" class="edge">
<title>ExceptionInterceptor&#45;&gt;ContainerModule</title>
<path fill="none" stroke="black" d="M666,-122.11C666,-122.11 666,-140.99 666,-140.99"/>
<polygon fill="black" stroke="black" points="662.5,-140.99 666,-150.99 669.5,-140.99 662.5,-140.99"/>
</g>
<!-- RequestInterceptor -->
<g id="node7" class="node">
<title>RequestInterceptor</title>
<ellipse fill="#fdb462" stroke="black" cx="471" cy="-104" rx="84.51" ry="18"/>
<text text-anchor="middle" x="471" y="-99.8" font-family="Times,serif" font-size="14.00">RequestInterceptor</text>
</g>
<!-- RequestInterceptor&#45;&gt;ContainerModule -->
<g id="edge6" class="edge">
<title>RequestInterceptor&#45;&gt;ContainerModule</title>
<path fill="none" stroke="black" d="M471,-122.03C471,-138.4 471,-160 471,-160 471,-160 598.55,-160 598.55,-160"/>
<polygon fill="black" stroke="black" points="598.55,-163.5 608.55,-160 598.55,-156.5 598.55,-163.5"/>
</g>
<!-- ResponseInterceptor -->
<g id="node8" class="node">
<title>ResponseInterceptor</title>
<ellipse fill="#fdb462" stroke="black" cx="278" cy="-104" rx="90.31" ry="18"/>
<text text-anchor="middle" x="278" y="-99.8" font-family="Times,serif" font-size="14.00">ResponseInterceptor</text>
</g>
<!-- ResponseInterceptor&#45;&gt;ContainerModule -->
<g id="edge7" class="edge">
<title>ResponseInterceptor&#45;&gt;ContainerModule</title>
<path fill="none" stroke="black" d="M278,-122.11C278,-141.34 278,-169 278,-169 278,-169 598.33,-169 598.33,-169"/>
<polygon fill="black" stroke="black" points="598.33,-172.5 608.33,-169 598.33,-165.5 598.33,-172.5"/>
</g>
<!-- WeatherService -->
<g id="node9" class="node">
<title>WeatherService</title>
<ellipse fill="#fdb462" stroke="black" cx="97" cy="-104" rx="72.89" ry="18"/>
<text text-anchor="middle" x="97" y="-99.8" font-family="Times,serif" font-size="14.00">WeatherService</text>
</g>
<!-- WeatherService&#45;&gt;ContainerModule -->
<g id="edge8" class="edge">
<title>WeatherService&#45;&gt;ContainerModule</title>
<path fill="none" stroke="black" d="M97,-122.29C97,-144.21 97,-178 97,-178 97,-178 598.57,-178 598.57,-178"/>
<polygon fill="black" stroke="black" points="598.57,-181.5 608.57,-178 598.57,-174.5 598.57,-181.5"/>
</g>
</g>
</svg>
