<?xml version="1.0" encoding="UTF-8" standalone="no"?>
<!DOCTYPE svg PUBLIC "-//W3C//DTD SVG 1.1//EN"
 "http://www.w3.org/Graphics/SVG/1.1/DTD/svg11.dtd">
<!-- Generated by graphviz version 2.44.1 (20200629.0846)
 -->
<!-- Title: dependencies Pages: 1 -->
<svg width="1601pt" height="284pt"
 viewBox="0.00 0.00 1601.00 284.00" xmlns="http://www.w3.org/2000/svg" xmlns:xlink="http://www.w3.org/1999/xlink">
<g id="graph0" class="graph" transform="scale(1 1) rotate(0) translate(4 280)">
<title>dependencies</title>
<polygon fill="white" stroke="transparent" points="-4,4 -4,-280 1597,-280 1597,4 -4,4"/>
<text text-anchor="start" x="775.51" y="-42.4" font-family="sans-serif" font-weight="bold" font-size="14.00">Legend</text>
<polygon fill="#ffffb3" stroke="transparent" points="562.5,-10 562.5,-30 582.5,-30 582.5,-10 562.5,-10"/>
<text text-anchor="start" x="586.13" y="-15.4" font-family="sans-serif" font-size="14.00"> &#160;Declarations</text>
<polygon fill="#8dd3c7" stroke="transparent" points="675.5,-10 675.5,-30 695.5,-30 695.5,-10 675.5,-10"/>
<text text-anchor="start" x="699.23" y="-15.4" font-family="sans-serif" font-size="14.00"> &#160;Module</text>
<polygon fill="#80b1d3" stroke="transparent" points="761.5,-10 761.5,-30 781.5,-30 781.5,-10 761.5,-10"/>
<text text-anchor="start" x="785.28" y="-15.4" font-family="sans-serif" font-size="14.00"> &#160;Bootstrap</text>
<polygon fill="#fdb462" stroke="transparent" points="858.5,-10 858.5,-30 878.5,-30 878.5,-10 858.5,-10"/>
<text text-anchor="start" x="882.17" y="-15.4" font-family="sans-serif" font-size="14.00"> &#160;Providers</text>
<polygon fill="#fb8072" stroke="transparent" points="954.5,-10 954.5,-30 974.5,-30 974.5,-10 954.5,-10"/>
<text text-anchor="start" x="978.23" y="-15.4" font-family="sans-serif" font-size="14.00"> &#160;Exports</text>
<g id="clust1" class="cluster">
<title>cluster_ContainerModule</title>
<polygon fill="none" stroke="black" stroke-dasharray="1,5" points="8,-70 8,-268 1585,-268 1585,-70 8,-70"/>
</g>
<g id="clust7" class="cluster">
<title>cluster_ContainerModule_providers</title>
<polygon fill="none" stroke="black" points="836,-78 836,-130 1577,-130 1577,-78 836,-78"/>
</g>
<g id="clust5" class="cluster">
<title>cluster_ContainerModule_exports</title>
<polygon fill="none" stroke="black" points="360,-208 360,-260 1006,-260 1006,-208 360,-208"/>
</g>
<g id="clust4" class="cluster">
<title>cluster_ContainerModule_imports</title>
<polygon fill="none" stroke="black" points="176,-78 176,-130 828,-130 828,-78 176,-78"/>
</g>
<g id="clust2" class="cluster">
<title>cluster_ContainerModule_declarations</title>
<polygon fill="none" stroke="black" points="16,-78 16,-130 168,-130 168,-78 16,-78"/>
</g>
<!-- ContainerComponent -->
<g id="node1" class="node">
<title>ContainerComponent</title>
<polygon fill="#ffffb3" stroke="black" points="160.04,-122 23.96,-122 23.96,-86 160.04,-86 160.04,-122"/>
<text text-anchor="middle" x="92" y="-99.8" font-family="Times,serif" font-size="14.00">ContainerComponent</text>
</g>
<!-- ContainerModule -->
<g id="node2" class="node">
<title>ContainerModule</title>
<polygon fill="#8dd3c7" stroke="black" points="722.26,-187 719.26,-191 698.26,-191 695.26,-187 607.74,-187 607.74,-151 722.26,-151 722.26,-187"/>
<text text-anchor="middle" x="665" y="-164.8" font-family="Times,serif" font-size="14.00">ContainerModule</text>
</g>
<!-- ContainerComponent&#45;&gt;ContainerModule -->
<g id="edge1" class="edge">
<title>ContainerComponent&#45;&gt;ContainerModule</title>
<path fill="none" stroke="black" d="M92,-122.22C92,-142.37 92,-172 92,-172 92,-172 597.7,-172 597.7,-172"/>
<polygon fill="black" stroke="black" points="597.7,-175.5 607.7,-172 597.7,-168.5 597.7,-175.5"/>
</g>
<!-- ContainerComponent  -->
<g id="node8" class="node">
<title>ContainerComponent </title>
<polygon fill="#fb8072" stroke="black" points="998.04,-252 857.96,-252 857.96,-216 998.04,-216 998.04,-252"/>
<text text-anchor="middle" x="928" y="-229.8" font-family="Times,serif" font-size="14.00">ContainerComponent </text>
</g>
<!-- ContainerModule&#45;&gt;ContainerComponent  -->
<g id="edge7" class="edge">
<title>ContainerModule&#45;&gt;ContainerComponent </title>
<path fill="none" stroke="black" stroke-dasharray="5,2" d="M722.44,-177C798.7,-177 923.84,-177 923.84,-177 923.84,-177 923.84,-205.96 923.84,-205.96"/>
<polygon fill="black" stroke="black" points="920.34,-205.96 923.84,-215.96 927.34,-205.96 920.34,-205.96"/>
</g>
<!-- FeatureModule  -->
<g id="node9" class="node">
<title>FeatureModule </title>
<polygon fill="#fb8072" stroke="black" points="839.53,-252 734.47,-252 734.47,-216 839.53,-216 839.53,-252"/>
<text text-anchor="middle" x="787" y="-229.8" font-family="Times,serif" font-size="14.00">FeatureModule </text>
</g>
<!-- ContainerModule&#45;&gt;FeatureModule  -->
<g id="edge8" class="edge">
<title>ContainerModule&#45;&gt;FeatureModule </title>
<path fill="none" stroke="black" stroke-dasharray="5,2" d="M722.42,-182C750.03,-182 777.21,-182 777.21,-182 777.21,-182 777.21,-205.81 777.21,-205.81"/>
<polygon fill="black" stroke="black" points="773.71,-205.81 777.21,-215.81 780.71,-205.81 773.71,-205.81"/>
</g>
<!-- HeaderModule  -->
<g id="node10" class="node">
<title>HeaderModule </title>
<polygon fill="#fb8072" stroke="black" points="716.96,-252 613.04,-252 613.04,-216 716.96,-216 716.96,-252"/>
<text text-anchor="middle" x="665" y="-229.8" font-family="Times,serif" font-size="14.00">HeaderModule </text>
</g>
<!-- ContainerModule&#45;&gt;HeaderModule  -->
<g id="edge9" class="edge">
<title>ContainerModule&#45;&gt;HeaderModule </title>
<path fill="none" stroke="black" stroke-dasharray="5,2" d="M665,-187.11C665,-187.11 665,-205.99 665,-205.99"/>
<polygon fill="black" stroke="black" points="661.5,-205.99 665,-215.99 668.5,-205.99 661.5,-205.99"/>
</g>
<!-- SearchModule  -->
<g id="node11" class="node">
<title>SearchModule </title>
<polygon fill="#fb8072" stroke="black" points="595.64,-252 494.36,-252 494.36,-216 595.64,-216 595.64,-252"/>
<text text-anchor="middle" x="545" y="-229.8" font-family="Times,serif" font-size="14.00">SearchModule </text>
</g>
<!-- ContainerModule&#45;&gt;SearchModule  -->
<g id="edge10" class="edge">
<title>ContainerModule&#45;&gt;SearchModule </title>
<path fill="none" stroke="black" stroke-dasharray="5,2" d="M607.68,-182C586.65,-182 567.9,-182 567.9,-182 567.9,-182 567.9,-205.81 567.9,-205.81"/>
<polygon fill="black" stroke="black" points="564.4,-205.81 567.9,-215.81 571.4,-205.81 564.4,-205.81"/>
</g>
<!-- SidenavModule  -->
<g id="node12" class="node">
<title>SidenavModule </title>
<polygon fill="#fb8072" stroke="black" points="476.15,-252 367.85,-252 367.85,-216 476.15,-216 476.15,-252"/>
<text text-anchor="middle" x="422" y="-229.8" font-family="Times,serif" font-size="14.00">SidenavModule </text>
</g>
<!-- ContainerModule&#45;&gt;SidenavModule  -->
<g id="edge11" class="edge">
<title>ContainerModule&#45;&gt;SidenavModule </title>
<path fill="none" stroke="black" stroke-dasharray="5,2" d="M607.7,-177C543.72,-177 449.05,-177 449.05,-177 449.05,-177 449.05,-205.96 449.05,-205.96"/>
<polygon fill="black" stroke="black" points="445.55,-205.96 449.05,-215.96 452.55,-205.96 445.55,-205.96"/>
</g>
<!-- ContainerRoutingModule -->
<g id="node3" class="node">
<title>ContainerRoutingModule</title>
<polygon fill="#8dd3c7" stroke="black" points="819.88,-122 816.88,-126 795.88,-126 792.88,-122 660.12,-122 660.12,-86 819.88,-86 819.88,-122"/>
<text text-anchor="middle" x="740" y="-99.8" font-family="Times,serif" font-size="14.00">ContainerRoutingModule</text>
</g>
<!-- ContainerRoutingModule&#45;&gt;ContainerModule -->
<g id="edge2" class="edge">
<title>ContainerRoutingModule&#45;&gt;ContainerModule</title>
<path fill="none" stroke="black" d="M691.22,-122.11C691.22,-122.11 691.22,-140.99 691.22,-140.99"/>
<polygon fill="black" stroke="black" points="687.72,-140.99 691.22,-150.99 694.72,-140.99 687.72,-140.99"/>
</g>
<!-- FeatureModule -->
<g id="node4" class="node">
<title>FeatureModule</title>
<polygon fill="#8dd3c7" stroke="black" points="641.53,-122 638.53,-126 617.53,-126 614.53,-122 540.47,-122 540.47,-86 641.53,-86 641.53,-122"/>
<text text-anchor="middle" x="591" y="-99.8" font-family="Times,serif" font-size="14.00">FeatureModule</text>
</g>
<!-- FeatureModule&#45;&gt;ContainerModule -->
<g id="edge3" class="edge">
<title>FeatureModule&#45;&gt;ContainerModule</title>
<path fill="none" stroke="black" d="M624.69,-122.11C624.69,-122.11 624.69,-140.99 624.69,-140.99"/>
<polygon fill="black" stroke="black" points="621.19,-140.99 624.69,-150.99 628.19,-140.99 621.19,-140.99"/>
</g>
<!-- HeaderModule -->
<g id="node5" class="node">
<title>HeaderModule</title>
<polygon fill="#8dd3c7" stroke="black" points="521.96,-122 518.96,-126 497.96,-126 494.96,-122 422.04,-122 422.04,-86 521.96,-86 521.96,-122"/>
<text text-anchor="middle" x="472" y="-99.8" font-family="Times,serif" font-size="14.00">HeaderModule</text>
</g>
<!-- HeaderModule&#45;&gt;ContainerModule -->
<g id="edge4" class="edge">
<title>HeaderModule&#45;&gt;ContainerModule</title>
<path fill="none" stroke="black" d="M508.21,-122.24C508.21,-137.57 508.21,-157 508.21,-157 508.21,-157 597.51,-157 597.51,-157"/>
<polygon fill="black" stroke="black" points="597.51,-160.5 607.51,-157 597.51,-153.5 597.51,-160.5"/>
</g>
<!-- SearchModule -->
<g id="node6" class="node">
<title>SearchModule</title>
<polygon fill="#8dd3c7" stroke="black" points="403.64,-122 400.64,-126 379.64,-126 376.64,-122 306.36,-122 306.36,-86 403.64,-86 403.64,-122"/>
<text text-anchor="middle" x="355" y="-99.8" font-family="Times,serif" font-size="14.00">SearchModule</text>
</g>
<!-- SearchModule&#45;&gt;ContainerModule -->
<g id="edge5" class="edge">
<title>SearchModule&#45;&gt;ContainerModule</title>
<path fill="none" stroke="black" d="M385.87,-122.03C385.87,-139.06 385.87,-162 385.87,-162 385.87,-162 597.5,-162 597.5,-162"/>
<polygon fill="black" stroke="black" points="597.5,-165.5 607.5,-162 597.5,-158.5 597.5,-165.5"/>
</g>
<!-- SidenavModule -->
<g id="node7" class="node">
<title>SidenavModule</title>
<polygon fill="#8dd3c7" stroke="black" points="288.15,-122 285.15,-126 264.15,-126 261.15,-122 183.85,-122 183.85,-86 288.15,-86 288.15,-122"/>
<text text-anchor="middle" x="236" y="-99.8" font-family="Times,serif" font-size="14.00">SidenavModule</text>
</g>
<!-- SidenavModule&#45;&gt;ContainerModule -->
<g id="edge6" class="edge">
<title>SidenavModule&#45;&gt;ContainerModule</title>
<path fill="none" stroke="black" d="M236,-122.22C236,-140.83 236,-167 236,-167 236,-167 597.59,-167 597.59,-167"/>
<polygon fill="black" stroke="black" points="597.59,-170.5 607.59,-167 597.59,-163.5 597.59,-170.5"/>
</g>
<!-- ApplicationService -->
<g id="node13" class="node">
<title>ApplicationService</title>
<ellipse fill="#fdb462" stroke="black" cx="1483" cy="-104" rx="85.67" ry="18"/>
<text text-anchor="middle" x="1483" y="-99.8" font-family="Times,serif" font-size="14.00">ApplicationService</text>
</g>
<!-- ApplicationService&#45;&gt;ContainerModule -->
<g id="edge12" class="edge">
<title>ApplicationService&#45;&gt;ContainerModule</title>
<path fill="none" stroke="black" d="M1483,-122.22C1483,-142.37 1483,-172 1483,-172 1483,-172 732.52,-172 732.52,-172"/>
<polygon fill="black" stroke="black" points="732.52,-168.5 722.52,-172 732.52,-175.5 732.52,-168.5"/>
</g>
<!-- ExceptionInterceptor -->
<g id="node14" class="node">
<title>ExceptionInterceptor</title>
<ellipse fill="#fdb462" stroke="black" cx="1287" cy="-104" rx="92.6" ry="18"/>
<text text-anchor="middle" x="1287" y="-99.8" font-family="Times,serif" font-size="14.00">ExceptionInterceptor</text>
</g>
<!-- ExceptionInterceptor&#45;&gt;ContainerModule -->
<g id="edge13" class="edge">
<title>ExceptionInterceptor&#45;&gt;ContainerModule</title>
<path fill="none" stroke="black" d="M1287,-122.22C1287,-140.83 1287,-167 1287,-167 1287,-167 732.4,-167 732.4,-167"/>
<polygon fill="black" stroke="black" points="732.4,-163.5 722.4,-167 732.4,-170.5 732.4,-163.5"/>
</g>
<!-- RequestInterceptor -->
<g id="node15" class="node">
<title>RequestInterceptor</title>
<ellipse fill="#fdb462" stroke="black" cx="1092" cy="-104" rx="84.51" ry="18"/>
<text text-anchor="middle" x="1092" y="-99.8" font-family="Times,serif" font-size="14.00">RequestInterceptor</text>
</g>
<!-- RequestInterceptor&#45;&gt;ContainerModule -->
<g id="edge14" class="edge">
<title>RequestInterceptor&#45;&gt;ContainerModule</title>
<path fill="none" stroke="black" d="M1092,-122.03C1092,-139.06 1092,-162 1092,-162 1092,-162 732.59,-162 732.59,-162"/>
<polygon fill="black" stroke="black" points="732.59,-158.5 722.59,-162 732.59,-165.5 732.59,-158.5"/>
</g>
<!-- WeatherService -->
<g id="node16" class="node">
<title>WeatherService</title>
<ellipse fill="#fdb462" stroke="black" cx="917" cy="-104" rx="72.89" ry="18"/>
<text text-anchor="middle" x="917" y="-99.8" font-family="Times,serif" font-size="14.00">WeatherService</text>
</g>
<!-- WeatherService&#45;&gt;ContainerModule -->
<g id="edge15" class="edge">
<title>WeatherService&#45;&gt;ContainerModule</title>
<path fill="none" stroke="black" d="M851.14,-111.82C851.14,-126.56 851.14,-157 851.14,-157 851.14,-157 732.37,-157 732.37,-157"/>
<polygon fill="black" stroke="black" points="732.37,-153.5 722.37,-157 732.37,-160.5 732.37,-153.5"/>
</g>
</g>
</svg>
