<?xml version="1.0" encoding="UTF-8" standalone="no"?>
<!DOCTYPE svg PUBLIC "-//W3C//DTD SVG 1.1//EN"
 "http://www.w3.org/Graphics/SVG/1.1/DTD/svg11.dtd">
<!-- Generated by graphviz version 2.44.1 (20200629.0846)
 -->
<!-- Title: dependencies Pages: 1 -->
<svg width="1279pt" height="284pt"
 viewBox="0.00 0.00 1279.00 284.00" xmlns="http://www.w3.org/2000/svg" xmlns:xlink="http://www.w3.org/1999/xlink">
<g id="graph0" class="graph" transform="scale(1 1) rotate(0) translate(4 280)">
<title>dependencies</title>
<polygon fill="white" stroke="transparent" points="-4,4 -4,-280 1275,-280 1275,4 -4,4"/>
<text text-anchor="start" x="614.51" y="-42.4" font-family="sans-serif" font-weight="bold" font-size="14.00">Legend</text>
<polygon fill="#ffffb3" stroke="transparent" points="401.5,-10 401.5,-30 421.5,-30 421.5,-10 401.5,-10"/>
<text text-anchor="start" x="425.13" y="-15.4" font-family="sans-serif" font-size="14.00"> &#160;Declarations</text>
<polygon fill="#8dd3c7" stroke="transparent" points="514.5,-10 514.5,-30 534.5,-30 534.5,-10 514.5,-10"/>
<text text-anchor="start" x="538.23" y="-15.4" font-family="sans-serif" font-size="14.00"> &#160;Module</text>
<polygon fill="#80b1d3" stroke="transparent" points="600.5,-10 600.5,-30 620.5,-30 620.5,-10 600.5,-10"/>
<text text-anchor="start" x="624.28" y="-15.4" font-family="sans-serif" font-size="14.00"> &#160;Bootstrap</text>
<polygon fill="#fdb462" stroke="transparent" points="697.5,-10 697.5,-30 717.5,-30 717.5,-10 697.5,-10"/>
<text text-anchor="start" x="721.17" y="-15.4" font-family="sans-serif" font-size="14.00"> &#160;Providers</text>
<polygon fill="#fb8072" stroke="transparent" points="793.5,-10 793.5,-30 813.5,-30 813.5,-10 793.5,-10"/>
<text text-anchor="start" x="817.23" y="-15.4" font-family="sans-serif" font-size="14.00"> &#160;Exports</text>
<g id="clust1" class="cluster">
<title>cluster_ContainerModule</title>
<polygon fill="none" stroke="black" stroke-dasharray="1,5" points="8,-70 8,-268 1263,-268 1263,-70 8,-70"/>
</g>
<g id="clust5" class="cluster">
<title>cluster_ContainerModule_exports</title>
<polygon fill="none" stroke="black" points="591,-208 591,-260 743,-260 743,-208 591,-208"/>
</g>
<g id="clust2" class="cluster">
<title>cluster_ContainerModule_declarations</title>
<polygon fill="none" stroke="black" points="1105,-78 1105,-130 1255,-130 1255,-78 1105,-78"/>
</g>
<g id="clust7" class="cluster">
<title>cluster_ContainerModule_providers</title>
<polygon fill="none" stroke="black" points="200,-78 200,-130 1097,-130 1097,-78 200,-78"/>
</g>
<g id="clust4" class="cluster">
<title>cluster_ContainerModule_imports</title>
<polygon fill="none" stroke="black" points="16,-78 16,-130 192,-130 192,-78 16,-78"/>
</g>
<!-- FavoritesComponent -->
<g id="node1" class="node">
<title>FavoritesComponent</title>
<polygon fill="#ffffb3" stroke="black" points="1246.93,-122 1113.07,-122 1113.07,-86 1246.93,-86 1246.93,-122"/>
<text text-anchor="middle" x="1180" y="-99.8" font-family="Times,serif" font-size="14.00">FavoritesComponent</text>
</g>
<!-- ContainerModule -->
<g id="node2" class="node">
<title>ContainerModule</title>
<polygon fill="#8dd3c7" stroke="black" points="724.26,-187 721.26,-191 700.26,-191 697.26,-187 609.74,-187 609.74,-151 724.26,-151 724.26,-187"/>
<text text-anchor="middle" x="667" y="-164.8" font-family="Times,serif" font-size="14.00">ContainerModule</text>
</g>
<!-- FavoritesComponent&#45;&gt;ContainerModule -->
<g id="edge1" class="edge">
<title>FavoritesComponent&#45;&gt;ContainerModule</title>
<path fill="none" stroke="black" d="M1180,-122.29C1180,-144.21 1180,-178 1180,-178 1180,-178 734.35,-178 734.35,-178"/>
<polygon fill="black" stroke="black" points="734.35,-174.5 724.35,-178 734.35,-181.5 734.35,-174.5"/>
</g>
<!-- FavoritesComponent  -->
<g id="node4" class="node">
<title>FavoritesComponent </title>
<polygon fill="#fb8072" stroke="black" points="735.43,-252 598.57,-252 598.57,-216 735.43,-216 735.43,-252"/>
<text text-anchor="middle" x="667" y="-229.8" font-family="Times,serif" font-size="14.00">FavoritesComponent </text>
</g>
<!-- ContainerModule&#45;&gt;FavoritesComponent  -->
<g id="edge3" class="edge">
<title>ContainerModule&#45;&gt;FavoritesComponent </title>
<path fill="none" stroke="black" stroke-dasharray="5,2" d="M667,-187.11C667,-187.11 667,-205.99 667,-205.99"/>
<polygon fill="black" stroke="black" points="663.5,-205.99 667,-215.99 670.5,-205.99 663.5,-205.99"/>
</g>
<!-- ContainerRoutingModule -->
<g id="node3" class="node">
<title>ContainerRoutingModule</title>
<polygon fill="#8dd3c7" stroke="black" points="183.88,-122 180.88,-126 159.88,-126 156.88,-122 24.12,-122 24.12,-86 183.88,-86 183.88,-122"/>
<text text-anchor="middle" x="104" y="-99.8" font-family="Times,serif" font-size="14.00">ContainerRoutingModule</text>
</g>
<!-- ContainerRoutingModule&#45;&gt;ContainerModule -->
<g id="edge2" class="edge">
<title>ContainerRoutingModule&#45;&gt;ContainerModule</title>
<path fill="none" stroke="black" d="M104,-122.29C104,-144.21 104,-178 104,-178 104,-178 599.66,-178 599.66,-178"/>
<polygon fill="black" stroke="black" points="599.66,-181.5 609.66,-178 599.66,-174.5 599.66,-181.5"/>
</g>
<!-- ApplicationService -->
<g id="node5" class="node">
<title>ApplicationService</title>
<ellipse fill="#fdb462" stroke="black" cx="1003" cy="-104" rx="85.67" ry="18"/>
<text text-anchor="middle" x="1003" y="-99.8" font-family="Times,serif" font-size="14.00">ApplicationService</text>
</g>
<!-- ApplicationService&#45;&gt;ContainerModule -->
<g id="edge4" class="edge">
<title>ApplicationService&#45;&gt;ContainerModule</title>
<path fill="none" stroke="black" d="M1003,-122.11C1003,-141.34 1003,-169 1003,-169 1003,-169 734.38,-169 734.38,-169"/>
<polygon fill="black" stroke="black" points="734.38,-165.5 724.38,-169 734.38,-172.5 734.38,-165.5"/>
</g>
<!-- ContextService -->
<g id="node6" class="node">
<title>ContextService</title>
<ellipse fill="#fdb462" stroke="black" cx="829" cy="-104" rx="70.64" ry="18"/>
<text text-anchor="middle" x="829" y="-99.8" font-family="Times,serif" font-size="14.00">ContextService</text>
</g>
<!-- ContextService&#45;&gt;ContainerModule -->
<g id="edge5" class="edge">
<title>ContextService&#45;&gt;ContainerModule</title>
<path fill="none" stroke="black" d="M829,-122.03C829,-138.4 829,-160 829,-160 829,-160 734.57,-160 734.57,-160"/>
<polygon fill="black" stroke="black" points="734.57,-156.5 724.57,-160 734.57,-163.5 734.57,-156.5"/>
</g>
<!-- NetworkService -->
<g id="node7" class="node">
<title>NetworkService</title>
<ellipse fill="#fdb462" stroke="black" cx="667" cy="-104" rx="73.55" ry="18"/>
<text text-anchor="middle" x="667" y="-99.8" font-family="Times,serif" font-size="14.00">NetworkService</text>
</g>
<!-- NetworkService&#45;&gt;ContainerModule -->
<g id="edge6" class="edge">
<title>NetworkService&#45;&gt;ContainerModule</title>
<path fill="none" stroke="black" d="M667,-122.11C667,-122.11 667,-140.99 667,-140.99"/>
<polygon fill="black" stroke="black" points="663.5,-140.99 667,-150.99 670.5,-140.99 663.5,-140.99"/>
</g>
<!-- RequestInterceptor -->
<g id="node8" class="node">
<title>RequestInterceptor</title>
<ellipse fill="#fdb462" stroke="black" cx="491" cy="-104" rx="84.51" ry="18"/>
<text text-anchor="middle" x="491" y="-99.8" font-family="Times,serif" font-size="14.00">RequestInterceptor</text>
</g>
<!-- RequestInterceptor&#45;&gt;ContainerModule -->
<g id="edge7" class="edge">
<title>RequestInterceptor&#45;&gt;ContainerModule</title>
<path fill="none" stroke="black" d="M491,-122.03C491,-138.4 491,-160 491,-160 491,-160 599.37,-160 599.37,-160"/>
<polygon fill="black" stroke="black" points="599.37,-163.5 609.37,-160 599.37,-156.5 599.37,-163.5"/>
</g>
<!-- ResponseInterceptor -->
<g id="node9" class="node">
<title>ResponseInterceptor</title>
<ellipse fill="#fdb462" stroke="black" cx="298" cy="-104" rx="90.31" ry="18"/>
<text text-anchor="middle" x="298" y="-99.8" font-family="Times,serif" font-size="14.00">ResponseInterceptor</text>
</g>
<!-- ResponseInterceptor&#45;&gt;ContainerModule -->
<g id="edge8" class="edge">
<title>ResponseInterceptor&#45;&gt;ContainerModule</title>
<path fill="none" stroke="black" d="M298,-122.11C298,-141.34 298,-169 298,-169 298,-169 599.34,-169 599.34,-169"/>
<polygon fill="black" stroke="black" points="599.34,-172.5 609.34,-169 599.34,-165.5 599.34,-172.5"/>
</g>
</g>
</svg>
