<?xml version="1.0" encoding="UTF-8" standalone="no"?>
<!DOCTYPE svg PUBLIC "-//W3C//DTD SVG 1.1//EN"
 "http://www.w3.org/Graphics/SVG/1.1/DTD/svg11.dtd">
<!-- Generated by graphviz version 2.44.1 (20200629.0846)
 -->
<!-- Title: dependencies Pages: 1 -->
<svg width="1520pt" height="284pt"
 viewBox="0.00 0.00 1520.00 284.00" xmlns="http://www.w3.org/2000/svg" xmlns:xlink="http://www.w3.org/1999/xlink">
<g id="graph0" class="graph" transform="scale(1 1) rotate(0) translate(4 280)">
<title>dependencies</title>
<polygon fill="white" stroke="transparent" points="-4,4 -4,-280 1516,-280 1516,4 -4,4"/>
<text text-anchor="start" x="735.01" y="-42.4" font-family="sans-serif" font-weight="bold" font-size="14.00">Legend</text>
<polygon fill="#ffffb3" stroke="transparent" points="522,-10 522,-30 542,-30 542,-10 522,-10"/>
<text text-anchor="start" x="545.63" y="-15.4" font-family="sans-serif" font-size="14.00"> &#160;Declarations</text>
<polygon fill="#8dd3c7" stroke="transparent" points="635,-10 635,-30 655,-30 655,-10 635,-10"/>
<text text-anchor="start" x="658.73" y="-15.4" font-family="sans-serif" font-size="14.00"> &#160;Module</text>
<polygon fill="#80b1d3" stroke="transparent" points="721,-10 721,-30 741,-30 741,-10 721,-10"/>
<text text-anchor="start" x="744.78" y="-15.4" font-family="sans-serif" font-size="14.00"> &#160;Bootstrap</text>
<polygon fill="#fdb462" stroke="transparent" points="818,-10 818,-30 838,-30 838,-10 818,-10"/>
<text text-anchor="start" x="841.67" y="-15.4" font-family="sans-serif" font-size="14.00"> &#160;Providers</text>
<polygon fill="#fb8072" stroke="transparent" points="914,-10 914,-30 934,-30 934,-10 914,-10"/>
<text text-anchor="start" x="937.73" y="-15.4" font-family="sans-serif" font-size="14.00"> &#160;Exports</text>
<g id="clust1" class="cluster">
<title>cluster_ContainerModule</title>
<polygon fill="none" stroke="black" stroke-dasharray="1,5" points="8,-70 8,-268 1504,-268 1504,-70 8,-70"/>
</g>
<g id="clust2" class="cluster">
<title>cluster_ContainerModule_declarations</title>
<polygon fill="none" stroke="black" points="1344,-78 1344,-130 1496,-130 1496,-78 1344,-78"/>
</g>
<g id="clust5" class="cluster">
<title>cluster_ContainerModule_exports</title>
<polygon fill="none" stroke="black" points="516,-208 516,-260 920,-260 920,-208 516,-208"/>
</g>
<g id="clust7" class="cluster">
<title>cluster_ContainerModule_providers</title>
<polygon fill="none" stroke="black" points="440,-78 440,-130 1336,-130 1336,-78 440,-78"/>
</g>
<g id="clust4" class="cluster">
<title>cluster_ContainerModule_imports</title>
<polygon fill="none" stroke="black" points="16,-78 16,-130 432,-130 432,-78 16,-78"/>
</g>
<!-- ContainerComponent -->
<g id="node1" class="node">
<title>ContainerComponent</title>
<polygon fill="#ffffb3" stroke="black" points="1488.04,-122 1351.96,-122 1351.96,-86 1488.04,-86 1488.04,-122"/>
<text text-anchor="middle" x="1420" y="-99.8" font-family="Times,serif" font-size="14.00">ContainerComponent</text>
</g>
<!-- ContainerModule -->
<g id="node2" class="node">
<title>ContainerModule</title>
<polygon fill="#8dd3c7" stroke="black" points="759.26,-187 756.26,-191 735.26,-191 732.26,-187 644.74,-187 644.74,-151 759.26,-151 759.26,-187"/>
<text text-anchor="middle" x="702" y="-164.8" font-family="Times,serif" font-size="14.00">ContainerModule</text>
</g>
<!-- ContainerComponent&#45;&gt;ContainerModule -->
<g id="edge1" class="edge">
<title>ContainerComponent&#45;&gt;ContainerModule</title>
<path fill="none" stroke="black" d="M1420,-122.28C1420,-143.32 1420,-175 1420,-175 1420,-175 769.54,-175 769.54,-175"/>
<polygon fill="black" stroke="black" points="769.54,-171.5 759.54,-175 769.54,-178.5 769.54,-171.5"/>
</g>
<!-- ContainerComponent  -->
<g id="node6" class="node">
<title>ContainerComponent </title>
<polygon fill="#fb8072" stroke="black" points="912.04,-252 771.96,-252 771.96,-216 912.04,-216 912.04,-252"/>
<text text-anchor="middle" x="842" y="-229.8" font-family="Times,serif" font-size="14.00">ContainerComponent </text>
</g>
<!-- ContainerModule&#45;&gt;ContainerComponent  -->
<g id="edge5" class="edge">
<title>ContainerModule&#45;&gt;ContainerComponent </title>
<path fill="none" stroke="black" stroke-dasharray="5,2" d="M759.43,-181C772.28,-181 782.19,-181 782.19,-181 782.19,-181 782.19,-205.76 782.19,-205.76"/>
<polygon fill="black" stroke="black" points="778.69,-205.76 782.19,-215.76 785.69,-205.76 778.69,-205.76"/>
</g>
<!-- HeaderModule  -->
<g id="node7" class="node">
<title>HeaderModule </title>
<polygon fill="#fb8072" stroke="black" points="753.96,-252 650.04,-252 650.04,-216 753.96,-216 753.96,-252"/>
<text text-anchor="middle" x="702" y="-229.8" font-family="Times,serif" font-size="14.00">HeaderModule </text>
</g>
<!-- ContainerModule&#45;&gt;HeaderModule  -->
<g id="edge6" class="edge">
<title>ContainerModule&#45;&gt;HeaderModule </title>
<path fill="none" stroke="black" stroke-dasharray="5,2" d="M702,-187.11C702,-187.11 702,-205.99 702,-205.99"/>
<polygon fill="black" stroke="black" points="698.5,-205.99 702,-215.99 705.5,-205.99 698.5,-205.99"/>
</g>
<!-- SidenavModule  -->
<g id="node8" class="node">
<title>SidenavModule </title>
<polygon fill="#fb8072" stroke="black" points="632.15,-252 523.85,-252 523.85,-216 632.15,-216 632.15,-252"/>
<text text-anchor="middle" x="578" y="-229.8" font-family="Times,serif" font-size="14.00">SidenavModule </text>
</g>
<!-- ContainerModule&#45;&gt;SidenavModule  -->
<g id="edge7" class="edge">
<title>ContainerModule&#45;&gt;SidenavModule </title>
<path fill="none" stroke="black" stroke-dasharray="5,2" d="M644.59,-181C631.74,-181 621.84,-181 621.84,-181 621.84,-181 621.84,-205.76 621.84,-205.76"/>
<polygon fill="black" stroke="black" points="618.34,-205.76 621.84,-215.76 625.34,-205.76 618.34,-205.76"/>
</g>
<!-- ContainerRoutingModule -->
<g id="node3" class="node">
<title>ContainerRoutingModule</title>
<polygon fill="#8dd3c7" stroke="black" points="423.88,-122 420.88,-126 399.88,-126 396.88,-122 264.12,-122 264.12,-86 423.88,-86 423.88,-122"/>
<text text-anchor="middle" x="344" y="-99.8" font-family="Times,serif" font-size="14.00">ContainerRoutingModule</text>
</g>
<!-- ContainerRoutingModule&#45;&gt;ContainerModule -->
<g id="edge2" class="edge">
<title>ContainerRoutingModule&#45;&gt;ContainerModule</title>
<path fill="none" stroke="black" d="M344,-122.02C344,-139.37 344,-163 344,-163 344,-163 634.48,-163 634.48,-163"/>
<polygon fill="black" stroke="black" points="634.48,-166.5 644.48,-163 634.48,-159.5 634.48,-166.5"/>
</g>
<!-- HeaderModule -->
<g id="node4" class="node">
<title>HeaderModule</title>
<polygon fill="#8dd3c7" stroke="black" points="245.96,-122 242.96,-126 221.96,-126 218.96,-122 146.04,-122 146.04,-86 245.96,-86 245.96,-122"/>
<text text-anchor="middle" x="196" y="-99.8" font-family="Times,serif" font-size="14.00">HeaderModule</text>
</g>
<!-- HeaderModule&#45;&gt;ContainerModule -->
<g id="edge3" class="edge">
<title>HeaderModule&#45;&gt;ContainerModule</title>
<path fill="none" stroke="black" d="M196,-122.11C196,-141.34 196,-169 196,-169 196,-169 634.45,-169 634.45,-169"/>
<polygon fill="black" stroke="black" points="634.45,-172.5 644.45,-169 634.45,-165.5 634.45,-172.5"/>
</g>
<!-- SidenavModule -->
<g id="node5" class="node">
<title>SidenavModule</title>
<polygon fill="#8dd3c7" stroke="black" points="128.15,-122 125.15,-126 104.15,-126 101.15,-122 23.85,-122 23.85,-86 128.15,-86 128.15,-122"/>
<text text-anchor="middle" x="76" y="-99.8" font-family="Times,serif" font-size="14.00">SidenavModule</text>
</g>
<!-- SidenavModule&#45;&gt;ContainerModule -->
<g id="edge4" class="edge">
<title>SidenavModule&#45;&gt;ContainerModule</title>
<path fill="none" stroke="black" d="M76,-122.28C76,-143.32 76,-175 76,-175 76,-175 634.51,-175 634.51,-175"/>
<polygon fill="black" stroke="black" points="634.51,-178.5 644.51,-175 634.51,-171.5 634.51,-178.5"/>
</g>
<!-- ApplicationService -->
<g id="node9" class="node">
<title>ApplicationService</title>
<ellipse fill="#fdb462" stroke="black" cx="1242" cy="-104" rx="85.67" ry="18"/>
<text text-anchor="middle" x="1242" y="-99.8" font-family="Times,serif" font-size="14.00">ApplicationService</text>
</g>
<!-- ApplicationService&#45;&gt;ContainerModule -->
<g id="edge8" class="edge">
<title>ApplicationService&#45;&gt;ContainerModule</title>
<path fill="none" stroke="black" d="M1242,-122.11C1242,-141.34 1242,-169 1242,-169 1242,-169 769.28,-169 769.28,-169"/>
<polygon fill="black" stroke="black" points="769.28,-165.5 759.28,-169 769.28,-172.5 769.28,-165.5"/>
</g>
<!-- ContextService -->
<g id="node10" class="node">
<title>ContextService</title>
<ellipse fill="#fdb462" stroke="black" cx="1068" cy="-104" rx="70.64" ry="18"/>
<text text-anchor="middle" x="1068" y="-99.8" font-family="Times,serif" font-size="14.00">ContextService</text>
</g>
<!-- ContextService&#45;&gt;ContainerModule -->
<g id="edge9" class="edge">
<title>ContextService&#45;&gt;ContainerModule</title>
<path fill="none" stroke="black" d="M1068,-122.02C1068,-139.37 1068,-163 1068,-163 1068,-163 769.59,-163 769.59,-163"/>
<polygon fill="black" stroke="black" points="769.59,-159.5 759.59,-163 769.59,-166.5 769.59,-159.5"/>
</g>
<!-- RequestInterceptor -->
<g id="node11" class="node">
<title>RequestInterceptor</title>
<ellipse fill="#fdb462" stroke="black" cx="895" cy="-104" rx="84.51" ry="18"/>
<text text-anchor="middle" x="895" y="-99.8" font-family="Times,serif" font-size="14.00">RequestInterceptor</text>
</g>
<!-- RequestInterceptor&#45;&gt;ContainerModule -->
<g id="edge10" class="edge">
<title>RequestInterceptor&#45;&gt;ContainerModule</title>
<path fill="none" stroke="black" d="M861.26,-120.77C861.26,-136.3 861.26,-157 861.26,-157 861.26,-157 769.5,-157 769.5,-157"/>
<polygon fill="black" stroke="black" points="769.5,-153.5 759.5,-157 769.5,-160.5 769.5,-153.5"/>
</g>
<!-- ResponseInterceptor -->
<g id="node12" class="node">
<title>ResponseInterceptor</title>
<ellipse fill="#fdb462" stroke="black" cx="702" cy="-104" rx="90.31" ry="18"/>
<text text-anchor="middle" x="702" y="-99.8" font-family="Times,serif" font-size="14.00">ResponseInterceptor</text>
</g>
<!-- ResponseInterceptor&#45;&gt;ContainerModule -->
<g id="edge11" class="edge">
<title>ResponseInterceptor&#45;&gt;ContainerModule</title>
<path fill="none" stroke="black" d="M702,-122.11C702,-122.11 702,-140.99 702,-140.99"/>
<polygon fill="black" stroke="black" points="698.5,-140.99 702,-150.99 705.5,-140.99 698.5,-140.99"/>
</g>
<!-- WeatherService -->
<g id="node13" class="node">
<title>WeatherService</title>
<ellipse fill="#fdb462" stroke="black" cx="521" cy="-104" rx="72.89" ry="18"/>
<text text-anchor="middle" x="521" y="-99.8" font-family="Times,serif" font-size="14.00">WeatherService</text>
</g>
<!-- WeatherService&#45;&gt;ContainerModule -->
<g id="edge12" class="edge">
<title>WeatherService&#45;&gt;ContainerModule</title>
<path fill="none" stroke="black" d="M558.81,-119.62C558.81,-135.25 558.81,-157 558.81,-157 558.81,-157 634.58,-157 634.58,-157"/>
<polygon fill="black" stroke="black" points="634.58,-160.5 644.58,-157 634.58,-153.5 634.58,-160.5"/>
</g>
</g>
</svg>
