<?xml version="1.0" encoding="UTF-8" standalone="no"?>
<!DOCTYPE svg PUBLIC "-//W3C//DTD SVG 1.1//EN"
 "http://www.w3.org/Graphics/SVG/1.1/DTD/svg11.dtd">
<!-- Generated by graphviz version 2.44.1 (20200629.0846)
 -->
<!-- Title: dependencies Pages: 1 -->
<svg width="2625pt" height="431pt"
 viewBox="0.00 0.00 2625.00 431.00" xmlns="http://www.w3.org/2000/svg" xmlns:xlink="http://www.w3.org/1999/xlink">
<g id="graph0" class="graph" transform="scale(1 1) rotate(0) translate(4 427)">
<title>dependencies</title>
<polygon fill="white" stroke="transparent" points="-4,4 -4,-427 2621,-427 2621,4 -4,4"/>
<text text-anchor="start" x="1287.51" y="-42.4" font-family="sans-serif" font-weight="bold" font-size="14.00">Legend</text>
<polygon fill="#ffffb3" stroke="transparent" points="1074.5,-10 1074.5,-30 1094.5,-30 1094.5,-10 1074.5,-10"/>
<text text-anchor="start" x="1098.13" y="-15.4" font-family="sans-serif" font-size="14.00"> &#160;Declarations</text>
<polygon fill="#8dd3c7" stroke="transparent" points="1187.5,-10 1187.5,-30 1207.5,-30 1207.5,-10 1187.5,-10"/>
<text text-anchor="start" x="1211.23" y="-15.4" font-family="sans-serif" font-size="14.00"> &#160;Module</text>
<polygon fill="#80b1d3" stroke="transparent" points="1273.5,-10 1273.5,-30 1293.5,-30 1293.5,-10 1273.5,-10"/>
<text text-anchor="start" x="1297.28" y="-15.4" font-family="sans-serif" font-size="14.00"> &#160;Bootstrap</text>
<polygon fill="#fdb462" stroke="transparent" points="1370.5,-10 1370.5,-30 1390.5,-30 1390.5,-10 1370.5,-10"/>
<text text-anchor="start" x="1394.17" y="-15.4" font-family="sans-serif" font-size="14.00"> &#160;Providers</text>
<polygon fill="#fb8072" stroke="transparent" points="1466.5,-10 1466.5,-30 1486.5,-30 1486.5,-10 1466.5,-10"/>
<text text-anchor="start" x="1490.23" y="-15.4" font-family="sans-serif" font-size="14.00"> &#160;Exports</text>
<g id="clust1" class="cluster">
<title>cluster_AppModule</title>
<polygon fill="none" stroke="black" stroke-dasharray="1,5" points="2186,-214 2186,-415 2609,-415 2609,-214 2186,-214"/>
</g>
<g id="clust2" class="cluster">
<title>cluster_AppModule_declarations</title>
<polygon fill="none" stroke="black" points="2479,-222 2479,-274 2601,-274 2601,-222 2479,-222"/>
</g>
<g id="clust4" class="cluster">
<title>cluster_AppModule_imports</title>
<polygon fill="none" stroke="black" points="2194,-222 2194,-274 2471,-274 2471,-222 2194,-222"/>
</g>
<g id="clust6" class="cluster">
<title>cluster_AppModule_bootstrap</title>
<polygon fill="none" stroke="black" points="2337,-355 2337,-407 2461,-407 2461,-355 2337,-355"/>
</g>
<g id="clust14" class="cluster">
<title>cluster_ContainerModule</title>
<polygon fill="none" stroke="black" stroke-dasharray="1,5" points="448,-70 448,-347 1868,-347 1868,-70 448,-70"/>
</g>
<g id="clust15" class="cluster">
<title>cluster_ContainerModule_declarations</title>
<polygon fill="none" stroke="black" points="760,-78 760,-130 912,-130 912,-78 760,-78"/>
</g>
<g id="clust17" class="cluster">
<title>cluster_ContainerModule_imports</title>
<polygon fill="none" stroke="black" points="456,-78 456,-274 752,-274 752,-78 456,-78"/>
</g>
<g id="clust18" class="cluster">
<title>cluster_ContainerModule_exports</title>
<polygon fill="none" stroke="black" points="487,-287 487,-339 1015,-339 1015,-287 487,-287"/>
</g>
<g id="clust20" class="cluster">
<title>cluster_ContainerModule_providers</title>
<polygon fill="none" stroke="black" points="920,-78 920,-130 1860,-130 1860,-78 920,-78"/>
</g>
<g id="clust27" class="cluster">
<title>cluster_FavoritesModule</title>
<polygon fill="none" stroke="black" stroke-dasharray="1,5" points="8,-146 8,-274 196,-274 196,-146 8,-146"/>
</g>
<g id="clust30" class="cluster">
<title>cluster_FavoritesModule_imports</title>
<polygon fill="none" stroke="black" points="16,-154 16,-206 188,-206 188,-154 16,-154"/>
</g>
<g id="clust46" class="cluster">
<title>cluster_ForecastModule</title>
<polygon fill="none" stroke="black" stroke-dasharray="1,5" points="204,-146 204,-274 388,-274 388,-146 204,-146"/>
</g>
<g id="clust49" class="cluster">
<title>cluster_ForecastModule_imports</title>
<polygon fill="none" stroke="black" points="212,-154 212,-206 380,-206 380,-154 212,-154"/>
</g>
<g id="clust59" class="cluster">
<title>cluster_HeaderModule</title>
<polygon fill="none" stroke="black" stroke-dasharray="1,5" points="262,-70 262,-138 440,-138 440,-70 262,-70"/>
</g>
<g id="clust62" class="cluster">
<title>cluster_HeaderModule_imports</title>
<polygon fill="none" stroke="black" points="270,-78 270,-130 432,-130 432,-78 270,-78"/>
</g>
<g id="clust72" class="cluster">
<title>cluster_SearchModule</title>
<polygon fill="none" stroke="black" stroke-dasharray="1,5" points="1876,-146 1876,-274 2175,-274 2175,-146 1876,-146"/>
</g>
<g id="clust75" class="cluster">
<title>cluster_SearchModule_imports</title>
<polygon fill="none" stroke="black" points="1884,-154 1884,-206 2167,-206 2167,-154 1884,-154"/>
</g>
<!-- AppComponent -->
<g id="node1" class="node">
<title>AppComponent</title>
<polygon fill="#ffffb3" stroke="black" points="2592.94,-266 2487.06,-266 2487.06,-230 2592.94,-230 2592.94,-266"/>
<text text-anchor="middle" x="2540" y="-243.8" font-family="Times,serif" font-size="14.00">AppComponent</text>
</g>
<!-- AppModule -->
<g id="node2" class="node">
<title>AppModule</title>
<polygon fill="#8dd3c7" stroke="black" points="2440.66,-331 2437.66,-335 2416.66,-335 2413.66,-331 2357.34,-331 2357.34,-295 2440.66,-295 2440.66,-331"/>
<text text-anchor="middle" x="2399" y="-308.8" font-family="Times,serif" font-size="14.00">AppModule</text>
</g>
<!-- AppComponent&#45;&gt;AppModule -->
<g id="edge1" class="edge">
<title>AppComponent&#45;&gt;AppModule</title>
<path fill="none" stroke="black" d="M2540,-266.11C2540,-285.34 2540,-313 2540,-313 2540,-313 2450.92,-313 2450.92,-313"/>
<polygon fill="black" stroke="black" points="2450.92,-309.5 2440.92,-313 2450.92,-316.5 2450.92,-309.5"/>
</g>
<!-- AppComponent  -->
<g id="node5" class="node">
<title>AppComponent </title>
<polygon fill="#80b1d3" stroke="black" points="2453.44,-399 2344.56,-399 2344.56,-363 2453.44,-363 2453.44,-399"/>
<text text-anchor="middle" x="2399" y="-376.8" font-family="Times,serif" font-size="14.00">AppComponent </text>
</g>
<!-- AppModule&#45;&gt;AppComponent  -->
<g id="edge4" class="edge">
<title>AppModule&#45;&gt;AppComponent </title>
<path fill="none" stroke="black" stroke-dasharray="1,5" d="M2399,-331.22C2399,-331.22 2399,-352.73 2399,-352.73"/>
<polygon fill="black" stroke="black" points="2395.5,-352.73 2399,-362.73 2402.5,-352.73 2395.5,-352.73"/>
</g>
<!-- AppRoutingModule -->
<g id="node3" class="node">
<title>AppRoutingModule</title>
<polygon fill="#8dd3c7" stroke="black" points="2463.27,-266 2460.27,-270 2439.27,-270 2436.27,-266 2334.73,-266 2334.73,-230 2463.27,-230 2463.27,-266"/>
<text text-anchor="middle" x="2399" y="-243.8" font-family="Times,serif" font-size="14.00">AppRoutingModule</text>
</g>
<!-- AppRoutingModule&#45;&gt;AppModule -->
<g id="edge2" class="edge">
<title>AppRoutingModule&#45;&gt;AppModule</title>
<path fill="none" stroke="black" d="M2399,-266.11C2399,-266.11 2399,-284.99 2399,-284.99"/>
<polygon fill="black" stroke="black" points="2395.5,-284.99 2399,-294.99 2402.5,-284.99 2395.5,-284.99"/>
</g>
<!-- ContainerModule -->
<g id="node4" class="node">
<title>ContainerModule</title>
<polygon fill="#8dd3c7" stroke="black" points="2316.26,-266 2313.26,-270 2292.26,-270 2289.26,-266 2201.74,-266 2201.74,-230 2316.26,-230 2316.26,-266"/>
<text text-anchor="middle" x="2259" y="-243.8" font-family="Times,serif" font-size="14.00">ContainerModule</text>
</g>
<!-- ContainerModule&#45;&gt;AppModule -->
<g id="edge3" class="edge">
<title>ContainerModule&#45;&gt;AppModule</title>
<path fill="none" stroke="black" d="M2297.25,-266.28C2297.25,-287.32 2297.25,-319 2297.25,-319 2297.25,-319 2347.32,-319 2347.32,-319"/>
<polygon fill="black" stroke="black" points="2347.32,-322.5 2357.32,-319 2347.32,-315.5 2347.32,-322.5"/>
</g>
<!-- ContainerComponent  -->
<g id="node11" class="node">
<title>ContainerComponent </title>
<polygon fill="#fb8072" stroke="black" points="1007.04,-331 866.96,-331 866.96,-295 1007.04,-295 1007.04,-331"/>
<text text-anchor="middle" x="937" y="-308.8" font-family="Times,serif" font-size="14.00">ContainerComponent </text>
</g>
<!-- ContainerModule&#45;&gt;ContainerComponent  -->
<g id="edge10" class="edge">
<title>ContainerModule&#45;&gt;ContainerComponent </title>
<path fill="none" stroke="black" stroke-dasharray="5,2" d="M2278.13,-266.02C2278.13,-283.37 2278.13,-307 2278.13,-307 2278.13,-307 1017.22,-307 1017.22,-307"/>
<polygon fill="black" stroke="black" points="1017.22,-303.5 1007.22,-307 1017.22,-310.5 1017.22,-303.5"/>
</g>
<!-- FeatureModule  -->
<g id="node12" class="node">
<title>FeatureModule </title>
<polygon fill="#fb8072" stroke="black" points="848.53,-331 743.47,-331 743.47,-295 848.53,-295 848.53,-331"/>
<text text-anchor="middle" x="796" y="-308.8" font-family="Times,serif" font-size="14.00">FeatureModule </text>
</g>
<!-- ContainerModule&#45;&gt;FeatureModule  -->
<g id="edge11" class="edge">
<title>ContainerModule&#45;&gt;FeatureModule </title>
<path fill="none" stroke="black" stroke-dasharray="5,2" d="M2259,-266.24C2259,-273.43 2259,-280 2259,-280 2259,-280 838.42,-280 838.42,-280 838.42,-280 838.42,-284.96 838.42,-284.96"/>
<polygon fill="black" stroke="black" points="834.92,-284.96 838.42,-294.96 841.92,-284.96 834.92,-284.96"/>
</g>
<!-- HeaderModule  -->
<g id="node13" class="node">
<title>HeaderModule </title>
<polygon fill="#fb8072" stroke="black" points="598.96,-331 495.04,-331 495.04,-295 598.96,-295 598.96,-331"/>
<text text-anchor="middle" x="547" y="-308.8" font-family="Times,serif" font-size="14.00">HeaderModule </text>
</g>
<!-- ContainerModule&#45;&gt;HeaderModule  -->
<g id="edge12" class="edge">
<title>ContainerModule&#45;&gt;HeaderModule </title>
<path fill="none" stroke="black" stroke-dasharray="5,2" d="M2220.75,-266.06C2220.75,-270.49 2220.75,-274 2220.75,-274 2220.75,-274 582.55,-274 582.55,-274 582.55,-274 582.55,-284.87 582.55,-284.87"/>
<polygon fill="black" stroke="black" points="579.05,-284.87 582.55,-294.87 586.05,-284.87 579.05,-284.87"/>
</g>
<!-- SidenavModule  -->
<g id="node14" class="node">
<title>SidenavModule </title>
<polygon fill="#fb8072" stroke="black" points="725.15,-331 616.85,-331 616.85,-295 725.15,-295 725.15,-331"/>
<text text-anchor="middle" x="671" y="-308.8" font-family="Times,serif" font-size="14.00">SidenavModule </text>
</g>
<!-- ContainerModule&#45;&gt;SidenavModule  -->
<g id="edge13" class="edge">
<title>ContainerModule&#45;&gt;SidenavModule </title>
<path fill="none" stroke="black" stroke-dasharray="5,2" d="M2239.87,-266.2C2239.87,-272.03 2239.87,-277 2239.87,-277 2239.87,-277 704.4,-277 704.4,-277 704.4,-277 704.4,-284.58 704.4,-284.58"/>
<polygon fill="black" stroke="black" points="700.9,-284.58 704.4,-294.58 707.9,-284.58 700.9,-284.58"/>
</g>
<!-- ContainerComponent -->
<g id="node6" class="node">
<title>ContainerComponent</title>
<polygon fill="#ffffb3" stroke="black" points="904.04,-122 767.96,-122 767.96,-86 904.04,-86 904.04,-122"/>
<text text-anchor="middle" x="836" y="-99.8" font-family="Times,serif" font-size="14.00">ContainerComponent</text>
</g>
<!-- ContainerComponent&#45;&gt;ContainerModule -->
<g id="edge5" class="edge">
<title>ContainerComponent&#45;&gt;ContainerModule</title>
<path fill="none" stroke="black" d="M871.64,-122.19C871.64,-130.28 871.64,-138 871.64,-138 871.64,-138 2253.78,-138 2253.78,-138 2253.78,-138 2253.78,-219.84 2253.78,-219.84"/>
<polygon fill="black" stroke="black" points="2250.28,-219.84 2253.78,-229.84 2257.28,-219.84 2250.28,-219.84"/>
</g>
<!-- HeaderModule -->
<g id="node9" class="node">
<title>HeaderModule</title>
<polygon fill="#8dd3c7" stroke="black" points="633.96,-198 630.96,-202 609.96,-202 606.96,-198 534.04,-198 534.04,-162 633.96,-162 633.96,-198"/>
<text text-anchor="middle" x="584" y="-175.8" font-family="Times,serif" font-size="14.00">HeaderModule</text>
</g>
<!-- ContainerComponent&#45;&gt;HeaderModule -->
<g id="edge37" class="edge">
<title>ContainerComponent&#45;&gt;HeaderModule</title>
<path fill="none" stroke="black" d="M798.02,-122.03C798.02,-141.58 798.02,-170 798.02,-170 798.02,-170 644.18,-170 644.18,-170"/>
<polygon fill="black" stroke="black" points="644.18,-166.5 634.18,-170 644.18,-173.5 644.18,-166.5"/>
</g>
<!-- SidenavModule -->
<g id="node10" class="node">
<title>SidenavModule</title>
<polygon fill="#8dd3c7" stroke="black" points="726.15,-266 723.15,-270 702.15,-270 699.15,-266 621.85,-266 621.85,-230 726.15,-230 726.15,-266"/>
<text text-anchor="middle" x="674" y="-243.8" font-family="Times,serif" font-size="14.00">SidenavModule</text>
</g>
<!-- ContainerComponent&#45;&gt;SidenavModule -->
<g id="edge56" class="edge">
<title>ContainerComponent&#45;&gt;SidenavModule</title>
<path fill="none" stroke="black" d="M808.12,-122.07C808.12,-158.65 808.12,-238 808.12,-238 808.12,-238 736.24,-238 736.24,-238"/>
<polygon fill="black" stroke="black" points="736.24,-234.5 726.24,-238 736.24,-241.5 736.24,-234.5"/>
</g>
<!-- FavoritesModule -->
<g id="node20" class="node">
<title>FavoritesModule</title>
<polygon fill="#8dd3c7" stroke="black" points="187.65,-266 184.65,-270 163.65,-270 160.65,-266 76.35,-266 76.35,-230 187.65,-230 187.65,-266"/>
<text text-anchor="middle" x="132" y="-243.8" font-family="Times,serif" font-size="14.00">FavoritesModule</text>
</g>
<!-- ContainerComponent&#45;&gt;FavoritesModule -->
<g id="edge19" class="edge">
<title>ContainerComponent&#45;&gt;FavoritesModule</title>
<path fill="none" stroke="black" d="M777.83,-122.25C777.83,-136.18 777.83,-153 777.83,-153 777.83,-153 183.36,-153 183.36,-153 183.36,-153 183.36,-219.68 183.36,-219.68"/>
<polygon fill="black" stroke="black" points="179.86,-219.68 183.36,-229.68 186.86,-219.68 179.86,-219.68"/>
</g>
<!-- ForecastModule -->
<g id="node22" class="node">
<title>ForecastModule</title>
<polygon fill="#8dd3c7" stroke="black" points="380.47,-266 377.47,-270 356.47,-270 353.47,-266 273.53,-266 273.53,-230 380.47,-230 380.47,-266"/>
<text text-anchor="middle" x="327" y="-243.8" font-family="Times,serif" font-size="14.00">ForecastModule</text>
</g>
<!-- ContainerComponent&#45;&gt;ForecastModule -->
<g id="edge28" class="edge">
<title>ContainerComponent&#45;&gt;ForecastModule</title>
<path fill="none" stroke="black" d="M787.93,-122.19C787.93,-137.18 787.93,-156 787.93,-156 787.93,-156 374.86,-156 374.86,-156 374.86,-156 374.86,-219.82 374.86,-219.82"/>
<polygon fill="black" stroke="black" points="371.36,-219.82 374.86,-229.82 378.36,-219.82 371.36,-219.82"/>
</g>
<!-- SearchModule -->
<g id="node25" class="node">
<title>SearchModule</title>
<polygon fill="#8dd3c7" stroke="black" points="1981.64,-266 1978.64,-270 1957.64,-270 1954.64,-266 1884.36,-266 1884.36,-230 1981.64,-230 1981.64,-266"/>
<text text-anchor="middle" x="1933" y="-243.8" font-family="Times,serif" font-size="14.00">SearchModule</text>
</g>
<!-- ContainerComponent&#45;&gt;SearchModule -->
<g id="edge46" class="edge">
<title>ContainerComponent&#45;&gt;SearchModule</title>
<path fill="none" stroke="black" d="M894.95,-122.08C894.95,-157.8 894.95,-234 894.95,-234 894.95,-234 1874.32,-234 1874.32,-234"/>
<polygon fill="black" stroke="black" points="1874.32,-237.5 1884.32,-234 1874.32,-230.5 1874.32,-237.5"/>
</g>
<!-- WeatherModule -->
<g id="node27" class="node">
<title>WeatherModule</title>
<polygon fill="#8dd3c7" stroke="black" points="1998.46,-198 1995.46,-202 1974.46,-202 1971.46,-198 1891.54,-198 1891.54,-162 1998.46,-162 1998.46,-198"/>
<text text-anchor="middle" x="1945" y="-175.8" font-family="Times,serif" font-size="14.00">WeatherModule</text>
</g>
<!-- ContainerComponent&#45;&gt;WeatherModule -->
<g id="edge64" class="edge">
<title>ContainerComponent&#45;&gt;WeatherModule</title>
<path fill="none" stroke="black" d="M899.61,-122.27C899.61,-140.56 899.61,-166 899.61,-166 899.61,-166 1881.36,-166 1881.36,-166"/>
<polygon fill="black" stroke="black" points="1881.36,-169.5 1891.36,-166 1881.36,-162.5 1881.36,-169.5"/>
</g>
<!-- ContainerRoutingModule -->
<g id="node7" class="node">
<title>ContainerRoutingModule</title>
<polygon fill="#8dd3c7" stroke="black" points="743.88,-122 740.88,-126 719.88,-126 716.88,-122 584.12,-122 584.12,-86 743.88,-86 743.88,-122"/>
<text text-anchor="middle" x="664" y="-99.8" font-family="Times,serif" font-size="14.00">ContainerRoutingModule</text>
</g>
<!-- ContainerRoutingModule&#45;&gt;ContainerModule -->
<g id="edge6" class="edge">
<title>ContainerRoutingModule&#45;&gt;ContainerModule</title>
<path fill="none" stroke="black" d="M730.62,-122.07C730.62,-131.46 730.62,-141 730.62,-141 730.62,-141 2243.35,-141 2243.35,-141 2243.35,-141 2243.35,-219.85 2243.35,-219.85"/>
<polygon fill="black" stroke="black" points="2239.85,-219.85 2243.35,-229.85 2246.85,-219.85 2239.85,-219.85"/>
</g>
<!-- FeatureModule -->
<g id="node8" class="node">
<title>FeatureModule</title>
<polygon fill="#8dd3c7" stroke="black" points="565.53,-122 562.53,-126 541.53,-126 538.53,-122 464.47,-122 464.47,-86 565.53,-86 565.53,-122"/>
<text text-anchor="middle" x="515" y="-99.8" font-family="Times,serif" font-size="14.00">FeatureModule</text>
</g>
<!-- FeatureModule&#45;&gt;ContainerModule -->
<g id="edge7" class="edge">
<title>FeatureModule&#45;&gt;ContainerModule</title>
<path fill="none" stroke="black" d="M559.41,-122.13C559.41,-132.71 559.41,-144 559.41,-144 559.41,-144 2232.92,-144 2232.92,-144 2232.92,-144 2232.92,-219.88 2232.92,-219.88"/>
<polygon fill="black" stroke="black" points="2229.42,-219.88 2232.92,-229.88 2236.42,-219.88 2229.42,-219.88"/>
</g>
<!-- FeatureModule&#45;&gt;HeaderModule -->
<g id="edge38" class="edge">
<title>FeatureModule&#45;&gt;HeaderModule</title>
<path fill="none" stroke="black" d="M546.72,-122.01C546.72,-122.01 546.72,-151.85 546.72,-151.85"/>
<polygon fill="black" stroke="black" points="543.22,-151.85 546.72,-161.85 550.22,-151.85 543.22,-151.85"/>
</g>
<!-- FeatureModule&#45;&gt;SidenavModule -->
<g id="edge57" class="edge">
<title>FeatureModule&#45;&gt;SidenavModule</title>
<path fill="none" stroke="black" d="M510.77,-122.19C510.77,-159.46 510.77,-241 510.77,-241 510.77,-241 611.45,-241 611.45,-241"/>
<polygon fill="black" stroke="black" points="611.45,-244.5 621.45,-241 611.45,-237.5 611.45,-244.5"/>
</g>
<!-- FeatureModule&#45;&gt;FavoritesModule -->
<g id="edge21" class="edge">
<title>FeatureModule&#45;&gt;FavoritesModule</title>
<path fill="none" stroke="black" d="M474.58,-122.18C474.58,-135.04 474.58,-150 474.58,-150 474.58,-150 181.87,-150 181.87,-150 181.87,-150 181.87,-219.57 181.87,-219.57"/>
<polygon fill="black" stroke="black" points="178.37,-219.57 181.87,-229.57 185.37,-219.57 178.37,-219.57"/>
</g>
<!-- FeatureModule&#45;&gt;ForecastModule -->
<g id="edge29" class="edge">
<title>FeatureModule&#45;&gt;ForecastModule</title>
<path fill="none" stroke="black" d="M484.93,-122.08C484.93,-158.23 484.93,-236 484.93,-236 484.93,-236 390.91,-236 390.91,-236"/>
<polygon fill="black" stroke="black" points="390.91,-232.5 380.91,-236 390.91,-239.5 390.91,-232.5"/>
</g>
<!-- FeatureModule&#45;&gt;SearchModule -->
<g id="edge47" class="edge">
<title>FeatureModule&#45;&gt;SearchModule</title>
<path fill="none" stroke="black" d="M518.52,-122.15C518.52,-152.68 518.52,-211 518.52,-211 518.52,-211 1886.63,-211 1886.63,-211 1886.63,-211 1886.63,-219.93 1886.63,-219.93"/>
<polygon fill="black" stroke="black" points="1883.13,-219.93 1886.63,-229.93 1890.13,-219.93 1883.13,-219.93"/>
</g>
<!-- FeatureModule&#45;&gt;WeatherModule -->
<g id="edge65" class="edge">
<title>FeatureModule&#45;&gt;WeatherModule</title>
<path fill="none" stroke="black" d="M553.07,-122.49C553.07,-134.14 553.07,-147 553.07,-147 553.07,-147 1945,-147 1945,-147 1945,-147 1945,-151.96 1945,-151.96"/>
<polygon fill="black" stroke="black" points="1941.5,-151.96 1945,-161.96 1948.5,-151.96 1941.5,-151.96"/>
</g>
<!-- HeaderModule&#45;&gt;ContainerModule -->
<g id="edge8" class="edge">
<title>HeaderModule&#45;&gt;ContainerModule</title>
<path fill="none" stroke="black" d="M602.37,-198.17C602.37,-200.45 602.37,-202 602.37,-202 602.37,-202 2222.49,-202 2222.49,-202 2222.49,-202 2222.49,-219.82 2222.49,-219.82"/>
<polygon fill="black" stroke="black" points="2218.99,-219.82 2222.49,-229.82 2225.99,-219.82 2218.99,-219.82"/>
</g>
<!-- HeaderModule&#45;&gt;HeaderModule -->
<g id="edge39" class="edge">
<title>HeaderModule&#45;&gt;HeaderModule</title>
<path fill="none" stroke="black" d="M540.37,-161.92C540.37,-160.15 540.37,-159 540.37,-159 540.37,-159 526.27,-159 526.27,-159 526.27,-159 526.27,-208 526.27,-208 526.27,-208 590.64,-208 590.64,-208 590.64,-208 590.64,-207.02 590.64,-207.02"/>
<polygon fill="black" stroke="black" points="594.14,-208.21 590.64,-198.21 587.14,-208.21 594.14,-208.21"/>
</g>
<!-- HeaderModule&#45;&gt;SidenavModule -->
<g id="edge58" class="edge">
<title>HeaderModule&#45;&gt;SidenavModule</title>
<path fill="none" stroke="black" d="M627.83,-198.22C627.83,-198.22 627.83,-219.73 627.83,-219.73"/>
<polygon fill="black" stroke="black" points="624.33,-219.73 627.83,-229.73 631.33,-219.73 624.33,-219.73"/>
</g>
<!-- HeaderModule&#45;&gt;ContainerComponent  -->
<g id="edge42" class="edge">
<title>HeaderModule&#45;&gt;ContainerComponent </title>
<path fill="none" stroke="black" stroke-dasharray="5,2" d="M634.23,-191C721.13,-191 890.29,-191 890.29,-191 890.29,-191 890.29,-285 890.29,-285"/>
<polygon fill="black" stroke="black" points="886.79,-285 890.29,-295 893.79,-285 886.79,-285"/>
</g>
<!-- HeaderModule&#45;&gt;FeatureModule  -->
<g id="edge43" class="edge">
<title>HeaderModule&#45;&gt;FeatureModule </title>
<path fill="none" stroke="black" stroke-dasharray="5,2" d="M634.33,-195C687.27,-195 762.97,-195 762.97,-195 762.97,-195 762.97,-284.82 762.97,-284.82"/>
<polygon fill="black" stroke="black" points="759.47,-284.82 762.97,-294.82 766.47,-284.82 759.47,-284.82"/>
</g>
<!-- HeaderModule&#45;&gt;HeaderModule  -->
<g id="edge44" class="edge">
<title>HeaderModule&#45;&gt;HeaderModule </title>
<path fill="none" stroke="black" stroke-dasharray="5,2" d="M550.2,-198.21C550.2,-198.21 550.2,-284.58 550.2,-284.58"/>
<polygon fill="black" stroke="black" points="546.7,-284.58 550.2,-294.58 553.7,-284.58 546.7,-284.58"/>
</g>
<!-- HeaderModule&#45;&gt;SidenavModule  -->
<g id="edge45" class="edge">
<title>HeaderModule&#45;&gt;SidenavModule </title>
<path fill="none" stroke="black" stroke-dasharray="5,2" d="M609.65,-198.2C609.65,-233.31 609.65,-307 609.65,-307 609.65,-307 610.35,-307 610.35,-307"/>
<polygon fill="black" stroke="black" points="606.68,-310.5 616.68,-307 606.68,-303.5 606.68,-310.5"/>
</g>
<!-- HeaderModule&#45;&gt;FavoritesModule -->
<g id="edge22" class="edge">
<title>HeaderModule&#45;&gt;FavoritesModule</title>
<path fill="none" stroke="black" d="M542.11,-198.19C542.11,-206.28 542.11,-214 542.11,-214 542.11,-214 184.85,-214 184.85,-214 184.85,-214 184.85,-219.81 184.85,-219.81"/>
<polygon fill="black" stroke="black" points="181.35,-219.81 184.85,-229.81 188.35,-219.81 181.35,-219.81"/>
</g>
<!-- HeaderModule&#45;&gt;ForecastModule -->
<g id="edge31" class="edge">
<title>HeaderModule&#45;&gt;ForecastModule</title>
<path fill="none" stroke="black" d="M533.79,-186C472.72,-186 377.67,-186 377.67,-186 377.67,-186 377.67,-219.73 377.67,-219.73"/>
<polygon fill="black" stroke="black" points="374.17,-219.73 377.67,-229.73 381.17,-219.73 374.17,-219.73"/>
</g>
<!-- HeaderModule&#45;&gt;SearchModule -->
<g id="edge48" class="edge">
<title>HeaderModule&#45;&gt;SearchModule</title>
<path fill="none" stroke="black" d="M631.93,-198.17C631.93,-202.05 631.93,-205 631.93,-205 631.93,-205 1889.07,-205 1889.07,-205 1889.07,-205 1889.07,-219.51 1889.07,-219.51"/>
<polygon fill="black" stroke="black" points="1885.57,-219.51 1889.07,-229.51 1892.57,-219.51 1885.57,-219.51"/>
</g>
<!-- HeaderModule&#45;&gt;WeatherModule -->
<g id="edge66" class="edge">
<title>HeaderModule&#45;&gt;WeatherModule</title>
<path fill="none" stroke="black" d="M634.05,-173C634.05,-173 1881.19,-173 1881.19,-173"/>
<polygon fill="black" stroke="black" points="1881.19,-176.5 1891.19,-173 1881.19,-169.5 1881.19,-176.5"/>
</g>
<!-- SidenavModule&#45;&gt;ContainerModule -->
<g id="edge9" class="edge">
<title>SidenavModule&#45;&gt;ContainerModule</title>
<path fill="none" stroke="black" d="M664.76,-229.84C664.76,-224.96 664.76,-221 664.76,-221 664.76,-221 2212.05,-221 2212.05,-221 2212.05,-221 2212.05,-221.88 2212.05,-221.88"/>
<polygon fill="black" stroke="black" points="2208.55,-219.84 2212.05,-229.84 2215.55,-219.84 2208.55,-219.84"/>
</g>
<!-- SidenavModule&#45;&gt;HeaderModule -->
<g id="edge41" class="edge">
<title>SidenavModule&#45;&gt;HeaderModule</title>
<path fill="none" stroke="black" d="M629.88,-229.78C629.88,-229.78 629.88,-208.27 629.88,-208.27"/>
<polygon fill="black" stroke="black" points="633.38,-208.27 629.88,-198.27 626.38,-208.27 633.38,-208.27"/>
</g>
<!-- SidenavModule&#45;&gt;SidenavModule -->
<g id="edge59" class="edge">
<title>SidenavModule&#45;&gt;SidenavModule</title>
<path fill="none" stroke="black" d="M623.72,-229.92C623.72,-228.15 623.72,-227 623.72,-227 623.72,-227 613.29,-227 613.29,-227 613.29,-227 613.29,-269 613.29,-269 613.29,-269 642.35,-269 642.35,-269 642.35,-269 642.35,-268.71 642.35,-268.71"/>
<polygon fill="black" stroke="black" points="645.85,-276.08 642.35,-266.08 638.85,-276.08 645.85,-276.08"/>
</g>
<!-- SidenavModule&#45;&gt;ContainerComponent  -->
<g id="edge60" class="edge">
<title>SidenavModule&#45;&gt;ContainerComponent </title>
<path fill="none" stroke="black" stroke-dasharray="5,2" d="M726.31,-258C788.98,-258 885.62,-258 885.62,-258 885.62,-258 885.62,-284.99 885.62,-284.99"/>
<polygon fill="black" stroke="black" points="882.13,-284.99 885.62,-294.99 889.13,-284.99 882.13,-284.99"/>
</g>
<!-- SidenavModule&#45;&gt;FeatureModule  -->
<g id="edge61" class="edge">
<title>SidenavModule&#45;&gt;FeatureModule </title>
<path fill="none" stroke="black" stroke-dasharray="5,2" d="M726.38,-262C743.5,-262 758.21,-262 758.21,-262 758.21,-262 758.21,-284.88 758.21,-284.88"/>
<polygon fill="black" stroke="black" points="754.71,-284.88 758.21,-294.88 761.71,-284.88 754.71,-284.88"/>
</g>
<!-- SidenavModule&#45;&gt;HeaderModule  -->
<g id="edge62" class="edge">
<title>SidenavModule&#45;&gt;HeaderModule </title>
<path fill="none" stroke="black" stroke-dasharray="5,2" d="M621.76,-261C594.34,-261 566.38,-261 566.38,-261 566.38,-261 566.38,-284.81 566.38,-284.81"/>
<polygon fill="black" stroke="black" points="562.88,-284.81 566.38,-294.81 569.88,-284.81 562.88,-284.81"/>
</g>
<!-- SidenavModule&#45;&gt;SidenavModule  -->
<g id="edge63" class="edge">
<title>SidenavModule&#45;&gt;SidenavModule </title>
<path fill="none" stroke="black" stroke-dasharray="5,2" d="M683.72,-266.11C683.72,-266.11 683.72,-284.99 683.72,-284.99"/>
<polygon fill="black" stroke="black" points="680.22,-284.99 683.72,-294.99 687.22,-284.99 680.22,-284.99"/>
</g>
<!-- SidenavModule&#45;&gt;FavoritesModule -->
<g id="edge23" class="edge">
<title>SidenavModule&#45;&gt;FavoritesModule</title>
<path fill="none" stroke="black" d="M625.78,-229.81C625.78,-226.46 625.78,-224 625.78,-224 625.78,-224 186.34,-224 186.34,-224 186.34,-224 186.34,-224.58 186.34,-224.58"/>
<polygon fill="black" stroke="black" points="182.84,-219.81 186.34,-229.81 189.84,-219.81 182.84,-219.81"/>
</g>
<!-- SidenavModule&#45;&gt;ForecastModule -->
<g id="edge32" class="edge">
<title>SidenavModule&#45;&gt;ForecastModule</title>
<path fill="none" stroke="black" d="M621.67,-246C621.67,-246 390.61,-246 390.61,-246"/>
<polygon fill="black" stroke="black" points="390.61,-242.5 380.61,-246 390.61,-249.5 390.61,-242.5"/>
</g>
<!-- SidenavModule&#45;&gt;SearchModule -->
<g id="edge50" class="edge">
<title>SidenavModule&#45;&gt;SearchModule</title>
<path fill="none" stroke="black" d="M726.49,-242C726.49,-242 1874.06,-242 1874.06,-242"/>
<polygon fill="black" stroke="black" points="1874.06,-245.5 1884.06,-242 1874.06,-238.5 1874.06,-245.5"/>
</g>
<!-- SidenavModule&#45;&gt;WeatherModule -->
<g id="edge67" class="edge">
<title>SidenavModule&#45;&gt;WeatherModule</title>
<path fill="none" stroke="black" d="M695.54,-229.72C695.54,-208.68 695.54,-177 695.54,-177 695.54,-177 1881.31,-177 1881.31,-177"/>
<polygon fill="black" stroke="black" points="1881.31,-180.5 1891.31,-177 1881.31,-173.5 1881.31,-180.5"/>
</g>
<!-- ApplicationService -->
<g id="node15" class="node">
<title>ApplicationService</title>
<ellipse fill="#fdb462" stroke="black" cx="1014" cy="-104" rx="85.67" ry="18"/>
<text text-anchor="middle" x="1014" y="-99.8" font-family="Times,serif" font-size="14.00">ApplicationService</text>
</g>
<!-- ApplicationService&#45;&gt;ContainerModule -->
<g id="edge14" class="edge">
<title>ApplicationService&#45;&gt;ContainerModule</title>
<path fill="none" stroke="black" d="M1053.3,-120.23C1053.3,-127.73 1053.3,-135 1053.3,-135 1053.3,-135 2264.22,-135 2264.22,-135 2264.22,-135 2264.22,-219.84 2264.22,-219.84"/>
<polygon fill="black" stroke="black" points="2260.72,-219.84 2264.22,-229.84 2267.72,-219.84 2260.72,-219.84"/>
</g>
<!-- ExceptionInterceptor -->
<g id="node16" class="node">
<title>ExceptionInterceptor</title>
<ellipse fill="#fdb462" stroke="black" cx="1210" cy="-104" rx="92.6" ry="18"/>
<text text-anchor="middle" x="1210" y="-99.8" font-family="Times,serif" font-size="14.00">ExceptionInterceptor</text>
</g>
<!-- ExceptionInterceptor&#45;&gt;ContainerModule -->
<g id="edge15" class="edge">
<title>ExceptionInterceptor&#45;&gt;ContainerModule</title>
<path fill="none" stroke="black" d="M1210,-122.21C1210,-127.55 1210,-132 1210,-132 1210,-132 2274.65,-132 2274.65,-132 2274.65,-132 2274.65,-219.88 2274.65,-219.88"/>
<polygon fill="black" stroke="black" points="2271.15,-219.87 2274.65,-229.88 2278.15,-219.88 2271.15,-219.87"/>
</g>
<!-- RequestInterceptor -->
<g id="node17" class="node">
<title>RequestInterceptor</title>
<ellipse fill="#fdb462" stroke="black" cx="1405" cy="-104" rx="84.51" ry="18"/>
<text text-anchor="middle" x="1405" y="-99.8" font-family="Times,serif" font-size="14.00">RequestInterceptor</text>
</g>
<!-- RequestInterceptor&#45;&gt;ContainerModule -->
<g id="edge16" class="edge">
<title>RequestInterceptor&#45;&gt;ContainerModule</title>
<path fill="none" stroke="black" d="M1405,-122.17C1405,-126.05 1405,-129 1405,-129 1405,-129 2285.08,-129 2285.08,-129 2285.08,-129 2285.08,-219.93 2285.08,-219.93"/>
<polygon fill="black" stroke="black" points="2281.58,-219.93 2285.08,-229.93 2288.58,-219.93 2281.58,-219.93"/>
</g>
<!-- ResponseInterceptor -->
<g id="node18" class="node">
<title>ResponseInterceptor</title>
<ellipse fill="#fdb462" stroke="black" cx="1598" cy="-104" rx="90.31" ry="18"/>
<text text-anchor="middle" x="1598" y="-99.8" font-family="Times,serif" font-size="14.00">ResponseInterceptor</text>
</g>
<!-- ResponseInterceptor&#45;&gt;ContainerModule -->
<g id="edge17" class="edge">
<title>ResponseInterceptor&#45;&gt;ContainerModule</title>
<path fill="none" stroke="black" d="M1598,-122.17C1598,-124.45 1598,-126 1598,-126 1598,-126 2295.51,-126 2295.51,-126 2295.51,-126 2295.51,-220 2295.51,-220"/>
<polygon fill="black" stroke="black" points="2292.01,-220 2295.51,-230 2299.01,-220 2292.01,-220"/>
</g>
<!-- WeatherService -->
<g id="node19" class="node">
<title>WeatherService</title>
<ellipse fill="#fdb462" stroke="black" cx="1779" cy="-104" rx="72.89" ry="18"/>
<text text-anchor="middle" x="1779" y="-99.8" font-family="Times,serif" font-size="14.00">WeatherService</text>
</g>
<!-- WeatherService&#45;&gt;ContainerModule -->
<g id="edge18" class="edge">
<title>WeatherService&#45;&gt;ContainerModule</title>
<path fill="none" stroke="black" d="M1851.72,-104C1996.27,-104 2305.95,-104 2305.95,-104 2305.95,-104 2305.95,-219.76 2305.95,-219.76"/>
<polygon fill="black" stroke="black" points="2302.45,-219.76 2305.95,-229.76 2309.45,-219.76 2302.45,-219.76"/>
</g>
<!-- FavoritesModule&#45;&gt;ContainerComponent  -->
<g id="edge24" class="edge">
<title>FavoritesModule&#45;&gt;ContainerComponent </title>
<path fill="none" stroke="black" stroke-dasharray="5,2" d="M143.16,-266.07C143.16,-275.46 143.16,-285 143.16,-285 143.16,-285 876.3,-285 876.3,-285 876.3,-285 876.3,-285.98 876.3,-285.98"/>
<polygon fill="black" stroke="black" points="872.8,-284.79 876.3,-294.79 879.8,-284.79 872.8,-284.79"/>
</g>
<!-- FavoritesModule&#45;&gt;FeatureModule  -->
<g id="edge25" class="edge">
<title>FavoritesModule&#45;&gt;FeatureModule </title>
<path fill="none" stroke="black" stroke-dasharray="5,2" d="M120.84,-266.06C120.84,-277.44 120.84,-290 120.84,-290 120.84,-290 748.7,-290 748.7,-290 748.7,-290 748.7,-290.49 748.7,-290.49"/>
<polygon fill="black" stroke="black" points="745.2,-284.88 748.7,-294.88 752.2,-284.88 745.2,-284.88"/>
</g>
<!-- FavoritesModule&#45;&gt;HeaderModule  -->
<g id="edge26" class="edge">
<title>FavoritesModule&#45;&gt;HeaderModule </title>
<path fill="none" stroke="black" stroke-dasharray="5,2" d="M165.49,-266.11C165.49,-285.34 165.49,-313 165.49,-313 165.49,-313 485.15,-313 485.15,-313"/>
<polygon fill="black" stroke="black" points="485.15,-316.5 495.15,-313 485.15,-309.5 485.15,-316.5"/>
</g>
<!-- FavoritesModule&#45;&gt;SidenavModule  -->
<g id="edge27" class="edge">
<title>FavoritesModule&#45;&gt;SidenavModule </title>
<path fill="none" stroke="black" stroke-dasharray="5,2" d="M98.51,-266.04C98.51,-278.56 98.51,-293 98.51,-293 98.51,-293 663.03,-293 663.03,-293 663.03,-293 663.03,-293.18 663.03,-293.18"/>
<polygon fill="black" stroke="black" points="659.54,-284.85 663.03,-294.85 666.54,-284.85 659.54,-284.85"/>
</g>
<!-- FavoritesRoutingModule -->
<g id="node21" class="node">
<title>FavoritesRoutingModule</title>
<polygon fill="#8dd3c7" stroke="black" points="180.27,-198 177.27,-202 156.27,-202 153.27,-198 23.73,-198 23.73,-162 180.27,-162 180.27,-198"/>
<text text-anchor="middle" x="102" y="-175.8" font-family="Times,serif" font-size="14.00">FavoritesRoutingModule</text>
</g>
<!-- FavoritesRoutingModule&#45;&gt;FavoritesModule -->
<g id="edge20" class="edge">
<title>FavoritesRoutingModule&#45;&gt;FavoritesModule</title>
<path fill="none" stroke="black" d="M128.28,-198.22C128.28,-198.22 128.28,-219.73 128.28,-219.73"/>
<polygon fill="black" stroke="black" points="124.78,-219.73 128.28,-229.73 131.78,-219.73 124.78,-219.73"/>
</g>
<!-- ForecastModule&#45;&gt;ContainerComponent  -->
<g id="edge33" class="edge">
<title>ForecastModule&#45;&gt;ContainerComponent </title>
<path fill="none" stroke="black" stroke-dasharray="5,2" d="M344.83,-266.19C344.83,-274.28 344.83,-282 344.83,-282 344.83,-282 880.96,-282 880.96,-282 880.96,-282 880.96,-284.97 880.96,-284.97"/>
<polygon fill="black" stroke="black" points="877.46,-284.97 880.96,-294.97 884.46,-284.97 877.46,-284.97"/>
</g>
<!-- ForecastModule&#45;&gt;FeatureModule  -->
<g id="edge34" class="edge">
<title>ForecastModule&#45;&gt;FeatureModule </title>
<path fill="none" stroke="black" stroke-dasharray="5,2" d="M309.17,-266.13C309.17,-276.71 309.17,-288 309.17,-288 309.17,-288 753.45,-288 753.45,-288 753.45,-288 753.45,-288.68 753.45,-288.68"/>
<polygon fill="black" stroke="black" points="749.95,-284.83 753.45,-294.83 756.95,-284.83 749.95,-284.83"/>
</g>
<!-- ForecastModule&#45;&gt;HeaderModule  -->
<g id="edge35" class="edge">
<title>ForecastModule&#45;&gt;HeaderModule </title>
<path fill="none" stroke="black" stroke-dasharray="5,2" d="M380.77,-256C432.53,-256 503.02,-256 503.02,-256 503.02,-256 503.02,-284.96 503.02,-284.96"/>
<polygon fill="black" stroke="black" points="499.52,-284.96 503.02,-294.96 506.52,-284.96 499.52,-284.96"/>
</g>
<!-- ForecastModule&#45;&gt;SidenavModule  -->
<g id="edge36" class="edge">
<title>ForecastModule&#45;&gt;SidenavModule </title>
<path fill="none" stroke="black" stroke-dasharray="5,2" d="M380.8,-251C461.87,-251 606.01,-251 606.01,-251 606.01,-251 606.01,-319 606.01,-319 606.01,-319 607.08,-319 607.08,-319"/>
<polygon fill="black" stroke="black" points="606.74,-322.5 616.74,-319 606.74,-315.5 606.74,-322.5"/>
</g>
<!-- ForecastRoutingModule -->
<g id="node23" class="node">
<title>ForecastRoutingModule</title>
<polygon fill="#8dd3c7" stroke="black" points="372.09,-198 369.09,-202 348.09,-202 345.09,-198 219.91,-198 219.91,-162 372.09,-162 372.09,-198"/>
<text text-anchor="middle" x="296" y="-175.8" font-family="Times,serif" font-size="14.00">ForecastRoutingModule</text>
</g>
<!-- ForecastRoutingModule&#45;&gt;ForecastModule -->
<g id="edge30" class="edge">
<title>ForecastRoutingModule&#45;&gt;ForecastModule</title>
<path fill="none" stroke="black" d="M322.78,-198.22C322.78,-198.22 322.78,-219.73 322.78,-219.73"/>
<polygon fill="black" stroke="black" points="319.28,-219.73 322.78,-229.73 326.28,-219.73 319.28,-219.73"/>
</g>
<!-- HeaderRoutingModule -->
<g id="node24" class="node">
<title>HeaderRoutingModule</title>
<polygon fill="#8dd3c7" stroke="black" points="423.58,-122 420.58,-126 399.58,-126 396.58,-122 278.42,-122 278.42,-86 423.58,-86 423.58,-122"/>
<text text-anchor="middle" x="351" y="-99.8" font-family="Times,serif" font-size="14.00">HeaderRoutingModule</text>
</g>
<!-- HeaderRoutingModule&#45;&gt;HeaderModule -->
<g id="edge40" class="edge">
<title>HeaderRoutingModule&#45;&gt;HeaderModule</title>
<path fill="none" stroke="black" d="M402.01,-122.03C402.01,-142.77 402.01,-174 402.01,-174 402.01,-174 523.79,-174 523.79,-174"/>
<polygon fill="black" stroke="black" points="523.79,-177.5 533.79,-174 523.79,-170.5 523.79,-177.5"/>
</g>
<!-- SearchModule&#45;&gt;ContainerComponent  -->
<g id="edge52" class="edge">
<title>SearchModule&#45;&gt;ContainerComponent </title>
<path fill="none" stroke="black" stroke-dasharray="5,2" d="M1884.14,-254C1689.63,-254 980.82,-254 980.82,-254 980.82,-254 980.82,-284.98 980.82,-284.98"/>
<polygon fill="black" stroke="black" points="977.32,-284.98 980.82,-294.98 984.32,-284.98 977.32,-284.98"/>
</g>
<!-- SearchModule&#45;&gt;FeatureModule  -->
<g id="edge53" class="edge">
<title>SearchModule&#45;&gt;FeatureModule </title>
<path fill="none" stroke="black" stroke-dasharray="5,2" d="M1884.11,-250C1670.32,-250 828.32,-250 828.32,-250 828.32,-250 828.32,-284.78 828.32,-284.78"/>
<polygon fill="black" stroke="black" points="824.82,-284.78 828.32,-294.78 831.82,-284.78 824.82,-284.78"/>
</g>
<!-- SearchModule&#45;&gt;HeaderModule  -->
<g id="edge54" class="edge">
<title>SearchModule&#45;&gt;HeaderModule </title>
<path fill="none" stroke="black" stroke-dasharray="5,2" d="M1933,-266.19C1933,-269.54 1933,-272 1933,-272 1933,-272 574.46,-272 574.46,-272 574.46,-272 574.46,-284.9 574.46,-284.9"/>
<polygon fill="black" stroke="black" points="570.96,-284.9 574.46,-294.9 577.96,-284.9 570.96,-284.9"/>
</g>
<!-- SearchModule&#45;&gt;SidenavModule  -->
<g id="edge55" class="edge">
<title>SearchModule&#45;&gt;SidenavModule </title>
<path fill="none" stroke="black" stroke-dasharray="5,2" d="M1884.35,-246C1660.36,-246 739.2,-246 739.2,-246 739.2,-246 739.2,-319 739.2,-319 739.2,-319 735.4,-319 735.4,-319"/>
<polygon fill="black" stroke="black" points="735.4,-315.5 725.4,-319 735.4,-322.5 735.4,-315.5"/>
</g>
<!-- SearchRoutingModule -->
<g id="node26" class="node">
<title>SearchRoutingModule</title>
<polygon fill="#8dd3c7" stroke="black" points="2159.25,-198 2156.25,-202 2135.25,-202 2132.25,-198 2016.75,-198 2016.75,-162 2159.25,-162 2159.25,-198"/>
<text text-anchor="middle" x="2088" y="-175.8" font-family="Times,serif" font-size="14.00">SearchRoutingModule</text>
</g>
<!-- SearchRoutingModule&#45;&gt;SearchModule -->
<g id="edge49" class="edge">
<title>SearchRoutingModule&#45;&gt;SearchModule</title>
<path fill="none" stroke="black" d="M2088,-198.22C2088,-218.37 2088,-248 2088,-248 2088,-248 1992.04,-248 1992.04,-248"/>
<polygon fill="black" stroke="black" points="1992.04,-244.5 1982.04,-248 1992.04,-251.5 1992.04,-244.5"/>
</g>
<!-- WeatherModule&#45;&gt;ContainerComponent  -->
<g id="edge68" class="edge">
<title>WeatherModule&#45;&gt;ContainerComponent </title>
<path fill="none" stroke="black" stroke-dasharray="5,2" d="M1891.4,-188C1685.21,-188 954.62,-188 954.62,-188 954.62,-188 954.62,-284.82 954.62,-284.82"/>
<polygon fill="black" stroke="black" points="951.12,-284.82 954.62,-294.82 958.12,-284.82 951.12,-284.82"/>
</g>
<!-- WeatherModule&#45;&gt;FeatureModule  -->
<g id="edge69" class="edge">
<title>WeatherModule&#45;&gt;FeatureModule </title>
<path fill="none" stroke="black" stroke-dasharray="5,2" d="M1891.41,-184C1667.48,-184 818.22,-184 818.22,-184 818.22,-184 818.22,-284.79 818.22,-284.79"/>
<polygon fill="black" stroke="black" points="814.72,-284.79 818.22,-294.79 821.72,-284.79 814.72,-284.79"/>
</g>
<!-- WeatherModule&#45;&gt;HeaderModule  -->
<g id="edge70" class="edge">
<title>WeatherModule&#45;&gt;HeaderModule </title>
<path fill="none" stroke="black" stroke-dasharray="5,2" d="M1921.62,-198.11C1921.62,-207.9 1921.62,-218 1921.62,-218 1921.62,-218 558.29,-218 558.29,-218 558.29,-218 558.29,-284.68 558.29,-284.68"/>
<polygon fill="black" stroke="black" points="554.79,-284.68 558.29,-294.68 561.79,-284.68 554.79,-284.68"/>
</g>
<!-- WeatherModule&#45;&gt;SidenavModule  -->
<g id="edge71" class="edge">
<title>WeatherModule&#45;&gt;SidenavModule </title>
<path fill="none" stroke="black" stroke-dasharray="5,2" d="M1891.44,-180C1657.25,-180 734.91,-180 734.91,-180 734.91,-180 734.91,-307 734.91,-307 734.91,-307 733.94,-307 733.94,-307"/>
<polygon fill="black" stroke="black" points="735.2,-303.5 725.2,-307 735.2,-310.5 735.2,-303.5"/>
</g>
<!-- WeatherModule&#45;&gt;SearchModule -->
<g id="edge51" class="edge">
<title>WeatherModule&#45;&gt;SearchModule</title>
<path fill="none" stroke="black" d="M1951.72,-198.22C1951.72,-198.22 1951.72,-219.73 1951.72,-219.73"/>
<polygon fill="black" stroke="black" points="1948.22,-219.73 1951.72,-229.73 1955.22,-219.73 1948.22,-219.73"/>
</g>
</g>
</svg>
