<?xml version="1.0" encoding="UTF-8" standalone="no"?>
<!DOCTYPE svg PUBLIC "-//W3C//DTD SVG 1.1//EN"
 "http://www.w3.org/Graphics/SVG/1.1/DTD/svg11.dtd">
<!-- Generated by graphviz version 2.44.1 (20200629.0846)
 -->
<!-- Title: dependencies Pages: 1 -->
<svg width="2221pt" height="496pt"
 viewBox="0.00 0.00 2221.00 496.00" xmlns="http://www.w3.org/2000/svg" xmlns:xlink="http://www.w3.org/1999/xlink">
<g id="graph0" class="graph" transform="scale(1 1) rotate(0) translate(4 492)">
<title>dependencies</title>
<polygon fill="white" stroke="transparent" points="-4,4 -4,-492 2217,-492 2217,4 -4,4"/>
<text text-anchor="start" x="1085.51" y="-42.4" font-family="sans-serif" font-weight="bold" font-size="14.00">Legend</text>
<polygon fill="#ffffb3" stroke="transparent" points="872.5,-10 872.5,-30 892.5,-30 892.5,-10 872.5,-10"/>
<text text-anchor="start" x="896.13" y="-15.4" font-family="sans-serif" font-size="14.00"> &#160;Declarations</text>
<polygon fill="#8dd3c7" stroke="transparent" points="985.5,-10 985.5,-30 1005.5,-30 1005.5,-10 985.5,-10"/>
<text text-anchor="start" x="1009.23" y="-15.4" font-family="sans-serif" font-size="14.00"> &#160;Module</text>
<polygon fill="#80b1d3" stroke="transparent" points="1071.5,-10 1071.5,-30 1091.5,-30 1091.5,-10 1071.5,-10"/>
<text text-anchor="start" x="1095.28" y="-15.4" font-family="sans-serif" font-size="14.00"> &#160;Bootstrap</text>
<polygon fill="#fdb462" stroke="transparent" points="1168.5,-10 1168.5,-30 1188.5,-30 1188.5,-10 1168.5,-10"/>
<text text-anchor="start" x="1192.17" y="-15.4" font-family="sans-serif" font-size="14.00"> &#160;Providers</text>
<polygon fill="#fb8072" stroke="transparent" points="1264.5,-10 1264.5,-30 1284.5,-30 1284.5,-10 1264.5,-10"/>
<text text-anchor="start" x="1288.23" y="-15.4" font-family="sans-serif" font-size="14.00"> &#160;Exports</text>
<g id="clust1" class="cluster">
<title>cluster_AppModule</title>
<polygon fill="none" stroke="black" stroke-dasharray="1,5" points="693,-282 693,-480 1116,-480 1116,-282 693,-282"/>
</g>
<g id="clust2" class="cluster">
<title>cluster_AppModule_declarations</title>
<polygon fill="none" stroke="black" points="986,-290 986,-342 1108,-342 1108,-290 986,-290"/>
</g>
<g id="clust4" class="cluster">
<title>cluster_AppModule_imports</title>
<polygon fill="none" stroke="black" points="701,-290 701,-342 978,-342 978,-290 701,-290"/>
</g>
<g id="clust6" class="cluster">
<title>cluster_AppModule_bootstrap</title>
<polygon fill="none" stroke="black" points="844,-420 844,-472 968,-472 968,-420 844,-420"/>
</g>
<g id="clust14" class="cluster">
<title>cluster_ContainerModule</title>
<polygon fill="none" stroke="black" stroke-dasharray="1,5" points="8,-206 8,-274 1465,-274 1465,-206 8,-206"/>
</g>
<g id="clust15" class="cluster">
<title>cluster_ContainerModule_declarations</title>
<polygon fill="none" stroke="black" points="1307,-214 1307,-266 1457,-266 1457,-214 1307,-214"/>
</g>
<g id="clust17" class="cluster">
<title>cluster_ContainerModule_imports</title>
<polygon fill="none" stroke="black" points="1123,-214 1123,-266 1299,-266 1299,-214 1123,-214"/>
</g>
<g id="clust18" class="cluster">
<title>cluster_ContainerModule_exports</title>
<polygon fill="none" stroke="black" points="963,-214 963,-266 1115,-266 1115,-214 963,-214"/>
</g>
<g id="clust20" class="cluster">
<title>cluster_ContainerModule_providers</title>
<polygon fill="none" stroke="black" points="16,-214 16,-266 955,-266 955,-214 16,-214"/>
</g>
<g id="clust27" class="cluster">
<title>cluster_FavoritesModule</title>
<polygon fill="none" stroke="black" stroke-dasharray="1,5" points="980,-70 980,-198 1168,-198 1168,-70 980,-70"/>
</g>
<g id="clust30" class="cluster">
<title>cluster_FavoritesModule_imports</title>
<polygon fill="none" stroke="black" points="988,-78 988,-130 1160,-130 1160,-78 988,-78"/>
</g>
<g id="clust46" class="cluster">
<title>cluster_ForecastModule</title>
<polygon fill="none" stroke="black" stroke-dasharray="1,5" points="1246,-70 1246,-198 1430,-198 1430,-70 1246,-70"/>
</g>
<g id="clust49" class="cluster">
<title>cluster_ForecastModule_imports</title>
<polygon fill="none" stroke="black" points="1254,-78 1254,-130 1422,-130 1422,-78 1254,-78"/>
</g>
<g id="clust59" class="cluster">
<title>cluster_HeaderModule</title>
<polygon fill="none" stroke="black" stroke-dasharray="1,5" points="1780,-138 1780,-266 2077,-266 2077,-138 1780,-138"/>
</g>
<g id="clust62" class="cluster">
<title>cluster_HeaderModule_imports</title>
<polygon fill="none" stroke="black" points="1788,-146 1788,-198 2069,-198 2069,-146 1788,-146"/>
</g>
<g id="clust72" class="cluster">
<title>cluster_SearchModule</title>
<polygon fill="none" stroke="black" stroke-dasharray="1,5" points="1473,-138 1473,-266 1772,-266 1772,-138 1473,-138"/>
</g>
<g id="clust75" class="cluster">
<title>cluster_SearchModule_imports</title>
<polygon fill="none" stroke="black" points="1481,-146 1481,-198 1764,-198 1764,-146 1481,-146"/>
</g>
<g id="clust85" class="cluster">
<title>cluster_SidenavModule</title>
<polygon fill="none" stroke="black" stroke-dasharray="1,5" points="2085,-214 2085,-266 2205,-266 2205,-214 2085,-214"/>
</g>
<!-- AppComponent -->
<g id="node1" class="node">
<title>AppComponent</title>
<polygon fill="#ffffb3" stroke="black" points="1099.94,-334 994.06,-334 994.06,-298 1099.94,-298 1099.94,-334"/>
<text text-anchor="middle" x="1047" y="-311.8" font-family="Times,serif" font-size="14.00">AppComponent</text>
</g>
<!-- AppModule -->
<g id="node2" class="node">
<title>AppModule</title>
<polygon fill="#8dd3c7" stroke="black" points="947.66,-399 944.66,-403 923.66,-403 920.66,-399 864.34,-399 864.34,-363 947.66,-363 947.66,-399"/>
<text text-anchor="middle" x="906" y="-376.8" font-family="Times,serif" font-size="14.00">AppModule</text>
</g>
<!-- AppComponent&#45;&gt;AppModule -->
<g id="edge1" class="edge">
<title>AppComponent&#45;&gt;AppModule</title>
<path fill="none" stroke="black" d="M1047,-334.11C1047,-353.34 1047,-381 1047,-381 1047,-381 957.92,-381 957.92,-381"/>
<polygon fill="black" stroke="black" points="957.92,-377.5 947.92,-381 957.92,-384.5 957.92,-377.5"/>
</g>
<!-- AppComponent  -->
<g id="node5" class="node">
<title>AppComponent </title>
<polygon fill="#80b1d3" stroke="black" points="960.44,-464 851.56,-464 851.56,-428 960.44,-428 960.44,-464"/>
<text text-anchor="middle" x="906" y="-441.8" font-family="Times,serif" font-size="14.00">AppComponent </text>
</g>
<!-- AppModule&#45;&gt;AppComponent  -->
<g id="edge4" class="edge">
<title>AppModule&#45;&gt;AppComponent </title>
<path fill="none" stroke="black" stroke-dasharray="1,5" d="M906,-399.11C906,-399.11 906,-417.99 906,-417.99"/>
<polygon fill="black" stroke="black" points="902.5,-417.99 906,-427.99 909.5,-417.99 902.5,-417.99"/>
</g>
<!-- AppRoutingModule -->
<g id="node3" class="node">
<title>AppRoutingModule</title>
<polygon fill="#8dd3c7" stroke="black" points="970.27,-334 967.27,-338 946.27,-338 943.27,-334 841.73,-334 841.73,-298 970.27,-298 970.27,-334"/>
<text text-anchor="middle" x="906" y="-311.8" font-family="Times,serif" font-size="14.00">AppRoutingModule</text>
</g>
<!-- AppRoutingModule&#45;&gt;AppModule -->
<g id="edge2" class="edge">
<title>AppRoutingModule&#45;&gt;AppModule</title>
<path fill="none" stroke="black" d="M906,-334.11C906,-334.11 906,-352.99 906,-352.99"/>
<polygon fill="black" stroke="black" points="902.5,-352.99 906,-362.99 909.5,-352.99 902.5,-352.99"/>
</g>
<!-- ContainerModule -->
<g id="node4" class="node">
<title>ContainerModule</title>
<polygon fill="#8dd3c7" stroke="black" points="823.26,-334 820.26,-338 799.26,-338 796.26,-334 708.74,-334 708.74,-298 823.26,-298 823.26,-334"/>
<text text-anchor="middle" x="766" y="-311.8" font-family="Times,serif" font-size="14.00">ContainerModule</text>
</g>
<!-- ContainerModule&#45;&gt;AppModule -->
<g id="edge3" class="edge">
<title>ContainerModule&#45;&gt;AppModule</title>
<path fill="none" stroke="black" d="M766,-334.11C766,-353.34 766,-381 766,-381 766,-381 854,-381 854,-381"/>
<polygon fill="black" stroke="black" points="854,-384.5 864,-381 854,-377.5 854,-384.5"/>
</g>
<!-- FavoritesComponent  -->
<g id="node8" class="node">
<title>FavoritesComponent </title>
<polygon fill="#fb8072" stroke="black" points="1107.43,-258 970.57,-258 970.57,-222 1107.43,-222 1107.43,-258"/>
<text text-anchor="middle" x="1039" y="-235.8" font-family="Times,serif" font-size="14.00">FavoritesComponent </text>
</g>
<!-- ContainerModule&#45;&gt;FavoritesComponent  -->
<g id="edge7" class="edge">
<title>ContainerModule&#45;&gt;FavoritesComponent </title>
<path fill="none" stroke="black" stroke-dasharray="5,2" d="M812.02,-297.94C812.02,-286.56 812.02,-274 812.02,-274 812.02,-274 982.41,-274 982.41,-274 982.41,-274 982.41,-268.19 982.41,-268.19"/>
<polygon fill="black" stroke="black" points="985.91,-268.19 982.41,-258.19 978.91,-268.19 985.91,-268.19"/>
</g>
<!-- FavoritesComponent -->
<g id="node6" class="node">
<title>FavoritesComponent</title>
<polygon fill="#ffffb3" stroke="black" points="1448.93,-258 1315.07,-258 1315.07,-222 1448.93,-222 1448.93,-258"/>
<text text-anchor="middle" x="1382" y="-235.8" font-family="Times,serif" font-size="14.00">FavoritesComponent</text>
</g>
<!-- FavoritesComponent&#45;&gt;ContainerModule -->
<g id="edge5" class="edge">
<title>FavoritesComponent&#45;&gt;ContainerModule</title>
<path fill="none" stroke="black" d="M1382,-258.05C1382,-272.37 1382,-290 1382,-290 1382,-290 800.67,-290 800.67,-290 800.67,-290 800.67,-290.79 800.67,-290.79"/>
<polygon fill="black" stroke="black" points="797.17,-287.94 800.67,-297.94 804.17,-287.94 797.17,-287.94"/>
</g>
<!-- FavoritesModule -->
<g id="node14" class="node">
<title>FavoritesModule</title>
<polygon fill="#8dd3c7" stroke="black" points="1129.65,-190 1126.65,-194 1105.65,-194 1102.65,-190 1018.35,-190 1018.35,-154 1129.65,-154 1129.65,-190"/>
<text text-anchor="middle" x="1074" y="-167.8" font-family="Times,serif" font-size="14.00">FavoritesModule</text>
</g>
<!-- FavoritesComponent&#45;&gt;FavoritesModule -->
<g id="edge13" class="edge">
<title>FavoritesComponent&#45;&gt;FavoritesModule</title>
<path fill="none" stroke="black" d="M1340.69,-221.82C1340.69,-208.96 1340.69,-194 1340.69,-194 1340.69,-194 1118.64,-194 1118.64,-194 1118.64,-194 1118.64,-193.62 1118.64,-193.62"/>
<polygon fill="black" stroke="black" points="1122.14,-200.17 1118.64,-190.17 1115.14,-200.17 1122.14,-200.17"/>
</g>
<!-- ForecastModule -->
<g id="node16" class="node">
<title>ForecastModule</title>
<polygon fill="#8dd3c7" stroke="black" points="1391.47,-190 1388.47,-194 1367.47,-194 1364.47,-190 1284.53,-190 1284.53,-154 1391.47,-154 1391.47,-190"/>
<text text-anchor="middle" x="1338" y="-167.8" font-family="Times,serif" font-size="14.00">ForecastModule</text>
</g>
<!-- FavoritesComponent&#45;&gt;ForecastModule -->
<g id="edge16" class="edge">
<title>FavoritesComponent&#45;&gt;ForecastModule</title>
<path fill="none" stroke="black" d="M1366.09,-221.78C1366.09,-221.78 1366.09,-200.27 1366.09,-200.27"/>
<polygon fill="black" stroke="black" points="1369.59,-200.27 1366.09,-190.27 1362.59,-200.27 1369.59,-200.27"/>
</g>
<!-- HeaderModule -->
<g id="node18" class="node">
<title>HeaderModule</title>
<polygon fill="#8dd3c7" stroke="black" points="1902.96,-258 1899.96,-262 1878.96,-262 1875.96,-258 1803.04,-258 1803.04,-222 1902.96,-222 1902.96,-258"/>
<text text-anchor="middle" x="1853" y="-235.8" font-family="Times,serif" font-size="14.00">HeaderModule</text>
</g>
<!-- FavoritesComponent&#45;&gt;HeaderModule -->
<g id="edge19" class="edge">
<title>FavoritesComponent&#45;&gt;HeaderModule</title>
<path fill="none" stroke="black" d="M1431.38,-221.92C1431.38,-220.15 1431.38,-219 1431.38,-219 1431.38,-219 1853,-219 1853,-219 1853,-219 1853,-219.29 1853,-219.29"/>
<polygon fill="black" stroke="black" points="1849.5,-211.92 1853,-221.92 1856.5,-211.92 1849.5,-211.92"/>
</g>
<!-- SearchModule -->
<g id="node21" class="node">
<title>SearchModule</title>
<polygon fill="#8dd3c7" stroke="black" points="1590.64,-258 1587.64,-262 1566.64,-262 1563.64,-258 1493.36,-258 1493.36,-222 1590.64,-222 1590.64,-258"/>
<text text-anchor="middle" x="1542" y="-235.8" font-family="Times,serif" font-size="14.00">SearchModule</text>
</g>
<!-- FavoritesComponent&#45;&gt;SearchModule -->
<g id="edge23" class="edge">
<title>FavoritesComponent&#45;&gt;SearchModule</title>
<path fill="none" stroke="black" d="M1448.93,-240C1448.93,-240 1483.35,-240 1483.35,-240"/>
<polygon fill="black" stroke="black" points="1483.35,-243.5 1493.35,-240 1483.35,-236.5 1483.35,-243.5"/>
</g>
<!-- WeatherModule -->
<g id="node23" class="node">
<title>WeatherModule</title>
<polygon fill="#8dd3c7" stroke="black" points="1595.46,-190 1592.46,-194 1571.46,-194 1568.46,-190 1488.54,-190 1488.54,-154 1595.46,-154 1595.46,-190"/>
<text text-anchor="middle" x="1542" y="-167.8" font-family="Times,serif" font-size="14.00">WeatherModule</text>
</g>
<!-- FavoritesComponent&#45;&gt;WeatherModule -->
<g id="edge31" class="edge">
<title>FavoritesComponent&#45;&gt;WeatherModule</title>
<path fill="none" stroke="black" d="M1440.05,-221.78C1440.05,-201.63 1440.05,-172 1440.05,-172 1440.05,-172 1478.34,-172 1478.34,-172"/>
<polygon fill="black" stroke="black" points="1478.34,-175.5 1488.34,-172 1478.34,-168.5 1478.34,-175.5"/>
</g>
<!-- SidenavModule -->
<g id="node24" class="node">
<title>SidenavModule</title>
<polygon fill="#8dd3c7" stroke="black" points="2197.15,-258 2194.15,-262 2173.15,-262 2170.15,-258 2092.85,-258 2092.85,-222 2197.15,-222 2197.15,-258"/>
<text text-anchor="middle" x="2145" y="-235.8" font-family="Times,serif" font-size="14.00">SidenavModule</text>
</g>
<!-- FavoritesComponent&#45;&gt;SidenavModule -->
<g id="edge28" class="edge">
<title>FavoritesComponent&#45;&gt;SidenavModule</title>
<path fill="none" stroke="black" d="M1422.71,-221.79C1422.71,-216.45 1422.71,-212 1422.71,-212 1422.71,-212 2162.44,-212 2162.44,-212 2162.44,-212 2162.44,-212.98 2162.44,-212.98"/>
<polygon fill="black" stroke="black" points="2158.94,-211.79 2162.44,-221.79 2165.94,-211.79 2158.94,-211.79"/>
</g>
<!-- ContainerRoutingModule -->
<g id="node7" class="node">
<title>ContainerRoutingModule</title>
<polygon fill="#8dd3c7" stroke="black" points="1290.88,-258 1287.88,-262 1266.88,-262 1263.88,-258 1131.12,-258 1131.12,-222 1290.88,-222 1290.88,-258"/>
<text text-anchor="middle" x="1211" y="-235.8" font-family="Times,serif" font-size="14.00">ContainerRoutingModule</text>
</g>
<!-- ContainerRoutingModule&#45;&gt;ContainerModule -->
<g id="edge6" class="edge">
<title>ContainerRoutingModule&#45;&gt;ContainerModule</title>
<path fill="none" stroke="black" d="M1211,-258.06C1211,-269.44 1211,-282 1211,-282 1211,-282 789.31,-282 789.31,-282 789.31,-282 789.31,-287.81 789.31,-287.81"/>
<polygon fill="black" stroke="black" points="785.81,-287.81 789.31,-297.81 792.81,-287.81 785.81,-287.81"/>
</g>
<!-- ApplicationService -->
<g id="node9" class="node">
<title>ApplicationService</title>
<ellipse fill="#fdb462" stroke="black" cx="500" cy="-240" rx="85.67" ry="18"/>
<text text-anchor="middle" x="500" y="-235.8" font-family="Times,serif" font-size="14.00">ApplicationService</text>
</g>
<!-- ApplicationService&#45;&gt;ContainerModule -->
<g id="edge8" class="edge">
<title>ApplicationService&#45;&gt;ContainerModule</title>
<path fill="none" stroke="black" d="M500,-258.31C500,-278.15 500,-307 500,-307 500,-307 698.61,-307 698.61,-307"/>
<polygon fill="black" stroke="black" points="698.61,-310.5 708.61,-307 698.61,-303.5 698.61,-310.5"/>
</g>
<!-- ExceptionInterceptor -->
<g id="node10" class="node">
<title>ExceptionInterceptor</title>
<ellipse fill="#fdb462" stroke="black" cx="304" cy="-240" rx="92.6" ry="18"/>
<text text-anchor="middle" x="304" y="-235.8" font-family="Times,serif" font-size="14.00">ExceptionInterceptor</text>
</g>
<!-- ExceptionInterceptor&#45;&gt;ContainerModule -->
<g id="edge9" class="edge">
<title>ExceptionInterceptor&#45;&gt;ContainerModule</title>
<path fill="none" stroke="black" d="M304,-258.01C304,-280.49 304,-316 304,-316 304,-316 698.42,-316 698.42,-316"/>
<polygon fill="black" stroke="black" points="698.42,-319.5 708.42,-316 698.42,-312.5 698.42,-319.5"/>
</g>
<!-- RequestInterceptor -->
<g id="node11" class="node">
<title>RequestInterceptor</title>
<ellipse fill="#fdb462" stroke="black" cx="109" cy="-240" rx="84.51" ry="18"/>
<text text-anchor="middle" x="109" y="-235.8" font-family="Times,serif" font-size="14.00">RequestInterceptor</text>
</g>
<!-- RequestInterceptor&#45;&gt;ContainerModule -->
<g id="edge10" class="edge">
<title>RequestInterceptor&#45;&gt;ContainerModule</title>
<path fill="none" stroke="black" d="M109,-258.03C109,-282.98 109,-325 109,-325 109,-325 698.56,-325 698.56,-325"/>
<polygon fill="black" stroke="black" points="698.56,-328.5 708.56,-325 698.56,-321.5 698.56,-328.5"/>
</g>
<!-- ResponseInterceptor -->
<g id="node12" class="node">
<title>ResponseInterceptor</title>
<ellipse fill="#fdb462" stroke="black" cx="857" cy="-240" rx="90.31" ry="18"/>
<text text-anchor="middle" x="857" y="-235.8" font-family="Times,serif" font-size="14.00">ResponseInterceptor</text>
</g>
<!-- ResponseInterceptor&#45;&gt;ContainerModule -->
<g id="edge11" class="edge">
<title>ResponseInterceptor&#45;&gt;ContainerModule</title>
<path fill="none" stroke="black" d="M777.95,-249.02C777.95,-249.02 777.95,-287.74 777.95,-287.74"/>
<polygon fill="black" stroke="black" points="774.45,-287.74 777.95,-297.74 781.45,-287.74 774.45,-287.74"/>
</g>
<!-- WeatherService -->
<g id="node13" class="node">
<title>WeatherService</title>
<ellipse fill="#fdb462" stroke="black" cx="676" cy="-240" rx="72.89" ry="18"/>
<text text-anchor="middle" x="676" y="-235.8" font-family="Times,serif" font-size="14.00">WeatherService</text>
</g>
<!-- WeatherService&#45;&gt;ContainerModule -->
<g id="edge12" class="edge">
<title>WeatherService&#45;&gt;ContainerModule</title>
<path fill="none" stroke="black" d="M728.66,-252.55C728.66,-252.55 728.66,-287.74 728.66,-287.74"/>
<polygon fill="black" stroke="black" points="725.16,-287.74 728.66,-297.74 732.16,-287.74 725.16,-287.74"/>
</g>
<!-- FavoritesModule&#45;&gt;FavoritesComponent  -->
<g id="edge15" class="edge">
<title>FavoritesModule&#45;&gt;FavoritesComponent </title>
<path fill="none" stroke="black" stroke-dasharray="5,2" d="M1033.06,-190.22C1033.06,-190.22 1033.06,-211.73 1033.06,-211.73"/>
<polygon fill="black" stroke="black" points="1029.56,-211.73 1033.06,-221.73 1036.56,-211.73 1029.56,-211.73"/>
</g>
<!-- FavoritesRoutingModule -->
<g id="node15" class="node">
<title>FavoritesRoutingModule</title>
<polygon fill="#8dd3c7" stroke="black" points="1152.27,-122 1149.27,-126 1128.27,-126 1125.27,-122 995.73,-122 995.73,-86 1152.27,-86 1152.27,-122"/>
<text text-anchor="middle" x="1074" y="-99.8" font-family="Times,serif" font-size="14.00">FavoritesRoutingModule</text>
</g>
<!-- FavoritesRoutingModule&#45;&gt;FavoritesModule -->
<g id="edge14" class="edge">
<title>FavoritesRoutingModule&#45;&gt;FavoritesModule</title>
<path fill="none" stroke="black" d="M1074,-122.22C1074,-122.22 1074,-143.73 1074,-143.73"/>
<polygon fill="black" stroke="black" points="1070.5,-143.73 1074,-153.73 1077.5,-143.73 1070.5,-143.73"/>
</g>
<!-- ForecastModule&#45;&gt;FavoritesComponent  -->
<g id="edge18" class="edge">
<title>ForecastModule&#45;&gt;FavoritesComponent </title>
<path fill="none" stroke="black" stroke-dasharray="5,2" d="M1303.11,-190.06C1303.11,-194.49 1303.11,-198 1303.11,-198 1303.11,-198 1047.94,-198 1047.94,-198 1047.94,-198 1047.94,-211.94 1047.94,-211.94"/>
<polygon fill="black" stroke="black" points="1044.44,-211.94 1047.94,-221.94 1051.44,-211.94 1044.44,-211.94"/>
</g>
<!-- ForecastRoutingModule -->
<g id="node17" class="node">
<title>ForecastRoutingModule</title>
<polygon fill="#8dd3c7" stroke="black" points="1414.09,-122 1411.09,-126 1390.09,-126 1387.09,-122 1261.91,-122 1261.91,-86 1414.09,-86 1414.09,-122"/>
<text text-anchor="middle" x="1338" y="-99.8" font-family="Times,serif" font-size="14.00">ForecastRoutingModule</text>
</g>
<!-- ForecastRoutingModule&#45;&gt;ForecastModule -->
<g id="edge17" class="edge">
<title>ForecastRoutingModule&#45;&gt;ForecastModule</title>
<path fill="none" stroke="black" d="M1338,-122.22C1338,-122.22 1338,-143.73 1338,-143.73"/>
<polygon fill="black" stroke="black" points="1334.5,-143.73 1338,-153.73 1341.5,-143.73 1334.5,-143.73"/>
</g>
<!-- HeaderModule&#45;&gt;FavoritesComponent  -->
<g id="edge22" class="edge">
<title>HeaderModule&#45;&gt;FavoritesComponent </title>
<path fill="none" stroke="black" stroke-dasharray="5,2" d="M1828.01,-221.76C1828.01,-214.57 1828.01,-208 1828.01,-208 1828.01,-208 1092.58,-208 1092.58,-208 1092.58,-208 1092.58,-211.76 1092.58,-211.76"/>
<polygon fill="black" stroke="black" points="1089.08,-211.76 1092.58,-221.76 1096.08,-211.76 1089.08,-211.76"/>
</g>
<!-- FeatureModule -->
<g id="node19" class="node">
<title>FeatureModule</title>
<polygon fill="#8dd3c7" stroke="black" points="2060.53,-190 2057.53,-194 2036.53,-194 2033.53,-190 1959.47,-190 1959.47,-154 2060.53,-154 2060.53,-190"/>
<text text-anchor="middle" x="2010" y="-167.8" font-family="Times,serif" font-size="14.00">FeatureModule</text>
</g>
<!-- FeatureModule&#45;&gt;HeaderModule -->
<g id="edge20" class="edge">
<title>FeatureModule&#45;&gt;HeaderModule</title>
<path fill="none" stroke="black" d="M2010,-190.27C2010,-208.56 2010,-234 2010,-234 2010,-234 1913.11,-234 1913.11,-234"/>
<polygon fill="black" stroke="black" points="1913.11,-230.5 1903.11,-234 1913.11,-237.5 1913.11,-230.5"/>
</g>
<!-- FeatureModule&#45;&gt;SearchModule -->
<g id="edge24" class="edge">
<title>FeatureModule&#45;&gt;SearchModule</title>
<path fill="none" stroke="black" d="M1984.62,-190.49C1984.62,-202.14 1984.62,-215 1984.62,-215 1984.62,-215 1566.41,-215 1566.41,-215 1566.41,-215 1566.41,-215.68 1566.41,-215.68"/>
<polygon fill="black" stroke="black" points="1562.91,-211.83 1566.41,-221.83 1569.91,-211.83 1562.91,-211.83"/>
</g>
<!-- FeatureModule&#45;&gt;SidenavModule -->
<g id="edge29" class="edge">
<title>FeatureModule&#45;&gt;SidenavModule</title>
<path fill="none" stroke="black" d="M2035.38,-190.29C2035.38,-212.21 2035.38,-246 2035.38,-246 2035.38,-246 2082.76,-246 2082.76,-246"/>
<polygon fill="black" stroke="black" points="2082.76,-249.5 2092.76,-246 2082.76,-242.5 2082.76,-249.5"/>
</g>
<!-- HeaderRoutingModule -->
<g id="node20" class="node">
<title>HeaderRoutingModule</title>
<polygon fill="#8dd3c7" stroke="black" points="1941.58,-190 1938.58,-194 1917.58,-194 1914.58,-190 1796.42,-190 1796.42,-154 1941.58,-154 1941.58,-190"/>
<text text-anchor="middle" x="1869" y="-167.8" font-family="Times,serif" font-size="14.00">HeaderRoutingModule</text>
</g>
<!-- HeaderRoutingModule&#45;&gt;HeaderModule -->
<g id="edge21" class="edge">
<title>HeaderRoutingModule&#45;&gt;HeaderModule</title>
<path fill="none" stroke="black" d="M1877.99,-190.22C1877.99,-190.22 1877.99,-211.73 1877.99,-211.73"/>
<polygon fill="black" stroke="black" points="1874.49,-211.73 1877.99,-221.73 1881.49,-211.73 1874.49,-211.73"/>
</g>
<!-- SearchModule&#45;&gt;FavoritesComponent  -->
<g id="edge27" class="edge">
<title>SearchModule&#45;&gt;FavoritesComponent </title>
<path fill="none" stroke="black" stroke-dasharray="5,2" d="M1542,-258.06C1542,-262.49 1542,-266 1542,-266 1542,-266 1103.59,-266 1103.59,-266 1103.59,-266 1103.59,-265.21 1103.59,-265.21"/>
<polygon fill="black" stroke="black" points="1107.09,-268.06 1103.59,-258.06 1100.09,-268.06 1107.09,-268.06"/>
</g>
<!-- SearchRoutingModule -->
<g id="node22" class="node">
<title>SearchRoutingModule</title>
<polygon fill="#8dd3c7" stroke="black" points="1756.25,-190 1753.25,-194 1732.25,-194 1729.25,-190 1613.75,-190 1613.75,-154 1756.25,-154 1756.25,-190"/>
<text text-anchor="middle" x="1685" y="-167.8" font-family="Times,serif" font-size="14.00">SearchRoutingModule</text>
</g>
<!-- SearchRoutingModule&#45;&gt;SearchModule -->
<g id="edge25" class="edge">
<title>SearchRoutingModule&#45;&gt;SearchModule</title>
<path fill="none" stroke="black" d="M1685,-190.22C1685,-210.37 1685,-240 1685,-240 1685,-240 1600.81,-240 1600.81,-240"/>
<polygon fill="black" stroke="black" points="1600.81,-236.5 1590.81,-240 1600.81,-243.5 1600.81,-236.5"/>
</g>
<!-- WeatherModule&#45;&gt;FavoritesComponent  -->
<g id="edge32" class="edge">
<title>WeatherModule&#45;&gt;FavoritesComponent </title>
<path fill="none" stroke="black" stroke-dasharray="5,2" d="M1517.59,-190.2C1517.59,-196.03 1517.59,-201 1517.59,-201 1517.59,-201 1062.82,-201 1062.82,-201 1062.82,-201 1062.82,-211.87 1062.82,-211.87"/>
<polygon fill="black" stroke="black" points="1059.32,-211.87 1062.82,-221.87 1066.32,-211.87 1059.32,-211.87"/>
</g>
<!-- WeatherModule&#45;&gt;SearchModule -->
<g id="edge26" class="edge">
<title>WeatherModule&#45;&gt;SearchModule</title>
<path fill="none" stroke="black" d="M1542,-190.22C1542,-190.22 1542,-211.73 1542,-211.73"/>
<polygon fill="black" stroke="black" points="1538.5,-211.73 1542,-221.73 1545.5,-211.73 1538.5,-211.73"/>
</g>
<!-- SidenavModule&#45;&gt;FavoritesComponent  -->
<g id="edge30" class="edge">
<title>SidenavModule&#45;&gt;FavoritesComponent </title>
<path fill="none" stroke="black" stroke-dasharray="5,2" d="M2127.56,-221.68C2127.56,-213.21 2127.56,-205 2127.56,-205 2127.56,-205 1077.7,-205 1077.7,-205 1077.7,-205 1077.7,-211.68 1077.7,-211.68"/>
<polygon fill="black" stroke="black" points="1074.2,-211.68 1077.7,-221.68 1081.2,-211.68 1074.2,-211.68"/>
</g>
</g>
</svg>
