<?xml version="1.0" encoding="UTF-8" standalone="no"?>
<!DOCTYPE svg PUBLIC "-//W3C//DTD SVG 1.1//EN"
 "http://www.w3.org/Graphics/SVG/1.1/DTD/svg11.dtd">
<!-- Generated by graphviz version 2.44.1 (20200629.0846)
 -->
<!-- Title: dependencies Pages: 1 -->
<svg width="2584pt" height="507pt"
 viewBox="0.00 0.00 2584.00 507.00" xmlns="http://www.w3.org/2000/svg" xmlns:xlink="http://www.w3.org/1999/xlink">
<g id="graph0" class="graph" transform="scale(1 1) rotate(0) translate(4 503)">
<title>dependencies</title>
<polygon fill="white" stroke="transparent" points="-4,4 -4,-503 2580,-503 2580,4 -4,4"/>
<text text-anchor="start" x="1267.01" y="-42.4" font-family="sans-serif" font-weight="bold" font-size="14.00">Legend</text>
<polygon fill="#ffffb3" stroke="transparent" points="1054,-10 1054,-30 1074,-30 1074,-10 1054,-10"/>
<text text-anchor="start" x="1077.63" y="-15.4" font-family="sans-serif" font-size="14.00"> &#160;Declarations</text>
<polygon fill="#8dd3c7" stroke="transparent" points="1167,-10 1167,-30 1187,-30 1187,-10 1167,-10"/>
<text text-anchor="start" x="1190.73" y="-15.4" font-family="sans-serif" font-size="14.00"> &#160;Module</text>
<polygon fill="#80b1d3" stroke="transparent" points="1253,-10 1253,-30 1273,-30 1273,-10 1253,-10"/>
<text text-anchor="start" x="1276.78" y="-15.4" font-family="sans-serif" font-size="14.00"> &#160;Bootstrap</text>
<polygon fill="#fdb462" stroke="transparent" points="1350,-10 1350,-30 1370,-30 1370,-10 1350,-10"/>
<text text-anchor="start" x="1373.67" y="-15.4" font-family="sans-serif" font-size="14.00"> &#160;Providers</text>
<polygon fill="#fb8072" stroke="transparent" points="1446,-10 1446,-30 1466,-30 1466,-10 1446,-10"/>
<text text-anchor="start" x="1469.73" y="-15.4" font-family="sans-serif" font-size="14.00"> &#160;Exports</text>
<g id="clust1" class="cluster">
<title>cluster_AppModule</title>
<polygon fill="none" stroke="black" stroke-dasharray="1,5" points="8,-290 8,-491 431,-491 431,-290 8,-290"/>
</g>
<g id="clust2" class="cluster">
<title>cluster_AppModule_declarations</title>
<polygon fill="none" stroke="black" points="16,-298 16,-350 138,-350 138,-298 16,-298"/>
</g>
<g id="clust4" class="cluster">
<title>cluster_AppModule_imports</title>
<polygon fill="none" stroke="black" points="146,-298 146,-350 423,-350 423,-298 146,-298"/>
</g>
<g id="clust6" class="cluster">
<title>cluster_AppModule_bootstrap</title>
<polygon fill="none" stroke="black" points="156,-431 156,-483 280,-483 280,-431 156,-431"/>
</g>
<g id="clust14" class="cluster">
<title>cluster_ContainerModule</title>
<polygon fill="none" stroke="black" stroke-dasharray="1,5" points="656,-70 656,-423 2076,-423 2076,-70 656,-70"/>
</g>
<g id="clust15" class="cluster">
<title>cluster_ContainerModule_declarations</title>
<polygon fill="none" stroke="black" points="1916,-78 1916,-130 2068,-130 2068,-78 1916,-78"/>
</g>
<g id="clust17" class="cluster">
<title>cluster_ContainerModule_imports</title>
<polygon fill="none" stroke="black" points="1612,-78 1612,-350 1908,-350 1908,-78 1612,-78"/>
</g>
<g id="clust18" class="cluster">
<title>cluster_ContainerModule_exports</title>
<polygon fill="none" stroke="black" points="1408,-363 1408,-415 2054,-415 2054,-363 1408,-363"/>
</g>
<g id="clust20" class="cluster">
<title>cluster_ContainerModule_providers</title>
<polygon fill="none" stroke="black" points="664,-78 664,-130 1604,-130 1604,-78 664,-78"/>
</g>
<g id="clust27" class="cluster">
<title>cluster_FavoritesModule</title>
<polygon fill="none" stroke="black" stroke-dasharray="1,5" points="2380,-222 2380,-350 2568,-350 2568,-222 2380,-222"/>
</g>
<g id="clust30" class="cluster">
<title>cluster_FavoritesModule_imports</title>
<polygon fill="none" stroke="black" points="2388,-230 2388,-282 2560,-282 2560,-230 2388,-230"/>
</g>
<g id="clust46" class="cluster">
<title>cluster_ForecastModule</title>
<polygon fill="none" stroke="black" stroke-dasharray="1,5" points="464,-222 464,-350 648,-350 648,-222 464,-222"/>
</g>
<g id="clust49" class="cluster">
<title>cluster_ForecastModule_imports</title>
<polygon fill="none" stroke="black" points="472,-230 472,-282 640,-282 640,-230 472,-230"/>
</g>
<g id="clust59" class="cluster">
<title>cluster_HeaderModule</title>
<polygon fill="none" stroke="black" stroke-dasharray="1,5" points="2084,-70 2084,-138 2262,-138 2262,-70 2084,-70"/>
</g>
<g id="clust62" class="cluster">
<title>cluster_HeaderModule_imports</title>
<polygon fill="none" stroke="black" points="2092,-78 2092,-130 2254,-130 2254,-78 2092,-78"/>
</g>
<g id="clust72" class="cluster">
<title>cluster_SearchModule</title>
<polygon fill="none" stroke="black" stroke-dasharray="1,5" points="474,-146 474,-214 648,-214 648,-146 474,-146"/>
</g>
<g id="clust75" class="cluster">
<title>cluster_SearchModule_imports</title>
<polygon fill="none" stroke="black" points="482,-154 482,-206 640,-206 640,-154 482,-154"/>
</g>
<g id="clust92" class="cluster">
<title>cluster_WeatherModule</title>
<polygon fill="none" stroke="black" stroke-dasharray="1,5" points="2084,-222 2084,-350 2268,-350 2268,-222 2084,-222"/>
</g>
<g id="clust95" class="cluster">
<title>cluster_WeatherModule_imports</title>
<polygon fill="none" stroke="black" points="2092,-230 2092,-282 2260,-282 2260,-230 2092,-230"/>
</g>
<!-- AppComponent -->
<g id="node1" class="node">
<title>AppComponent</title>
<polygon fill="#ffffb3" stroke="black" points="129.94,-342 24.06,-342 24.06,-306 129.94,-306 129.94,-342"/>
<text text-anchor="middle" x="77" y="-319.8" font-family="Times,serif" font-size="14.00">AppComponent</text>
</g>
<!-- AppModule -->
<g id="node2" class="node">
<title>AppModule</title>
<polygon fill="#8dd3c7" stroke="black" points="259.66,-407 256.66,-411 235.66,-411 232.66,-407 176.34,-407 176.34,-371 259.66,-371 259.66,-407"/>
<text text-anchor="middle" x="218" y="-384.8" font-family="Times,serif" font-size="14.00">AppModule</text>
</g>
<!-- AppComponent&#45;&gt;AppModule -->
<g id="edge1" class="edge">
<title>AppComponent&#45;&gt;AppModule</title>
<path fill="none" stroke="black" d="M77,-342.11C77,-361.34 77,-389 77,-389 77,-389 166.08,-389 166.08,-389"/>
<polygon fill="black" stroke="black" points="166.08,-392.5 176.08,-389 166.08,-385.5 166.08,-392.5"/>
</g>
<!-- AppComponent  -->
<g id="node5" class="node">
<title>AppComponent </title>
<polygon fill="#80b1d3" stroke="black" points="272.44,-475 163.56,-475 163.56,-439 272.44,-439 272.44,-475"/>
<text text-anchor="middle" x="218" y="-452.8" font-family="Times,serif" font-size="14.00">AppComponent </text>
</g>
<!-- AppModule&#45;&gt;AppComponent  -->
<g id="edge4" class="edge">
<title>AppModule&#45;&gt;AppComponent </title>
<path fill="none" stroke="black" stroke-dasharray="1,5" d="M218,-407.22C218,-407.22 218,-428.73 218,-428.73"/>
<polygon fill="black" stroke="black" points="214.5,-428.73 218,-438.73 221.5,-428.73 214.5,-428.73"/>
</g>
<!-- AppRoutingModule -->
<g id="node3" class="node">
<title>AppRoutingModule</title>
<polygon fill="#8dd3c7" stroke="black" points="282.27,-342 279.27,-346 258.27,-346 255.27,-342 153.73,-342 153.73,-306 282.27,-306 282.27,-342"/>
<text text-anchor="middle" x="218" y="-319.8" font-family="Times,serif" font-size="14.00">AppRoutingModule</text>
</g>
<!-- AppRoutingModule&#45;&gt;AppModule -->
<g id="edge2" class="edge">
<title>AppRoutingModule&#45;&gt;AppModule</title>
<path fill="none" stroke="black" d="M218,-342.11C218,-342.11 218,-360.99 218,-360.99"/>
<polygon fill="black" stroke="black" points="214.5,-360.99 218,-370.99 221.5,-360.99 214.5,-360.99"/>
</g>
<!-- ContainerModule -->
<g id="node4" class="node">
<title>ContainerModule</title>
<polygon fill="#8dd3c7" stroke="black" points="415.26,-342 412.26,-346 391.26,-346 388.26,-342 300.74,-342 300.74,-306 415.26,-306 415.26,-342"/>
<text text-anchor="middle" x="358" y="-319.8" font-family="Times,serif" font-size="14.00">ContainerModule</text>
</g>
<!-- ContainerModule&#45;&gt;AppModule -->
<g id="edge3" class="edge">
<title>ContainerModule&#45;&gt;AppModule</title>
<path fill="none" stroke="black" d="M377.13,-342.28C377.13,-363.32 377.13,-395 377.13,-395 377.13,-395 269.81,-395 269.81,-395"/>
<polygon fill="black" stroke="black" points="269.81,-391.5 259.81,-395 269.81,-398.5 269.81,-391.5"/>
</g>
<!-- ContainerComponent  -->
<g id="node12" class="node">
<title>ContainerComponent </title>
<polygon fill="#fb8072" stroke="black" points="2046.04,-407 1905.96,-407 1905.96,-371 2046.04,-371 2046.04,-407"/>
<text text-anchor="middle" x="1976" y="-384.8" font-family="Times,serif" font-size="14.00">ContainerComponent </text>
</g>
<!-- ContainerModule&#45;&gt;ContainerComponent  -->
<g id="edge11" class="edge">
<title>ContainerModule&#45;&gt;ContainerComponent </title>
<path fill="none" stroke="black" stroke-dasharray="5,2" d="M309.45,-305.68C309.45,-297.21 309.45,-289 309.45,-289 309.45,-289 1913.08,-289 1913.08,-289 1913.08,-289 1913.08,-360.66 1913.08,-360.66"/>
<polygon fill="black" stroke="black" points="1909.58,-360.66 1913.08,-370.66 1916.58,-360.66 1909.58,-360.66"/>
</g>
<!-- FeatureModule  -->
<g id="node13" class="node">
<title>FeatureModule </title>
<polygon fill="#fb8072" stroke="black" points="1521.53,-407 1416.47,-407 1416.47,-371 1521.53,-371 1521.53,-407"/>
<text text-anchor="middle" x="1469" y="-384.8" font-family="Times,serif" font-size="14.00">FeatureModule </text>
</g>
<!-- ContainerModule&#45;&gt;FeatureModule  -->
<g id="edge12" class="edge">
<title>ContainerModule&#45;&gt;FeatureModule </title>
<path fill="none" stroke="black" stroke-dasharray="5,2" d="M396.25,-342.02C396.25,-359.37 396.25,-383 396.25,-383 396.25,-383 1406.17,-383 1406.17,-383"/>
<polygon fill="black" stroke="black" points="1406.17,-386.5 1416.17,-383 1406.17,-379.5 1406.17,-386.5"/>
</g>
<!-- HeaderModule  -->
<g id="node14" class="node">
<title>HeaderModule </title>
<polygon fill="#fb8072" stroke="black" points="1642.96,-407 1539.04,-407 1539.04,-371 1642.96,-371 1642.96,-407"/>
<text text-anchor="middle" x="1591" y="-384.8" font-family="Times,serif" font-size="14.00">HeaderModule </text>
</g>
<!-- ContainerModule&#45;&gt;HeaderModule  -->
<g id="edge13" class="edge">
<title>ContainerModule&#45;&gt;HeaderModule </title>
<path fill="none" stroke="black" stroke-dasharray="5,2" d="M319.75,-342.14C319.75,-348.46 319.75,-354 319.75,-354 319.75,-354 1558.08,-354 1558.08,-354 1558.08,-354 1558.08,-360.68 1558.08,-360.68"/>
<polygon fill="black" stroke="black" points="1554.58,-360.68 1558.08,-370.68 1561.58,-360.68 1554.58,-360.68"/>
</g>
<!-- SearchModule  -->
<g id="node15" class="node">
<title>SearchModule </title>
<polygon fill="#fb8072" stroke="black" points="1761.64,-407 1660.36,-407 1660.36,-371 1761.64,-371 1761.64,-407"/>
<text text-anchor="middle" x="1711" y="-384.8" font-family="Times,serif" font-size="14.00">SearchModule </text>
</g>
<!-- ContainerModule&#45;&gt;SearchModule  -->
<g id="edge14" class="edge">
<title>ContainerModule&#45;&gt;SearchModule </title>
<path fill="none" stroke="black" stroke-dasharray="5,2" d="M338.87,-342.16C338.87,-347.04 338.87,-351 338.87,-351 338.87,-351 1670.15,-351 1670.15,-351 1670.15,-351 1670.15,-360.89 1670.15,-360.89"/>
<polygon fill="black" stroke="black" points="1666.65,-360.89 1670.15,-370.89 1673.65,-360.89 1666.65,-360.89"/>
</g>
<!-- SidenavModule  -->
<g id="node16" class="node">
<title>SidenavModule </title>
<polygon fill="#fb8072" stroke="black" points="1888.15,-407 1779.85,-407 1779.85,-371 1888.15,-371 1888.15,-407"/>
<text text-anchor="middle" x="1834" y="-384.8" font-family="Times,serif" font-size="14.00">SidenavModule </text>
</g>
<!-- ContainerModule&#45;&gt;SidenavModule  -->
<g id="edge15" class="edge">
<title>ContainerModule&#45;&gt;SidenavModule </title>
<path fill="none" stroke="black" stroke-dasharray="5,2" d="M358,-342.17C358,-346.05 358,-349 358,-349 358,-349 1820.88,-349 1820.88,-349 1820.88,-349 1820.88,-360.87 1820.88,-360.87"/>
<polygon fill="black" stroke="black" points="1817.38,-360.87 1820.88,-370.87 1824.38,-360.87 1817.38,-360.87"/>
</g>
<!-- ContainerComponent -->
<g id="node6" class="node">
<title>ContainerComponent</title>
<polygon fill="#ffffb3" stroke="black" points="2060.04,-122 1923.96,-122 1923.96,-86 2060.04,-86 2060.04,-122"/>
<text text-anchor="middle" x="1992" y="-99.8" font-family="Times,serif" font-size="14.00">ContainerComponent</text>
</g>
<!-- ContainerComponent&#45;&gt;ContainerModule -->
<g id="edge5" class="edge">
<title>ContainerComponent&#45;&gt;ContainerModule</title>
<path fill="none" stroke="black" d="M1941.2,-122.06C1941.2,-133.44 1941.2,-146 1941.2,-146 1941.2,-146 380.07,-146 380.07,-146 380.07,-146 380.07,-295.95 380.07,-295.95"/>
<polygon fill="black" stroke="black" points="376.57,-295.95 380.07,-305.95 383.57,-295.95 376.57,-295.95"/>
</g>
<!-- HeaderModule -->
<g id="node9" class="node">
<title>HeaderModule</title>
<polygon fill="#8dd3c7" stroke="black" points="1808.96,-198 1805.96,-202 1784.96,-202 1781.96,-198 1709.04,-198 1709.04,-162 1808.96,-162 1808.96,-198"/>
<text text-anchor="middle" x="1759" y="-175.8" font-family="Times,serif" font-size="14.00">HeaderModule</text>
</g>
<!-- ContainerComponent&#45;&gt;HeaderModule -->
<g id="edge43" class="edge">
<title>ContainerComponent&#45;&gt;HeaderModule</title>
<path fill="none" stroke="black" d="M1976.14,-122.27C1976.14,-140.56 1976.14,-166 1976.14,-166 1976.14,-166 1819.09,-166 1819.09,-166"/>
<polygon fill="black" stroke="black" points="1819.09,-162.5 1809.09,-166 1819.09,-169.5 1819.09,-162.5"/>
</g>
<!-- SearchModule -->
<g id="node10" class="node">
<title>SearchModule</title>
<polygon fill="#8dd3c7" stroke="black" points="1807.64,-274 1804.64,-278 1783.64,-278 1780.64,-274 1710.36,-274 1710.36,-238 1807.64,-238 1807.64,-274"/>
<text text-anchor="middle" x="1759" y="-251.8" font-family="Times,serif" font-size="14.00">SearchModule</text>
</g>
<!-- ContainerComponent&#45;&gt;SearchModule -->
<g id="edge54" class="edge">
<title>ContainerComponent&#45;&gt;SearchModule</title>
<path fill="none" stroke="black" d="M1993.61,-122.27C1993.61,-162.06 1993.61,-253 1993.61,-253 1993.61,-253 1817.9,-253 1817.9,-253"/>
<polygon fill="black" stroke="black" points="1817.9,-249.5 1807.9,-253 1817.9,-256.5 1817.9,-249.5"/>
</g>
<!-- SidenavModule -->
<g id="node11" class="node">
<title>SidenavModule</title>
<polygon fill="#8dd3c7" stroke="black" points="1882.15,-342 1879.15,-346 1858.15,-346 1855.15,-342 1777.85,-342 1777.85,-306 1882.15,-306 1882.15,-342"/>
<text text-anchor="middle" x="1830" y="-319.8" font-family="Times,serif" font-size="14.00">SidenavModule</text>
</g>
<!-- ContainerComponent&#45;&gt;SidenavModule -->
<g id="edge65" class="edge">
<title>ContainerComponent&#45;&gt;SidenavModule</title>
<path fill="none" stroke="black" d="M2028.55,-122.27C2028.55,-173.36 2028.55,-314 2028.55,-314 2028.55,-314 1892.17,-314 1892.17,-314"/>
<polygon fill="black" stroke="black" points="1892.17,-310.5 1882.17,-314 1892.17,-317.5 1892.17,-310.5"/>
</g>
<!-- FavoritesModule -->
<g id="node22" class="node">
<title>FavoritesModule</title>
<polygon fill="#8dd3c7" stroke="black" points="2499.65,-342 2496.65,-346 2475.65,-346 2472.65,-342 2388.35,-342 2388.35,-306 2499.65,-306 2499.65,-342"/>
<text text-anchor="middle" x="2444" y="-319.8" font-family="Times,serif" font-size="14.00">FavoritesModule</text>
</g>
<!-- ContainerComponent&#45;&gt;FavoritesModule -->
<g id="edge21" class="edge">
<title>ContainerComponent&#45;&gt;FavoritesModule</title>
<path fill="none" stroke="black" d="M2053.14,-122.04C2053.14,-134.56 2053.14,-149 2053.14,-149 2053.14,-149 2394.13,-149 2394.13,-149 2394.13,-149 2394.13,-295.93 2394.13,-295.93"/>
<polygon fill="black" stroke="black" points="2390.63,-295.93 2394.13,-305.93 2397.63,-295.93 2390.63,-295.93"/>
</g>
<!-- ForecastModule -->
<g id="node24" class="node">
<title>ForecastModule</title>
<polygon fill="#8dd3c7" stroke="black" points="640.47,-342 637.47,-346 616.47,-346 613.47,-342 533.53,-342 533.53,-306 640.47,-306 640.47,-342"/>
<text text-anchor="middle" x="587" y="-319.8" font-family="Times,serif" font-size="14.00">ForecastModule</text>
</g>
<!-- ContainerComponent&#45;&gt;ForecastModule -->
<g id="edge32" class="edge">
<title>ContainerComponent&#45;&gt;ForecastModule</title>
<path fill="none" stroke="black" d="M2011.08,-122.06C2011.08,-169.86 2011.08,-296 2011.08,-296 2011.08,-296 599.2,-296 599.2,-296 599.2,-296 599.2,-296.98 599.2,-296.98"/>
<polygon fill="black" stroke="black" points="595.7,-295.79 599.2,-305.79 602.7,-295.79 595.7,-295.79"/>
</g>
<!-- WeatherModule -->
<g id="node28" class="node">
<title>WeatherModule</title>
<polygon fill="#8dd3c7" stroke="black" points="2198.46,-342 2195.46,-346 2174.46,-346 2171.46,-342 2091.54,-342 2091.54,-306 2198.46,-306 2198.46,-342"/>
<text text-anchor="middle" x="2145" y="-319.8" font-family="Times,serif" font-size="14.00">WeatherModule</text>
</g>
<!-- ContainerComponent&#45;&gt;WeatherModule -->
<g id="edge75" class="edge">
<title>ContainerComponent&#45;&gt;WeatherModule</title>
<path fill="none" stroke="black" d="M2060.21,-104C2080.9,-104 2098.27,-104 2098.27,-104 2098.27,-104 2098.27,-296 2098.27,-296"/>
<polygon fill="black" stroke="black" points="2094.77,-296 2098.27,-306 2101.77,-296 2094.77,-296"/>
</g>
<!-- ContainerRoutingModule -->
<g id="node7" class="node">
<title>ContainerRoutingModule</title>
<polygon fill="#8dd3c7" stroke="black" points="1779.88,-122 1776.88,-126 1755.88,-126 1752.88,-122 1620.12,-122 1620.12,-86 1779.88,-86 1779.88,-122"/>
<text text-anchor="middle" x="1700" y="-99.8" font-family="Times,serif" font-size="14.00">ContainerRoutingModule</text>
</g>
<!-- ContainerRoutingModule&#45;&gt;ContainerModule -->
<g id="edge6" class="edge">
<title>ContainerRoutingModule&#45;&gt;ContainerModule</title>
<path fill="none" stroke="black" d="M1623.3,-122.32C1623.3,-130.79 1623.3,-139 1623.3,-139 1623.3,-139 362.41,-139 362.41,-139 362.41,-139 362.41,-295.92 362.41,-295.92"/>
<polygon fill="black" stroke="black" points="358.91,-295.92 362.41,-305.92 365.91,-295.92 358.91,-295.92"/>
</g>
<!-- FeatureModule -->
<g id="node8" class="node">
<title>FeatureModule</title>
<polygon fill="#8dd3c7" stroke="black" points="1899.53,-122 1896.53,-126 1875.53,-126 1872.53,-122 1798.47,-122 1798.47,-86 1899.53,-86 1899.53,-122"/>
<text text-anchor="middle" x="1849" y="-99.8" font-family="Times,serif" font-size="14.00">FeatureModule</text>
</g>
<!-- FeatureModule&#45;&gt;ContainerModule -->
<g id="edge7" class="edge">
<title>FeatureModule&#45;&gt;ContainerModule</title>
<path fill="none" stroke="black" d="M1800.92,-122.11C1800.92,-131.9 1800.92,-142 1800.92,-142 1800.92,-142 371.24,-142 371.24,-142 371.24,-142 371.24,-295.88 371.24,-295.88"/>
<polygon fill="black" stroke="black" points="367.74,-295.88 371.24,-305.88 374.74,-295.88 367.74,-295.88"/>
</g>
<!-- FeatureModule&#45;&gt;HeaderModule -->
<g id="edge44" class="edge">
<title>FeatureModule&#45;&gt;HeaderModule</title>
<path fill="none" stroke="black" d="M1803.61,-122.01C1803.61,-122.01 1803.61,-151.85 1803.61,-151.85"/>
<polygon fill="black" stroke="black" points="1800.11,-151.85 1803.61,-161.85 1807.11,-151.85 1800.11,-151.85"/>
</g>
<!-- FeatureModule&#45;&gt;SearchModule -->
<g id="edge55" class="edge">
<title>FeatureModule&#45;&gt;SearchModule</title>
<path fill="none" stroke="black" d="M1863.99,-122.27C1863.99,-160.63 1863.99,-246 1863.99,-246 1863.99,-246 1817.81,-246 1817.81,-246"/>
<polygon fill="black" stroke="black" points="1817.81,-242.5 1807.81,-246 1817.81,-249.5 1817.81,-242.5"/>
</g>
<!-- FeatureModule&#45;&gt;SidenavModule -->
<g id="edge66" class="edge">
<title>FeatureModule&#45;&gt;SidenavModule</title>
<path fill="none" stroke="black" d="M1873.16,-122C1873.16,-122 1873.16,-295.75 1873.16,-295.75"/>
<polygon fill="black" stroke="black" points="1869.66,-295.75 1873.16,-305.75 1876.66,-295.75 1869.66,-295.75"/>
</g>
<!-- FeatureModule&#45;&gt;FavoritesModule -->
<g id="edge23" class="edge">
<title>FeatureModule&#45;&gt;FavoritesModule</title>
<path fill="none" stroke="black" d="M1892.75,-122.15C1892.75,-135.74 1892.75,-152 1892.75,-152 1892.75,-152 2392.64,-152 2392.64,-152 2392.64,-152 2392.64,-295.92 2392.64,-295.92"/>
<polygon fill="black" stroke="black" points="2389.14,-295.92 2392.64,-305.92 2396.14,-295.92 2389.14,-295.92"/>
</g>
<!-- FeatureModule&#45;&gt;ForecastModule -->
<g id="edge33" class="edge">
<title>FeatureModule&#45;&gt;ForecastModule</title>
<path fill="none" stroke="black" d="M1854.82,-122.18C1854.82,-155.28 1854.82,-222 1854.82,-222 1854.82,-222 636.43,-222 636.43,-222 636.43,-222 636.43,-295.76 636.43,-295.76"/>
<polygon fill="black" stroke="black" points="632.93,-295.76 636.43,-305.76 639.93,-295.76 632.93,-295.76"/>
</g>
<!-- FeatureModule&#45;&gt;WeatherModule -->
<g id="edge76" class="edge">
<title>FeatureModule&#45;&gt;WeatherModule</title>
<path fill="none" stroke="black" d="M1890.41,-122.19C1890.41,-137.18 1890.41,-156 1890.41,-156 1890.41,-156 2096.58,-156 2096.58,-156 2096.58,-156 2096.58,-295.7 2096.58,-295.7"/>
<polygon fill="black" stroke="black" points="2093.09,-295.7 2096.58,-305.7 2100.09,-295.7 2093.09,-295.7"/>
</g>
<!-- HeaderModule&#45;&gt;ContainerModule -->
<g id="edge8" class="edge">
<title>HeaderModule&#45;&gt;ContainerModule</title>
<path fill="none" stroke="black" d="M1742.73,-198.06C1742.73,-202.49 1742.73,-206 1742.73,-206 1742.73,-206 388.9,-206 388.9,-206 388.9,-206 388.9,-295.82 388.9,-295.82"/>
<polygon fill="black" stroke="black" points="385.4,-295.82 388.9,-305.82 392.4,-295.82 385.4,-295.82"/>
</g>
<!-- HeaderModule&#45;&gt;HeaderModule -->
<g id="edge45" class="edge">
<title>HeaderModule&#45;&gt;HeaderModule</title>
<path fill="none" stroke="black" d="M1806.29,-161.92C1806.29,-160.15 1806.29,-159 1806.29,-159 1806.29,-159 1845.65,-159 1845.65,-159 1845.65,-159 1845.65,-214 1845.65,-214 1845.65,-214 1791.55,-214 1791.55,-214 1791.55,-214 1791.55,-208.19 1791.55,-208.19"/>
<polygon fill="black" stroke="black" points="1795.05,-208.19 1791.55,-198.19 1788.05,-208.19 1795.05,-208.19"/>
</g>
<!-- HeaderModule&#45;&gt;SearchModule -->
<g id="edge56" class="edge">
<title>HeaderModule&#45;&gt;SearchModule</title>
<path fill="none" stroke="black" d="M1759,-198.01C1759,-198.01 1759,-227.85 1759,-227.85"/>
<polygon fill="black" stroke="black" points="1755.5,-227.85 1759,-237.85 1762.5,-227.85 1755.5,-227.85"/>
</g>
<!-- HeaderModule&#45;&gt;SidenavModule -->
<g id="edge67" class="edge">
<title>HeaderModule&#45;&gt;SidenavModule</title>
<path fill="none" stroke="black" d="M1809.38,-190C1824.18,-190 1836.49,-190 1836.49,-190 1836.49,-190 1836.49,-295.93 1836.49,-295.93"/>
<polygon fill="black" stroke="black" points="1832.99,-295.93 1836.49,-305.93 1839.99,-295.93 1832.99,-295.93"/>
</g>
<!-- HeaderModule&#45;&gt;ContainerComponent  -->
<g id="edge49" class="edge">
<title>HeaderModule&#45;&gt;ContainerComponent </title>
<path fill="none" stroke="black" stroke-dasharray="5,2" d="M1809.11,-182C1856.43,-182 1920.18,-182 1920.18,-182 1920.18,-182 1920.18,-360.99 1920.18,-360.99"/>
<polygon fill="black" stroke="black" points="1916.68,-360.99 1920.18,-370.99 1923.68,-360.99 1916.68,-360.99"/>
</g>
<!-- HeaderModule&#45;&gt;FeatureModule  -->
<g id="edge50" class="edge">
<title>HeaderModule&#45;&gt;FeatureModule </title>
<path fill="none" stroke="black" stroke-dasharray="5,2" d="M1708.77,-180C1626.16,-180 1470.65,-180 1470.65,-180 1470.65,-180 1470.65,-360.82 1470.65,-360.82"/>
<polygon fill="black" stroke="black" points="1467.15,-360.82 1470.65,-370.82 1474.15,-360.82 1467.15,-360.82"/>
</g>
<!-- HeaderModule&#45;&gt;HeaderModule  -->
<g id="edge51" class="edge">
<title>HeaderModule&#45;&gt;HeaderModule </title>
<path fill="none" stroke="black" stroke-dasharray="5,2" d="M1708.92,-186C1671.41,-186 1626.54,-186 1626.54,-186 1626.54,-186 1626.54,-360.99 1626.54,-360.99"/>
<polygon fill="black" stroke="black" points="1623.04,-360.99 1626.54,-370.99 1630.04,-360.99 1623.04,-360.99"/>
</g>
<!-- HeaderModule&#45;&gt;SearchModule  -->
<g id="edge52" class="edge">
<title>HeaderModule&#45;&gt;SearchModule </title>
<path fill="none" stroke="black" stroke-dasharray="5,2" d="M1708.92,-192C1697.97,-192 1689.58,-192 1689.58,-192 1689.58,-192 1689.58,-360.82 1689.58,-360.82"/>
<polygon fill="black" stroke="black" points="1686.08,-360.82 1689.58,-370.82 1693.08,-360.82 1686.08,-360.82"/>
</g>
<!-- HeaderModule&#45;&gt;SidenavModule  -->
<g id="edge53" class="edge">
<title>HeaderModule&#45;&gt;SidenavModule </title>
<path fill="none" stroke="black" stroke-dasharray="5,2" d="M1809.29,-186C1848.05,-186 1895.09,-186 1895.09,-186 1895.09,-186 1895.09,-383 1895.09,-383 1895.09,-383 1894.39,-383 1894.39,-383"/>
<polygon fill="black" stroke="black" points="1898.08,-379.5 1888.08,-383 1898.08,-386.5 1898.08,-379.5"/>
</g>
<!-- HeaderModule&#45;&gt;FavoritesModule -->
<g id="edge24" class="edge">
<title>HeaderModule&#45;&gt;FavoritesModule</title>
<path fill="none" stroke="black" d="M1809.13,-174C1958.65,-174 2391.15,-174 2391.15,-174 2391.15,-174 2391.15,-295.91 2391.15,-295.91"/>
<polygon fill="black" stroke="black" points="2387.65,-295.91 2391.15,-305.91 2394.65,-295.91 2387.65,-295.91"/>
</g>
<!-- HeaderModule&#45;&gt;ForecastModule -->
<g id="edge35" class="edge">
<title>HeaderModule&#45;&gt;ForecastModule</title>
<path fill="none" stroke="black" d="M1708.86,-168C1490.62,-168 634.4,-168 634.4,-168 634.4,-168 634.4,-295.8 634.4,-295.8"/>
<polygon fill="black" stroke="black" points="630.9,-295.8 634.4,-305.8 637.9,-295.8 630.9,-295.8"/>
</g>
<!-- HeaderModule&#45;&gt;WeatherModule -->
<g id="edge77" class="edge">
<title>HeaderModule&#45;&gt;WeatherModule</title>
<path fill="none" stroke="black" d="M1809.29,-178C1902.99,-178 2094.9,-178 2094.9,-178 2094.9,-178 2094.9,-295.8 2094.9,-295.8"/>
<polygon fill="black" stroke="black" points="2091.4,-295.8 2094.9,-305.8 2098.4,-295.8 2091.4,-295.8"/>
</g>
<!-- SearchModule&#45;&gt;ContainerModule -->
<g id="edge9" class="edge">
<title>SearchModule&#45;&gt;ContainerModule</title>
<path fill="none" stroke="black" d="M1717.52,-274.2C1717.52,-280.03 1717.52,-285 1717.52,-285 1717.52,-285 397.72,-285 397.72,-285 397.72,-285 397.72,-295.87 397.72,-295.87"/>
<polygon fill="black" stroke="black" points="394.22,-295.87 397.72,-305.87 401.22,-295.87 394.22,-295.87"/>
</g>
<!-- SearchModule&#45;&gt;HeaderModule -->
<g id="edge47" class="edge">
<title>SearchModule&#45;&gt;HeaderModule</title>
<path fill="none" stroke="black" d="M1775.27,-237.99C1775.27,-237.99 1775.27,-208.15 1775.27,-208.15"/>
<polygon fill="black" stroke="black" points="1778.77,-208.15 1775.27,-198.15 1771.77,-208.15 1778.77,-208.15"/>
</g>
<!-- SearchModule&#45;&gt;SearchModule -->
<g id="edge57" class="edge">
<title>SearchModule&#45;&gt;SearchModule</title>
<path fill="none" stroke="black" d="M1726.45,-237.94C1726.45,-233.51 1726.45,-230 1726.45,-230 1726.45,-230 1699.3,-230 1699.3,-230 1699.3,-230 1699.3,-282 1699.3,-282 1699.3,-282 1754.23,-282 1754.23,-282 1754.23,-282 1754.23,-281.21 1754.23,-281.21"/>
<polygon fill="black" stroke="black" points="1757.73,-284.06 1754.23,-274.06 1750.73,-284.06 1757.73,-284.06"/>
</g>
<!-- SearchModule&#45;&gt;SidenavModule -->
<g id="edge68" class="edge">
<title>SearchModule&#45;&gt;SidenavModule</title>
<path fill="none" stroke="black" d="M1797.77,-274.22C1797.77,-274.22 1797.77,-295.73 1797.77,-295.73"/>
<polygon fill="black" stroke="black" points="1794.27,-295.73 1797.77,-305.73 1801.27,-295.73 1794.27,-295.73"/>
</g>
<!-- SearchModule&#45;&gt;ContainerComponent  -->
<g id="edge60" class="edge">
<title>SearchModule&#45;&gt;ContainerComponent </title>
<path fill="none" stroke="black" stroke-dasharray="5,2" d="M1808.01,-267C1854.28,-267 1916.63,-267 1916.63,-267 1916.63,-267 1916.63,-361 1916.63,-361"/>
<polygon fill="black" stroke="black" points="1913.13,-361 1916.63,-371 1920.13,-361 1913.13,-361"/>
</g>
<!-- SearchModule&#45;&gt;FeatureModule  -->
<g id="edge61" class="edge">
<title>SearchModule&#45;&gt;FeatureModule </title>
<path fill="none" stroke="black" stroke-dasharray="5,2" d="M1710.23,-260C1630.45,-260 1480.82,-260 1480.82,-260 1480.82,-260 1480.82,-360.79 1480.82,-360.79"/>
<polygon fill="black" stroke="black" points="1477.32,-360.79 1480.82,-370.79 1484.32,-360.79 1477.32,-360.79"/>
</g>
<!-- SearchModule&#45;&gt;HeaderModule  -->
<g id="edge62" class="edge">
<title>SearchModule&#45;&gt;HeaderModule </title>
<path fill="none" stroke="black" stroke-dasharray="5,2" d="M1710.15,-267C1673.55,-267 1629.78,-267 1629.78,-267 1629.78,-267 1629.78,-361 1629.78,-361"/>
<polygon fill="black" stroke="black" points="1626.28,-361 1629.78,-371 1633.28,-361 1626.28,-361"/>
</g>
<!-- SearchModule&#45;&gt;SearchModule  -->
<g id="edge63" class="edge">
<title>SearchModule&#45;&gt;SearchModule </title>
<path fill="none" stroke="black" stroke-dasharray="5,2" d="M1724.86,-274.21C1724.86,-274.21 1724.86,-360.58 1724.86,-360.58"/>
<polygon fill="black" stroke="black" points="1721.36,-360.58 1724.86,-370.58 1728.36,-360.58 1721.36,-360.58"/>
</g>
<!-- SearchModule&#45;&gt;SidenavModule  -->
<g id="edge64" class="edge">
<title>SearchModule&#45;&gt;SidenavModule </title>
<path fill="none" stroke="black" stroke-dasharray="5,2" d="M1769.62,-274.2C1769.62,-309.31 1769.62,-383 1769.62,-383 1769.62,-383 1770.63,-383 1770.63,-383"/>
<polygon fill="black" stroke="black" points="1769.68,-386.5 1779.68,-383 1769.68,-379.5 1769.68,-386.5"/>
</g>
<!-- SearchModule&#45;&gt;FavoritesModule -->
<g id="edge25" class="edge">
<title>SearchModule&#45;&gt;FavoritesModule</title>
<path fill="none" stroke="black" d="M1802.79,-274.17C1802.79,-276.45 1802.79,-278 1802.79,-278 1802.79,-278 2430.35,-278 2430.35,-278 2430.35,-278 2430.35,-295.82 2430.35,-295.82"/>
<polygon fill="black" stroke="black" points="2426.85,-295.82 2430.35,-305.82 2433.85,-295.82 2426.85,-295.82"/>
</g>
<!-- SearchModule&#45;&gt;ForecastModule -->
<g id="edge36" class="edge">
<title>SearchModule&#45;&gt;ForecastModule</title>
<path fill="none" stroke="black" d="M1710.13,-253C1494.46,-253 638.46,-253 638.46,-253 638.46,-253 638.46,-295.72 638.46,-295.72"/>
<polygon fill="black" stroke="black" points="634.96,-295.72 638.46,-305.72 641.96,-295.72 634.96,-295.72"/>
</g>
<!-- SearchModule&#45;&gt;WeatherModule -->
<g id="edge78" class="edge">
<title>SearchModule&#45;&gt;WeatherModule</title>
<path fill="none" stroke="black" d="M1807.95,-260C1900.78,-260 2093.21,-260 2093.21,-260 2093.21,-260 2093.21,-295.83 2093.21,-295.83"/>
<polygon fill="black" stroke="black" points="2089.71,-295.83 2093.21,-305.83 2096.71,-295.83 2089.71,-295.83"/>
</g>
<!-- SidenavModule&#45;&gt;ContainerModule -->
<g id="edge10" class="edge">
<title>SidenavModule&#45;&gt;ContainerModule</title>
<path fill="none" stroke="black" d="M1787.72,-305.76C1787.72,-298.57 1787.72,-292 1787.72,-292 1787.72,-292 406.55,-292 406.55,-292 406.55,-292 406.55,-295.76 406.55,-295.76"/>
<polygon fill="black" stroke="black" points="403.05,-295.76 406.55,-305.76 410.05,-295.76 403.05,-295.76"/>
</g>
<!-- SidenavModule&#45;&gt;HeaderModule -->
<g id="edge48" class="edge">
<title>SidenavModule&#45;&gt;HeaderModule</title>
<path fill="none" stroke="black" d="M1827.32,-305.92C1827.32,-270.2 1827.32,-194 1827.32,-194 1827.32,-194 1819.01,-194 1819.01,-194"/>
<polygon fill="black" stroke="black" points="1819.01,-190.5 1809.01,-194 1819.01,-197.5 1819.01,-190.5"/>
</g>
<!-- SidenavModule&#45;&gt;SearchModule -->
<g id="edge59" class="edge">
<title>SidenavModule&#45;&gt;SearchModule</title>
<path fill="none" stroke="black" d="M1792.75,-305.78C1792.75,-305.78 1792.75,-284.27 1792.75,-284.27"/>
<polygon fill="black" stroke="black" points="1796.25,-284.27 1792.75,-274.27 1789.25,-284.27 1796.25,-284.27"/>
</g>
<!-- SidenavModule&#45;&gt;SidenavModule -->
<g id="edge69" class="edge">
<title>SidenavModule&#45;&gt;SidenavModule</title>
<path fill="none" stroke="black" d="M1782.7,-305.92C1782.7,-304.15 1782.7,-303 1782.7,-303 1782.7,-303 1773.65,-303 1773.65,-303 1773.65,-303 1773.65,-345 1773.65,-345 1773.65,-345 1800.4,-345 1800.4,-345 1800.4,-345 1800.4,-344.71 1800.4,-344.71"/>
<polygon fill="black" stroke="black" points="1803.9,-352.08 1800.4,-342.08 1796.9,-352.08 1803.9,-352.08"/>
</g>
<!-- SidenavModule&#45;&gt;ContainerComponent  -->
<g id="edge70" class="edge">
<title>SidenavModule&#45;&gt;ContainerComponent </title>
<path fill="none" stroke="black" stroke-dasharray="5,2" d="M1882.16,-335C1897.15,-335 1909.53,-335 1909.53,-335 1909.53,-335 1909.53,-360.72 1909.53,-360.72"/>
<polygon fill="black" stroke="black" points="1906.03,-360.72 1909.53,-370.72 1913.03,-360.72 1906.03,-360.72"/>
</g>
<!-- SidenavModule&#45;&gt;FeatureModule  -->
<g id="edge71" class="edge">
<title>SidenavModule&#45;&gt;FeatureModule </title>
<path fill="none" stroke="black" stroke-dasharray="5,2" d="M1777.77,-330C1682.68,-330 1491,-330 1491,-330 1491,-330 1491,-360.98 1491,-360.98"/>
<polygon fill="black" stroke="black" points="1487.5,-360.98 1491,-370.98 1494.5,-360.98 1487.5,-360.98"/>
</g>
<!-- SidenavModule&#45;&gt;HeaderModule  -->
<g id="edge72" class="edge">
<title>SidenavModule&#45;&gt;HeaderModule </title>
<path fill="none" stroke="black" stroke-dasharray="5,2" d="M1777.73,-334C1719.37,-334 1633.02,-334 1633.02,-334 1633.02,-334 1633.02,-360.99 1633.02,-360.99"/>
<polygon fill="black" stroke="black" points="1629.52,-360.99 1633.02,-370.99 1636.52,-360.99 1629.52,-360.99"/>
</g>
<!-- SidenavModule&#45;&gt;SearchModule  -->
<g id="edge73" class="edge">
<title>SidenavModule&#45;&gt;SearchModule </title>
<path fill="none" stroke="black" stroke-dasharray="5,2" d="M1777.67,-338C1754.42,-338 1732.2,-338 1732.2,-338 1732.2,-338 1732.2,-360.88 1732.2,-360.88"/>
<polygon fill="black" stroke="black" points="1728.7,-360.88 1732.2,-370.88 1735.7,-360.88 1728.7,-360.88"/>
</g>
<!-- SidenavModule&#45;&gt;SidenavModule  -->
<g id="edge74" class="edge">
<title>SidenavModule&#45;&gt;SidenavModule </title>
<path fill="none" stroke="black" stroke-dasharray="5,2" d="M1841.37,-342.11C1841.37,-342.11 1841.37,-360.99 1841.37,-360.99"/>
<polygon fill="black" stroke="black" points="1837.87,-360.99 1841.37,-370.99 1844.87,-360.99 1837.87,-360.99"/>
</g>
<!-- SidenavModule&#45;&gt;FavoritesModule -->
<g id="edge26" class="edge">
<title>SidenavModule&#45;&gt;FavoritesModule</title>
<path fill="none" stroke="black" d="M1818.15,-305.83C1818.15,-301.95 1818.15,-299 1818.15,-299 1818.15,-299 2389.66,-299 2389.66,-299 2389.66,-299 2389.66,-299.68 2389.66,-299.68"/>
<polygon fill="black" stroke="black" points="2386.16,-295.83 2389.66,-305.83 2393.16,-295.83 2386.16,-295.83"/>
</g>
<!-- SidenavModule&#45;&gt;ForecastModule -->
<g id="edge37" class="edge">
<title>SidenavModule&#45;&gt;ForecastModule</title>
<path fill="none" stroke="black" d="M1777.78,-310C1777.78,-310 650.73,-310 650.73,-310"/>
<polygon fill="black" stroke="black" points="650.73,-306.5 640.73,-310 650.73,-313.5 650.73,-306.5"/>
</g>
<!-- SidenavModule&#45;&gt;WeatherModule -->
<g id="edge79" class="edge">
<title>SidenavModule&#45;&gt;WeatherModule</title>
<path fill="none" stroke="black" d="M1882.37,-321C1882.37,-321 2081.45,-321 2081.45,-321"/>
<polygon fill="black" stroke="black" points="2081.45,-324.5 2091.45,-321 2081.45,-317.5 2081.45,-324.5"/>
</g>
<!-- ApplicationService -->
<g id="node17" class="node">
<title>ApplicationService</title>
<ellipse fill="#fdb462" stroke="black" cx="758" cy="-104" rx="85.67" ry="18"/>
<text text-anchor="middle" x="758" y="-99.8" font-family="Times,serif" font-size="14.00">ApplicationService</text>
</g>
<!-- ApplicationService&#45;&gt;ContainerModule -->
<g id="edge16" class="edge">
<title>ApplicationService&#45;&gt;ContainerModule</title>
<path fill="none" stroke="black" d="M672.17,-104C544.21,-104 318.28,-104 318.28,-104 318.28,-104 318.28,-296 318.28,-296"/>
<polygon fill="black" stroke="black" points="314.78,-296 318.28,-306 321.78,-296 314.78,-296"/>
</g>
<!-- ExceptionInterceptor -->
<g id="node18" class="node">
<title>ExceptionInterceptor</title>
<ellipse fill="#fdb462" stroke="black" cx="954" cy="-104" rx="92.6" ry="18"/>
<text text-anchor="middle" x="954" y="-99.8" font-family="Times,serif" font-size="14.00">ExceptionInterceptor</text>
</g>
<!-- ExceptionInterceptor&#45;&gt;ContainerModule -->
<g id="edge17" class="edge">
<title>ExceptionInterceptor&#45;&gt;ContainerModule</title>
<path fill="none" stroke="black" d="M954,-122.17C954,-124.45 954,-126 954,-126 954,-126 327.1,-126 327.1,-126 327.1,-126 327.1,-295.73 327.1,-295.73"/>
<polygon fill="black" stroke="black" points="323.6,-295.73 327.1,-305.73 330.6,-295.73 323.6,-295.73"/>
</g>
<!-- RequestInterceptor -->
<g id="node19" class="node">
<title>RequestInterceptor</title>
<ellipse fill="#fdb462" stroke="black" cx="1149" cy="-104" rx="84.51" ry="18"/>
<text text-anchor="middle" x="1149" y="-99.8" font-family="Times,serif" font-size="14.00">RequestInterceptor</text>
</g>
<!-- RequestInterceptor&#45;&gt;ContainerModule -->
<g id="edge18" class="edge">
<title>RequestInterceptor&#45;&gt;ContainerModule</title>
<path fill="none" stroke="black" d="M1149,-122.17C1149,-126.05 1149,-129 1149,-129 1149,-129 335.93,-129 335.93,-129 335.93,-129 335.93,-295.65 335.93,-295.65"/>
<polygon fill="black" stroke="black" points="332.43,-295.65 335.93,-305.65 339.43,-295.65 332.43,-295.65"/>
</g>
<!-- ResponseInterceptor -->
<g id="node20" class="node">
<title>ResponseInterceptor</title>
<ellipse fill="#fdb462" stroke="black" cx="1342" cy="-104" rx="90.31" ry="18"/>
<text text-anchor="middle" x="1342" y="-99.8" font-family="Times,serif" font-size="14.00">ResponseInterceptor</text>
</g>
<!-- ResponseInterceptor&#45;&gt;ContainerModule -->
<g id="edge19" class="edge">
<title>ResponseInterceptor&#45;&gt;ContainerModule</title>
<path fill="none" stroke="black" d="M1334.04,-122.21C1334.04,-127.55 1334.04,-132 1334.04,-132 1334.04,-132 344.76,-132 344.76,-132 344.76,-132 344.76,-295.94 344.76,-295.94"/>
<polygon fill="black" stroke="black" points="341.26,-295.94 344.76,-305.94 348.26,-295.94 341.26,-295.94"/>
</g>
<!-- WeatherService -->
<g id="node21" class="node">
<title>WeatherService</title>
<ellipse fill="#fdb462" stroke="black" cx="1523" cy="-104" rx="72.89" ry="18"/>
<text text-anchor="middle" x="1523" y="-99.8" font-family="Times,serif" font-size="14.00">WeatherService</text>
</g>
<!-- WeatherService&#45;&gt;ContainerModule -->
<g id="edge20" class="edge">
<title>WeatherService&#45;&gt;ContainerModule</title>
<path fill="none" stroke="black" d="M1460.48,-113.43C1460.48,-122.87 1460.48,-136 1460.48,-136 1460.48,-136 353.59,-136 353.59,-136 353.59,-136 353.59,-295.97 353.59,-295.97"/>
<polygon fill="black" stroke="black" points="350.09,-295.97 353.59,-305.97 357.09,-295.97 350.09,-295.97"/>
</g>
<!-- FavoritesModule&#45;&gt;ContainerComponent  -->
<g id="edge27" class="edge">
<title>FavoritesModule&#45;&gt;ContainerComponent </title>
<path fill="none" stroke="black" stroke-dasharray="5,2" d="M2481.22,-342.28C2481.22,-363.32 2481.22,-395 2481.22,-395 2481.22,-395 2056.25,-395 2056.25,-395"/>
<polygon fill="black" stroke="black" points="2056.25,-391.5 2046.25,-395 2056.25,-398.5 2056.25,-391.5"/>
</g>
<!-- FavoritesModule&#45;&gt;FeatureModule  -->
<g id="edge28" class="edge">
<title>FavoritesModule&#45;&gt;FeatureModule </title>
<path fill="none" stroke="black" stroke-dasharray="5,2" d="M2406.78,-342.19C2406.78,-350.28 2406.78,-358 2406.78,-358 2406.78,-358 1511.34,-358 1511.34,-358 1511.34,-358 1511.34,-360.97 1511.34,-360.97"/>
<polygon fill="black" stroke="black" points="1507.84,-360.97 1511.34,-370.97 1514.84,-360.97 1507.84,-360.97"/>
</g>
<!-- FavoritesModule&#45;&gt;HeaderModule  -->
<g id="edge29" class="edge">
<title>FavoritesModule&#45;&gt;HeaderModule </title>
<path fill="none" stroke="black" stroke-dasharray="5,2" d="M2425.39,-342.13C2425.39,-352.31 2425.39,-363 2425.39,-363 2425.39,-363 1639.49,-363 1639.49,-363 1639.49,-363 1639.49,-363.79 1639.49,-363.79"/>
<polygon fill="black" stroke="black" points="1635.99,-360.94 1639.49,-370.94 1642.99,-360.94 1635.99,-360.94"/>
</g>
<!-- FavoritesModule&#45;&gt;SearchModule  -->
<g id="edge30" class="edge">
<title>FavoritesModule&#45;&gt;SearchModule </title>
<path fill="none" stroke="black" stroke-dasharray="5,2" d="M2444,-342.49C2444,-354.14 2444,-367 2444,-367 2444,-367 1746.89,-367 1746.89,-367 1746.89,-367 1746.89,-367.38 1746.89,-367.38"/>
<polygon fill="black" stroke="black" points="1743.39,-360.83 1746.89,-370.83 1750.39,-360.83 1743.39,-360.83"/>
</g>
<!-- FavoritesModule&#45;&gt;SidenavModule  -->
<g id="edge31" class="edge">
<title>FavoritesModule&#45;&gt;SidenavModule </title>
<path fill="none" stroke="black" stroke-dasharray="5,2" d="M2462.61,-342.04C2462.61,-354.56 2462.61,-369 2462.61,-369 2462.61,-369 1861.85,-369 1861.85,-369 1861.85,-369 1861.85,-369.18 1861.85,-369.18"/>
<polygon fill="black" stroke="black" points="1858.35,-360.85 1861.85,-370.85 1865.35,-360.85 1858.35,-360.85"/>
</g>
<!-- FavoritesRoutingModule -->
<g id="node23" class="node">
<title>FavoritesRoutingModule</title>
<polygon fill="#8dd3c7" stroke="black" points="2552.27,-274 2549.27,-278 2528.27,-278 2525.27,-274 2395.73,-274 2395.73,-238 2552.27,-238 2552.27,-274"/>
<text text-anchor="middle" x="2474" y="-251.8" font-family="Times,serif" font-size="14.00">FavoritesRoutingModule</text>
</g>
<!-- FavoritesRoutingModule&#45;&gt;FavoritesModule -->
<g id="edge22" class="edge">
<title>FavoritesRoutingModule&#45;&gt;FavoritesModule</title>
<path fill="none" stroke="black" d="M2465.09,-274.22C2465.09,-274.22 2465.09,-295.73 2465.09,-295.73"/>
<polygon fill="black" stroke="black" points="2461.59,-295.73 2465.09,-305.73 2468.59,-295.73 2461.59,-295.73"/>
</g>
<!-- ForecastModule&#45;&gt;ContainerComponent  -->
<g id="edge38" class="edge">
<title>ForecastModule&#45;&gt;ContainerComponent </title>
<path fill="none" stroke="black" stroke-dasharray="5,2" d="M587,-342.12C587,-344.97 587,-347 587,-347 587,-347 1958.67,-347 1958.67,-347 1958.67,-347 1958.67,-360.94 1958.67,-360.94"/>
<polygon fill="black" stroke="black" points="1955.17,-360.94 1958.67,-370.94 1962.17,-360.94 1955.17,-360.94"/>
</g>
<!-- ForecastModule&#45;&gt;FeatureModule  -->
<g id="edge39" class="edge">
<title>ForecastModule&#45;&gt;FeatureModule </title>
<path fill="none" stroke="black" stroke-dasharray="5,2" d="M640.66,-326C825.49,-326 1424.45,-326 1424.45,-326 1424.45,-326 1424.45,-360.78 1424.45,-360.78"/>
<polygon fill="black" stroke="black" points="1420.95,-360.78 1424.45,-370.78 1427.95,-360.78 1420.95,-360.78"/>
</g>
<!-- ForecastModule&#45;&gt;HeaderModule  -->
<g id="edge40" class="edge">
<title>ForecastModule&#45;&gt;HeaderModule </title>
<path fill="none" stroke="black" stroke-dasharray="5,2" d="M640.57,-322C846.66,-322 1576.89,-322 1576.89,-322 1576.89,-322 1576.89,-360.69 1576.89,-360.69"/>
<polygon fill="black" stroke="black" points="1573.39,-360.69 1576.89,-370.69 1580.39,-360.69 1573.39,-360.69"/>
</g>
<!-- ForecastModule&#45;&gt;SearchModule  -->
<g id="edge41" class="edge">
<title>ForecastModule&#45;&gt;SearchModule </title>
<path fill="none" stroke="black" stroke-dasharray="5,2" d="M640.82,-318C860.79,-318 1679.87,-318 1679.87,-318 1679.87,-318 1679.87,-360.72 1679.87,-360.72"/>
<polygon fill="black" stroke="black" points="1676.37,-360.72 1679.87,-370.72 1683.37,-360.72 1676.37,-360.72"/>
</g>
<!-- ForecastModule&#45;&gt;SidenavModule  -->
<g id="edge42" class="edge">
<title>ForecastModule&#45;&gt;SidenavModule </title>
<path fill="none" stroke="black" stroke-dasharray="5,2" d="M640.7,-314C871.27,-314 1765.59,-314 1765.59,-314 1765.59,-314 1765.59,-395 1765.59,-395 1765.59,-395 1769.77,-395 1769.77,-395"/>
<polygon fill="black" stroke="black" points="1769.77,-398.5 1779.77,-395 1769.77,-391.5 1769.77,-398.5"/>
</g>
<!-- ForecastRoutingModule -->
<g id="node25" class="node">
<title>ForecastRoutingModule</title>
<polygon fill="#8dd3c7" stroke="black" points="632.09,-274 629.09,-278 608.09,-278 605.09,-274 479.91,-274 479.91,-238 632.09,-238 632.09,-274"/>
<text text-anchor="middle" x="556" y="-251.8" font-family="Times,serif" font-size="14.00">ForecastRoutingModule</text>
</g>
<!-- ForecastRoutingModule&#45;&gt;ForecastModule -->
<g id="edge34" class="edge">
<title>ForecastRoutingModule&#45;&gt;ForecastModule</title>
<path fill="none" stroke="black" d="M566.36,-274.22C566.36,-274.22 566.36,-295.73 566.36,-295.73"/>
<polygon fill="black" stroke="black" points="562.86,-295.73 566.36,-305.73 569.86,-295.73 562.86,-295.73"/>
</g>
<!-- HeaderRoutingModule -->
<g id="node26" class="node">
<title>HeaderRoutingModule</title>
<polygon fill="#8dd3c7" stroke="black" points="2245.58,-122 2242.58,-126 2221.58,-126 2218.58,-122 2100.42,-122 2100.42,-86 2245.58,-86 2245.58,-122"/>
<text text-anchor="middle" x="2173" y="-99.8" font-family="Times,serif" font-size="14.00">HeaderRoutingModule</text>
</g>
<!-- HeaderRoutingModule&#45;&gt;HeaderModule -->
<g id="edge46" class="edge">
<title>HeaderRoutingModule&#45;&gt;HeaderModule</title>
<path fill="none" stroke="black" d="M2173,-122.03C2173,-141.58 2173,-170 2173,-170 2173,-170 1819.35,-170 1819.35,-170"/>
<polygon fill="black" stroke="black" points="1819.35,-166.5 1809.35,-170 1819.35,-173.5 1819.35,-166.5"/>
</g>
<!-- SearchRoutingModule -->
<g id="node27" class="node">
<title>SearchRoutingModule</title>
<polygon fill="#8dd3c7" stroke="black" points="632.25,-198 629.25,-202 608.25,-202 605.25,-198 489.75,-198 489.75,-162 632.25,-162 632.25,-198"/>
<text text-anchor="middle" x="561" y="-175.8" font-family="Times,serif" font-size="14.00">SearchRoutingModule</text>
</g>
<!-- SearchRoutingModule&#45;&gt;SearchModule -->
<g id="edge58" class="edge">
<title>SearchRoutingModule&#45;&gt;SearchModule</title>
<path fill="none" stroke="black" d="M632.36,-174C646.17,-174 656.45,-174 656.45,-174 656.45,-174 656.45,-246 656.45,-246 656.45,-246 1700.2,-246 1700.2,-246"/>
<polygon fill="black" stroke="black" points="1700.2,-249.5 1710.2,-246 1700.2,-242.5 1700.2,-249.5"/>
</g>
<!-- WeatherModule&#45;&gt;ContainerComponent  -->
<g id="edge81" class="edge">
<title>WeatherModule&#45;&gt;ContainerComponent </title>
<path fill="none" stroke="black" stroke-dasharray="5,2" d="M2177.09,-342.02C2177.09,-359.37 2177.09,-383 2177.09,-383 2177.09,-383 2056.05,-383 2056.05,-383"/>
<polygon fill="black" stroke="black" points="2056.05,-379.5 2046.05,-383 2056.05,-386.5 2056.05,-379.5"/>
</g>
<!-- WeatherModule&#45;&gt;FeatureModule  -->
<g id="edge82" class="edge">
<title>WeatherModule&#45;&gt;FeatureModule </title>
<path fill="none" stroke="black" stroke-dasharray="5,2" d="M2112.91,-342.24C2112.91,-349.43 2112.91,-356 2112.91,-356 2112.91,-356 1501.17,-356 1501.17,-356 1501.17,-356 1501.17,-360.96 1501.17,-360.96"/>
<polygon fill="black" stroke="black" points="1497.67,-360.96 1501.17,-370.96 1504.67,-360.96 1497.67,-360.96"/>
</g>
<!-- WeatherModule&#45;&gt;HeaderModule  -->
<g id="edge83" class="edge">
<title>WeatherModule&#45;&gt;HeaderModule </title>
<path fill="none" stroke="black" stroke-dasharray="5,2" d="M2134.3,-342.42C2134.3,-351.28 2134.3,-360 2134.3,-360 2134.3,-360 1636.25,-360 1636.25,-360 1636.25,-360 1636.25,-361.08 1636.25,-361.08"/>
<polygon fill="black" stroke="black" points="1632.75,-360.8 1636.25,-370.8 1639.75,-360.8 1632.75,-360.8"/>
</g>
<!-- WeatherModule&#45;&gt;SearchModule  -->
<g id="edge84" class="edge">
<title>WeatherModule&#45;&gt;SearchModule </title>
<path fill="none" stroke="black" stroke-dasharray="5,2" d="M2155.7,-342.1C2155.7,-353.09 2155.7,-365 2155.7,-365 2155.7,-365 1739.55,-365 1739.55,-365 1739.55,-365 1739.55,-365.58 1739.55,-365.58"/>
<polygon fill="black" stroke="black" points="1736.05,-360.81 1739.55,-370.81 1743.05,-360.81 1736.05,-360.81"/>
</g>
<!-- WeatherModule&#45;&gt;SidenavModule  -->
<g id="edge85" class="edge">
<title>WeatherModule&#45;&gt;SidenavModule </title>
<path fill="none" stroke="black" stroke-dasharray="5,2" d="M2091.28,-328C2018.47,-328 1897.43,-328 1897.43,-328 1897.43,-328 1897.43,-395 1897.43,-395 1897.43,-395 1896.52,-395 1896.52,-395"/>
<polygon fill="black" stroke="black" points="1898.34,-391.5 1888.34,-395 1898.34,-398.5 1898.34,-391.5"/>
</g>
<!-- WeatherRoutingModule -->
<g id="node29" class="node">
<title>WeatherRoutingModule</title>
<polygon fill="#8dd3c7" stroke="black" points="2252.08,-274 2249.08,-278 2228.08,-278 2225.08,-274 2099.92,-274 2099.92,-238 2252.08,-238 2252.08,-274"/>
<text text-anchor="middle" x="2176" y="-251.8" font-family="Times,serif" font-size="14.00">WeatherRoutingModule</text>
</g>
<!-- WeatherRoutingModule&#45;&gt;WeatherModule -->
<g id="edge80" class="edge">
<title>WeatherRoutingModule&#45;&gt;WeatherModule</title>
<path fill="none" stroke="black" d="M2149.22,-274.22C2149.22,-274.22 2149.22,-295.73 2149.22,-295.73"/>
<polygon fill="black" stroke="black" points="2145.72,-295.73 2149.22,-305.73 2152.72,-295.73 2145.72,-295.73"/>
</g>
</g>
</svg>
