<?xml version="1.0" encoding="UTF-8" standalone="no"?>
<!DOCTYPE svg PUBLIC "-//W3C//DTD SVG 1.1//EN"
 "http://www.w3.org/Graphics/SVG/1.1/DTD/svg11.dtd">
<!-- Generated by graphviz version 2.44.1 (20200629.0846)
 -->
<!-- Title: dependencies Pages: 1 -->
<svg width="1552pt" height="493pt"
 viewBox="0.00 0.00 1552.00 493.00" xmlns="http://www.w3.org/2000/svg" xmlns:xlink="http://www.w3.org/1999/xlink">
<g id="graph0" class="graph" transform="scale(1 1) rotate(0) translate(4 489)">
<title>dependencies</title>
<polygon fill="white" stroke="transparent" points="-4,4 -4,-489 1548,-489 1548,4 -4,4"/>
<text text-anchor="start" x="751.01" y="-42.4" font-family="sans-serif" font-weight="bold" font-size="14.00">Legend</text>
<polygon fill="#ffffb3" stroke="transparent" points="538,-10 538,-30 558,-30 558,-10 538,-10"/>
<text text-anchor="start" x="561.63" y="-15.4" font-family="sans-serif" font-size="14.00"> &#160;Declarations</text>
<polygon fill="#8dd3c7" stroke="transparent" points="651,-10 651,-30 671,-30 671,-10 651,-10"/>
<text text-anchor="start" x="674.73" y="-15.4" font-family="sans-serif" font-size="14.00"> &#160;Module</text>
<polygon fill="#80b1d3" stroke="transparent" points="737,-10 737,-30 757,-30 757,-10 737,-10"/>
<text text-anchor="start" x="760.78" y="-15.4" font-family="sans-serif" font-size="14.00"> &#160;Bootstrap</text>
<polygon fill="#fdb462" stroke="transparent" points="834,-10 834,-30 854,-30 854,-10 834,-10"/>
<text text-anchor="start" x="857.67" y="-15.4" font-family="sans-serif" font-size="14.00"> &#160;Providers</text>
<polygon fill="#fb8072" stroke="transparent" points="930,-10 930,-30 950,-30 950,-10 930,-10"/>
<text text-anchor="start" x="953.73" y="-15.4" font-family="sans-serif" font-size="14.00"> &#160;Exports</text>
<g id="clust1" class="cluster">
<title>cluster_AppModule</title>
<polygon fill="none" stroke="black" stroke-dasharray="1,5" points="591,-279 591,-477 1014,-477 1014,-279 591,-279"/>
</g>
<g id="clust2" class="cluster">
<title>cluster_AppModule_declarations</title>
<polygon fill="none" stroke="black" points="884,-287 884,-339 1006,-339 1006,-287 884,-287"/>
</g>
<g id="clust4" class="cluster">
<title>cluster_AppModule_imports</title>
<polygon fill="none" stroke="black" points="599,-287 599,-339 876,-339 876,-287 599,-287"/>
</g>
<g id="clust6" class="cluster">
<title>cluster_AppModule_bootstrap</title>
<polygon fill="none" stroke="black" points="742,-417 742,-469 866,-469 866,-417 742,-417"/>
</g>
<g id="clust14" class="cluster">
<title>cluster_ContainerModule</title>
<polygon fill="none" stroke="black" stroke-dasharray="1,5" points="8,-203 8,-271 1267,-271 1267,-203 8,-203"/>
</g>
<g id="clust15" class="cluster">
<title>cluster_ContainerModule_declarations</title>
<polygon fill="none" stroke="black" points="1109,-211 1109,-263 1259,-263 1259,-211 1109,-211"/>
</g>
<g id="clust17" class="cluster">
<title>cluster_ContainerModule_imports</title>
<polygon fill="none" stroke="black" points="925,-211 925,-263 1101,-263 1101,-211 925,-211"/>
</g>
<g id="clust18" class="cluster">
<title>cluster_ContainerModule_exports</title>
<polygon fill="none" stroke="black" points="765,-211 765,-263 917,-263 917,-211 765,-211"/>
</g>
<g id="clust20" class="cluster">
<title>cluster_ContainerModule_providers</title>
<polygon fill="none" stroke="black" points="16,-211 16,-263 757,-263 757,-211 16,-211"/>
</g>
<g id="clust27" class="cluster">
<title>cluster_FavoritesModule</title>
<polygon fill="none" stroke="black" stroke-dasharray="1,5" points="541,-70 541,-195 729,-195 729,-70 541,-70"/>
</g>
<g id="clust30" class="cluster">
<title>cluster_FavoritesModule_imports</title>
<polygon fill="none" stroke="black" points="549,-78 549,-130 721,-130 721,-78 549,-78"/>
</g>
<g id="clust46" class="cluster">
<title>cluster_HeaderModule</title>
<polygon fill="none" stroke="black" stroke-dasharray="1,5" points="865,-70 865,-195 1162,-195 1162,-70 865,-70"/>
</g>
<g id="clust49" class="cluster">
<title>cluster_HeaderModule_imports</title>
<polygon fill="none" stroke="black" points="873,-78 873,-130 1154,-130 1154,-78 873,-78"/>
</g>
<g id="clust59" class="cluster">
<title>cluster_SearchModule</title>
<polygon fill="none" stroke="black" stroke-dasharray="1,5" points="1170,-70 1170,-195 1344,-195 1344,-70 1170,-70"/>
</g>
<g id="clust62" class="cluster">
<title>cluster_SearchModule_imports</title>
<polygon fill="none" stroke="black" points="1178,-78 1178,-130 1336,-130 1336,-78 1178,-78"/>
</g>
<g id="clust72" class="cluster">
<title>cluster_SidenavModule</title>
<polygon fill="none" stroke="black" stroke-dasharray="1,5" points="737,-143 737,-195 857,-195 857,-143 737,-143"/>
</g>
<g id="clust79" class="cluster">
<title>cluster_WeatherModule</title>
<polygon fill="none" stroke="black" stroke-dasharray="1,5" points="1352,-70 1352,-195 1536,-195 1536,-70 1352,-70"/>
</g>
<g id="clust82" class="cluster">
<title>cluster_WeatherModule_imports</title>
<polygon fill="none" stroke="black" points="1360,-78 1360,-130 1528,-130 1528,-78 1360,-78"/>
</g>
<!-- AppComponent -->
<g id="node1" class="node">
<title>AppComponent</title>
<polygon fill="#ffffb3" stroke="black" points="997.94,-331 892.06,-331 892.06,-295 997.94,-295 997.94,-331"/>
<text text-anchor="middle" x="945" y="-308.8" font-family="Times,serif" font-size="14.00">AppComponent</text>
</g>
<!-- AppModule -->
<g id="node2" class="node">
<title>AppModule</title>
<polygon fill="#8dd3c7" stroke="black" points="845.66,-396 842.66,-400 821.66,-400 818.66,-396 762.34,-396 762.34,-360 845.66,-360 845.66,-396"/>
<text text-anchor="middle" x="804" y="-373.8" font-family="Times,serif" font-size="14.00">AppModule</text>
</g>
<!-- AppComponent&#45;&gt;AppModule -->
<g id="edge1" class="edge">
<title>AppComponent&#45;&gt;AppModule</title>
<path fill="none" stroke="black" d="M945,-331.11C945,-350.34 945,-378 945,-378 945,-378 855.92,-378 855.92,-378"/>
<polygon fill="black" stroke="black" points="855.92,-374.5 845.92,-378 855.92,-381.5 855.92,-374.5"/>
</g>
<!-- AppComponent  -->
<g id="node5" class="node">
<title>AppComponent </title>
<polygon fill="#80b1d3" stroke="black" points="858.44,-461 749.56,-461 749.56,-425 858.44,-425 858.44,-461"/>
<text text-anchor="middle" x="804" y="-438.8" font-family="Times,serif" font-size="14.00">AppComponent </text>
</g>
<!-- AppModule&#45;&gt;AppComponent  -->
<g id="edge4" class="edge">
<title>AppModule&#45;&gt;AppComponent </title>
<path fill="none" stroke="black" stroke-dasharray="1,5" d="M804,-396.11C804,-396.11 804,-414.99 804,-414.99"/>
<polygon fill="black" stroke="black" points="800.5,-414.99 804,-424.99 807.5,-414.99 800.5,-414.99"/>
</g>
<!-- AppRoutingModule -->
<g id="node3" class="node">
<title>AppRoutingModule</title>
<polygon fill="#8dd3c7" stroke="black" points="868.27,-331 865.27,-335 844.27,-335 841.27,-331 739.73,-331 739.73,-295 868.27,-295 868.27,-331"/>
<text text-anchor="middle" x="804" y="-308.8" font-family="Times,serif" font-size="14.00">AppRoutingModule</text>
</g>
<!-- AppRoutingModule&#45;&gt;AppModule -->
<g id="edge2" class="edge">
<title>AppRoutingModule&#45;&gt;AppModule</title>
<path fill="none" stroke="black" d="M804,-331.11C804,-331.11 804,-349.99 804,-349.99"/>
<polygon fill="black" stroke="black" points="800.5,-349.99 804,-359.99 807.5,-349.99 800.5,-349.99"/>
</g>
<!-- ContainerModule -->
<g id="node4" class="node">
<title>ContainerModule</title>
<polygon fill="#8dd3c7" stroke="black" points="721.26,-331 718.26,-335 697.26,-335 694.26,-331 606.74,-331 606.74,-295 721.26,-295 721.26,-331"/>
<text text-anchor="middle" x="664" y="-308.8" font-family="Times,serif" font-size="14.00">ContainerModule</text>
</g>
<!-- ContainerModule&#45;&gt;AppModule -->
<g id="edge3" class="edge">
<title>ContainerModule&#45;&gt;AppModule</title>
<path fill="none" stroke="black" d="M664,-331.11C664,-350.34 664,-378 664,-378 664,-378 752,-378 752,-378"/>
<polygon fill="black" stroke="black" points="752,-381.5 762,-378 752,-374.5 752,-381.5"/>
</g>
<!-- FavoritesComponent  -->
<g id="node8" class="node">
<title>FavoritesComponent </title>
<polygon fill="#fb8072" stroke="black" points="909.43,-255 772.57,-255 772.57,-219 909.43,-219 909.43,-255"/>
<text text-anchor="middle" x="841" y="-232.8" font-family="Times,serif" font-size="14.00">FavoritesComponent </text>
</g>
<!-- ContainerModule&#45;&gt;FavoritesComponent  -->
<g id="edge7" class="edge">
<title>ContainerModule&#45;&gt;FavoritesComponent </title>
<path fill="none" stroke="black" stroke-dasharray="5,2" d="M698.43,-294.85C698.43,-281.26 698.43,-265 698.43,-265 698.43,-265 820.46,-265 820.46,-265 820.46,-265 820.46,-264.02 820.46,-264.02"/>
<polygon fill="black" stroke="black" points="823.96,-265.21 820.46,-255.21 816.96,-265.21 823.96,-265.21"/>
</g>
<!-- FavoritesComponent -->
<g id="node6" class="node">
<title>FavoritesComponent</title>
<polygon fill="#ffffb3" stroke="black" points="1250.93,-255 1117.07,-255 1117.07,-219 1250.93,-219 1250.93,-255"/>
<text text-anchor="middle" x="1184" y="-232.8" font-family="Times,serif" font-size="14.00">FavoritesComponent</text>
</g>
<!-- FavoritesComponent&#45;&gt;ContainerModule -->
<g id="edge5" class="edge">
<title>FavoritesComponent&#45;&gt;ContainerModule</title>
<path fill="none" stroke="black" d="M1184,-255.15C1184,-268.74 1184,-285 1184,-285 1184,-285 675.48,-285 675.48,-285 675.48,-285 675.48,-285.98 675.48,-285.98"/>
<polygon fill="black" stroke="black" points="671.98,-284.79 675.48,-294.79 678.98,-284.79 671.98,-284.79"/>
</g>
<!-- FavoritesModule -->
<g id="node13" class="node">
<title>FavoritesModule</title>
<polygon fill="#8dd3c7" stroke="black" points="720.65,-187 717.65,-191 696.65,-191 693.65,-187 609.35,-187 609.35,-151 720.65,-151 720.65,-187"/>
<text text-anchor="middle" x="665" y="-164.8" font-family="Times,serif" font-size="14.00">FavoritesModule</text>
</g>
<!-- FavoritesComponent&#45;&gt;FavoritesModule -->
<g id="edge12" class="edge">
<title>FavoritesComponent&#45;&gt;FavoritesModule</title>
<path fill="none" stroke="black" d="M1134.37,-218.87C1134.37,-208.69 1134.37,-198 1134.37,-198 1134.37,-198 646.39,-198 646.39,-198 646.39,-198 646.39,-196.92 646.39,-196.92"/>
<polygon fill="black" stroke="black" points="649.89,-197.2 646.39,-187.2 642.89,-197.2 649.89,-197.2"/>
</g>
<!-- HeaderModule -->
<g id="node15" class="node">
<title>HeaderModule</title>
<polygon fill="#8dd3c7" stroke="black" points="1073.96,-187 1070.96,-191 1049.96,-191 1046.96,-187 974.04,-187 974.04,-151 1073.96,-151 1073.96,-187"/>
<text text-anchor="middle" x="1024" y="-164.8" font-family="Times,serif" font-size="14.00">HeaderModule</text>
</g>
<!-- FavoritesComponent&#45;&gt;HeaderModule -->
<g id="edge15" class="edge">
<title>FavoritesComponent&#45;&gt;HeaderModule</title>
<path fill="none" stroke="black" d="M1128.68,-218.78C1128.68,-198.63 1128.68,-169 1128.68,-169 1128.68,-169 1084.19,-169 1084.19,-169"/>
<polygon fill="black" stroke="black" points="1084.19,-165.5 1074.19,-169 1084.19,-172.5 1084.19,-165.5"/>
</g>
<!-- SearchModule -->
<g id="node18" class="node">
<title>SearchModule</title>
<polygon fill="#8dd3c7" stroke="black" points="1275.64,-187 1272.64,-191 1251.64,-191 1248.64,-187 1178.36,-187 1178.36,-151 1275.64,-151 1275.64,-187"/>
<text text-anchor="middle" x="1227" y="-164.8" font-family="Times,serif" font-size="14.00">SearchModule</text>
</g>
<!-- FavoritesComponent&#45;&gt;SearchModule -->
<g id="edge19" class="edge">
<title>FavoritesComponent&#45;&gt;SearchModule</title>
<path fill="none" stroke="black" d="M1226.54,-218.78C1226.54,-218.78 1226.54,-197.27 1226.54,-197.27"/>
<polygon fill="black" stroke="black" points="1230.04,-197.27 1226.54,-187.27 1223.04,-197.27 1230.04,-197.27"/>
</g>
<!-- SidenavModule -->
<g id="node20" class="node">
<title>SidenavModule</title>
<polygon fill="#8dd3c7" stroke="black" points="849.15,-187 846.15,-191 825.15,-191 822.15,-187 744.85,-187 744.85,-151 849.15,-151 849.15,-187"/>
<text text-anchor="middle" x="797" y="-164.8" font-family="Times,serif" font-size="14.00">SidenavModule</text>
</g>
<!-- FavoritesComponent&#45;&gt;SidenavModule -->
<g id="edge23" class="edge">
<title>FavoritesComponent&#45;&gt;SidenavModule</title>
<path fill="none" stroke="black" d="M1140.07,-218.85C1140.07,-206.73 1140.07,-193 1140.07,-193 1140.07,-193 830.13,-193 830.13,-193 830.13,-193 830.13,-192.42 830.13,-192.42"/>
<polygon fill="black" stroke="black" points="833.63,-197.19 830.13,-187.19 826.63,-197.19 833.63,-197.19"/>
</g>
<!-- WeatherModule -->
<g id="node21" class="node">
<title>WeatherModule</title>
<polygon fill="#8dd3c7" stroke="black" points="1466.46,-187 1463.46,-191 1442.46,-191 1439.46,-187 1359.54,-187 1359.54,-151 1466.46,-151 1466.46,-187"/>
<text text-anchor="middle" x="1413" y="-164.8" font-family="Times,serif" font-size="14.00">WeatherModule</text>
</g>
<!-- FavoritesComponent&#45;&gt;WeatherModule -->
<g id="edge26" class="edge">
<title>FavoritesComponent&#45;&gt;WeatherModule</title>
<path fill="none" stroke="black" d="M1250.79,-237C1323.89,-237 1430.83,-237 1430.83,-237 1430.83,-237 1430.83,-197.22 1430.83,-197.22"/>
<polygon fill="black" stroke="black" points="1434.33,-197.22 1430.83,-187.22 1427.33,-197.22 1434.33,-197.22"/>
</g>
<!-- ContainerRoutingModule -->
<g id="node7" class="node">
<title>ContainerRoutingModule</title>
<polygon fill="#8dd3c7" stroke="black" points="1092.88,-255 1089.88,-259 1068.88,-259 1065.88,-255 933.12,-255 933.12,-219 1092.88,-219 1092.88,-255"/>
<text text-anchor="middle" x="1013" y="-232.8" font-family="Times,serif" font-size="14.00">ContainerRoutingModule</text>
</g>
<!-- ContainerRoutingModule&#45;&gt;ContainerModule -->
<g id="edge6" class="edge">
<title>ContainerRoutingModule&#45;&gt;ContainerModule</title>
<path fill="none" stroke="black" d="M965.39,-255.11C965.39,-264.9 965.39,-275 965.39,-275 965.39,-275 652.52,-275 652.52,-275 652.52,-275 652.52,-284.89 652.52,-284.89"/>
<polygon fill="black" stroke="black" points="649.02,-284.89 652.52,-294.89 656.02,-284.89 649.02,-284.89"/>
</g>
<!-- ApplicationService -->
<g id="node9" class="node">
<title>ApplicationService</title>
<ellipse fill="#fdb462" stroke="black" cx="313" cy="-237" rx="85.67" ry="18"/>
<text text-anchor="middle" x="313" y="-232.8" font-family="Times,serif" font-size="14.00">ApplicationService</text>
</g>
<!-- ApplicationService&#45;&gt;ContainerModule -->
<g id="edge8" class="edge">
<title>ApplicationService&#45;&gt;ContainerModule</title>
<path fill="none" stroke="black" d="M313,-255.01C313,-277.49 313,-313 313,-313 313,-313 596.43,-313 596.43,-313"/>
<polygon fill="black" stroke="black" points="596.43,-316.5 606.43,-313 596.43,-309.5 596.43,-316.5"/>
</g>
<!-- ExceptionInterceptor -->
<g id="node10" class="node">
<title>ExceptionInterceptor</title>
<ellipse fill="#fdb462" stroke="black" cx="117" cy="-237" rx="92.6" ry="18"/>
<text text-anchor="middle" x="117" y="-232.8" font-family="Times,serif" font-size="14.00">ExceptionInterceptor</text>
</g>
<!-- ExceptionInterceptor&#45;&gt;ContainerModule -->
<g id="edge9" class="edge">
<title>ExceptionInterceptor&#45;&gt;ContainerModule</title>
<path fill="none" stroke="black" d="M117,-255.03C117,-279.98 117,-322 117,-322 117,-322 596.5,-322 596.5,-322"/>
<polygon fill="black" stroke="black" points="596.5,-325.5 606.5,-322 596.5,-318.5 596.5,-325.5"/>
</g>
<!-- RequestInterceptor -->
<g id="node11" class="node">
<title>RequestInterceptor</title>
<ellipse fill="#fdb462" stroke="black" cx="664" cy="-237" rx="84.51" ry="18"/>
<text text-anchor="middle" x="664" y="-232.8" font-family="Times,serif" font-size="14.00">RequestInterceptor</text>
</g>
<!-- RequestInterceptor&#45;&gt;ContainerModule -->
<g id="edge10" class="edge">
<title>RequestInterceptor&#45;&gt;ContainerModule</title>
<path fill="none" stroke="black" d="M629.57,-253.49C629.57,-253.49 629.57,-284.95 629.57,-284.95"/>
<polygon fill="black" stroke="black" points="626.07,-284.95 629.57,-294.95 633.07,-284.95 626.07,-284.95"/>
</g>
<!-- WeatherService -->
<g id="node12" class="node">
<title>WeatherService</title>
<ellipse fill="#fdb462" stroke="black" cx="489" cy="-237" rx="72.89" ry="18"/>
<text text-anchor="middle" x="489" y="-232.8" font-family="Times,serif" font-size="14.00">WeatherService</text>
</g>
<!-- WeatherService&#45;&gt;ContainerModule -->
<g id="edge11" class="edge">
<title>WeatherService&#45;&gt;ContainerModule</title>
<path fill="none" stroke="black" d="M489,-255.31C489,-275.15 489,-304 489,-304 489,-304 596.7,-304 596.7,-304"/>
<polygon fill="black" stroke="black" points="596.7,-307.5 606.7,-304 596.7,-300.5 596.7,-307.5"/>
</g>
<!-- FavoritesModule&#45;&gt;FavoritesComponent  -->
<g id="edge14" class="edge">
<title>FavoritesModule&#45;&gt;FavoritesComponent </title>
<path fill="none" stroke="black" stroke-dasharray="5,2" d="M683.61,-187.04C683.61,-199.56 683.61,-214 683.61,-214 683.61,-214 791.73,-214 791.73,-214 791.73,-214 791.73,-214.49 791.73,-214.49"/>
<polygon fill="black" stroke="black" points="788.23,-208.88 791.73,-218.88 795.23,-208.88 788.23,-208.88"/>
</g>
<!-- FavoritesRoutingModule -->
<g id="node14" class="node">
<title>FavoritesRoutingModule</title>
<polygon fill="#8dd3c7" stroke="black" points="713.27,-122 710.27,-126 689.27,-126 686.27,-122 556.73,-122 556.73,-86 713.27,-86 713.27,-122"/>
<text text-anchor="middle" x="635" y="-99.8" font-family="Times,serif" font-size="14.00">FavoritesRoutingModule</text>
</g>
<!-- FavoritesRoutingModule&#45;&gt;FavoritesModule -->
<g id="edge13" class="edge">
<title>FavoritesRoutingModule&#45;&gt;FavoritesModule</title>
<path fill="none" stroke="black" d="M661.28,-122.11C661.28,-122.11 661.28,-140.99 661.28,-140.99"/>
<polygon fill="black" stroke="black" points="657.78,-140.99 661.28,-150.99 664.78,-140.99 657.78,-140.99"/>
</g>
<!-- HeaderModule&#45;&gt;FavoritesComponent  -->
<g id="edge18" class="edge">
<title>HeaderModule&#45;&gt;FavoritesComponent </title>
<path fill="none" stroke="black" stroke-dasharray="5,2" d="M973.92,-169C935.31,-169 888.46,-169 888.46,-169 888.46,-169 888.46,-208.78 888.46,-208.78"/>
<polygon fill="black" stroke="black" points="884.96,-208.78 888.46,-218.78 891.96,-208.78 884.96,-208.78"/>
</g>
<!-- FeatureModule -->
<g id="node16" class="node">
<title>FeatureModule</title>
<polygon fill="#8dd3c7" stroke="black" points="1145.53,-122 1142.53,-126 1121.53,-126 1118.53,-122 1044.47,-122 1044.47,-86 1145.53,-86 1145.53,-122"/>
<text text-anchor="middle" x="1095" y="-99.8" font-family="Times,serif" font-size="14.00">FeatureModule</text>
</g>
<!-- FeatureModule&#45;&gt;HeaderModule -->
<g id="edge16" class="edge">
<title>FeatureModule&#45;&gt;HeaderModule</title>
<path fill="none" stroke="black" d="M1064.07,-122.11C1064.07,-122.11 1064.07,-140.99 1064.07,-140.99"/>
<polygon fill="black" stroke="black" points="1060.57,-140.99 1064.07,-150.99 1067.57,-140.99 1060.57,-140.99"/>
</g>
<!-- FeatureModule&#45;&gt;SearchModule -->
<g id="edge20" class="edge">
<title>FeatureModule&#45;&gt;SearchModule</title>
<path fill="none" stroke="black" d="M1145.55,-104C1164.67,-104 1181.9,-104 1181.9,-104 1181.9,-104 1181.9,-140.89 1181.9,-140.89"/>
<polygon fill="black" stroke="black" points="1178.4,-140.89 1181.9,-150.89 1185.4,-140.89 1178.4,-140.89"/>
</g>
<!-- FeatureModule&#45;&gt;SidenavModule -->
<g id="edge24" class="edge">
<title>FeatureModule&#45;&gt;SidenavModule</title>
<path fill="none" stroke="black" d="M1054.15,-122.11C1054.15,-131.9 1054.15,-142 1054.15,-142 1054.15,-142 797,-142 797,-142 797,-142 797,-142.88 797,-142.88"/>
<polygon fill="black" stroke="black" points="793.5,-140.84 797,-150.84 800.5,-140.84 793.5,-140.84"/>
</g>
<!-- FeatureModule&#45;&gt;WeatherModule -->
<g id="edge27" class="edge">
<title>FeatureModule&#45;&gt;WeatherModule</title>
<path fill="none" stroke="black" d="M1122.98,-122.21C1122.98,-127.55 1122.98,-132 1122.98,-132 1122.98,-132 1363.74,-132 1363.74,-132 1363.74,-132 1363.74,-140.93 1363.74,-140.93"/>
<polygon fill="black" stroke="black" points="1360.24,-140.93 1363.74,-150.93 1367.24,-140.93 1360.24,-140.93"/>
</g>
<!-- HeaderRoutingModule -->
<g id="node17" class="node">
<title>HeaderRoutingModule</title>
<polygon fill="#8dd3c7" stroke="black" points="1026.58,-122 1023.58,-126 1002.58,-126 999.58,-122 881.42,-122 881.42,-86 1026.58,-86 1026.58,-122"/>
<text text-anchor="middle" x="954" y="-99.8" font-family="Times,serif" font-size="14.00">HeaderRoutingModule</text>
</g>
<!-- HeaderRoutingModule&#45;&gt;HeaderModule -->
<g id="edge17" class="edge">
<title>HeaderRoutingModule&#45;&gt;HeaderModule</title>
<path fill="none" stroke="black" d="M1000.28,-122.11C1000.28,-122.11 1000.28,-140.99 1000.28,-140.99"/>
<polygon fill="black" stroke="black" points="996.78,-140.99 1000.28,-150.99 1003.78,-140.99 996.78,-140.99"/>
</g>
<!-- SearchModule&#45;&gt;FavoritesComponent  -->
<g id="edge22" class="edge">
<title>SearchModule&#45;&gt;FavoritesComponent </title>
<path fill="none" stroke="black" stroke-dasharray="5,2" d="M1202.36,-187.19C1202.36,-195.28 1202.36,-203 1202.36,-203 1202.36,-203 895.46,-203 895.46,-203 895.46,-203 895.46,-208.81 895.46,-208.81"/>
<polygon fill="black" stroke="black" points="891.96,-208.81 895.46,-218.81 898.96,-208.81 891.96,-208.81"/>
</g>
<!-- SearchRoutingModule -->
<g id="node19" class="node">
<title>SearchRoutingModule</title>
<polygon fill="#8dd3c7" stroke="black" points="1328.25,-122 1325.25,-126 1304.25,-126 1301.25,-122 1185.75,-122 1185.75,-86 1328.25,-86 1328.25,-122"/>
<text text-anchor="middle" x="1257" y="-99.8" font-family="Times,serif" font-size="14.00">SearchRoutingModule</text>
</g>
<!-- SearchRoutingModule&#45;&gt;SearchModule -->
<g id="edge21" class="edge">
<title>SearchRoutingModule&#45;&gt;SearchModule</title>
<path fill="none" stroke="black" d="M1230.72,-122.11C1230.72,-122.11 1230.72,-140.99 1230.72,-140.99"/>
<polygon fill="black" stroke="black" points="1227.22,-140.99 1230.72,-150.99 1234.22,-140.99 1227.22,-140.99"/>
</g>
<!-- SidenavModule&#45;&gt;FavoritesComponent  -->
<g id="edge25" class="edge">
<title>SidenavModule&#45;&gt;FavoritesComponent </title>
<path fill="none" stroke="black" stroke-dasharray="5,2" d="M810.93,-187.22C810.93,-187.22 810.93,-208.73 810.93,-208.73"/>
<polygon fill="black" stroke="black" points="807.43,-208.73 810.93,-218.73 814.43,-208.73 807.43,-208.73"/>
</g>
<!-- WeatherModule&#45;&gt;FavoritesComponent  -->
<g id="edge29" class="edge">
<title>WeatherModule&#45;&gt;FavoritesComponent </title>
<path fill="none" stroke="black" stroke-dasharray="5,2" d="M1395.17,-187.13C1395.17,-197.71 1395.17,-209 1395.17,-209 1395.17,-209 902.46,-209 902.46,-209 902.46,-209 902.46,-209.98 902.46,-209.98"/>
<polygon fill="black" stroke="black" points="898.96,-208.79 902.46,-218.79 905.96,-208.79 898.96,-208.79"/>
</g>
<!-- WeatherRoutingModule -->
<g id="node22" class="node">
<title>WeatherRoutingModule</title>
<polygon fill="#8dd3c7" stroke="black" points="1520.08,-122 1517.08,-126 1496.08,-126 1493.08,-122 1367.92,-122 1367.92,-86 1520.08,-86 1520.08,-122"/>
<text text-anchor="middle" x="1444" y="-99.8" font-family="Times,serif" font-size="14.00">WeatherRoutingModule</text>
</g>
<!-- WeatherRoutingModule&#45;&gt;WeatherModule -->
<g id="edge28" class="edge">
<title>WeatherRoutingModule&#45;&gt;WeatherModule</title>
<path fill="none" stroke="black" d="M1417.22,-122.11C1417.22,-122.11 1417.22,-140.99 1417.22,-140.99"/>
<polygon fill="black" stroke="black" points="1413.72,-140.99 1417.22,-150.99 1420.72,-140.99 1413.72,-140.99"/>
</g>
</g>
</svg>
