<?xml version="1.0" encoding="UTF-8" standalone="no"?>
<!DOCTYPE svg PUBLIC "-//W3C//DTD SVG 1.1//EN"
 "http://www.w3.org/Graphics/SVG/1.1/DTD/svg11.dtd">
<!-- Generated by graphviz version 2.44.1 (20200629.0846)
 -->
<!-- Title: dependencies Pages: 1 -->
<svg width="1642pt" height="493pt"
 viewBox="0.00 0.00 1642.00 493.00" xmlns="http://www.w3.org/2000/svg" xmlns:xlink="http://www.w3.org/1999/xlink">
<g id="graph0" class="graph" transform="scale(1 1) rotate(0) translate(4 489)">
<title>dependencies</title>
<polygon fill="white" stroke="transparent" points="-4,4 -4,-489 1638,-489 1638,4 -4,4"/>
<text text-anchor="start" x="796.01" y="-42.4" font-family="sans-serif" font-weight="bold" font-size="14.00">Legend</text>
<polygon fill="#ffffb3" stroke="transparent" points="583,-10 583,-30 603,-30 603,-10 583,-10"/>
<text text-anchor="start" x="606.63" y="-15.4" font-family="sans-serif" font-size="14.00"> &#160;Declarations</text>
<polygon fill="#8dd3c7" stroke="transparent" points="696,-10 696,-30 716,-30 716,-10 696,-10"/>
<text text-anchor="start" x="719.73" y="-15.4" font-family="sans-serif" font-size="14.00"> &#160;Module</text>
<polygon fill="#80b1d3" stroke="transparent" points="782,-10 782,-30 802,-30 802,-10 782,-10"/>
<text text-anchor="start" x="805.78" y="-15.4" font-family="sans-serif" font-size="14.00"> &#160;Bootstrap</text>
<polygon fill="#fdb462" stroke="transparent" points="879,-10 879,-30 899,-30 899,-10 879,-10"/>
<text text-anchor="start" x="902.67" y="-15.4" font-family="sans-serif" font-size="14.00"> &#160;Providers</text>
<polygon fill="#fb8072" stroke="transparent" points="975,-10 975,-30 995,-30 995,-10 975,-10"/>
<text text-anchor="start" x="998.73" y="-15.4" font-family="sans-serif" font-size="14.00"> &#160;Exports</text>
<g id="clust1" class="cluster">
<title>cluster_AppModule</title>
<polygon fill="none" stroke="black" stroke-dasharray="1,5" points="504,-279 504,-477 1047,-477 1047,-279 504,-279"/>
</g>
<g id="clust2" class="cluster">
<title>cluster_AppModule_declarations</title>
<polygon fill="none" stroke="black" points="917,-287 917,-339 1039,-339 1039,-287 917,-287"/>
</g>
<g id="clust4" class="cluster">
<title>cluster_AppModule_imports</title>
<polygon fill="none" stroke="black" points="512,-287 512,-339 909,-339 909,-287 512,-287"/>
</g>
<g id="clust6" class="cluster">
<title>cluster_AppModule_bootstrap</title>
<polygon fill="none" stroke="black" points="705,-417 705,-469 829,-469 829,-417 705,-417"/>
</g>
<g id="clust14" class="cluster">
<title>cluster_ContainerModule</title>
<polygon fill="none" stroke="black" stroke-dasharray="1,5" points="8,-203 8,-271 1423,-271 1423,-203 8,-203"/>
</g>
<g id="clust15" class="cluster">
<title>cluster_ContainerModule_declarations</title>
<polygon fill="none" stroke="black" points="1265,-211 1265,-263 1415,-263 1415,-211 1265,-211"/>
</g>
<g id="clust17" class="cluster">
<title>cluster_ContainerModule_imports</title>
<polygon fill="none" stroke="black" points="16,-211 16,-263 192,-263 192,-211 16,-211"/>
</g>
<g id="clust18" class="cluster">
<title>cluster_ContainerModule_exports</title>
<polygon fill="none" stroke="black" points="1105,-211 1105,-263 1257,-263 1257,-211 1105,-211"/>
</g>
<g id="clust20" class="cluster">
<title>cluster_ContainerModule_providers</title>
<polygon fill="none" stroke="black" points="200,-211 200,-263 1097,-263 1097,-211 200,-211"/>
</g>
<g id="clust27" class="cluster">
<title>cluster_FavoritesModule</title>
<polygon fill="none" stroke="black" stroke-dasharray="1,5" points="878,-70 878,-195 1066,-195 1066,-70 878,-70"/>
</g>
<g id="clust30" class="cluster">
<title>cluster_FavoritesModule_imports</title>
<polygon fill="none" stroke="black" points="886,-78 886,-130 1058,-130 1058,-78 886,-78"/>
</g>
<g id="clust46" class="cluster">
<title>cluster_ForecastModule</title>
<polygon fill="none" stroke="black" stroke-dasharray="1,5" points="1074,-70 1074,-195 1258,-195 1258,-70 1074,-70"/>
</g>
<g id="clust49" class="cluster">
<title>cluster_ForecastModule_imports</title>
<polygon fill="none" stroke="black" points="1082,-78 1082,-130 1250,-130 1250,-78 1082,-78"/>
</g>
<g id="clust59" class="cluster">
<title>cluster_HeaderModule</title>
<polygon fill="none" stroke="black" stroke-dasharray="1,5" points="1266,-70 1266,-195 1444,-195 1444,-70 1266,-70"/>
</g>
<g id="clust62" class="cluster">
<title>cluster_HeaderModule_imports</title>
<polygon fill="none" stroke="black" points="1274,-78 1274,-130 1436,-130 1436,-78 1274,-78"/>
</g>
<g id="clust72" class="cluster">
<title>cluster_SearchModule</title>
<polygon fill="none" stroke="black" stroke-dasharray="1,5" points="1452,-70 1452,-195 1626,-195 1626,-70 1452,-70"/>
</g>
<g id="clust75" class="cluster">
<title>cluster_SearchModule_imports</title>
<polygon fill="none" stroke="black" points="1460,-78 1460,-130 1618,-130 1618,-78 1460,-78"/>
</g>
<g id="clust85" class="cluster">
<title>cluster_SidenavModule</title>
<polygon fill="none" stroke="black" stroke-dasharray="1,5" points="1128,-287 1128,-339 1248,-339 1248,-287 1128,-287"/>
</g>
<g id="clust92" class="cluster">
<title>cluster_WeatherModule</title>
<polygon fill="none" stroke="black" stroke-dasharray="1,5" points="1271,-287 1271,-339 1393,-339 1393,-287 1271,-287"/>
</g>
<!-- AppComponent -->
<g id="node1" class="node">
<title>AppComponent</title>
<polygon fill="#ffffb3" stroke="black" points="1030.94,-331 925.06,-331 925.06,-295 1030.94,-295 1030.94,-331"/>
<text text-anchor="middle" x="978" y="-308.8" font-family="Times,serif" font-size="14.00">AppComponent</text>
</g>
<!-- AppModule -->
<g id="node2" class="node">
<title>AppModule</title>
<polygon fill="#8dd3c7" stroke="black" points="808.66,-396 805.66,-400 784.66,-400 781.66,-396 725.34,-396 725.34,-360 808.66,-360 808.66,-396"/>
<text text-anchor="middle" x="767" y="-373.8" font-family="Times,serif" font-size="14.00">AppModule</text>
</g>
<!-- AppComponent&#45;&gt;AppModule -->
<g id="edge1" class="edge">
<title>AppComponent&#45;&gt;AppModule</title>
<path fill="none" stroke="black" d="M978,-331.11C978,-350.34 978,-378 978,-378 978,-378 818.69,-378 818.69,-378"/>
<polygon fill="black" stroke="black" points="818.69,-374.5 808.69,-378 818.69,-381.5 818.69,-374.5"/>
</g>
<!-- AppComponent  -->
<g id="node6" class="node">
<title>AppComponent </title>
<polygon fill="#80b1d3" stroke="black" points="821.44,-461 712.56,-461 712.56,-425 821.44,-425 821.44,-461"/>
<text text-anchor="middle" x="767" y="-438.8" font-family="Times,serif" font-size="14.00">AppComponent </text>
</g>
<!-- AppModule&#45;&gt;AppComponent  -->
<g id="edge5" class="edge">
<title>AppModule&#45;&gt;AppComponent </title>
<path fill="none" stroke="black" stroke-dasharray="1,5" d="M767,-396.11C767,-396.11 767,-414.99 767,-414.99"/>
<polygon fill="black" stroke="black" points="763.5,-414.99 767,-424.99 770.5,-414.99 763.5,-414.99"/>
</g>
<!-- AppRoutingModule -->
<g id="node3" class="node">
<title>AppRoutingModule</title>
<polygon fill="#8dd3c7" stroke="black" points="901.27,-331 898.27,-335 877.27,-335 874.27,-331 772.73,-331 772.73,-295 901.27,-295 901.27,-331"/>
<text text-anchor="middle" x="837" y="-308.8" font-family="Times,serif" font-size="14.00">AppRoutingModule</text>
</g>
<!-- AppRoutingModule&#45;&gt;AppModule -->
<g id="edge2" class="edge">
<title>AppRoutingModule&#45;&gt;AppModule</title>
<path fill="none" stroke="black" d="M790.72,-331.11C790.72,-331.11 790.72,-349.99 790.72,-349.99"/>
<polygon fill="black" stroke="black" points="787.22,-349.99 790.72,-359.99 794.22,-349.99 787.22,-349.99"/>
</g>
<!-- ContainerModule -->
<g id="node4" class="node">
<title>ContainerModule</title>
<polygon fill="#8dd3c7" stroke="black" points="754.26,-331 751.26,-335 730.26,-335 727.26,-331 639.74,-331 639.74,-295 754.26,-295 754.26,-331"/>
<text text-anchor="middle" x="697" y="-308.8" font-family="Times,serif" font-size="14.00">ContainerModule</text>
</g>
<!-- ContainerModule&#45;&gt;AppModule -->
<g id="edge3" class="edge">
<title>ContainerModule&#45;&gt;AppModule</title>
<path fill="none" stroke="black" d="M739.78,-331.11C739.78,-331.11 739.78,-349.99 739.78,-349.99"/>
<polygon fill="black" stroke="black" points="736.28,-349.99 739.78,-359.99 743.28,-349.99 736.28,-349.99"/>
</g>
<!-- FavoritesComponent  -->
<g id="node9" class="node">
<title>FavoritesComponent </title>
<polygon fill="#fb8072" stroke="black" points="1249.43,-255 1112.57,-255 1112.57,-219 1249.43,-219 1249.43,-255"/>
<text text-anchor="middle" x="1181" y="-232.8" font-family="Times,serif" font-size="14.00">FavoritesComponent </text>
</g>
<!-- ContainerModule&#45;&gt;FavoritesComponent  -->
<g id="edge8" class="edge">
<title>ContainerModule&#45;&gt;FavoritesComponent </title>
<path fill="none" stroke="black" stroke-dasharray="5,2" d="M733.4,-294.82C733.4,-281.96 733.4,-267 733.4,-267 733.4,-267 1124.1,-267 1124.1,-267 1124.1,-267 1124.1,-265.14 1124.1,-265.14"/>
<polygon fill="black" stroke="black" points="1127.6,-265.14 1124.1,-255.14 1120.6,-265.14 1127.6,-265.14"/>
</g>
<!-- FeatureModule -->
<g id="node5" class="node">
<title>FeatureModule</title>
<polygon fill="#8dd3c7" stroke="black" points="621.53,-331 618.53,-335 597.53,-335 594.53,-331 520.47,-331 520.47,-295 621.53,-295 621.53,-331"/>
<text text-anchor="middle" x="571" y="-308.8" font-family="Times,serif" font-size="14.00">FeatureModule</text>
</g>
<!-- FeatureModule&#45;&gt;AppModule -->
<g id="edge4" class="edge">
<title>FeatureModule&#45;&gt;AppModule</title>
<path fill="none" stroke="black" d="M571,-331.11C571,-350.34 571,-378 571,-378 571,-378 714.95,-378 714.95,-378"/>
<polygon fill="black" stroke="black" points="714.95,-381.5 724.95,-378 714.95,-374.5 714.95,-381.5"/>
</g>
<!-- FavoritesComponent -->
<g id="node7" class="node">
<title>FavoritesComponent</title>
<polygon fill="#ffffb3" stroke="black" points="1406.93,-255 1273.07,-255 1273.07,-219 1406.93,-219 1406.93,-255"/>
<text text-anchor="middle" x="1340" y="-232.8" font-family="Times,serif" font-size="14.00">FavoritesComponent</text>
</g>
<!-- FavoritesComponent&#45;&gt;ContainerModule -->
<g id="edge6" class="edge">
<title>FavoritesComponent&#45;&gt;ContainerModule</title>
<path fill="none" stroke="black" d="M1314.17,-255.42C1314.17,-264.28 1314.17,-273 1314.17,-273 1314.17,-273 747.39,-273 747.39,-273 747.39,-273 747.39,-284.87 747.39,-284.87"/>
<polygon fill="black" stroke="black" points="743.89,-284.87 747.39,-294.87 750.89,-284.87 743.89,-284.87"/>
</g>
<!-- FavoritesModule -->
<g id="node15" class="node">
<title>FavoritesModule</title>
<polygon fill="#8dd3c7" stroke="black" points="1057.65,-187 1054.65,-191 1033.65,-191 1030.65,-187 946.35,-187 946.35,-151 1057.65,-151 1057.65,-187"/>
<text text-anchor="middle" x="1002" y="-164.8" font-family="Times,serif" font-size="14.00">FavoritesModule</text>
</g>
<!-- FavoritesComponent&#45;&gt;FavoritesModule -->
<g id="edge14" class="edge">
<title>FavoritesComponent&#45;&gt;FavoritesModule</title>
<path fill="none" stroke="black" d="M1279.4,-218.87C1279.4,-208.69 1279.4,-198 1279.4,-198 1279.4,-198 1002,-198 1002,-198 1002,-198 1002,-196.92 1002,-196.92"/>
<polygon fill="black" stroke="black" points="1005.5,-197.2 1002,-187.2 998.5,-197.2 1005.5,-197.2"/>
</g>
<!-- ForecastModule -->
<g id="node17" class="node">
<title>ForecastModule</title>
<polygon fill="#8dd3c7" stroke="black" points="1234.47,-187 1231.47,-191 1210.47,-191 1207.47,-187 1127.53,-187 1127.53,-151 1234.47,-151 1234.47,-187"/>
<text text-anchor="middle" x="1181" y="-164.8" font-family="Times,serif" font-size="14.00">ForecastModule</text>
</g>
<!-- FavoritesComponent&#45;&gt;ForecastModule -->
<g id="edge17" class="edge">
<title>FavoritesComponent&#45;&gt;ForecastModule</title>
<path fill="none" stroke="black" d="M1276.34,-218.73C1276.34,-200.44 1276.34,-175 1276.34,-175 1276.34,-175 1244.52,-175 1244.52,-175"/>
<polygon fill="black" stroke="black" points="1244.52,-171.5 1234.52,-175 1244.52,-178.5 1244.52,-171.5"/>
</g>
<!-- HeaderModule -->
<g id="node19" class="node">
<title>HeaderModule</title>
<polygon fill="#8dd3c7" stroke="black" points="1389.96,-187 1386.96,-191 1365.96,-191 1362.96,-187 1290.04,-187 1290.04,-151 1389.96,-151 1389.96,-187"/>
<text text-anchor="middle" x="1340" y="-164.8" font-family="Times,serif" font-size="14.00">HeaderModule</text>
</g>
<!-- FavoritesComponent&#45;&gt;HeaderModule -->
<g id="edge20" class="edge">
<title>FavoritesComponent&#45;&gt;HeaderModule</title>
<path fill="none" stroke="black" d="M1340,-218.78C1340,-218.78 1340,-197.27 1340,-197.27"/>
<polygon fill="black" stroke="black" points="1343.5,-197.27 1340,-187.27 1336.5,-197.27 1343.5,-197.27"/>
</g>
<!-- SearchModule -->
<g id="node21" class="node">
<title>SearchModule</title>
<polygon fill="#8dd3c7" stroke="black" points="1557.64,-187 1554.64,-191 1533.64,-191 1530.64,-187 1460.36,-187 1460.36,-151 1557.64,-151 1557.64,-187"/>
<text text-anchor="middle" x="1509" y="-164.8" font-family="Times,serif" font-size="14.00">SearchModule</text>
</g>
<!-- FavoritesComponent&#45;&gt;SearchModule -->
<g id="edge23" class="edge">
<title>FavoritesComponent&#45;&gt;SearchModule</title>
<path fill="none" stroke="black" d="M1398.35,-218.78C1398.35,-198.63 1398.35,-169 1398.35,-169 1398.35,-169 1450.14,-169 1450.14,-169"/>
<polygon fill="black" stroke="black" points="1450.14,-172.5 1460.14,-169 1450.14,-165.5 1450.14,-172.5"/>
</g>
<!-- SidenavModule -->
<g id="node23" class="node">
<title>SidenavModule</title>
<polygon fill="#8dd3c7" stroke="black" points="1240.15,-331 1237.15,-335 1216.15,-335 1213.15,-331 1135.85,-331 1135.85,-295 1240.15,-295 1240.15,-331"/>
<text text-anchor="middle" x="1188" y="-308.8" font-family="Times,serif" font-size="14.00">SidenavModule</text>
</g>
<!-- FavoritesComponent&#45;&gt;SidenavModule -->
<g id="edge26" class="edge">
<title>FavoritesComponent&#45;&gt;SidenavModule</title>
<path fill="none" stroke="black" d="M1272.98,-237C1265.99,-237 1261.38,-237 1261.38,-237 1261.38,-237 1261.38,-307 1261.38,-307 1261.38,-307 1250.54,-307 1250.54,-307"/>
<polygon fill="black" stroke="black" points="1250.54,-303.5 1240.54,-307 1250.54,-310.5 1250.54,-303.5"/>
</g>
<!-- WeatherModule -->
<g id="node24" class="node">
<title>WeatherModule</title>
<polygon fill="#8dd3c7" stroke="black" points="1385.46,-331 1382.46,-335 1361.46,-335 1358.46,-331 1278.54,-331 1278.54,-295 1385.46,-295 1385.46,-331"/>
<text text-anchor="middle" x="1332" y="-308.8" font-family="Times,serif" font-size="14.00">WeatherModule</text>
</g>
<!-- FavoritesComponent&#45;&gt;WeatherModule -->
<g id="edge28" class="edge">
<title>FavoritesComponent&#45;&gt;WeatherModule</title>
<path fill="none" stroke="black" d="M1349.83,-255.01C1349.83,-255.01 1349.83,-284.85 1349.83,-284.85"/>
<polygon fill="black" stroke="black" points="1346.33,-284.85 1349.83,-294.85 1353.33,-284.85 1346.33,-284.85"/>
</g>
<!-- ContainerRoutingModule -->
<g id="node8" class="node">
<title>ContainerRoutingModule</title>
<polygon fill="#8dd3c7" stroke="black" points="183.88,-255 180.88,-259 159.88,-259 156.88,-255 24.12,-255 24.12,-219 183.88,-219 183.88,-255"/>
<text text-anchor="middle" x="104" y="-232.8" font-family="Times,serif" font-size="14.00">ContainerRoutingModule</text>
</g>
<!-- ContainerRoutingModule&#45;&gt;ContainerModule -->
<g id="edge7" class="edge">
<title>ContainerRoutingModule&#45;&gt;ContainerModule</title>
<path fill="none" stroke="black" d="M104,-255.24C104,-270.57 104,-290 104,-290 104,-290 652.01,-290 652.01,-290 652.01,-290 652.01,-290.49 652.01,-290.49"/>
<polygon fill="black" stroke="black" points="648.51,-284.88 652.01,-294.88 655.51,-284.88 648.51,-284.88"/>
</g>
<!-- ApplicationService -->
<g id="node10" class="node">
<title>ApplicationService</title>
<ellipse fill="#fdb462" stroke="black" cx="805" cy="-237" rx="85.67" ry="18"/>
<text text-anchor="middle" x="805" y="-232.8" font-family="Times,serif" font-size="14.00">ApplicationService</text>
</g>
<!-- ApplicationService&#45;&gt;ContainerModule -->
<g id="edge9" class="edge">
<title>ApplicationService&#45;&gt;ContainerModule</title>
<path fill="none" stroke="black" d="M726.41,-244.29C726.41,-244.29 726.41,-284.73 726.41,-284.73"/>
<polygon fill="black" stroke="black" points="722.91,-284.73 726.41,-294.73 729.91,-284.73 722.91,-284.73"/>
</g>
<!-- ContextService -->
<g id="node11" class="node">
<title>ContextService</title>
<ellipse fill="#fdb462" stroke="black" cx="631" cy="-237" rx="70.64" ry="18"/>
<text text-anchor="middle" x="631" y="-232.8" font-family="Times,serif" font-size="14.00">ContextService</text>
</g>
<!-- ContextService&#45;&gt;ContainerModule -->
<g id="edge10" class="edge">
<title>ContextService&#45;&gt;ContainerModule</title>
<path fill="none" stroke="black" d="M689.18,-247.25C689.18,-247.25 689.18,-284.77 689.18,-284.77"/>
<polygon fill="black" stroke="black" points="685.68,-284.77 689.18,-294.77 692.68,-284.77 685.68,-284.77"/>
</g>
<!-- NetworkService -->
<g id="node12" class="node">
<title>NetworkService</title>
<ellipse fill="#fdb462" stroke="black" cx="469" cy="-237" rx="73.55" ry="18"/>
<text text-anchor="middle" x="469" y="-232.8" font-family="Times,serif" font-size="14.00">NetworkService</text>
</g>
<!-- NetworkService&#45;&gt;ContainerModule -->
<g id="edge11" class="edge">
<title>NetworkService&#45;&gt;ContainerModule</title>
<path fill="none" stroke="black" d="M531.51,-246.92C531.51,-259.06 531.51,-278 531.51,-278 531.51,-278 676.79,-278 676.79,-278 676.79,-278 676.79,-284.68 676.79,-284.68"/>
<polygon fill="black" stroke="black" points="673.29,-284.68 676.79,-294.68 680.29,-284.68 673.29,-284.68"/>
</g>
<!-- RequestInterceptor -->
<g id="node13" class="node">
<title>RequestInterceptor</title>
<ellipse fill="#fdb462" stroke="black" cx="293" cy="-237" rx="84.51" ry="18"/>
<text text-anchor="middle" x="293" y="-232.8" font-family="Times,serif" font-size="14.00">RequestInterceptor</text>
</g>
<!-- RequestInterceptor&#45;&gt;ContainerModule -->
<g id="edge12" class="edge">
<title>RequestInterceptor&#45;&gt;ContainerModule</title>
<path fill="none" stroke="black" d="M293,-255.04C293,-268.29 293,-284 293,-284 293,-284 664.4,-284 664.4,-284 664.4,-284 664.4,-285.08 664.4,-285.08"/>
<polygon fill="black" stroke="black" points="660.9,-284.8 664.4,-294.8 667.9,-284.8 660.9,-284.8"/>
</g>
<!-- ResponseInterceptor -->
<g id="node14" class="node">
<title>ResponseInterceptor</title>
<ellipse fill="#fdb462" stroke="black" cx="999" cy="-237" rx="90.31" ry="18"/>
<text text-anchor="middle" x="999" y="-232.8" font-family="Times,serif" font-size="14.00">ResponseInterceptor</text>
</g>
<!-- ResponseInterceptor&#45;&gt;ContainerModule -->
<g id="edge13" class="edge">
<title>ResponseInterceptor&#45;&gt;ContainerModule</title>
<path fill="none" stroke="black" d="M916.94,-244.59C916.94,-251.62 916.94,-261 916.94,-261 916.94,-261 740.39,-261 740.39,-261 740.39,-261 740.39,-284.81 740.39,-284.81"/>
<polygon fill="black" stroke="black" points="736.89,-284.81 740.39,-294.81 743.89,-284.81 736.89,-284.81"/>
</g>
<!-- FavoritesModule&#45;&gt;FavoritesComponent  -->
<g id="edge16" class="edge">
<title>FavoritesModule&#45;&gt;FavoritesComponent </title>
<path fill="none" stroke="black" stroke-dasharray="5,2" d="M1057.9,-169C1088.41,-169 1120.02,-169 1120.02,-169 1120.02,-169 1120.02,-208.78 1120.02,-208.78"/>
<polygon fill="black" stroke="black" points="1116.52,-208.78 1120.02,-218.78 1123.52,-208.78 1116.52,-208.78"/>
</g>
<!-- FavoritesRoutingModule -->
<g id="node16" class="node">
<title>FavoritesRoutingModule</title>
<polygon fill="#8dd3c7" stroke="black" points="1050.27,-122 1047.27,-126 1026.27,-126 1023.27,-122 893.73,-122 893.73,-86 1050.27,-86 1050.27,-122"/>
<text text-anchor="middle" x="972" y="-99.8" font-family="Times,serif" font-size="14.00">FavoritesRoutingModule</text>
</g>
<!-- FavoritesRoutingModule&#45;&gt;FavoritesModule -->
<g id="edge15" class="edge">
<title>FavoritesRoutingModule&#45;&gt;FavoritesModule</title>
<path fill="none" stroke="black" d="M998.28,-122.11C998.28,-122.11 998.28,-140.99 998.28,-140.99"/>
<polygon fill="black" stroke="black" points="994.78,-140.99 998.28,-150.99 1001.78,-140.99 994.78,-140.99"/>
</g>
<!-- ForecastModule&#45;&gt;FavoritesComponent  -->
<g id="edge19" class="edge">
<title>ForecastModule&#45;&gt;FavoritesComponent </title>
<path fill="none" stroke="black" stroke-dasharray="5,2" d="M1181,-187.22C1181,-187.22 1181,-208.73 1181,-208.73"/>
<polygon fill="black" stroke="black" points="1177.5,-208.73 1181,-218.73 1184.5,-208.73 1177.5,-208.73"/>
</g>
<!-- ForecastRoutingModule -->
<g id="node18" class="node">
<title>ForecastRoutingModule</title>
<polygon fill="#8dd3c7" stroke="black" points="1242.09,-122 1239.09,-126 1218.09,-126 1215.09,-122 1089.91,-122 1089.91,-86 1242.09,-86 1242.09,-122"/>
<text text-anchor="middle" x="1166" y="-99.8" font-family="Times,serif" font-size="14.00">ForecastRoutingModule</text>
</g>
<!-- ForecastRoutingModule&#45;&gt;ForecastModule -->
<g id="edge18" class="edge">
<title>ForecastRoutingModule&#45;&gt;ForecastModule</title>
<path fill="none" stroke="black" d="M1181,-122.11C1181,-122.11 1181,-140.99 1181,-140.99"/>
<polygon fill="black" stroke="black" points="1177.5,-140.99 1181,-150.99 1184.5,-140.99 1177.5,-140.99"/>
</g>
<!-- HeaderModule&#45;&gt;FavoritesComponent  -->
<g id="edge22" class="edge">
<title>HeaderModule&#45;&gt;FavoritesComponent </title>
<path fill="none" stroke="black" stroke-dasharray="5,2" d="M1290.02,-163C1266.92,-163 1244.52,-163 1244.52,-163 1244.52,-163 1244.52,-208.71 1244.52,-208.71"/>
<polygon fill="black" stroke="black" points="1241.02,-208.71 1244.52,-218.71 1248.02,-208.71 1241.02,-208.71"/>
</g>
<!-- HeaderRoutingModule -->
<g id="node20" class="node">
<title>HeaderRoutingModule</title>
<polygon fill="#8dd3c7" stroke="black" points="1427.58,-122 1424.58,-126 1403.58,-126 1400.58,-122 1282.42,-122 1282.42,-86 1427.58,-86 1427.58,-122"/>
<text text-anchor="middle" x="1355" y="-99.8" font-family="Times,serif" font-size="14.00">HeaderRoutingModule</text>
</g>
<!-- HeaderRoutingModule&#45;&gt;HeaderModule -->
<g id="edge21" class="edge">
<title>HeaderRoutingModule&#45;&gt;HeaderModule</title>
<path fill="none" stroke="black" d="M1340,-122.11C1340,-122.11 1340,-140.99 1340,-140.99"/>
<polygon fill="black" stroke="black" points="1336.5,-140.99 1340,-150.99 1343.5,-140.99 1336.5,-140.99"/>
</g>
<!-- SearchModule&#45;&gt;FavoritesComponent  -->
<g id="edge25" class="edge">
<title>SearchModule&#45;&gt;FavoritesComponent </title>
<path fill="none" stroke="black" stroke-dasharray="5,2" d="M1509,-187.13C1509,-197.71 1509,-209 1509,-209 1509,-209 1246.99,-209 1246.99,-209 1246.99,-209 1246.99,-209.98 1246.99,-209.98"/>
<polygon fill="black" stroke="black" points="1243.49,-208.79 1246.99,-218.79 1250.49,-208.79 1243.49,-208.79"/>
</g>
<!-- SearchRoutingModule -->
<g id="node22" class="node">
<title>SearchRoutingModule</title>
<polygon fill="#8dd3c7" stroke="black" points="1610.25,-122 1607.25,-126 1586.25,-126 1583.25,-122 1467.75,-122 1467.75,-86 1610.25,-86 1610.25,-122"/>
<text text-anchor="middle" x="1539" y="-99.8" font-family="Times,serif" font-size="14.00">SearchRoutingModule</text>
</g>
<!-- SearchRoutingModule&#45;&gt;SearchModule -->
<g id="edge24" class="edge">
<title>SearchRoutingModule&#45;&gt;SearchModule</title>
<path fill="none" stroke="black" d="M1512.72,-122.11C1512.72,-122.11 1512.72,-140.99 1512.72,-140.99"/>
<polygon fill="black" stroke="black" points="1509.22,-140.99 1512.72,-150.99 1516.22,-140.99 1509.22,-140.99"/>
</g>
<!-- SidenavModule&#45;&gt;FavoritesComponent  -->
<g id="edge27" class="edge">
<title>SidenavModule&#45;&gt;FavoritesComponent </title>
<path fill="none" stroke="black" stroke-dasharray="5,2" d="M1188,-294.99C1188,-294.99 1188,-265.15 1188,-265.15"/>
<polygon fill="black" stroke="black" points="1191.5,-265.15 1188,-255.15 1184.5,-265.15 1191.5,-265.15"/>
</g>
<!-- WeatherModule&#45;&gt;FavoritesComponent  -->
<g id="edge29" class="edge">
<title>WeatherModule&#45;&gt;FavoritesComponent </title>
<path fill="none" stroke="black" stroke-dasharray="5,2" d="M1278.32,-319C1260.4,-319 1244.9,-319 1244.9,-319 1244.9,-319 1244.9,-265.2 1244.9,-265.2"/>
<polygon fill="black" stroke="black" points="1248.4,-265.2 1244.9,-255.2 1241.4,-265.2 1248.4,-265.2"/>
</g>
</g>
</svg>
