<?xml version="1.0" encoding="UTF-8" standalone="no"?>
<!DOCTYPE svg PUBLIC "-//W3C//DTD SVG 1.1//EN"
 "http://www.w3.org/Graphics/SVG/1.1/DTD/svg11.dtd">
<!-- Generated by graphviz version 2.44.1 (20200629.0846)
 -->
<!-- Title: dependencies Pages: 1 -->
<svg width="504pt" height="284pt"
 viewBox="0.00 0.00 504.00 284.00" xmlns="http://www.w3.org/2000/svg" xmlns:xlink="http://www.w3.org/1999/xlink">
<g id="graph0" class="graph" transform="scale(1 1) rotate(0) translate(4 280)">
<title>dependencies</title>
<polygon fill="white" stroke="transparent" points="-4,4 -4,-280 500,-280 500,4 -4,4"/>
<text text-anchor="start" x="227.01" y="-42.4" font-family="sans-serif" font-weight="bold" font-size="14.00">Legend</text>
<polygon fill="#ffffb3" stroke="transparent" points="14,-10 14,-30 34,-30 34,-10 14,-10"/>
<text text-anchor="start" x="37.63" y="-15.4" font-family="sans-serif" font-size="14.00"> &#160;Declarations</text>
<polygon fill="#8dd3c7" stroke="transparent" points="127,-10 127,-30 147,-30 147,-10 127,-10"/>
<text text-anchor="start" x="150.73" y="-15.4" font-family="sans-serif" font-size="14.00"> &#160;Module</text>
<polygon fill="#80b1d3" stroke="transparent" points="213,-10 213,-30 233,-30 233,-10 213,-10"/>
<text text-anchor="start" x="236.78" y="-15.4" font-family="sans-serif" font-size="14.00"> &#160;Bootstrap</text>
<polygon fill="#fdb462" stroke="transparent" points="310,-10 310,-30 330,-30 330,-10 310,-10"/>
<text text-anchor="start" x="333.67" y="-15.4" font-family="sans-serif" font-size="14.00"> &#160;Providers</text>
<polygon fill="#fb8072" stroke="transparent" points="406,-10 406,-30 426,-30 426,-10 406,-10"/>
<text text-anchor="start" x="429.73" y="-15.4" font-family="sans-serif" font-size="14.00"> &#160;Exports</text>
<g id="clust1" class="cluster">
<title>cluster_ForecastModule</title>
<polygon fill="none" stroke="black" stroke-dasharray="1,5" points="80,-70 80,-268 416,-268 416,-70 80,-70"/>
</g>
<g id="clust2" class="cluster">
<title>cluster_ForecastModule_declarations</title>
<polygon fill="none" stroke="black" points="264,-78 264,-130 408,-130 408,-78 264,-78"/>
</g>
<g id="clust5" class="cluster">
<title>cluster_ForecastModule_exports</title>
<polygon fill="none" stroke="black" points="179,-208 179,-260 327,-260 327,-208 179,-208"/>
</g>
<g id="clust4" class="cluster">
<title>cluster_ForecastModule_imports</title>
<polygon fill="none" stroke="black" points="88,-78 88,-130 256,-130 256,-78 88,-78"/>
</g>
<!-- ForecastComponent -->
<g id="node1" class="node">
<title>ForecastComponent</title>
<polygon fill="#ffffb3" stroke="black" points="400.25,-122 271.75,-122 271.75,-86 400.25,-86 400.25,-122"/>
<text text-anchor="middle" x="336" y="-99.8" font-family="Times,serif" font-size="14.00">ForecastComponent</text>
</g>
<!-- ForecastModule -->
<g id="node2" class="node">
<title>ForecastModule</title>
<polygon fill="#8dd3c7" stroke="black" points="306.47,-187 303.47,-191 282.47,-191 279.47,-187 199.53,-187 199.53,-151 306.47,-151 306.47,-187"/>
<text text-anchor="middle" x="253" y="-164.8" font-family="Times,serif" font-size="14.00">ForecastModule</text>
</g>
<!-- ForecastComponent&#45;&gt;ForecastModule -->
<g id="edge1" class="edge">
<title>ForecastComponent&#45;&gt;ForecastModule</title>
<path fill="none" stroke="black" d="M289.05,-122.11C289.05,-122.11 289.05,-140.99 289.05,-140.99"/>
<polygon fill="black" stroke="black" points="285.55,-140.99 289.05,-150.99 292.55,-140.99 285.55,-140.99"/>
</g>
<!-- ForecastComponent  -->
<g id="node4" class="node">
<title>ForecastComponent </title>
<polygon fill="#fb8072" stroke="black" points="319.25,-252 186.75,-252 186.75,-216 319.25,-216 319.25,-252"/>
<text text-anchor="middle" x="253" y="-229.8" font-family="Times,serif" font-size="14.00">ForecastComponent </text>
</g>
<!-- ForecastModule&#45;&gt;ForecastComponent  -->
<g id="edge3" class="edge">
<title>ForecastModule&#45;&gt;ForecastComponent </title>
<path fill="none" stroke="black" stroke-dasharray="5,2" d="M253,-187.11C253,-187.11 253,-205.99 253,-205.99"/>
<polygon fill="black" stroke="black" points="249.5,-205.99 253,-215.99 256.5,-205.99 249.5,-205.99"/>
</g>
<!-- ForecastRoutingModule -->
<g id="node3" class="node">
<title>ForecastRoutingModule</title>
<polygon fill="#8dd3c7" stroke="black" points="248.09,-122 245.09,-126 224.09,-126 221.09,-122 95.91,-122 95.91,-86 248.09,-86 248.09,-122"/>
<text text-anchor="middle" x="172" y="-99.8" font-family="Times,serif" font-size="14.00">ForecastRoutingModule</text>
</g>
<!-- ForecastRoutingModule&#45;&gt;ForecastModule -->
<g id="edge2" class="edge">
<title>ForecastRoutingModule&#45;&gt;ForecastModule</title>
<path fill="none" stroke="black" d="M223.78,-122.11C223.78,-122.11 223.78,-140.99 223.78,-140.99"/>
<polygon fill="black" stroke="black" points="220.28,-140.99 223.78,-150.99 227.28,-140.99 220.28,-140.99"/>
</g>
</g>
</svg>
