<?xml version="1.0" encoding="UTF-8" standalone="no"?>
<!DOCTYPE svg PUBLIC "-//W3C//DTD SVG 1.1//EN"
 "http://www.w3.org/Graphics/SVG/1.1/DTD/svg11.dtd">
<!-- Generated by graphviz version 2.44.1 (20200629.0846)
 -->
<!-- Title: dependencies Pages: 1 -->
<svg width="504pt" height="284pt"
 viewBox="0.00 0.00 504.00 284.00" xmlns="http://www.w3.org/2000/svg" xmlns:xlink="http://www.w3.org/1999/xlink">
<g id="graph0" class="graph" transform="scale(1 1) rotate(0) translate(4 280)">
<title>dependencies</title>
<polygon fill="white" stroke="transparent" points="-4,4 -4,-280 500,-280 500,4 -4,4"/>
<text text-anchor="start" x="227.01" y="-42.4" font-family="sans-serif" font-weight="bold" font-size="14.00">Legend</text>
<polygon fill="#ffffb3" stroke="transparent" points="14,-10 14,-30 34,-30 34,-10 14,-10"/>
<text text-anchor="start" x="37.63" y="-15.4" font-family="sans-serif" font-size="14.00"> &#160;Declarations</text>
<polygon fill="#8dd3c7" stroke="transparent" points="127,-10 127,-30 147,-30 147,-10 127,-10"/>
<text text-anchor="start" x="150.73" y="-15.4" font-family="sans-serif" font-size="14.00"> &#160;Module</text>
<polygon fill="#80b1d3" stroke="transparent" points="213,-10 213,-30 233,-30 233,-10 213,-10"/>
<text text-anchor="start" x="236.78" y="-15.4" font-family="sans-serif" font-size="14.00"> &#160;Bootstrap</text>
<polygon fill="#fdb462" stroke="transparent" points="310,-10 310,-30 330,-30 330,-10 310,-10"/>
<text text-anchor="start" x="333.67" y="-15.4" font-family="sans-serif" font-size="14.00"> &#160;Providers</text>
<polygon fill="#fb8072" stroke="transparent" points="406,-10 406,-30 426,-30 426,-10 406,-10"/>
<text text-anchor="start" x="429.73" y="-15.4" font-family="sans-serif" font-size="14.00"> &#160;Exports</text>
<g id="clust1" class="cluster">
<title>cluster_ForecastModule</title>
<polygon fill="none" stroke="black" stroke-dasharray="1,5" points="77,-70 77,-268 419,-268 419,-70 77,-70"/>
</g>
<g id="clust4" class="cluster">
<title>cluster_ForecastModule_imports</title>
<polygon fill="none" stroke="black" points="243,-78 243,-130 411,-130 411,-78 243,-78"/>
</g>
<g id="clust2" class="cluster">
<title>cluster_ForecastModule_declarations</title>
<polygon fill="none" stroke="black" points="85,-78 85,-130 235,-130 235,-78 85,-78"/>
</g>
<g id="clust5" class="cluster">
<title>cluster_ForecastModule_exports</title>
<polygon fill="none" stroke="black" points="168,-208 168,-260 320,-260 320,-208 168,-208"/>
</g>
<!-- FavoritesComponent -->
<g id="node1" class="node">
<title>FavoritesComponent</title>
<polygon fill="#ffffb3" stroke="black" points="226.93,-122 93.07,-122 93.07,-86 226.93,-86 226.93,-122"/>
<text text-anchor="middle" x="160" y="-99.8" font-family="Times,serif" font-size="14.00">FavoritesComponent</text>
</g>
<!-- ForecastModule -->
<g id="node2" class="node">
<title>ForecastModule</title>
<polygon fill="#8dd3c7" stroke="black" points="297.47,-187 294.47,-191 273.47,-191 270.47,-187 190.53,-187 190.53,-151 297.47,-151 297.47,-187"/>
<text text-anchor="middle" x="244" y="-164.8" font-family="Times,serif" font-size="14.00">ForecastModule</text>
</g>
<!-- FavoritesComponent&#45;&gt;ForecastModule -->
<g id="edge1" class="edge">
<title>FavoritesComponent&#45;&gt;ForecastModule</title>
<path fill="none" stroke="black" d="M208.61,-122.11C208.61,-122.11 208.61,-140.99 208.61,-140.99"/>
<polygon fill="black" stroke="black" points="205.11,-140.99 208.61,-150.99 212.11,-140.99 205.11,-140.99"/>
</g>
<!-- FavoritesComponent  -->
<g id="node4" class="node">
<title>FavoritesComponent </title>
<polygon fill="#fb8072" stroke="black" points="312.43,-252 175.57,-252 175.57,-216 312.43,-216 312.43,-252"/>
<text text-anchor="middle" x="244" y="-229.8" font-family="Times,serif" font-size="14.00">FavoritesComponent </text>
</g>
<!-- ForecastModule&#45;&gt;FavoritesComponent  -->
<g id="edge3" class="edge">
<title>ForecastModule&#45;&gt;FavoritesComponent </title>
<path fill="none" stroke="black" stroke-dasharray="5,2" d="M244,-187.11C244,-187.11 244,-205.99 244,-205.99"/>
<polygon fill="black" stroke="black" points="240.5,-205.99 244,-215.99 247.5,-205.99 240.5,-205.99"/>
</g>
<!-- ForecastRoutingModule -->
<g id="node3" class="node">
<title>ForecastRoutingModule</title>
<polygon fill="#8dd3c7" stroke="black" points="403.09,-122 400.09,-126 379.09,-126 376.09,-122 250.91,-122 250.91,-86 403.09,-86 403.09,-122"/>
<text text-anchor="middle" x="327" y="-99.8" font-family="Times,serif" font-size="14.00">ForecastRoutingModule</text>
</g>
<!-- ForecastRoutingModule&#45;&gt;ForecastModule -->
<g id="edge2" class="edge">
<title>ForecastRoutingModule&#45;&gt;ForecastModule</title>
<path fill="none" stroke="black" d="M274.22,-122.11C274.22,-122.11 274.22,-140.99 274.22,-140.99"/>
<polygon fill="black" stroke="black" points="270.72,-140.99 274.22,-150.99 277.72,-140.99 270.72,-140.99"/>
</g>
</g>
</svg>
