<?xml version="1.0" encoding="UTF-8" standalone="no"?>
<!DOCTYPE svg PUBLIC "-//W3C//DTD SVG 1.1//EN"
 "http://www.w3.org/Graphics/SVG/1.1/DTD/svg11.dtd">
<!-- Generated by graphviz version 2.44.1 (20200629.0846)
 -->
<!-- Title: dependencies Pages: 1 -->
<svg width="608pt" height="284pt"
 viewBox="0.00 0.00 608.00 284.00" xmlns="http://www.w3.org/2000/svg" xmlns:xlink="http://www.w3.org/1999/xlink">
<g id="graph0" class="graph" transform="scale(1 1) rotate(0) translate(4 280)">
<title>dependencies</title>
<polygon fill="white" stroke="transparent" points="-4,4 -4,-280 604,-280 604,4 -4,4"/>
<text text-anchor="start" x="279.01" y="-42.4" font-family="sans-serif" font-weight="bold" font-size="14.00">Legend</text>
<polygon fill="#ffffb3" stroke="transparent" points="66,-10 66,-30 86,-30 86,-10 66,-10"/>
<text text-anchor="start" x="89.63" y="-15.4" font-family="sans-serif" font-size="14.00"> &#160;Declarations</text>
<polygon fill="#8dd3c7" stroke="transparent" points="179,-10 179,-30 199,-30 199,-10 179,-10"/>
<text text-anchor="start" x="202.73" y="-15.4" font-family="sans-serif" font-size="14.00"> &#160;Module</text>
<polygon fill="#80b1d3" stroke="transparent" points="265,-10 265,-30 285,-30 285,-10 265,-10"/>
<text text-anchor="start" x="288.78" y="-15.4" font-family="sans-serif" font-size="14.00"> &#160;Bootstrap</text>
<polygon fill="#fdb462" stroke="transparent" points="362,-10 362,-30 382,-30 382,-10 362,-10"/>
<text text-anchor="start" x="385.67" y="-15.4" font-family="sans-serif" font-size="14.00"> &#160;Providers</text>
<polygon fill="#fb8072" stroke="transparent" points="458,-10 458,-30 478,-30 478,-10 458,-10"/>
<text text-anchor="start" x="481.73" y="-15.4" font-family="sans-serif" font-size="14.00"> &#160;Exports</text>
<g id="clust1" class="cluster">
<title>cluster_ForecastModule</title>
<polygon fill="none" stroke="black" stroke-dasharray="1,5" points="8,-70 8,-268 592,-268 592,-70 8,-70"/>
</g>
<g id="clust5" class="cluster">
<title>cluster_ForecastModule_exports</title>
<polygon fill="none" stroke="black" points="85,-208 85,-260 489,-260 489,-208 85,-208"/>
</g>
<g id="clust2" class="cluster">
<title>cluster_ForecastModule_declarations</title>
<polygon fill="none" stroke="black" points="432,-78 432,-130 584,-130 584,-78 432,-78"/>
</g>
<g id="clust4" class="cluster">
<title>cluster_ForecastModule_imports</title>
<polygon fill="none" stroke="black" points="16,-78 16,-130 424,-130 424,-78 16,-78"/>
</g>
<!-- ContainerComponent -->
<g id="node1" class="node">
<title>ContainerComponent</title>
<polygon fill="#ffffb3" stroke="black" points="576.04,-122 439.96,-122 439.96,-86 576.04,-86 576.04,-122"/>
<text text-anchor="middle" x="508" y="-99.8" font-family="Times,serif" font-size="14.00">ContainerComponent</text>
</g>
<!-- ForecastModule -->
<g id="node2" class="node">
<title>ForecastModule</title>
<polygon fill="#8dd3c7" stroke="black" points="324.47,-187 321.47,-191 300.47,-191 297.47,-187 217.53,-187 217.53,-151 324.47,-151 324.47,-187"/>
<text text-anchor="middle" x="271" y="-164.8" font-family="Times,serif" font-size="14.00">ForecastModule</text>
</g>
<!-- ContainerComponent&#45;&gt;ForecastModule -->
<g id="edge1" class="edge">
<title>ContainerComponent&#45;&gt;ForecastModule</title>
<path fill="none" stroke="black" d="M460.38,-122.02C460.38,-139.37 460.38,-163 460.38,-163 460.38,-163 334.51,-163 334.51,-163"/>
<polygon fill="black" stroke="black" points="334.51,-159.5 324.51,-163 334.51,-166.5 334.51,-159.5"/>
</g>
<!-- ContainerComponent  -->
<g id="node6" class="node">
<title>ContainerComponent </title>
<polygon fill="#fb8072" stroke="black" points="481.04,-252 340.96,-252 340.96,-216 481.04,-216 481.04,-252"/>
<text text-anchor="middle" x="411" y="-229.8" font-family="Times,serif" font-size="14.00">ContainerComponent </text>
</g>
<!-- ForecastModule&#45;&gt;ContainerComponent  -->
<g id="edge5" class="edge">
<title>ForecastModule&#45;&gt;ContainerComponent </title>
<path fill="none" stroke="black" stroke-dasharray="5,2" d="M324.76,-175C351.63,-175 378.51,-175 378.51,-175 378.51,-175 378.51,-205.98 378.51,-205.98"/>
<polygon fill="black" stroke="black" points="375.01,-205.98 378.51,-215.98 382.01,-205.98 375.01,-205.98"/>
</g>
<!-- HeaderModule  -->
<g id="node7" class="node">
<title>HeaderModule </title>
<polygon fill="#fb8072" stroke="black" points="322.96,-252 219.04,-252 219.04,-216 322.96,-216 322.96,-252"/>
<text text-anchor="middle" x="271" y="-229.8" font-family="Times,serif" font-size="14.00">HeaderModule </text>
</g>
<!-- ForecastModule&#45;&gt;HeaderModule  -->
<g id="edge6" class="edge">
<title>ForecastModule&#45;&gt;HeaderModule </title>
<path fill="none" stroke="black" stroke-dasharray="5,2" d="M271,-187.11C271,-187.11 271,-205.99 271,-205.99"/>
<polygon fill="black" stroke="black" points="267.5,-205.99 271,-215.99 274.5,-205.99 267.5,-205.99"/>
</g>
<!-- SidenavModule  -->
<g id="node8" class="node">
<title>SidenavModule </title>
<polygon fill="#fb8072" stroke="black" points="201.15,-252 92.85,-252 92.85,-216 201.15,-216 201.15,-252"/>
<text text-anchor="middle" x="147" y="-229.8" font-family="Times,serif" font-size="14.00">SidenavModule </text>
</g>
<!-- ForecastModule&#45;&gt;SidenavModule  -->
<g id="edge7" class="edge">
<title>ForecastModule&#45;&gt;SidenavModule </title>
<path fill="none" stroke="black" stroke-dasharray="5,2" d="M217.43,-175C194.78,-175 173.55,-175 173.55,-175 173.55,-175 173.55,-205.98 173.55,-205.98"/>
<polygon fill="black" stroke="black" points="170.05,-205.98 173.55,-215.98 177.05,-205.98 170.05,-205.98"/>
</g>
<!-- ForecastRoutingModule -->
<g id="node3" class="node">
<title>ForecastRoutingModule</title>
<polygon fill="#8dd3c7" stroke="black" points="416.09,-122 413.09,-126 392.09,-126 389.09,-122 263.91,-122 263.91,-86 416.09,-86 416.09,-122"/>
<text text-anchor="middle" x="340" y="-99.8" font-family="Times,serif" font-size="14.00">ForecastRoutingModule</text>
</g>
<!-- ForecastRoutingModule&#45;&gt;ForecastModule -->
<g id="edge2" class="edge">
<title>ForecastRoutingModule&#45;&gt;ForecastModule</title>
<path fill="none" stroke="black" d="M294.22,-122.11C294.22,-122.11 294.22,-140.99 294.22,-140.99"/>
<polygon fill="black" stroke="black" points="290.72,-140.99 294.22,-150.99 297.72,-140.99 290.72,-140.99"/>
</g>
<!-- HeaderModule -->
<g id="node4" class="node">
<title>HeaderModule</title>
<polygon fill="#8dd3c7" stroke="black" points="245.96,-122 242.96,-126 221.96,-126 218.96,-122 146.04,-122 146.04,-86 245.96,-86 245.96,-122"/>
<text text-anchor="middle" x="196" y="-99.8" font-family="Times,serif" font-size="14.00">HeaderModule</text>
</g>
<!-- HeaderModule&#45;&gt;ForecastModule -->
<g id="edge3" class="edge">
<title>HeaderModule&#45;&gt;ForecastModule</title>
<path fill="none" stroke="black" d="M231.75,-122.11C231.75,-122.11 231.75,-140.99 231.75,-140.99"/>
<polygon fill="black" stroke="black" points="228.25,-140.99 231.75,-150.99 235.25,-140.99 228.25,-140.99"/>
</g>
<!-- SidenavModule -->
<g id="node5" class="node">
<title>SidenavModule</title>
<polygon fill="#8dd3c7" stroke="black" points="128.15,-122 125.15,-126 104.15,-126 101.15,-122 23.85,-122 23.85,-86 128.15,-86 128.15,-122"/>
<text text-anchor="middle" x="76" y="-99.8" font-family="Times,serif" font-size="14.00">SidenavModule</text>
</g>
<!-- SidenavModule&#45;&gt;ForecastModule -->
<g id="edge4" class="edge">
<title>SidenavModule&#45;&gt;ForecastModule</title>
<path fill="none" stroke="black" d="M110.62,-122.02C110.62,-139.37 110.62,-163 110.62,-163 110.62,-163 207.15,-163 207.15,-163"/>
<polygon fill="black" stroke="black" points="207.15,-166.5 217.15,-163 207.15,-159.5 207.15,-166.5"/>
</g>
</g>
</svg>
