<?xml version="1.0" encoding="UTF-8" standalone="no"?>
<!DOCTYPE svg PUBLIC "-//W3C//DTD SVG 1.1//EN"
 "http://www.w3.org/Graphics/SVG/1.1/DTD/svg11.dtd">
<!-- Generated by graphviz version 2.44.1 (20200629.0846)
 -->
<!-- Title: dependencies Pages: 1 -->
<svg width="608pt" height="284pt"
 viewBox="0.00 0.00 608.00 284.00" xmlns="http://www.w3.org/2000/svg" xmlns:xlink="http://www.w3.org/1999/xlink">
<g id="graph0" class="graph" transform="scale(1 1) rotate(0) translate(4 280)">
<title>dependencies</title>
<polygon fill="white" stroke="transparent" points="-4,4 -4,-280 604,-280 604,4 -4,4"/>
<text text-anchor="start" x="279.01" y="-42.4" font-family="sans-serif" font-weight="bold" font-size="14.00">Legend</text>
<polygon fill="#ffffb3" stroke="transparent" points="66,-10 66,-30 86,-30 86,-10 66,-10"/>
<text text-anchor="start" x="89.63" y="-15.4" font-family="sans-serif" font-size="14.00"> &#160;Declarations</text>
<polygon fill="#8dd3c7" stroke="transparent" points="179,-10 179,-30 199,-30 199,-10 179,-10"/>
<text text-anchor="start" x="202.73" y="-15.4" font-family="sans-serif" font-size="14.00"> &#160;Module</text>
<polygon fill="#80b1d3" stroke="transparent" points="265,-10 265,-30 285,-30 285,-10 265,-10"/>
<text text-anchor="start" x="288.78" y="-15.4" font-family="sans-serif" font-size="14.00"> &#160;Bootstrap</text>
<polygon fill="#fdb462" stroke="transparent" points="362,-10 362,-30 382,-30 382,-10 362,-10"/>
<text text-anchor="start" x="385.67" y="-15.4" font-family="sans-serif" font-size="14.00"> &#160;Providers</text>
<polygon fill="#fb8072" stroke="transparent" points="458,-10 458,-30 478,-30 478,-10 458,-10"/>
<text text-anchor="start" x="481.73" y="-15.4" font-family="sans-serif" font-size="14.00"> &#160;Exports</text>
<g id="clust1" class="cluster">
<title>cluster_ForecastModule</title>
<polygon fill="none" stroke="black" stroke-dasharray="1,5" points="8,-70 8,-268 592,-268 592,-70 8,-70"/>
</g>
<g id="clust4" class="cluster">
<title>cluster_ForecastModule_imports</title>
<polygon fill="none" stroke="black" points="176,-78 176,-130 584,-130 584,-78 176,-78"/>
</g>
<g id="clust2" class="cluster">
<title>cluster_ForecastModule_declarations</title>
<polygon fill="none" stroke="black" points="16,-78 16,-130 168,-130 168,-78 16,-78"/>
</g>
<g id="clust5" class="cluster">
<title>cluster_ForecastModule_exports</title>
<polygon fill="none" stroke="black" points="110,-208 110,-260 514,-260 514,-208 110,-208"/>
</g>
<!-- ContainerComponent -->
<g id="node1" class="node">
<title>ContainerComponent</title>
<polygon fill="#ffffb3" stroke="black" points="160.04,-122 23.96,-122 23.96,-86 160.04,-86 160.04,-122"/>
<text text-anchor="middle" x="92" y="-99.8" font-family="Times,serif" font-size="14.00">ContainerComponent</text>
</g>
<!-- ForecastModule -->
<g id="node2" class="node">
<title>ForecastModule</title>
<polygon fill="#8dd3c7" stroke="black" points="349.47,-187 346.47,-191 325.47,-191 322.47,-187 242.53,-187 242.53,-151 349.47,-151 349.47,-187"/>
<text text-anchor="middle" x="296" y="-164.8" font-family="Times,serif" font-size="14.00">ForecastModule</text>
</g>
<!-- ContainerComponent&#45;&gt;ForecastModule -->
<g id="edge1" class="edge">
<title>ContainerComponent&#45;&gt;ForecastModule</title>
<path fill="none" stroke="black" d="M139.1,-122.02C139.1,-139.37 139.1,-163 139.1,-163 139.1,-163 232.44,-163 232.44,-163"/>
<polygon fill="black" stroke="black" points="232.44,-166.5 242.44,-163 232.44,-159.5 232.44,-166.5"/>
</g>
<!-- ContainerComponent  -->
<g id="node6" class="node">
<title>ContainerComponent </title>
<polygon fill="#fb8072" stroke="black" points="506.04,-252 365.96,-252 365.96,-216 506.04,-216 506.04,-252"/>
<text text-anchor="middle" x="436" y="-229.8" font-family="Times,serif" font-size="14.00">ContainerComponent </text>
</g>
<!-- ForecastModule&#45;&gt;ContainerComponent  -->
<g id="edge5" class="edge">
<title>ForecastModule&#45;&gt;ContainerComponent </title>
<path fill="none" stroke="black" stroke-dasharray="5,2" d="M349.64,-175C368.91,-175 385.98,-175 385.98,-175 385.98,-175 385.98,-205.98 385.98,-205.98"/>
<polygon fill="black" stroke="black" points="382.48,-205.98 385.98,-215.98 389.48,-205.98 382.48,-205.98"/>
</g>
<!-- HeaderModule  -->
<g id="node7" class="node">
<title>HeaderModule </title>
<polygon fill="#fb8072" stroke="black" points="347.96,-252 244.04,-252 244.04,-216 347.96,-216 347.96,-252"/>
<text text-anchor="middle" x="296" y="-229.8" font-family="Times,serif" font-size="14.00">HeaderModule </text>
</g>
<!-- ForecastModule&#45;&gt;HeaderModule  -->
<g id="edge6" class="edge">
<title>ForecastModule&#45;&gt;HeaderModule </title>
<path fill="none" stroke="black" stroke-dasharray="5,2" d="M296,-187.11C296,-187.11 296,-205.99 296,-205.99"/>
<polygon fill="black" stroke="black" points="292.5,-205.99 296,-215.99 299.5,-205.99 292.5,-205.99"/>
</g>
<!-- SidenavModule  -->
<g id="node8" class="node">
<title>SidenavModule </title>
<polygon fill="#fb8072" stroke="black" points="226.15,-252 117.85,-252 117.85,-216 226.15,-216 226.15,-252"/>
<text text-anchor="middle" x="172" y="-229.8" font-family="Times,serif" font-size="14.00">SidenavModule </text>
</g>
<!-- ForecastModule&#45;&gt;SidenavModule  -->
<g id="edge7" class="edge">
<title>ForecastModule&#45;&gt;SidenavModule </title>
<path fill="none" stroke="black" stroke-dasharray="5,2" d="M242.47,-175C222.63,-175 204.88,-175 204.88,-175 204.88,-175 204.88,-205.98 204.88,-205.98"/>
<polygon fill="black" stroke="black" points="201.38,-205.98 204.88,-215.98 208.38,-205.98 201.38,-205.98"/>
</g>
<!-- ForecastRoutingModule -->
<g id="node3" class="node">
<title>ForecastRoutingModule</title>
<polygon fill="#8dd3c7" stroke="black" points="576.09,-122 573.09,-126 552.09,-126 549.09,-122 423.91,-122 423.91,-86 576.09,-86 576.09,-122"/>
<text text-anchor="middle" x="500" y="-99.8" font-family="Times,serif" font-size="14.00">ForecastRoutingModule</text>
</g>
<!-- ForecastRoutingModule&#45;&gt;ForecastModule -->
<g id="edge2" class="edge">
<title>ForecastRoutingModule&#45;&gt;ForecastModule</title>
<path fill="none" stroke="black" d="M464.99,-122.02C464.99,-139.37 464.99,-163 464.99,-163 464.99,-163 359.93,-163 359.93,-163"/>
<polygon fill="black" stroke="black" points="359.93,-159.5 349.93,-163 359.93,-166.5 359.93,-159.5"/>
</g>
<!-- HeaderModule -->
<g id="node4" class="node">
<title>HeaderModule</title>
<polygon fill="#8dd3c7" stroke="black" points="405.96,-122 402.96,-126 381.96,-126 378.96,-122 306.04,-122 306.04,-86 405.96,-86 405.96,-122"/>
<text text-anchor="middle" x="356" y="-99.8" font-family="Times,serif" font-size="14.00">HeaderModule</text>
</g>
<!-- HeaderModule&#45;&gt;ForecastModule -->
<g id="edge3" class="edge">
<title>HeaderModule&#45;&gt;ForecastModule</title>
<path fill="none" stroke="black" d="M327.75,-122.11C327.75,-122.11 327.75,-140.99 327.75,-140.99"/>
<polygon fill="black" stroke="black" points="324.25,-140.99 327.75,-150.99 331.25,-140.99 324.25,-140.99"/>
</g>
<!-- SidenavModule -->
<g id="node5" class="node">
<title>SidenavModule</title>
<polygon fill="#8dd3c7" stroke="black" points="288.15,-122 285.15,-126 264.15,-126 261.15,-122 183.85,-122 183.85,-86 288.15,-86 288.15,-122"/>
<text text-anchor="middle" x="236" y="-99.8" font-family="Times,serif" font-size="14.00">SidenavModule</text>
</g>
<!-- SidenavModule&#45;&gt;ForecastModule -->
<g id="edge4" class="edge">
<title>SidenavModule&#45;&gt;ForecastModule</title>
<path fill="none" stroke="black" d="M265.42,-122.11C265.42,-122.11 265.42,-140.99 265.42,-140.99"/>
<polygon fill="black" stroke="black" points="261.92,-140.99 265.42,-150.99 268.92,-140.99 261.92,-140.99"/>
</g>
</g>
</svg>
