<?xml version="1.0" encoding="UTF-8" standalone="no"?>
<!DOCTYPE svg PUBLIC "-//W3C//DTD SVG 1.1//EN"
 "http://www.w3.org/Graphics/SVG/1.1/DTD/svg11.dtd">
<!-- Generated by graphviz version 2.44.1 (20200629.0846)
 -->
<!-- Title: dependencies Pages: 1 -->
<svg width="844pt" height="284pt"
 viewBox="0.00 0.00 844.00 284.00" xmlns="http://www.w3.org/2000/svg" xmlns:xlink="http://www.w3.org/1999/xlink">
<g id="graph0" class="graph" transform="scale(1 1) rotate(0) translate(4 280)">
<title>dependencies</title>
<polygon fill="white" stroke="transparent" points="-4,4 -4,-280 840,-280 840,4 -4,4"/>
<text text-anchor="start" x="397.01" y="-42.4" font-family="sans-serif" font-weight="bold" font-size="14.00">Legend</text>
<polygon fill="#ffffb3" stroke="transparent" points="184,-10 184,-30 204,-30 204,-10 184,-10"/>
<text text-anchor="start" x="207.63" y="-15.4" font-family="sans-serif" font-size="14.00"> &#160;Declarations</text>
<polygon fill="#8dd3c7" stroke="transparent" points="297,-10 297,-30 317,-30 317,-10 297,-10"/>
<text text-anchor="start" x="320.73" y="-15.4" font-family="sans-serif" font-size="14.00"> &#160;Module</text>
<polygon fill="#80b1d3" stroke="transparent" points="383,-10 383,-30 403,-30 403,-10 383,-10"/>
<text text-anchor="start" x="406.78" y="-15.4" font-family="sans-serif" font-size="14.00"> &#160;Bootstrap</text>
<polygon fill="#fdb462" stroke="transparent" points="480,-10 480,-30 500,-30 500,-10 480,-10"/>
<text text-anchor="start" x="503.67" y="-15.4" font-family="sans-serif" font-size="14.00"> &#160;Providers</text>
<polygon fill="#fb8072" stroke="transparent" points="576,-10 576,-30 596,-30 596,-10 576,-10"/>
<text text-anchor="start" x="599.73" y="-15.4" font-family="sans-serif" font-size="14.00"> &#160;Exports</text>
<g id="clust1" class="cluster">
<title>cluster_WeatherModule</title>
<polygon fill="none" stroke="black" stroke-dasharray="1,5" points="8,-70 8,-268 828,-268 828,-70 8,-70"/>
</g>
<g id="clust5" class="cluster">
<title>cluster_WeatherModule_exports</title>
<polygon fill="none" stroke="black" points="117,-208 117,-260 763,-260 763,-208 117,-208"/>
</g>
<g id="clust2" class="cluster">
<title>cluster_WeatherModule_declarations</title>
<polygon fill="none" stroke="black" points="668,-78 668,-130 820,-130 820,-78 668,-78"/>
</g>
<g id="clust4" class="cluster">
<title>cluster_WeatherModule_imports</title>
<polygon fill="none" stroke="black" points="16,-78 16,-130 660,-130 660,-78 16,-78"/>
</g>
<!-- ContainerComponent -->
<g id="node1" class="node">
<title>ContainerComponent</title>
<polygon fill="#ffffb3" stroke="black" points="812.04,-122 675.96,-122 675.96,-86 812.04,-86 812.04,-122"/>
<text text-anchor="middle" x="744" y="-99.8" font-family="Times,serif" font-size="14.00">ContainerComponent</text>
</g>
<!-- WeatherModule -->
<g id="node2" class="node">
<title>WeatherModule</title>
<polygon fill="#8dd3c7" stroke="black" points="475.46,-187 472.46,-191 451.46,-191 448.46,-187 368.54,-187 368.54,-151 475.46,-151 475.46,-187"/>
<text text-anchor="middle" x="422" y="-164.8" font-family="Times,serif" font-size="14.00">WeatherModule</text>
</g>
<!-- ContainerComponent&#45;&gt;WeatherModule -->
<g id="edge1" class="edge">
<title>ContainerComponent&#45;&gt;WeatherModule</title>
<path fill="none" stroke="black" d="M715.38,-122.27C715.38,-140.56 715.38,-166 715.38,-166 715.38,-166 485.47,-166 485.47,-166"/>
<polygon fill="black" stroke="black" points="485.47,-162.5 475.47,-166 485.47,-169.5 485.47,-162.5"/>
</g>
<!-- ContainerComponent  -->
<g id="node8" class="node">
<title>ContainerComponent </title>
<polygon fill="#fb8072" stroke="black" points="755.04,-252 614.96,-252 614.96,-216 755.04,-216 755.04,-252"/>
<text text-anchor="middle" x="685" y="-229.8" font-family="Times,serif" font-size="14.00">ContainerComponent </text>
</g>
<!-- WeatherModule&#45;&gt;ContainerComponent  -->
<g id="edge7" class="edge">
<title>WeatherModule&#45;&gt;ContainerComponent </title>
<path fill="none" stroke="black" stroke-dasharray="5,2" d="M475.61,-173C538.23,-173 633.37,-173 633.37,-173 633.37,-173 633.37,-205.7 633.37,-205.7"/>
<polygon fill="black" stroke="black" points="629.87,-205.7 633.37,-215.7 636.87,-205.7 629.87,-205.7"/>
</g>
<!-- FeatureModule  -->
<g id="node9" class="node">
<title>FeatureModule </title>
<polygon fill="#fb8072" stroke="black" points="596.53,-252 491.47,-252 491.47,-216 596.53,-216 596.53,-252"/>
<text text-anchor="middle" x="544" y="-229.8" font-family="Times,serif" font-size="14.00">FeatureModule </text>
</g>
<!-- WeatherModule&#45;&gt;FeatureModule  -->
<g id="edge8" class="edge">
<title>WeatherModule&#45;&gt;FeatureModule </title>
<path fill="none" stroke="black" stroke-dasharray="5,2" d="M475.49,-180C494.71,-180 511.73,-180 511.73,-180 511.73,-180 511.73,-205.72 511.73,-205.72"/>
<polygon fill="black" stroke="black" points="508.23,-205.72 511.73,-215.72 515.23,-205.72 508.23,-205.72"/>
</g>
<!-- HeaderModule  -->
<g id="node10" class="node">
<title>HeaderModule </title>
<polygon fill="#fb8072" stroke="black" points="473.96,-252 370.04,-252 370.04,-216 473.96,-216 473.96,-252"/>
<text text-anchor="middle" x="422" y="-229.8" font-family="Times,serif" font-size="14.00">HeaderModule </text>
</g>
<!-- WeatherModule&#45;&gt;HeaderModule  -->
<g id="edge9" class="edge">
<title>WeatherModule&#45;&gt;HeaderModule </title>
<path fill="none" stroke="black" stroke-dasharray="5,2" d="M422,-187.11C422,-187.11 422,-205.99 422,-205.99"/>
<polygon fill="black" stroke="black" points="418.5,-205.99 422,-215.99 425.5,-205.99 418.5,-205.99"/>
</g>
<!-- SearchModule  -->
<g id="node11" class="node">
<title>SearchModule </title>
<polygon fill="#fb8072" stroke="black" points="352.64,-252 251.36,-252 251.36,-216 352.64,-216 352.64,-252"/>
<text text-anchor="middle" x="302" y="-229.8" font-family="Times,serif" font-size="14.00">SearchModule </text>
</g>
<!-- WeatherModule&#45;&gt;SearchModule  -->
<g id="edge10" class="edge">
<title>WeatherModule&#45;&gt;SearchModule </title>
<path fill="none" stroke="black" stroke-dasharray="5,2" d="M368.5,-180C350.26,-180 334.38,-180 334.38,-180 334.38,-180 334.38,-205.72 334.38,-205.72"/>
<polygon fill="black" stroke="black" points="330.88,-205.72 334.38,-215.72 337.88,-205.72 330.88,-205.72"/>
</g>
<!-- SidenavModule  -->
<g id="node12" class="node">
<title>SidenavModule </title>
<polygon fill="#fb8072" stroke="black" points="233.15,-252 124.85,-252 124.85,-216 233.15,-216 233.15,-252"/>
<text text-anchor="middle" x="179" y="-229.8" font-family="Times,serif" font-size="14.00">SidenavModule </text>
</g>
<!-- WeatherModule&#45;&gt;SidenavModule  -->
<g id="edge11" class="edge">
<title>WeatherModule&#45;&gt;SidenavModule </title>
<path fill="none" stroke="black" stroke-dasharray="5,2" d="M368.27,-173C306.46,-173 213.38,-173 213.38,-173 213.38,-173 213.38,-205.7 213.38,-205.7"/>
<polygon fill="black" stroke="black" points="209.88,-205.7 213.38,-215.7 216.88,-205.7 209.88,-205.7"/>
</g>
<!-- FeatureModule -->
<g id="node3" class="node">
<title>FeatureModule</title>
<polygon fill="#8dd3c7" stroke="black" points="651.53,-122 648.53,-126 627.53,-126 624.53,-122 550.47,-122 550.47,-86 651.53,-86 651.53,-122"/>
<text text-anchor="middle" x="601" y="-99.8" font-family="Times,serif" font-size="14.00">FeatureModule</text>
</g>
<!-- FeatureModule&#45;&gt;WeatherModule -->
<g id="edge2" class="edge">
<title>FeatureModule&#45;&gt;WeatherModule</title>
<path fill="none" stroke="black" d="M573.38,-122.01C573.38,-138.05 573.38,-159 573.38,-159 573.38,-159 485.8,-159 485.8,-159"/>
<polygon fill="black" stroke="black" points="485.8,-155.5 475.8,-159 485.8,-162.5 485.8,-155.5"/>
</g>
<!-- HeaderModule -->
<g id="node4" class="node">
<title>HeaderModule</title>
<polygon fill="#8dd3c7" stroke="black" points="531.96,-122 528.96,-126 507.96,-126 504.96,-122 432.04,-122 432.04,-86 531.96,-86 531.96,-122"/>
<text text-anchor="middle" x="482" y="-99.8" font-family="Times,serif" font-size="14.00">HeaderModule</text>
</g>
<!-- HeaderModule&#45;&gt;WeatherModule -->
<g id="edge3" class="edge">
<title>HeaderModule&#45;&gt;WeatherModule</title>
<path fill="none" stroke="black" d="M453.75,-122.11C453.75,-122.11 453.75,-140.99 453.75,-140.99"/>
<polygon fill="black" stroke="black" points="450.25,-140.99 453.75,-150.99 457.25,-140.99 450.25,-140.99"/>
</g>
<!-- SearchModule -->
<g id="node5" class="node">
<title>SearchModule</title>
<polygon fill="#8dd3c7" stroke="black" points="413.64,-122 410.64,-126 389.64,-126 386.64,-122 316.36,-122 316.36,-86 413.64,-86 413.64,-122"/>
<text text-anchor="middle" x="365" y="-99.8" font-family="Times,serif" font-size="14.00">SearchModule</text>
</g>
<!-- SearchModule&#45;&gt;WeatherModule -->
<g id="edge4" class="edge">
<title>SearchModule&#45;&gt;WeatherModule</title>
<path fill="none" stroke="black" d="M391.17,-122.11C391.17,-122.11 391.17,-140.99 391.17,-140.99"/>
<polygon fill="black" stroke="black" points="387.67,-140.99 391.17,-150.99 394.67,-140.99 387.67,-140.99"/>
</g>
<!-- SidenavModule -->
<g id="node6" class="node">
<title>SidenavModule</title>
<polygon fill="#8dd3c7" stroke="black" points="298.15,-122 295.15,-126 274.15,-126 271.15,-122 193.85,-122 193.85,-86 298.15,-86 298.15,-122"/>
<text text-anchor="middle" x="246" y="-99.8" font-family="Times,serif" font-size="14.00">SidenavModule</text>
</g>
<!-- SidenavModule&#45;&gt;WeatherModule -->
<g id="edge5" class="edge">
<title>SidenavModule&#45;&gt;WeatherModule</title>
<path fill="none" stroke="black" d="M274.88,-122.01C274.88,-138.05 274.88,-159 274.88,-159 274.88,-159 358.47,-159 358.47,-159"/>
<polygon fill="black" stroke="black" points="358.47,-162.5 368.47,-159 358.47,-155.5 358.47,-162.5"/>
</g>
<!-- WeatherRoutingModule -->
<g id="node7" class="node">
<title>WeatherRoutingModule</title>
<polygon fill="#8dd3c7" stroke="black" points="176.08,-122 173.08,-126 152.08,-126 149.08,-122 23.92,-122 23.92,-86 176.08,-86 176.08,-122"/>
<text text-anchor="middle" x="100" y="-99.8" font-family="Times,serif" font-size="14.00">WeatherRoutingModule</text>
</g>
<!-- WeatherRoutingModule&#45;&gt;WeatherModule -->
<g id="edge6" class="edge">
<title>WeatherRoutingModule&#45;&gt;WeatherModule</title>
<path fill="none" stroke="black" d="M150.48,-122.27C150.48,-140.56 150.48,-166 150.48,-166 150.48,-166 358.36,-166 358.36,-166"/>
<polygon fill="black" stroke="black" points="358.36,-169.5 368.36,-166 358.36,-162.5 358.36,-169.5"/>
</g>
</g>
</svg>
