<?xml version="1.0" encoding="UTF-8" standalone="no"?>
<!DOCTYPE svg PUBLIC "-//W3C//DTD SVG 1.1//EN"
 "http://www.w3.org/Graphics/SVG/1.1/DTD/svg11.dtd">
<!-- Generated by graphviz version 2.44.1 (20200629.0846)
 -->
<!-- Title: dependencies Pages: 1 -->
<svg width="504pt" height="284pt"
 viewBox="0.00 0.00 504.00 284.00" xmlns="http://www.w3.org/2000/svg" xmlns:xlink="http://www.w3.org/1999/xlink">
<g id="graph0" class="graph" transform="scale(1 1) rotate(0) translate(4 280)">
<title>dependencies</title>
<polygon fill="white" stroke="transparent" points="-4,4 -4,-280 500,-280 500,4 -4,4"/>
<text text-anchor="start" x="227.01" y="-42.4" font-family="sans-serif" font-weight="bold" font-size="14.00">Legend</text>
<polygon fill="#ffffb3" stroke="transparent" points="14,-10 14,-30 34,-30 34,-10 14,-10"/>
<text text-anchor="start" x="37.63" y="-15.4" font-family="sans-serif" font-size="14.00"> &#160;Declarations</text>
<polygon fill="#8dd3c7" stroke="transparent" points="127,-10 127,-30 147,-30 147,-10 127,-10"/>
<text text-anchor="start" x="150.73" y="-15.4" font-family="sans-serif" font-size="14.00"> &#160;Module</text>
<polygon fill="#80b1d3" stroke="transparent" points="213,-10 213,-30 233,-30 233,-10 213,-10"/>
<text text-anchor="start" x="236.78" y="-15.4" font-family="sans-serif" font-size="14.00"> &#160;Bootstrap</text>
<polygon fill="#fdb462" stroke="transparent" points="310,-10 310,-30 330,-30 330,-10 310,-10"/>
<text text-anchor="start" x="333.67" y="-15.4" font-family="sans-serif" font-size="14.00"> &#160;Providers</text>
<polygon fill="#fb8072" stroke="transparent" points="406,-10 406,-30 426,-30 426,-10 406,-10"/>
<text text-anchor="start" x="429.73" y="-15.4" font-family="sans-serif" font-size="14.00"> &#160;Exports</text>
<g id="clust1" class="cluster">
<title>cluster_WeatherModule</title>
<polygon fill="none" stroke="black" stroke-dasharray="1,5" points="17,-70 17,-268 479,-268 479,-70 17,-70"/>
</g>
<g id="clust2" class="cluster">
<title>cluster_WeatherModule_declarations</title>
<polygon fill="none" stroke="black" points="321,-78 321,-130 471,-130 471,-78 321,-78"/>
</g>
<g id="clust5" class="cluster">
<title>cluster_WeatherModule_exports</title>
<polygon fill="none" stroke="black" points="178,-208 178,-260 330,-260 330,-208 178,-208"/>
</g>
<g id="clust4" class="cluster">
<title>cluster_WeatherModule_imports</title>
<polygon fill="none" stroke="black" points="25,-78 25,-130 313,-130 313,-78 25,-78"/>
</g>
<!-- FavoritesComponent -->
<g id="node1" class="node">
<title>FavoritesComponent</title>
<polygon fill="#ffffb3" stroke="black" points="462.93,-122 329.07,-122 329.07,-86 462.93,-86 462.93,-122"/>
<text text-anchor="middle" x="396" y="-99.8" font-family="Times,serif" font-size="14.00">FavoritesComponent</text>
</g>
<!-- WeatherModule -->
<g id="node2" class="node">
<title>WeatherModule</title>
<polygon fill="#8dd3c7" stroke="black" points="307.46,-187 304.46,-191 283.46,-191 280.46,-187 200.54,-187 200.54,-151 307.46,-151 307.46,-187"/>
<text text-anchor="middle" x="254" y="-164.8" font-family="Times,serif" font-size="14.00">WeatherModule</text>
</g>
<!-- FavoritesComponent&#45;&gt;WeatherModule -->
<g id="edge1" class="edge">
<title>FavoritesComponent&#45;&gt;WeatherModule</title>
<path fill="none" stroke="black" d="M396,-122.11C396,-141.34 396,-169 396,-169 396,-169 317.68,-169 317.68,-169"/>
<polygon fill="black" stroke="black" points="317.68,-165.5 307.68,-169 317.68,-172.5 317.68,-165.5"/>
</g>
<!-- FavoritesComponent  -->
<g id="node5" class="node">
<title>FavoritesComponent </title>
<polygon fill="#fb8072" stroke="black" points="322.43,-252 185.57,-252 185.57,-216 322.43,-216 322.43,-252"/>
<text text-anchor="middle" x="254" y="-229.8" font-family="Times,serif" font-size="14.00">FavoritesComponent </text>
</g>
<!-- WeatherModule&#45;&gt;FavoritesComponent  -->
<g id="edge4" class="edge">
<title>WeatherModule&#45;&gt;FavoritesComponent </title>
<path fill="none" stroke="black" stroke-dasharray="5,2" d="M254,-187.11C254,-187.11 254,-205.99 254,-205.99"/>
<polygon fill="black" stroke="black" points="250.5,-205.99 254,-215.99 257.5,-205.99 250.5,-205.99"/>
</g>
<!-- FeatureModule -->
<g id="node3" class="node">
<title>FeatureModule</title>
<polygon fill="#8dd3c7" stroke="black" points="304.53,-122 301.53,-126 280.53,-126 277.53,-122 203.47,-122 203.47,-86 304.53,-86 304.53,-122"/>
<text text-anchor="middle" x="254" y="-99.8" font-family="Times,serif" font-size="14.00">FeatureModule</text>
</g>
<!-- FeatureModule&#45;&gt;WeatherModule -->
<g id="edge2" class="edge">
<title>FeatureModule&#45;&gt;WeatherModule</title>
<path fill="none" stroke="black" d="M254,-122.11C254,-122.11 254,-140.99 254,-140.99"/>
<polygon fill="black" stroke="black" points="250.5,-140.99 254,-150.99 257.5,-140.99 250.5,-140.99"/>
</g>
<!-- WeatherRoutingModule -->
<g id="node4" class="node">
<title>WeatherRoutingModule</title>
<polygon fill="#8dd3c7" stroke="black" points="185.08,-122 182.08,-126 161.08,-126 158.08,-122 32.92,-122 32.92,-86 185.08,-86 185.08,-122"/>
<text text-anchor="middle" x="109" y="-99.8" font-family="Times,serif" font-size="14.00">WeatherRoutingModule</text>
</g>
<!-- WeatherRoutingModule&#45;&gt;WeatherModule -->
<g id="edge3" class="edge">
<title>WeatherRoutingModule&#45;&gt;WeatherModule</title>
<path fill="none" stroke="black" d="M109,-122.11C109,-141.34 109,-169 109,-169 109,-169 190.42,-169 190.42,-169"/>
<polygon fill="black" stroke="black" points="190.42,-172.5 200.42,-169 190.42,-165.5 190.42,-172.5"/>
</g>
</g>
</svg>
