<?xml version="1.0" encoding="UTF-8" standalone="no"?>
<!DOCTYPE svg PUBLIC "-//W3C//DTD SVG 1.1//EN"
 "http://www.w3.org/Graphics/SVG/1.1/DTD/svg11.dtd">
<!-- Generated by graphviz version 2.44.1 (20200629.0846)
 -->
<!-- Title: dependencies Pages: 1 -->
<svg width="567pt" height="284pt"
 viewBox="0.00 0.00 567.00 284.00" xmlns="http://www.w3.org/2000/svg" xmlns:xlink="http://www.w3.org/1999/xlink">
<g id="graph0" class="graph" transform="scale(1 1) rotate(0) translate(4 280)">
<title>dependencies</title>
<polygon fill="white" stroke="transparent" points="-4,4 -4,-280 563,-280 563,4 -4,4"/>
<text text-anchor="start" x="258.51" y="-42.4" font-family="sans-serif" font-weight="bold" font-size="14.00">Legend</text>
<polygon fill="#ffffb3" stroke="transparent" points="45.5,-10 45.5,-30 65.5,-30 65.5,-10 45.5,-10"/>
<text text-anchor="start" x="69.13" y="-15.4" font-family="sans-serif" font-size="14.00"> &#160;Declarations</text>
<polygon fill="#8dd3c7" stroke="transparent" points="158.5,-10 158.5,-30 178.5,-30 178.5,-10 158.5,-10"/>
<text text-anchor="start" x="182.23" y="-15.4" font-family="sans-serif" font-size="14.00"> &#160;Module</text>
<polygon fill="#80b1d3" stroke="transparent" points="244.5,-10 244.5,-30 264.5,-30 264.5,-10 244.5,-10"/>
<text text-anchor="start" x="268.28" y="-15.4" font-family="sans-serif" font-size="14.00"> &#160;Bootstrap</text>
<polygon fill="#fdb462" stroke="transparent" points="341.5,-10 341.5,-30 361.5,-30 361.5,-10 341.5,-10"/>
<text text-anchor="start" x="365.17" y="-15.4" font-family="sans-serif" font-size="14.00"> &#160;Providers</text>
<polygon fill="#fb8072" stroke="transparent" points="437.5,-10 437.5,-30 457.5,-30 457.5,-10 437.5,-10"/>
<text text-anchor="start" x="461.23" y="-15.4" font-family="sans-serif" font-size="14.00"> &#160;Exports</text>
<g id="clust1" class="cluster">
<title>cluster_WeatherModule</title>
<polygon fill="none" stroke="black" stroke-dasharray="1,5" points="8,-70 8,-268 551,-268 551,-70 8,-70"/>
</g>
<g id="clust5" class="cluster">
<title>cluster_WeatherModule_exports</title>
<polygon fill="none" stroke="black" points="16,-208 16,-260 543,-260 543,-208 16,-208"/>
</g>
<g id="clust2" class="cluster">
<title>cluster_WeatherModule_declarations</title>
<polygon fill="none" stroke="black" points="388,-78 388,-130 540,-130 540,-78 388,-78"/>
</g>
<g id="clust4" class="cluster">
<title>cluster_WeatherModule_imports</title>
<polygon fill="none" stroke="black" points="22,-78 22,-130 380,-130 380,-78 22,-78"/>
</g>
<!-- ContainerComponent -->
<g id="node1" class="node">
<title>ContainerComponent</title>
<polygon fill="#ffffb3" stroke="black" points="532.04,-122 395.96,-122 395.96,-86 532.04,-86 532.04,-122"/>
<text text-anchor="middle" x="464" y="-99.8" font-family="Times,serif" font-size="14.00">ContainerComponent</text>
</g>
<!-- WeatherModule -->
<g id="node2" class="node">
<title>WeatherModule</title>
<polygon fill="#8dd3c7" stroke="black" points="258.46,-187 255.46,-191 234.46,-191 231.46,-187 151.54,-187 151.54,-151 258.46,-151 258.46,-187"/>
<text text-anchor="middle" x="205" y="-164.8" font-family="Times,serif" font-size="14.00">WeatherModule</text>
</g>
<!-- ContainerComponent&#45;&gt;WeatherModule -->
<g id="edge1" class="edge">
<title>ContainerComponent&#45;&gt;WeatherModule</title>
<path fill="none" stroke="black" d="M486.76,-122.27C486.76,-140.56 486.76,-166 486.76,-166 486.76,-166 268.66,-166 268.66,-166"/>
<polygon fill="black" stroke="black" points="268.66,-162.5 258.66,-166 268.66,-169.5 268.66,-162.5"/>
</g>
<!-- ContainerComponent  -->
<g id="node6" class="node">
<title>ContainerComponent </title>
<polygon fill="#fb8072" stroke="black" points="535.04,-252 394.96,-252 394.96,-216 535.04,-216 535.04,-252"/>
<text text-anchor="middle" x="465" y="-229.8" font-family="Times,serif" font-size="14.00">ContainerComponent </text>
</g>
<!-- WeatherModule&#45;&gt;ContainerComponent  -->
<g id="edge5" class="edge">
<title>WeatherModule&#45;&gt;ContainerComponent </title>
<path fill="none" stroke="black" stroke-dasharray="5,2" d="M258.61,-173C328.31,-173 441.24,-173 441.24,-173 441.24,-173 441.24,-205.7 441.24,-205.7"/>
<polygon fill="black" stroke="black" points="437.74,-205.7 441.24,-215.7 444.74,-205.7 437.74,-205.7"/>
</g>
<!-- FeatureModule  -->
<g id="node7" class="node">
<title>FeatureModule </title>
<polygon fill="#fb8072" stroke="black" points="376.53,-252 271.47,-252 271.47,-216 376.53,-216 376.53,-252"/>
<text text-anchor="middle" x="324" y="-229.8" font-family="Times,serif" font-size="14.00">FeatureModule </text>
</g>
<!-- WeatherModule&#45;&gt;FeatureModule  -->
<g id="edge6" class="edge">
<title>WeatherModule&#45;&gt;FeatureModule </title>
<path fill="none" stroke="black" stroke-dasharray="5,2" d="M258.47,-180C282.22,-180 304.91,-180 304.91,-180 304.91,-180 304.91,-205.72 304.91,-205.72"/>
<polygon fill="black" stroke="black" points="301.41,-205.72 304.91,-215.72 308.41,-205.72 301.41,-205.72"/>
</g>
<!-- HeaderModule  -->
<g id="node8" class="node">
<title>HeaderModule </title>
<polygon fill="#fb8072" stroke="black" points="253.96,-252 150.04,-252 150.04,-216 253.96,-216 253.96,-252"/>
<text text-anchor="middle" x="202" y="-229.8" font-family="Times,serif" font-size="14.00">HeaderModule </text>
</g>
<!-- WeatherModule&#45;&gt;HeaderModule  -->
<g id="edge7" class="edge">
<title>WeatherModule&#45;&gt;HeaderModule </title>
<path fill="none" stroke="black" stroke-dasharray="5,2" d="M202.63,-187.11C202.63,-187.11 202.63,-205.99 202.63,-205.99"/>
<polygon fill="black" stroke="black" points="199.13,-205.99 202.63,-215.99 206.13,-205.99 199.13,-205.99"/>
</g>
<!-- SidenavModule  -->
<g id="node9" class="node">
<title>SidenavModule </title>
<polygon fill="#fb8072" stroke="black" points="132.15,-252 23.85,-252 23.85,-216 132.15,-216 132.15,-252"/>
<text text-anchor="middle" x="78" y="-229.8" font-family="Times,serif" font-size="14.00">SidenavModule </text>
</g>
<!-- WeatherModule&#45;&gt;SidenavModule  -->
<g id="edge8" class="edge">
<title>WeatherModule&#45;&gt;SidenavModule </title>
<path fill="none" stroke="black" stroke-dasharray="5,2" d="M151.22,-175C111.32,-175 63.81,-175 63.81,-175 63.81,-175 63.81,-205.98 63.81,-205.98"/>
<polygon fill="black" stroke="black" points="60.31,-205.98 63.81,-215.98 67.31,-205.98 60.31,-205.98"/>
</g>
<!-- FeatureModule -->
<g id="node3" class="node">
<title>FeatureModule</title>
<polygon fill="#8dd3c7" stroke="black" points="371.53,-122 368.53,-126 347.53,-126 344.53,-122 270.47,-122 270.47,-86 371.53,-86 371.53,-122"/>
<text text-anchor="middle" x="321" y="-99.8" font-family="Times,serif" font-size="14.00">FeatureModule</text>
</g>
<!-- FeatureModule&#45;&gt;WeatherModule -->
<g id="edge2" class="edge">
<title>FeatureModule&#45;&gt;WeatherModule</title>
<path fill="none" stroke="black" d="M338.34,-122.01C338.34,-138.05 338.34,-159 338.34,-159 338.34,-159 268.47,-159 268.47,-159"/>
<polygon fill="black" stroke="black" points="268.47,-155.5 258.47,-159 268.47,-162.5 268.47,-155.5"/>
</g>
<!-- HeaderModule -->
<g id="node4" class="node">
<title>HeaderModule</title>
<polygon fill="#8dd3c7" stroke="black" points="251.96,-122 248.96,-126 227.96,-126 224.96,-122 152.04,-122 152.04,-86 251.96,-86 251.96,-122"/>
<text text-anchor="middle" x="202" y="-99.8" font-family="Times,serif" font-size="14.00">HeaderModule</text>
</g>
<!-- HeaderModule&#45;&gt;WeatherModule -->
<g id="edge3" class="edge">
<title>HeaderModule&#45;&gt;WeatherModule</title>
<path fill="none" stroke="black" d="M202,-122.11C202,-122.11 202,-140.99 202,-140.99"/>
<polygon fill="black" stroke="black" points="198.5,-140.99 202,-150.99 205.5,-140.99 198.5,-140.99"/>
</g>
<!-- SidenavModule -->
<g id="node5" class="node">
<title>SidenavModule</title>
<polygon fill="#8dd3c7" stroke="black" points="134.15,-122 131.15,-126 110.15,-126 107.15,-122 29.85,-122 29.85,-86 134.15,-86 134.15,-122"/>
<text text-anchor="middle" x="82" y="-99.8" font-family="Times,serif" font-size="14.00">SidenavModule</text>
</g>
<!-- SidenavModule&#45;&gt;WeatherModule -->
<g id="edge4" class="edge">
<title>SidenavModule&#45;&gt;WeatherModule</title>
<path fill="none" stroke="black" d="M97.94,-122.02C97.94,-139.37 97.94,-163 97.94,-163 97.94,-163 141.47,-163 141.47,-163"/>
<polygon fill="black" stroke="black" points="141.47,-166.5 151.47,-163 141.47,-159.5 141.47,-166.5"/>
</g>
</g>
</svg>
