<?xml version="1.0" encoding="UTF-8" standalone="no"?>
<!DOCTYPE svg PUBLIC "-//W3C//DTD SVG 1.1//EN"
 "http://www.w3.org/Graphics/SVG/1.1/DTD/svg11.dtd">
<!-- Generated by graphviz version 2.44.1 (20200629.0846)
 -->
<!-- Title: dependencies Pages: 1 -->
<svg width="844pt" height="284pt"
 viewBox="0.00 0.00 844.00 284.00" xmlns="http://www.w3.org/2000/svg" xmlns:xlink="http://www.w3.org/1999/xlink">
<g id="graph0" class="graph" transform="scale(1 1) rotate(0) translate(4 280)">
<title>dependencies</title>
<polygon fill="white" stroke="transparent" points="-4,4 -4,-280 840,-280 840,4 -4,4"/>
<text text-anchor="start" x="397.01" y="-42.4" font-family="sans-serif" font-weight="bold" font-size="14.00">Legend</text>
<polygon fill="#ffffb3" stroke="transparent" points="184,-10 184,-30 204,-30 204,-10 184,-10"/>
<text text-anchor="start" x="207.63" y="-15.4" font-family="sans-serif" font-size="14.00"> &#160;Declarations</text>
<polygon fill="#8dd3c7" stroke="transparent" points="297,-10 297,-30 317,-30 317,-10 297,-10"/>
<text text-anchor="start" x="320.73" y="-15.4" font-family="sans-serif" font-size="14.00"> &#160;Module</text>
<polygon fill="#80b1d3" stroke="transparent" points="383,-10 383,-30 403,-30 403,-10 383,-10"/>
<text text-anchor="start" x="406.78" y="-15.4" font-family="sans-serif" font-size="14.00"> &#160;Bootstrap</text>
<polygon fill="#fdb462" stroke="transparent" points="480,-10 480,-30 500,-30 500,-10 480,-10"/>
<text text-anchor="start" x="503.67" y="-15.4" font-family="sans-serif" font-size="14.00"> &#160;Providers</text>
<polygon fill="#fb8072" stroke="transparent" points="576,-10 576,-30 596,-30 596,-10 576,-10"/>
<text text-anchor="start" x="599.73" y="-15.4" font-family="sans-serif" font-size="14.00"> &#160;Exports</text>
<g id="clust1" class="cluster">
<title>cluster_WeatherModule</title>
<polygon fill="none" stroke="black" stroke-dasharray="1,5" points="8,-70 8,-268 828,-268 828,-70 8,-70"/>
</g>
<g id="clust4" class="cluster">
<title>cluster_WeatherModule_imports</title>
<polygon fill="none" stroke="black" points="176,-78 176,-130 820,-130 820,-78 176,-78"/>
</g>
<g id="clust5" class="cluster">
<title>cluster_WeatherModule_exports</title>
<polygon fill="none" stroke="black" points="137,-208 137,-260 783,-260 783,-208 137,-208"/>
</g>
<g id="clust2" class="cluster">
<title>cluster_WeatherModule_declarations</title>
<polygon fill="none" stroke="black" points="16,-78 16,-130 168,-130 168,-78 16,-78"/>
</g>
<!-- ContainerComponent -->
<g id="node1" class="node">
<title>ContainerComponent</title>
<polygon fill="#ffffb3" stroke="black" points="160.04,-122 23.96,-122 23.96,-86 160.04,-86 160.04,-122"/>
<text text-anchor="middle" x="92" y="-99.8" font-family="Times,serif" font-size="14.00">ContainerComponent</text>
</g>
<!-- WeatherModule -->
<g id="node2" class="node">
<title>WeatherModule</title>
<polygon fill="#8dd3c7" stroke="black" points="495.46,-187 492.46,-191 471.46,-191 468.46,-187 388.54,-187 388.54,-151 495.46,-151 495.46,-187"/>
<text text-anchor="middle" x="442" y="-164.8" font-family="Times,serif" font-size="14.00">WeatherModule</text>
</g>
<!-- ContainerComponent&#45;&gt;WeatherModule -->
<g id="edge1" class="edge">
<title>ContainerComponent&#45;&gt;WeatherModule</title>
<path fill="none" stroke="black" d="M152.6,-122.27C152.6,-140.56 152.6,-166 152.6,-166 152.6,-166 378.24,-166 378.24,-166"/>
<polygon fill="black" stroke="black" points="378.24,-169.5 388.24,-166 378.24,-162.5 378.24,-169.5"/>
</g>
<!-- ContainerComponent  -->
<g id="node8" class="node">
<title>ContainerComponent </title>
<polygon fill="#fb8072" stroke="black" points="775.04,-252 634.96,-252 634.96,-216 775.04,-216 775.04,-252"/>
<text text-anchor="middle" x="705" y="-229.8" font-family="Times,serif" font-size="14.00">ContainerComponent </text>
</g>
<!-- WeatherModule&#45;&gt;ContainerComponent  -->
<g id="edge7" class="edge">
<title>WeatherModule&#45;&gt;ContainerComponent </title>
<path fill="none" stroke="black" stroke-dasharray="5,2" d="M495.61,-173C561.16,-173 663.48,-173 663.48,-173 663.48,-173 663.48,-205.7 663.48,-205.7"/>
<polygon fill="black" stroke="black" points="659.98,-205.7 663.48,-215.7 666.98,-205.7 659.98,-205.7"/>
</g>
<!-- FeatureModule  -->
<g id="node9" class="node">
<title>FeatureModule </title>
<polygon fill="#fb8072" stroke="black" points="616.53,-252 511.47,-252 511.47,-216 616.53,-216 616.53,-252"/>
<text text-anchor="middle" x="564" y="-229.8" font-family="Times,serif" font-size="14.00">FeatureModule </text>
</g>
<!-- WeatherModule&#45;&gt;FeatureModule  -->
<g id="edge8" class="edge">
<title>WeatherModule&#45;&gt;FeatureModule </title>
<path fill="none" stroke="black" stroke-dasharray="5,2" d="M495.57,-180C519.61,-180 542.65,-180 542.65,-180 542.65,-180 542.65,-205.72 542.65,-205.72"/>
<polygon fill="black" stroke="black" points="539.15,-205.72 542.65,-215.72 546.15,-205.72 539.15,-205.72"/>
</g>
<!-- HeaderModule  -->
<g id="node10" class="node">
<title>HeaderModule </title>
<polygon fill="#fb8072" stroke="black" points="493.96,-252 390.04,-252 390.04,-216 493.96,-216 493.96,-252"/>
<text text-anchor="middle" x="442" y="-229.8" font-family="Times,serif" font-size="14.00">HeaderModule </text>
</g>
<!-- WeatherModule&#45;&gt;HeaderModule  -->
<g id="edge9" class="edge">
<title>WeatherModule&#45;&gt;HeaderModule </title>
<path fill="none" stroke="black" stroke-dasharray="5,2" d="M442,-187.11C442,-187.11 442,-205.99 442,-205.99"/>
<polygon fill="black" stroke="black" points="438.5,-205.99 442,-215.99 445.5,-205.99 438.5,-205.99"/>
</g>
<!-- SearchModule  -->
<g id="node11" class="node">
<title>SearchModule </title>
<polygon fill="#fb8072" stroke="black" points="372.64,-252 271.36,-252 271.36,-216 372.64,-216 372.64,-252"/>
<text text-anchor="middle" x="322" y="-229.8" font-family="Times,serif" font-size="14.00">SearchModule </text>
</g>
<!-- WeatherModule&#45;&gt;SearchModule  -->
<g id="edge10" class="edge">
<title>WeatherModule&#45;&gt;SearchModule </title>
<path fill="none" stroke="black" stroke-dasharray="5,2" d="M388.51,-180C374.45,-180 363.12,-180 363.12,-180 363.12,-180 363.12,-205.72 363.12,-205.72"/>
<polygon fill="black" stroke="black" points="359.62,-205.72 363.12,-215.72 366.62,-205.72 359.62,-205.72"/>
</g>
<!-- SidenavModule  -->
<g id="node12" class="node">
<title>SidenavModule </title>
<polygon fill="#fb8072" stroke="black" points="253.15,-252 144.85,-252 144.85,-216 253.15,-216 253.15,-252"/>
<text text-anchor="middle" x="199" y="-229.8" font-family="Times,serif" font-size="14.00">SidenavModule </text>
</g>
<!-- WeatherModule&#45;&gt;SidenavModule  -->
<g id="edge11" class="edge">
<title>WeatherModule&#45;&gt;SidenavModule </title>
<path fill="none" stroke="black" stroke-dasharray="5,2" d="M388.47,-173C322.36,-173 218.52,-173 218.52,-173 218.52,-173 218.52,-205.7 218.52,-205.7"/>
<polygon fill="black" stroke="black" points="215.02,-205.7 218.52,-215.7 222.02,-205.7 215.02,-205.7"/>
</g>
<!-- FeatureModule -->
<g id="node3" class="node">
<title>FeatureModule</title>
<polygon fill="#8dd3c7" stroke="black" points="811.53,-122 808.53,-126 787.53,-126 784.53,-122 710.47,-122 710.47,-86 811.53,-86 811.53,-122"/>
<text text-anchor="middle" x="761" y="-99.8" font-family="Times,serif" font-size="14.00">FeatureModule</text>
</g>
<!-- FeatureModule&#45;&gt;WeatherModule -->
<g id="edge2" class="edge">
<title>FeatureModule&#45;&gt;WeatherModule</title>
<path fill="none" stroke="black" d="M742.63,-122.27C742.63,-140.56 742.63,-166 742.63,-166 742.63,-166 505.75,-166 505.75,-166"/>
<polygon fill="black" stroke="black" points="505.75,-162.5 495.75,-166 505.75,-169.5 505.75,-162.5"/>
</g>
<!-- HeaderModule -->
<g id="node4" class="node">
<title>HeaderModule</title>
<polygon fill="#8dd3c7" stroke="black" points="691.96,-122 688.96,-126 667.96,-126 664.96,-122 592.04,-122 592.04,-86 691.96,-86 691.96,-122"/>
<text text-anchor="middle" x="642" y="-99.8" font-family="Times,serif" font-size="14.00">HeaderModule</text>
</g>
<!-- HeaderModule&#45;&gt;WeatherModule -->
<g id="edge3" class="edge">
<title>HeaderModule&#45;&gt;WeatherModule</title>
<path fill="none" stroke="black" d="M604.27,-122.01C604.27,-138.05 604.27,-159 604.27,-159 604.27,-159 505.58,-159 505.58,-159"/>
<polygon fill="black" stroke="black" points="505.58,-155.5 495.58,-159 505.58,-162.5 505.58,-155.5"/>
</g>
<!-- SearchModule -->
<g id="node5" class="node">
<title>SearchModule</title>
<polygon fill="#8dd3c7" stroke="black" points="573.64,-122 570.64,-126 549.64,-126 546.64,-122 476.36,-122 476.36,-86 573.64,-86 573.64,-122"/>
<text text-anchor="middle" x="525" y="-99.8" font-family="Times,serif" font-size="14.00">SearchModule</text>
</g>
<!-- SearchModule&#45;&gt;WeatherModule -->
<g id="edge4" class="edge">
<title>SearchModule&#45;&gt;WeatherModule</title>
<path fill="none" stroke="black" d="M485.83,-122.11C485.83,-122.11 485.83,-140.99 485.83,-140.99"/>
<polygon fill="black" stroke="black" points="482.33,-140.99 485.83,-150.99 489.33,-140.99 482.33,-140.99"/>
</g>
<!-- SidenavModule -->
<g id="node6" class="node">
<title>SidenavModule</title>
<polygon fill="#8dd3c7" stroke="black" points="458.15,-122 455.15,-126 434.15,-126 431.15,-122 353.85,-122 353.85,-86 458.15,-86 458.15,-122"/>
<text text-anchor="middle" x="406" y="-99.8" font-family="Times,serif" font-size="14.00">SidenavModule</text>
</g>
<!-- SidenavModule&#45;&gt;WeatherModule -->
<g id="edge5" class="edge">
<title>SidenavModule&#45;&gt;WeatherModule</title>
<path fill="none" stroke="black" d="M423.42,-122.11C423.42,-122.11 423.42,-140.99 423.42,-140.99"/>
<polygon fill="black" stroke="black" points="419.92,-140.99 423.42,-150.99 426.92,-140.99 419.92,-140.99"/>
</g>
<!-- WeatherRoutingModule -->
<g id="node7" class="node">
<title>WeatherRoutingModule</title>
<polygon fill="#8dd3c7" stroke="black" points="336.08,-122 333.08,-126 312.08,-126 309.08,-122 183.92,-122 183.92,-86 336.08,-86 336.08,-122"/>
<text text-anchor="middle" x="260" y="-99.8" font-family="Times,serif" font-size="14.00">WeatherRoutingModule</text>
</g>
<!-- WeatherRoutingModule&#45;&gt;WeatherModule -->
<g id="edge6" class="edge">
<title>WeatherRoutingModule&#45;&gt;WeatherModule</title>
<path fill="none" stroke="black" d="M303.74,-122.01C303.74,-138.05 303.74,-159 303.74,-159 303.74,-159 378.15,-159 378.15,-159"/>
<polygon fill="black" stroke="black" points="378.15,-162.5 388.15,-159 378.15,-155.5 378.15,-162.5"/>
</g>
</g>
</svg>
