<?xml version="1.0" encoding="UTF-8" standalone="no"?>
<!DOCTYPE svg PUBLIC "-//W3C//DTD SVG 1.1//EN"
 "http://www.w3.org/Graphics/SVG/1.1/DTD/svg11.dtd">
<!-- Generated by graphviz version 2.44.1 (20200629.0846)
 -->
<!-- Title: dependencies Pages: 1 -->
<svg width="504pt" height="284pt"
 viewBox="0.00 0.00 504.00 284.00" xmlns="http://www.w3.org/2000/svg" xmlns:xlink="http://www.w3.org/1999/xlink">
<g id="graph0" class="graph" transform="scale(1 1) rotate(0) translate(4 280)">
<title>dependencies</title>
<polygon fill="white" stroke="transparent" points="-4,4 -4,-280 500,-280 500,4 -4,4"/>
<text text-anchor="start" x="227.01" y="-42.4" font-family="sans-serif" font-weight="bold" font-size="14.00">Legend</text>
<polygon fill="#ffffb3" stroke="transparent" points="14,-10 14,-30 34,-30 34,-10 14,-10"/>
<text text-anchor="start" x="37.63" y="-15.4" font-family="sans-serif" font-size="14.00"> &#160;Declarations</text>
<polygon fill="#8dd3c7" stroke="transparent" points="127,-10 127,-30 147,-30 147,-10 127,-10"/>
<text text-anchor="start" x="150.73" y="-15.4" font-family="sans-serif" font-size="14.00"> &#160;Module</text>
<polygon fill="#80b1d3" stroke="transparent" points="213,-10 213,-30 233,-30 233,-10 213,-10"/>
<text text-anchor="start" x="236.78" y="-15.4" font-family="sans-serif" font-size="14.00"> &#160;Bootstrap</text>
<polygon fill="#fdb462" stroke="transparent" points="310,-10 310,-30 330,-30 330,-10 310,-10"/>
<text text-anchor="start" x="333.67" y="-15.4" font-family="sans-serif" font-size="14.00"> &#160;Providers</text>
<polygon fill="#fb8072" stroke="transparent" points="406,-10 406,-30 426,-30 426,-10 406,-10"/>
<text text-anchor="start" x="429.73" y="-15.4" font-family="sans-serif" font-size="14.00"> &#160;Exports</text>
<g id="clust1" class="cluster">
<title>cluster_WeatherModule</title>
<polygon fill="none" stroke="black" stroke-dasharray="1,5" points="77,-70 77,-268 419,-268 419,-70 77,-70"/>
</g>
<g id="clust5" class="cluster">
<title>cluster_WeatherModule_exports</title>
<polygon fill="none" stroke="black" points="176,-208 176,-260 328,-260 328,-208 176,-208"/>
</g>
<g id="clust2" class="cluster">
<title>cluster_WeatherModule_declarations</title>
<polygon fill="none" stroke="black" points="261,-78 261,-130 411,-130 411,-78 261,-78"/>
</g>
<g id="clust4" class="cluster">
<title>cluster_WeatherModule_imports</title>
<polygon fill="none" stroke="black" points="85,-78 85,-130 253,-130 253,-78 85,-78"/>
</g>
<!-- FavoritesComponent -->
<g id="node1" class="node">
<title>FavoritesComponent</title>
<polygon fill="#ffffb3" stroke="black" points="402.93,-122 269.07,-122 269.07,-86 402.93,-86 402.93,-122"/>
<text text-anchor="middle" x="336" y="-99.8" font-family="Times,serif" font-size="14.00">FavoritesComponent</text>
</g>
<!-- WeatherModule -->
<g id="node2" class="node">
<title>WeatherModule</title>
<polygon fill="#8dd3c7" stroke="black" points="305.46,-187 302.46,-191 281.46,-191 278.46,-187 198.54,-187 198.54,-151 305.46,-151 305.46,-187"/>
<text text-anchor="middle" x="252" y="-164.8" font-family="Times,serif" font-size="14.00">WeatherModule</text>
</g>
<!-- FavoritesComponent&#45;&gt;WeatherModule -->
<g id="edge1" class="edge">
<title>FavoritesComponent&#45;&gt;WeatherModule</title>
<path fill="none" stroke="black" d="M287.38,-122.11C287.38,-122.11 287.38,-140.99 287.38,-140.99"/>
<polygon fill="black" stroke="black" points="283.88,-140.99 287.38,-150.99 290.88,-140.99 283.88,-140.99"/>
</g>
<!-- FavoritesComponent  -->
<g id="node4" class="node">
<title>FavoritesComponent </title>
<polygon fill="#fb8072" stroke="black" points="320.43,-252 183.57,-252 183.57,-216 320.43,-216 320.43,-252"/>
<text text-anchor="middle" x="252" y="-229.8" font-family="Times,serif" font-size="14.00">FavoritesComponent </text>
</g>
<!-- WeatherModule&#45;&gt;FavoritesComponent  -->
<g id="edge3" class="edge">
<title>WeatherModule&#45;&gt;FavoritesComponent </title>
<path fill="none" stroke="black" stroke-dasharray="5,2" d="M252,-187.11C252,-187.11 252,-205.99 252,-205.99"/>
<polygon fill="black" stroke="black" points="248.5,-205.99 252,-215.99 255.5,-205.99 248.5,-205.99"/>
</g>
<!-- WeatherRoutingModule -->
<g id="node3" class="node">
<title>WeatherRoutingModule</title>
<polygon fill="#8dd3c7" stroke="black" points="245.08,-122 242.08,-126 221.08,-126 218.08,-122 92.92,-122 92.92,-86 245.08,-86 245.08,-122"/>
<text text-anchor="middle" x="169" y="-99.8" font-family="Times,serif" font-size="14.00">WeatherRoutingModule</text>
</g>
<!-- WeatherRoutingModule&#45;&gt;WeatherModule -->
<g id="edge2" class="edge">
<title>WeatherRoutingModule&#45;&gt;WeatherModule</title>
<path fill="none" stroke="black" d="M221.78,-122.11C221.78,-122.11 221.78,-140.99 221.78,-140.99"/>
<polygon fill="black" stroke="black" points="218.28,-140.99 221.78,-150.99 225.28,-140.99 218.28,-140.99"/>
</g>
</g>
</svg>
