<?xml version="1.0" encoding="UTF-8" standalone="no"?>
<!DOCTYPE svg PUBLIC "-//W3C//DTD SVG 1.1//EN"
 "http://www.w3.org/Graphics/SVG/1.1/DTD/svg11.dtd">
<!-- Generated by graphviz version 2.44.1 (20200629.0846)
 -->
<!-- Title: dependencies Pages: 1 -->
<svg width="719pt" height="284pt"
 viewBox="0.00 0.00 719.00 284.00" xmlns="http://www.w3.org/2000/svg" xmlns:xlink="http://www.w3.org/1999/xlink">
<g id="graph0" class="graph" transform="scale(1 1) rotate(0) translate(4 280)">
<title>dependencies</title>
<polygon fill="white" stroke="transparent" points="-4,4 -4,-280 715,-280 715,4 -4,4"/>
<text text-anchor="start" x="334.51" y="-42.4" font-family="sans-serif" font-weight="bold" font-size="14.00">Legend</text>
<polygon fill="#ffffb3" stroke="transparent" points="121.5,-10 121.5,-30 141.5,-30 141.5,-10 121.5,-10"/>
<text text-anchor="start" x="145.13" y="-15.4" font-family="sans-serif" font-size="14.00"> &#160;Declarations</text>
<polygon fill="#8dd3c7" stroke="transparent" points="234.5,-10 234.5,-30 254.5,-30 254.5,-10 234.5,-10"/>
<text text-anchor="start" x="258.23" y="-15.4" font-family="sans-serif" font-size="14.00"> &#160;Module</text>
<polygon fill="#80b1d3" stroke="transparent" points="320.5,-10 320.5,-30 340.5,-30 340.5,-10 320.5,-10"/>
<text text-anchor="start" x="344.28" y="-15.4" font-family="sans-serif" font-size="14.00"> &#160;Bootstrap</text>
<polygon fill="#fdb462" stroke="transparent" points="417.5,-10 417.5,-30 437.5,-30 437.5,-10 417.5,-10"/>
<text text-anchor="start" x="441.17" y="-15.4" font-family="sans-serif" font-size="14.00"> &#160;Providers</text>
<polygon fill="#fb8072" stroke="transparent" points="513.5,-10 513.5,-30 533.5,-30 533.5,-10 513.5,-10"/>
<text text-anchor="start" x="537.23" y="-15.4" font-family="sans-serif" font-size="14.00"> &#160;Exports</text>
<g id="clust1" class="cluster">
<title>cluster_SearchModule</title>
<polygon fill="none" stroke="black" stroke-dasharray="1,5" points="8,-70 8,-268 703,-268 703,-70 8,-70"/>
</g>
<g id="clust2" class="cluster">
<title>cluster_SearchModule_declarations</title>
<polygon fill="none" stroke="black" points="543,-78 543,-130 695,-130 695,-78 543,-78"/>
</g>
<g id="clust4" class="cluster">
<title>cluster_SearchModule_imports</title>
<polygon fill="none" stroke="black" points="16,-78 16,-195 535,-195 535,-78 16,-78"/>
</g>
<g id="clust5" class="cluster">
<title>cluster_SearchModule_exports</title>
<polygon fill="none" stroke="black" points="49,-208 49,-260 695,-260 695,-208 49,-208"/>
</g>
<!-- ContainerComponent -->
<g id="node1" class="node">
<title>ContainerComponent</title>
<polygon fill="#ffffb3" stroke="black" points="687.04,-122 550.96,-122 550.96,-86 687.04,-86 687.04,-122"/>
<text text-anchor="middle" x="619" y="-99.8" font-family="Times,serif" font-size="14.00">ContainerComponent</text>
</g>
<!-- SearchModule -->
<g id="node2" class="node">
<title>SearchModule</title>
<polygon fill="#8dd3c7" stroke="black" points="403.64,-187 400.64,-191 379.64,-191 376.64,-187 306.36,-187 306.36,-151 403.64,-151 403.64,-187"/>
<text text-anchor="middle" x="355" y="-164.8" font-family="Times,serif" font-size="14.00">SearchModule</text>
</g>
<!-- ContainerComponent&#45;&gt;SearchModule -->
<g id="edge1" class="edge">
<title>ContainerComponent&#45;&gt;SearchModule</title>
<path fill="none" stroke="black" d="M596.16,-122.27C596.16,-140.56 596.16,-166 596.16,-166 596.16,-166 413.8,-166 413.8,-166"/>
<polygon fill="black" stroke="black" points="413.8,-162.5 403.8,-166 413.8,-169.5 413.8,-162.5"/>
</g>
<!-- SearchModule&#45;&gt;SearchModule -->
<g id="edge4" class="edge">
<title>SearchModule&#45;&gt;SearchModule</title>
<path fill="none" stroke="black" d="M339.29,-150.76C339.29,-143.57 339.29,-137 339.29,-137 339.29,-137 295.82,-137 295.82,-137 295.82,-137 295.82,-202 295.82,-202 295.82,-202 338.73,-202 338.73,-202 338.73,-202 338.73,-197.04 338.73,-197.04"/>
<polygon fill="black" stroke="black" points="342.23,-197.04 338.73,-187.04 335.23,-197.04 342.23,-197.04"/>
</g>
<!-- ContainerComponent  -->
<g id="node7" class="node">
<title>ContainerComponent </title>
<polygon fill="#fb8072" stroke="black" points="687.04,-252 546.96,-252 546.96,-216 687.04,-216 687.04,-252"/>
<text text-anchor="middle" x="617" y="-229.8" font-family="Times,serif" font-size="14.00">ContainerComponent </text>
</g>
<!-- SearchModule&#45;&gt;ContainerComponent  -->
<g id="edge7" class="edge">
<title>SearchModule&#45;&gt;ContainerComponent </title>
<path fill="none" stroke="black" stroke-dasharray="5,2" d="M403.94,-173C485.79,-173 641.59,-173 641.59,-173 641.59,-173 641.59,-205.7 641.59,-205.7"/>
<polygon fill="black" stroke="black" points="638.09,-205.7 641.59,-215.7 645.09,-205.7 638.09,-205.7"/>
</g>
<!-- FeatureModule  -->
<g id="node8" class="node">
<title>FeatureModule </title>
<polygon fill="#fb8072" stroke="black" points="528.53,-252 423.47,-252 423.47,-216 528.53,-216 528.53,-252"/>
<text text-anchor="middle" x="476" y="-229.8" font-family="Times,serif" font-size="14.00">FeatureModule </text>
</g>
<!-- SearchModule&#45;&gt;FeatureModule  -->
<g id="edge8" class="edge">
<title>SearchModule&#45;&gt;FeatureModule </title>
<path fill="none" stroke="black" stroke-dasharray="5,2" d="M404.01,-180C443.66,-180 492.92,-180 492.92,-180 492.92,-180 492.92,-205.72 492.92,-205.72"/>
<polygon fill="black" stroke="black" points="489.42,-205.72 492.92,-215.72 496.42,-205.72 489.42,-205.72"/>
</g>
<!-- HeaderModule  -->
<g id="node9" class="node">
<title>HeaderModule </title>
<polygon fill="#fb8072" stroke="black" points="405.96,-252 302.04,-252 302.04,-216 405.96,-216 405.96,-252"/>
<text text-anchor="middle" x="354" y="-229.8" font-family="Times,serif" font-size="14.00">HeaderModule </text>
</g>
<!-- SearchModule&#45;&gt;HeaderModule  -->
<g id="edge9" class="edge">
<title>SearchModule&#45;&gt;HeaderModule </title>
<path fill="none" stroke="black" stroke-dasharray="5,2" d="M371.27,-187.11C371.27,-187.11 371.27,-205.99 371.27,-205.99"/>
<polygon fill="black" stroke="black" points="367.77,-205.99 371.27,-215.99 374.77,-205.99 367.77,-205.99"/>
</g>
<!-- SearchModule  -->
<g id="node10" class="node">
<title>SearchModule </title>
<polygon fill="#fb8072" stroke="black" points="284.64,-252 183.36,-252 183.36,-216 284.64,-216 284.64,-252"/>
<text text-anchor="middle" x="234" y="-229.8" font-family="Times,serif" font-size="14.00">SearchModule </text>
</g>
<!-- SearchModule&#45;&gt;SearchModule  -->
<g id="edge10" class="edge">
<title>SearchModule&#45;&gt;SearchModule </title>
<path fill="none" stroke="black" stroke-dasharray="5,2" d="M306.28,-180C279.18,-180 250.86,-180 250.86,-180 250.86,-180 250.86,-205.72 250.86,-205.72"/>
<polygon fill="black" stroke="black" points="247.36,-205.72 250.86,-215.72 254.36,-205.72 247.36,-205.72"/>
</g>
<!-- SidenavModule  -->
<g id="node11" class="node">
<title>SidenavModule </title>
<polygon fill="#fb8072" stroke="black" points="165.15,-252 56.85,-252 56.85,-216 165.15,-216 165.15,-252"/>
<text text-anchor="middle" x="111" y="-229.8" font-family="Times,serif" font-size="14.00">SidenavModule </text>
</g>
<!-- SearchModule&#45;&gt;SidenavModule  -->
<g id="edge11" class="edge">
<title>SearchModule&#45;&gt;SidenavModule </title>
<path fill="none" stroke="black" stroke-dasharray="5,2" d="M306.28,-173C247.32,-173 155.85,-173 155.85,-173 155.85,-173 155.85,-205.7 155.85,-205.7"/>
<polygon fill="black" stroke="black" points="152.35,-205.7 155.85,-215.7 159.35,-205.7 152.35,-205.7"/>
</g>
<!-- FeatureModule -->
<g id="node3" class="node">
<title>FeatureModule</title>
<polygon fill="#8dd3c7" stroke="black" points="526.53,-122 523.53,-126 502.53,-126 499.53,-122 425.47,-122 425.47,-86 526.53,-86 526.53,-122"/>
<text text-anchor="middle" x="476" y="-99.8" font-family="Times,serif" font-size="14.00">FeatureModule</text>
</g>
<!-- FeatureModule&#45;&gt;SearchModule -->
<g id="edge2" class="edge">
<title>FeatureModule&#45;&gt;SearchModule</title>
<path fill="none" stroke="black" d="M459.08,-122.01C459.08,-138.05 459.08,-159 459.08,-159 459.08,-159 413.69,-159 413.69,-159"/>
<polygon fill="black" stroke="black" points="413.69,-155.5 403.69,-159 413.69,-162.5 413.69,-155.5"/>
</g>
<!-- HeaderModule -->
<g id="node4" class="node">
<title>HeaderModule</title>
<polygon fill="#8dd3c7" stroke="black" points="406.96,-122 403.96,-126 382.96,-126 379.96,-122 307.04,-122 307.04,-86 406.96,-86 406.96,-122"/>
<text text-anchor="middle" x="357" y="-99.8" font-family="Times,serif" font-size="14.00">HeaderModule</text>
</g>
<!-- HeaderModule&#45;&gt;SearchModule -->
<g id="edge3" class="edge">
<title>HeaderModule&#45;&gt;SearchModule</title>
<path fill="none" stroke="black" d="M371.55,-122.11C371.55,-122.11 371.55,-140.99 371.55,-140.99"/>
<polygon fill="black" stroke="black" points="368.05,-140.99 371.55,-150.99 375.05,-140.99 368.05,-140.99"/>
</g>
<!-- SearchRoutingModule -->
<g id="node5" class="node">
<title>SearchRoutingModule</title>
<polygon fill="#8dd3c7" stroke="black" points="289.25,-122 286.25,-126 265.25,-126 262.25,-122 146.75,-122 146.75,-86 289.25,-86 289.25,-122"/>
<text text-anchor="middle" x="218" y="-99.8" font-family="Times,serif" font-size="14.00">SearchRoutingModule</text>
</g>
<!-- SearchRoutingModule&#45;&gt;SearchModule -->
<g id="edge5" class="edge">
<title>SearchRoutingModule&#45;&gt;SearchModule</title>
<path fill="none" stroke="black" d="M217.14,-122.01C217.14,-138.05 217.14,-159 217.14,-159 217.14,-159 296.01,-159 296.01,-159"/>
<polygon fill="black" stroke="black" points="296.01,-162.5 306.01,-159 296.01,-155.5 296.01,-162.5"/>
</g>
<!-- SidenavModule -->
<g id="node6" class="node">
<title>SidenavModule</title>
<polygon fill="#8dd3c7" stroke="black" points="128.15,-122 125.15,-126 104.15,-126 101.15,-122 23.85,-122 23.85,-86 128.15,-86 128.15,-122"/>
<text text-anchor="middle" x="76" y="-99.8" font-family="Times,serif" font-size="14.00">SidenavModule</text>
</g>
<!-- SidenavModule&#45;&gt;SearchModule -->
<g id="edge6" class="edge">
<title>SidenavModule&#45;&gt;SearchModule</title>
<path fill="none" stroke="black" d="M92.62,-122.27C92.62,-140.56 92.62,-166 92.62,-166 92.62,-166 296.26,-166 296.26,-166"/>
<polygon fill="black" stroke="black" points="296.26,-169.5 306.26,-166 296.26,-162.5 296.26,-169.5"/>
</g>
</g>
</svg>
