<?xml version="1.0" encoding="UTF-8" standalone="no"?>
<!DOCTYPE svg PUBLIC "-//W3C//DTD SVG 1.1//EN"
 "http://www.w3.org/Graphics/SVG/1.1/DTD/svg11.dtd">
<!-- Generated by graphviz version 2.44.1 (20200629.0846)
 -->
<!-- Title: dependencies Pages: 1 -->
<svg width="601pt" height="284pt"
 viewBox="0.00 0.00 601.00 284.00" xmlns="http://www.w3.org/2000/svg" xmlns:xlink="http://www.w3.org/1999/xlink">
<g id="graph0" class="graph" transform="scale(1 1) rotate(0) translate(4 280)">
<title>dependencies</title>
<polygon fill="white" stroke="transparent" points="-4,4 -4,-280 597,-280 597,4 -4,4"/>
<text text-anchor="start" x="275.51" y="-42.4" font-family="sans-serif" font-weight="bold" font-size="14.00">Legend</text>
<polygon fill="#ffffb3" stroke="transparent" points="62.5,-10 62.5,-30 82.5,-30 82.5,-10 62.5,-10"/>
<text text-anchor="start" x="86.13" y="-15.4" font-family="sans-serif" font-size="14.00"> &#160;Declarations</text>
<polygon fill="#8dd3c7" stroke="transparent" points="175.5,-10 175.5,-30 195.5,-30 195.5,-10 175.5,-10"/>
<text text-anchor="start" x="199.23" y="-15.4" font-family="sans-serif" font-size="14.00"> &#160;Module</text>
<polygon fill="#80b1d3" stroke="transparent" points="261.5,-10 261.5,-30 281.5,-30 281.5,-10 261.5,-10"/>
<text text-anchor="start" x="285.28" y="-15.4" font-family="sans-serif" font-size="14.00"> &#160;Bootstrap</text>
<polygon fill="#fdb462" stroke="transparent" points="358.5,-10 358.5,-30 378.5,-30 378.5,-10 358.5,-10"/>
<text text-anchor="start" x="382.17" y="-15.4" font-family="sans-serif" font-size="14.00"> &#160;Providers</text>
<polygon fill="#fb8072" stroke="transparent" points="454.5,-10 454.5,-30 474.5,-30 474.5,-10 454.5,-10"/>
<text text-anchor="start" x="478.23" y="-15.4" font-family="sans-serif" font-size="14.00"> &#160;Exports</text>
<g id="clust1" class="cluster">
<title>cluster_SearchModule</title>
<polygon fill="none" stroke="black" stroke-dasharray="1,5" points="8,-70 8,-268 585,-268 585,-70 8,-70"/>
</g>
<g id="clust5" class="cluster">
<title>cluster_SearchModule_exports</title>
<polygon fill="none" stroke="black" points="214,-208 214,-260 366,-260 366,-208 214,-208"/>
</g>
<g id="clust2" class="cluster">
<title>cluster_SearchModule_declarations</title>
<polygon fill="none" stroke="black" points="427,-78 427,-130 577,-130 577,-78 427,-78"/>
</g>
<g id="clust4" class="cluster">
<title>cluster_SearchModule_imports</title>
<polygon fill="none" stroke="black" points="16,-78 16,-130 419,-130 419,-78 16,-78"/>
</g>
<!-- FavoritesComponent -->
<g id="node1" class="node">
<title>FavoritesComponent</title>
<polygon fill="#ffffb3" stroke="black" points="568.93,-122 435.07,-122 435.07,-86 568.93,-86 568.93,-122"/>
<text text-anchor="middle" x="502" y="-99.8" font-family="Times,serif" font-size="14.00">FavoritesComponent</text>
</g>
<!-- SearchModule -->
<g id="node2" class="node">
<title>SearchModule</title>
<polygon fill="#8dd3c7" stroke="black" points="338.64,-187 335.64,-191 314.64,-191 311.64,-187 241.36,-187 241.36,-151 338.64,-151 338.64,-187"/>
<text text-anchor="middle" x="290" y="-164.8" font-family="Times,serif" font-size="14.00">SearchModule</text>
</g>
<!-- FavoritesComponent&#45;&gt;SearchModule -->
<g id="edge1" class="edge">
<title>FavoritesComponent&#45;&gt;SearchModule</title>
<path fill="none" stroke="black" d="M502,-122.11C502,-141.34 502,-169 502,-169 502,-169 348.9,-169 348.9,-169"/>
<polygon fill="black" stroke="black" points="348.9,-165.5 338.9,-169 348.9,-172.5 348.9,-165.5"/>
</g>
<!-- FavoritesComponent  -->
<g id="node6" class="node">
<title>FavoritesComponent </title>
<polygon fill="#fb8072" stroke="black" points="358.43,-252 221.57,-252 221.57,-216 358.43,-216 358.43,-252"/>
<text text-anchor="middle" x="290" y="-229.8" font-family="Times,serif" font-size="14.00">FavoritesComponent </text>
</g>
<!-- SearchModule&#45;&gt;FavoritesComponent  -->
<g id="edge5" class="edge">
<title>SearchModule&#45;&gt;FavoritesComponent </title>
<path fill="none" stroke="black" stroke-dasharray="5,2" d="M290,-187.11C290,-187.11 290,-205.99 290,-205.99"/>
<polygon fill="black" stroke="black" points="286.5,-205.99 290,-215.99 293.5,-205.99 286.5,-205.99"/>
</g>
<!-- FeatureModule -->
<g id="node3" class="node">
<title>FeatureModule</title>
<polygon fill="#8dd3c7" stroke="black" points="410.53,-122 407.53,-126 386.53,-126 383.53,-122 309.47,-122 309.47,-86 410.53,-86 410.53,-122"/>
<text text-anchor="middle" x="360" y="-99.8" font-family="Times,serif" font-size="14.00">FeatureModule</text>
</g>
<!-- FeatureModule&#45;&gt;SearchModule -->
<g id="edge2" class="edge">
<title>FeatureModule&#45;&gt;SearchModule</title>
<path fill="none" stroke="black" d="M324.03,-122.11C324.03,-122.11 324.03,-140.99 324.03,-140.99"/>
<polygon fill="black" stroke="black" points="320.53,-140.99 324.03,-150.99 327.53,-140.99 320.53,-140.99"/>
</g>
<!-- SearchRoutingModule -->
<g id="node4" class="node">
<title>SearchRoutingModule</title>
<polygon fill="#8dd3c7" stroke="black" points="291.25,-122 288.25,-126 267.25,-126 264.25,-122 148.75,-122 148.75,-86 291.25,-86 291.25,-122"/>
<text text-anchor="middle" x="220" y="-99.8" font-family="Times,serif" font-size="14.00">SearchRoutingModule</text>
</g>
<!-- SearchRoutingModule&#45;&gt;SearchModule -->
<g id="edge3" class="edge">
<title>SearchRoutingModule&#45;&gt;SearchModule</title>
<path fill="none" stroke="black" d="M266.28,-122.11C266.28,-122.11 266.28,-140.99 266.28,-140.99"/>
<polygon fill="black" stroke="black" points="262.78,-140.99 266.28,-150.99 269.78,-140.99 262.78,-140.99"/>
</g>
<!-- WeatherModule -->
<g id="node5" class="node">
<title>WeatherModule</title>
<polygon fill="#8dd3c7" stroke="black" points="130.46,-122 127.46,-126 106.46,-126 103.46,-122 23.54,-122 23.54,-86 130.46,-86 130.46,-122"/>
<text text-anchor="middle" x="77" y="-99.8" font-family="Times,serif" font-size="14.00">WeatherModule</text>
</g>
<!-- WeatherModule&#45;&gt;SearchModule -->
<g id="edge4" class="edge">
<title>WeatherModule&#45;&gt;SearchModule</title>
<path fill="none" stroke="black" d="M77,-122.11C77,-141.34 77,-169 77,-169 77,-169 231.13,-169 231.13,-169"/>
<polygon fill="black" stroke="black" points="231.13,-172.5 241.13,-169 231.13,-165.5 231.13,-172.5"/>
</g>
</g>
</svg>
