<?xml version="1.0" encoding="UTF-8" standalone="no"?>
<!DOCTYPE svg PUBLIC "-//W3C//DTD SVG 1.1//EN"
 "http://www.w3.org/Graphics/SVG/1.1/DTD/svg11.dtd">
<!-- Generated by graphviz version 2.44.1 (20200629.0846)
 -->
<!-- Title: dependencies Pages: 1 -->
<svg width="844pt" height="284pt"
 viewBox="0.00 0.00 844.00 284.00" xmlns="http://www.w3.org/2000/svg" xmlns:xlink="http://www.w3.org/1999/xlink">
<g id="graph0" class="graph" transform="scale(1 1) rotate(0) translate(4 280)">
<title>dependencies</title>
<polygon fill="white" stroke="transparent" points="-4,4 -4,-280 840,-280 840,4 -4,4"/>
<text text-anchor="start" x="397.01" y="-42.4" font-family="sans-serif" font-weight="bold" font-size="14.00">Legend</text>
<polygon fill="#ffffb3" stroke="transparent" points="184,-10 184,-30 204,-30 204,-10 184,-10"/>
<text text-anchor="start" x="207.63" y="-15.4" font-family="sans-serif" font-size="14.00"> &#160;Declarations</text>
<polygon fill="#8dd3c7" stroke="transparent" points="297,-10 297,-30 317,-30 317,-10 297,-10"/>
<text text-anchor="start" x="320.73" y="-15.4" font-family="sans-serif" font-size="14.00"> &#160;Module</text>
<polygon fill="#80b1d3" stroke="transparent" points="383,-10 383,-30 403,-30 403,-10 383,-10"/>
<text text-anchor="start" x="406.78" y="-15.4" font-family="sans-serif" font-size="14.00"> &#160;Bootstrap</text>
<polygon fill="#fdb462" stroke="transparent" points="480,-10 480,-30 500,-30 500,-10 480,-10"/>
<text text-anchor="start" x="503.67" y="-15.4" font-family="sans-serif" font-size="14.00"> &#160;Providers</text>
<polygon fill="#fb8072" stroke="transparent" points="576,-10 576,-30 596,-30 596,-10 576,-10"/>
<text text-anchor="start" x="599.73" y="-15.4" font-family="sans-serif" font-size="14.00"> &#160;Exports</text>
<g id="clust1" class="cluster">
<title>cluster_SearchModule</title>
<polygon fill="none" stroke="black" stroke-dasharray="1,5" points="8,-70 8,-268 828,-268 828,-70 8,-70"/>
</g>
<g id="clust5" class="cluster">
<title>cluster_SearchModule_exports</title>
<polygon fill="none" stroke="black" points="173,-208 173,-260 700,-260 700,-208 173,-208"/>
</g>
<g id="clust4" class="cluster">
<title>cluster_SearchModule_imports</title>
<polygon fill="none" stroke="black" points="176,-78 176,-130 820,-130 820,-78 176,-78"/>
</g>
<g id="clust2" class="cluster">
<title>cluster_SearchModule_declarations</title>
<polygon fill="none" stroke="black" points="16,-78 16,-130 168,-130 168,-78 16,-78"/>
</g>
<!-- ContainerComponent -->
<g id="node1" class="node">
<title>ContainerComponent</title>
<polygon fill="#ffffb3" stroke="black" points="160.04,-122 23.96,-122 23.96,-86 160.04,-86 160.04,-122"/>
<text text-anchor="middle" x="92" y="-99.8" font-family="Times,serif" font-size="14.00">ContainerComponent</text>
</g>
<!-- SearchModule -->
<g id="node2" class="node">
<title>SearchModule</title>
<polygon fill="#8dd3c7" stroke="black" points="468.64,-187 465.64,-191 444.64,-191 441.64,-187 371.36,-187 371.36,-151 468.64,-151 468.64,-187"/>
<text text-anchor="middle" x="420" y="-164.8" font-family="Times,serif" font-size="14.00">SearchModule</text>
</g>
<!-- ContainerComponent&#45;&gt;SearchModule -->
<g id="edge1" class="edge">
<title>ContainerComponent&#45;&gt;SearchModule</title>
<path fill="none" stroke="black" d="M92,-122.11C92,-141.34 92,-169 92,-169 92,-169 361.25,-169 361.25,-169"/>
<polygon fill="black" stroke="black" points="361.25,-172.5 371.25,-169 361.25,-165.5 361.25,-172.5"/>
</g>
<!-- ContainerComponent  -->
<g id="node8" class="node">
<title>ContainerComponent </title>
<polygon fill="#fb8072" stroke="black" points="692.04,-252 551.96,-252 551.96,-216 692.04,-216 692.04,-252"/>
<text text-anchor="middle" x="622" y="-229.8" font-family="Times,serif" font-size="14.00">ContainerComponent </text>
</g>
<!-- SearchModule&#45;&gt;ContainerComponent  -->
<g id="edge7" class="edge">
<title>SearchModule&#45;&gt;ContainerComponent </title>
<path fill="none" stroke="black" stroke-dasharray="5,2" d="M468.87,-178C510.35,-178 563.18,-178 563.18,-178 563.18,-178 563.18,-205.97 563.18,-205.97"/>
<polygon fill="black" stroke="black" points="559.68,-205.97 563.18,-215.97 566.68,-205.97 559.68,-205.97"/>
</g>
<!-- FeatureModule  -->
<g id="node9" class="node">
<title>FeatureModule </title>
<polygon fill="#fb8072" stroke="black" points="533.53,-252 428.47,-252 428.47,-216 533.53,-216 533.53,-252"/>
<text text-anchor="middle" x="481" y="-229.8" font-family="Times,serif" font-size="14.00">FeatureModule </text>
</g>
<!-- SearchModule&#45;&gt;FeatureModule  -->
<g id="edge8" class="edge">
<title>SearchModule&#45;&gt;FeatureModule </title>
<path fill="none" stroke="black" stroke-dasharray="5,2" d="M448.65,-187.11C448.65,-187.11 448.65,-205.99 448.65,-205.99"/>
<polygon fill="black" stroke="black" points="445.15,-205.99 448.65,-215.99 452.15,-205.99 445.15,-205.99"/>
</g>
<!-- HeaderModule  -->
<g id="node10" class="node">
<title>HeaderModule </title>
<polygon fill="#fb8072" stroke="black" points="410.96,-252 307.04,-252 307.04,-216 410.96,-216 410.96,-252"/>
<text text-anchor="middle" x="359" y="-229.8" font-family="Times,serif" font-size="14.00">HeaderModule </text>
</g>
<!-- SearchModule&#45;&gt;HeaderModule  -->
<g id="edge9" class="edge">
<title>SearchModule&#45;&gt;HeaderModule </title>
<path fill="none" stroke="black" stroke-dasharray="5,2" d="M390.96,-187.11C390.96,-187.11 390.96,-205.99 390.96,-205.99"/>
<polygon fill="black" stroke="black" points="387.46,-205.99 390.96,-215.99 394.46,-205.99 387.46,-205.99"/>
</g>
<!-- SidenavModule  -->
<g id="node11" class="node">
<title>SidenavModule </title>
<polygon fill="#fb8072" stroke="black" points="289.15,-252 180.85,-252 180.85,-216 289.15,-216 289.15,-252"/>
<text text-anchor="middle" x="235" y="-229.8" font-family="Times,serif" font-size="14.00">SidenavModule </text>
</g>
<!-- SearchModule&#45;&gt;SidenavModule  -->
<g id="edge10" class="edge">
<title>SearchModule&#45;&gt;SidenavModule </title>
<path fill="none" stroke="black" stroke-dasharray="5,2" d="M371.27,-178C311.7,-178 218.71,-178 218.71,-178 218.71,-178 218.71,-205.97 218.71,-205.97"/>
<polygon fill="black" stroke="black" points="215.21,-205.97 218.71,-215.97 222.21,-205.97 215.21,-205.97"/>
</g>
<!-- FeatureModule -->
<g id="node3" class="node">
<title>FeatureModule</title>
<polygon fill="#8dd3c7" stroke="black" points="811.53,-122 808.53,-126 787.53,-126 784.53,-122 710.47,-122 710.47,-86 811.53,-86 811.53,-122"/>
<text text-anchor="middle" x="761" y="-99.8" font-family="Times,serif" font-size="14.00">FeatureModule</text>
</g>
<!-- FeatureModule&#45;&gt;SearchModule -->
<g id="edge2" class="edge">
<title>FeatureModule&#45;&gt;SearchModule</title>
<path fill="none" stroke="black" d="M761,-122.11C761,-141.34 761,-169 761,-169 761,-169 478.86,-169 478.86,-169"/>
<polygon fill="black" stroke="black" points="478.86,-165.5 468.86,-169 478.86,-172.5 478.86,-165.5"/>
</g>
<!-- HeaderModule -->
<g id="node4" class="node">
<title>HeaderModule</title>
<polygon fill="#8dd3c7" stroke="black" points="691.96,-122 688.96,-126 667.96,-126 664.96,-122 592.04,-122 592.04,-86 691.96,-86 691.96,-122"/>
<text text-anchor="middle" x="642" y="-99.8" font-family="Times,serif" font-size="14.00">HeaderModule</text>
</g>
<!-- HeaderModule&#45;&gt;SearchModule -->
<g id="edge3" class="edge">
<title>HeaderModule&#45;&gt;SearchModule</title>
<path fill="none" stroke="black" d="M642,-122.03C642,-138.4 642,-160 642,-160 642,-160 478.72,-160 478.72,-160"/>
<polygon fill="black" stroke="black" points="478.72,-156.5 468.72,-160 478.72,-163.5 478.72,-156.5"/>
</g>
<!-- SearchRoutingModule -->
<g id="node5" class="node">
<title>SearchRoutingModule</title>
<polygon fill="#8dd3c7" stroke="black" points="574.25,-122 571.25,-126 550.25,-126 547.25,-122 431.75,-122 431.75,-86 574.25,-86 574.25,-122"/>
<text text-anchor="middle" x="503" y="-99.8" font-family="Times,serif" font-size="14.00">SearchRoutingModule</text>
</g>
<!-- SearchRoutingModule&#45;&gt;SearchModule -->
<g id="edge4" class="edge">
<title>SearchRoutingModule&#45;&gt;SearchModule</title>
<path fill="none" stroke="black" d="M450.22,-122.11C450.22,-122.11 450.22,-140.99 450.22,-140.99"/>
<polygon fill="black" stroke="black" points="446.72,-140.99 450.22,-150.99 453.72,-140.99 446.72,-140.99"/>
</g>
<!-- SidenavModule -->
<g id="node6" class="node">
<title>SidenavModule</title>
<polygon fill="#8dd3c7" stroke="black" points="413.15,-122 410.15,-126 389.15,-126 386.15,-122 308.85,-122 308.85,-86 413.15,-86 413.15,-122"/>
<text text-anchor="middle" x="361" y="-99.8" font-family="Times,serif" font-size="14.00">SidenavModule</text>
</g>
<!-- SidenavModule&#45;&gt;SearchModule -->
<g id="edge5" class="edge">
<title>SidenavModule&#45;&gt;SearchModule</title>
<path fill="none" stroke="black" d="M392.25,-122.11C392.25,-122.11 392.25,-140.99 392.25,-140.99"/>
<polygon fill="black" stroke="black" points="388.75,-140.99 392.25,-150.99 395.75,-140.99 388.75,-140.99"/>
</g>
<!-- WeatherModule -->
<g id="node7" class="node">
<title>WeatherModule</title>
<polygon fill="#8dd3c7" stroke="black" points="290.46,-122 287.46,-126 266.46,-126 263.46,-122 183.54,-122 183.54,-86 290.46,-86 290.46,-122"/>
<text text-anchor="middle" x="237" y="-99.8" font-family="Times,serif" font-size="14.00">WeatherModule</text>
</g>
<!-- WeatherModule&#45;&gt;SearchModule -->
<g id="edge6" class="edge">
<title>WeatherModule&#45;&gt;SearchModule</title>
<path fill="none" stroke="black" d="M253.89,-122.03C253.89,-138.4 253.89,-160 253.89,-160 253.89,-160 361.06,-160 361.06,-160"/>
<polygon fill="black" stroke="black" points="361.06,-163.5 371.06,-160 361.06,-156.5 361.06,-163.5"/>
</g>
</g>
</svg>
