<?xml version="1.0" encoding="UTF-8" standalone="no"?>
<!DOCTYPE svg PUBLIC "-//W3C//DTD SVG 1.1//EN"
 "http://www.w3.org/Graphics/SVG/1.1/DTD/svg11.dtd">
<!-- Generated by graphviz version 2.44.1 (20200629.0846)
 -->
<!-- Title: dependencies Pages: 1 -->
<svg width="719pt" height="284pt"
 viewBox="0.00 0.00 719.00 284.00" xmlns="http://www.w3.org/2000/svg" xmlns:xlink="http://www.w3.org/1999/xlink">
<g id="graph0" class="graph" transform="scale(1 1) rotate(0) translate(4 280)">
<title>dependencies</title>
<polygon fill="white" stroke="transparent" points="-4,4 -4,-280 715,-280 715,4 -4,4"/>
<text text-anchor="start" x="334.51" y="-42.4" font-family="sans-serif" font-weight="bold" font-size="14.00">Legend</text>
<polygon fill="#ffffb3" stroke="transparent" points="121.5,-10 121.5,-30 141.5,-30 141.5,-10 121.5,-10"/>
<text text-anchor="start" x="145.13" y="-15.4" font-family="sans-serif" font-size="14.00"> &#160;Declarations</text>
<polygon fill="#8dd3c7" stroke="transparent" points="234.5,-10 234.5,-30 254.5,-30 254.5,-10 234.5,-10"/>
<text text-anchor="start" x="258.23" y="-15.4" font-family="sans-serif" font-size="14.00"> &#160;Module</text>
<polygon fill="#80b1d3" stroke="transparent" points="320.5,-10 320.5,-30 340.5,-30 340.5,-10 320.5,-10"/>
<text text-anchor="start" x="344.28" y="-15.4" font-family="sans-serif" font-size="14.00"> &#160;Bootstrap</text>
<polygon fill="#fdb462" stroke="transparent" points="417.5,-10 417.5,-30 437.5,-30 437.5,-10 417.5,-10"/>
<text text-anchor="start" x="441.17" y="-15.4" font-family="sans-serif" font-size="14.00"> &#160;Providers</text>
<polygon fill="#fb8072" stroke="transparent" points="513.5,-10 513.5,-30 533.5,-30 533.5,-10 513.5,-10"/>
<text text-anchor="start" x="537.23" y="-15.4" font-family="sans-serif" font-size="14.00"> &#160;Exports</text>
<g id="clust1" class="cluster">
<title>cluster_SearchModule</title>
<polygon fill="none" stroke="black" stroke-dasharray="1,5" points="8,-70 8,-268 703,-268 703,-70 8,-70"/>
</g>
<g id="clust5" class="cluster">
<title>cluster_SearchModule_exports</title>
<polygon fill="none" stroke="black" points="49,-208 49,-260 695,-260 695,-208 49,-208"/>
</g>
<g id="clust4" class="cluster">
<title>cluster_SearchModule_imports</title>
<polygon fill="none" stroke="black" points="176,-78 176,-195 695,-195 695,-78 176,-78"/>
</g>
<g id="clust2" class="cluster">
<title>cluster_SearchModule_declarations</title>
<polygon fill="none" stroke="black" points="16,-78 16,-130 168,-130 168,-78 16,-78"/>
</g>
<!-- ContainerComponent -->
<g id="node1" class="node">
<title>ContainerComponent</title>
<polygon fill="#ffffb3" stroke="black" points="160.04,-122 23.96,-122 23.96,-86 160.04,-86 160.04,-122"/>
<text text-anchor="middle" x="92" y="-99.8" font-family="Times,serif" font-size="14.00">ContainerComponent</text>
</g>
<!-- SearchModule -->
<g id="node2" class="node">
<title>SearchModule</title>
<polygon fill="#8dd3c7" stroke="black" points="414.64,-187 411.64,-191 390.64,-191 387.64,-187 317.36,-187 317.36,-151 414.64,-151 414.64,-187"/>
<text text-anchor="middle" x="366" y="-164.8" font-family="Times,serif" font-size="14.00">SearchModule</text>
</g>
<!-- ContainerComponent&#45;&gt;SearchModule -->
<g id="edge1" class="edge">
<title>ContainerComponent&#45;&gt;SearchModule</title>
<path fill="none" stroke="black" d="M91.37,-122.27C91.37,-140.56 91.37,-166 91.37,-166 91.37,-166 307.22,-166 307.22,-166"/>
<polygon fill="black" stroke="black" points="307.22,-169.5 317.22,-166 307.22,-162.5 307.22,-169.5"/>
</g>
<!-- SearchModule&#45;&gt;SearchModule -->
<g id="edge4" class="edge">
<title>SearchModule&#45;&gt;SearchModule</title>
<path fill="none" stroke="black" d="M382.27,-150.76C382.27,-143.57 382.27,-137 382.27,-137 382.27,-137 419.15,-137 419.15,-137 419.15,-137 419.15,-202 419.15,-202 419.15,-202 411.79,-202 411.79,-202 411.79,-202 411.79,-197.04 411.79,-197.04"/>
<polygon fill="black" stroke="black" points="415.29,-197.04 411.79,-187.04 408.29,-197.04 415.29,-197.04"/>
</g>
<!-- ContainerComponent  -->
<g id="node7" class="node">
<title>ContainerComponent </title>
<polygon fill="#fb8072" stroke="black" points="687.04,-252 546.96,-252 546.96,-216 687.04,-216 687.04,-252"/>
<text text-anchor="middle" x="617" y="-229.8" font-family="Times,serif" font-size="14.00">ContainerComponent </text>
</g>
<!-- SearchModule&#45;&gt;ContainerComponent  -->
<g id="edge7" class="edge">
<title>SearchModule&#45;&gt;ContainerComponent </title>
<path fill="none" stroke="black" stroke-dasharray="5,2" d="M414.69,-178C471.27,-178 556.98,-178 556.98,-178 556.98,-178 556.98,-205.97 556.98,-205.97"/>
<polygon fill="black" stroke="black" points="553.48,-205.97 556.98,-215.97 560.48,-205.97 553.48,-205.97"/>
</g>
<!-- FeatureModule  -->
<g id="node8" class="node">
<title>FeatureModule </title>
<polygon fill="#fb8072" stroke="black" points="528.53,-252 423.47,-252 423.47,-216 528.53,-216 528.53,-252"/>
<text text-anchor="middle" x="476" y="-229.8" font-family="Times,serif" font-size="14.00">FeatureModule </text>
</g>
<!-- SearchModule&#45;&gt;FeatureModule  -->
<g id="edge8" class="edge">
<title>SearchModule&#45;&gt;FeatureModule </title>
<path fill="none" stroke="black" stroke-dasharray="5,2" d="M408.76,-187.11C408.76,-206.34 408.76,-234 408.76,-234 408.76,-234 413.35,-234 413.35,-234"/>
<polygon fill="black" stroke="black" points="413.35,-237.5 423.35,-234 413.35,-230.5 413.35,-237.5"/>
</g>
<!-- HeaderModule  -->
<g id="node9" class="node">
<title>HeaderModule </title>
<polygon fill="#fb8072" stroke="black" points="405.96,-252 302.04,-252 302.04,-216 405.96,-216 405.96,-252"/>
<text text-anchor="middle" x="354" y="-229.8" font-family="Times,serif" font-size="14.00">HeaderModule </text>
</g>
<!-- SearchModule&#45;&gt;HeaderModule  -->
<g id="edge9" class="edge">
<title>SearchModule&#45;&gt;HeaderModule </title>
<path fill="none" stroke="black" stroke-dasharray="5,2" d="M361.46,-187.11C361.46,-187.11 361.46,-205.99 361.46,-205.99"/>
<polygon fill="black" stroke="black" points="357.96,-205.99 361.46,-215.99 364.96,-205.99 357.96,-205.99"/>
</g>
<!-- SearchModule  -->
<g id="node10" class="node">
<title>SearchModule </title>
<polygon fill="#fb8072" stroke="black" points="284.64,-252 183.36,-252 183.36,-216 284.64,-216 284.64,-252"/>
<text text-anchor="middle" x="234" y="-229.8" font-family="Times,serif" font-size="14.00">SearchModule </text>
</g>
<!-- SearchModule&#45;&gt;SearchModule  -->
<g id="edge10" class="edge">
<title>SearchModule&#45;&gt;SearchModule </title>
<path fill="none" stroke="black" stroke-dasharray="5,2" d="M317.31,-180C273.95,-180 217.31,-180 217.31,-180 217.31,-180 217.31,-205.72 217.31,-205.72"/>
<polygon fill="black" stroke="black" points="213.81,-205.72 217.31,-215.72 220.81,-205.72 213.81,-205.72"/>
</g>
<!-- SidenavModule  -->
<g id="node11" class="node">
<title>SidenavModule </title>
<polygon fill="#fb8072" stroke="black" points="165.15,-252 56.85,-252 56.85,-216 165.15,-216 165.15,-252"/>
<text text-anchor="middle" x="111" y="-229.8" font-family="Times,serif" font-size="14.00">SidenavModule </text>
</g>
<!-- SearchModule&#45;&gt;SidenavModule  -->
<g id="edge11" class="edge">
<title>SearchModule&#45;&gt;SidenavModule </title>
<path fill="none" stroke="black" stroke-dasharray="5,2" d="M317.11,-173C246.88,-173 125.82,-173 125.82,-173 125.82,-173 125.82,-205.7 125.82,-205.7"/>
<polygon fill="black" stroke="black" points="122.32,-205.7 125.82,-215.7 129.32,-205.7 122.32,-205.7"/>
</g>
<!-- FeatureModule -->
<g id="node3" class="node">
<title>FeatureModule</title>
<polygon fill="#8dd3c7" stroke="black" points="686.53,-122 683.53,-126 662.53,-126 659.53,-122 585.47,-122 585.47,-86 686.53,-86 686.53,-122"/>
<text text-anchor="middle" x="636" y="-99.8" font-family="Times,serif" font-size="14.00">FeatureModule</text>
</g>
<!-- FeatureModule&#45;&gt;SearchModule -->
<g id="edge2" class="edge">
<title>FeatureModule&#45;&gt;SearchModule</title>
<path fill="none" stroke="black" d="M636,-122.11C636,-141.34 636,-169 636,-169 636,-169 424.89,-169 424.89,-169"/>
<polygon fill="black" stroke="black" points="424.89,-165.5 414.89,-169 424.89,-172.5 424.89,-165.5"/>
</g>
<!-- HeaderModule -->
<g id="node4" class="node">
<title>HeaderModule</title>
<polygon fill="#8dd3c7" stroke="black" points="566.96,-122 563.96,-126 542.96,-126 539.96,-122 467.04,-122 467.04,-86 566.96,-86 566.96,-122"/>
<text text-anchor="middle" x="517" y="-99.8" font-family="Times,serif" font-size="14.00">HeaderModule</text>
</g>
<!-- HeaderModule&#45;&gt;SearchModule -->
<g id="edge3" class="edge">
<title>HeaderModule&#45;&gt;SearchModule</title>
<path fill="none" stroke="black" d="M497.77,-122.03C497.77,-138.4 497.77,-160 497.77,-160 497.77,-160 424.69,-160 424.69,-160"/>
<polygon fill="black" stroke="black" points="424.69,-156.5 414.69,-160 424.69,-163.5 424.69,-156.5"/>
</g>
<!-- SearchRoutingModule -->
<g id="node5" class="node">
<title>SearchRoutingModule</title>
<polygon fill="#8dd3c7" stroke="black" points="449.25,-122 446.25,-126 425.25,-126 422.25,-122 306.75,-122 306.75,-86 449.25,-86 449.25,-122"/>
<text text-anchor="middle" x="378" y="-99.8" font-family="Times,serif" font-size="14.00">SearchRoutingModule</text>
</g>
<!-- SearchRoutingModule&#45;&gt;SearchModule -->
<g id="edge5" class="edge">
<title>SearchRoutingModule&#45;&gt;SearchModule</title>
<path fill="none" stroke="black" d="M349.73,-122.11C349.73,-122.11 349.73,-140.99 349.73,-140.99"/>
<polygon fill="black" stroke="black" points="346.23,-140.99 349.73,-150.99 353.23,-140.99 346.23,-140.99"/>
</g>
<!-- SidenavModule -->
<g id="node6" class="node">
<title>SidenavModule</title>
<polygon fill="#8dd3c7" stroke="black" points="288.15,-122 285.15,-126 264.15,-126 261.15,-122 183.85,-122 183.85,-86 288.15,-86 288.15,-122"/>
<text text-anchor="middle" x="236" y="-99.8" font-family="Times,serif" font-size="14.00">SidenavModule</text>
</g>
<!-- SidenavModule&#45;&gt;SearchModule -->
<g id="edge6" class="edge">
<title>SidenavModule&#45;&gt;SearchModule</title>
<path fill="none" stroke="black" d="M250.94,-122.01C250.94,-138.05 250.94,-159 250.94,-159 250.94,-159 307.2,-159 307.2,-159"/>
<polygon fill="black" stroke="black" points="307.2,-162.5 317.2,-159 307.2,-155.5 307.2,-162.5"/>
</g>
</g>
</svg>
