<?xml version="1.0" encoding="UTF-8" standalone="no"?>
<!DOCTYPE svg PUBLIC "-//W3C//DTD SVG 1.1//EN"
 "http://www.w3.org/Graphics/SVG/1.1/DTD/svg11.dtd">
<!-- Generated by graphviz version 2.44.1 (20200629.0846)
 -->
<!-- Title: dependencies Pages: 1 -->
<svg width="599pt" height="284pt"
 viewBox="0.00 0.00 599.00 284.00" xmlns="http://www.w3.org/2000/svg" xmlns:xlink="http://www.w3.org/1999/xlink">
<g id="graph0" class="graph" transform="scale(1 1) rotate(0) translate(4 280)">
<title>dependencies</title>
<polygon fill="white" stroke="transparent" points="-4,4 -4,-280 595,-280 595,4 -4,4"/>
<text text-anchor="start" x="274.51" y="-42.4" font-family="sans-serif" font-weight="bold" font-size="14.00">Legend</text>
<polygon fill="#ffffb3" stroke="transparent" points="61.5,-10 61.5,-30 81.5,-30 81.5,-10 61.5,-10"/>
<text text-anchor="start" x="85.13" y="-15.4" font-family="sans-serif" font-size="14.00"> &#160;Declarations</text>
<polygon fill="#8dd3c7" stroke="transparent" points="174.5,-10 174.5,-30 194.5,-30 194.5,-10 174.5,-10"/>
<text text-anchor="start" x="198.23" y="-15.4" font-family="sans-serif" font-size="14.00"> &#160;Module</text>
<polygon fill="#80b1d3" stroke="transparent" points="260.5,-10 260.5,-30 280.5,-30 280.5,-10 260.5,-10"/>
<text text-anchor="start" x="284.28" y="-15.4" font-family="sans-serif" font-size="14.00"> &#160;Bootstrap</text>
<polygon fill="#fdb462" stroke="transparent" points="357.5,-10 357.5,-30 377.5,-30 377.5,-10 357.5,-10"/>
<text text-anchor="start" x="381.17" y="-15.4" font-family="sans-serif" font-size="14.00"> &#160;Providers</text>
<polygon fill="#fb8072" stroke="transparent" points="453.5,-10 453.5,-30 473.5,-30 473.5,-10 453.5,-10"/>
<text text-anchor="start" x="477.23" y="-15.4" font-family="sans-serif" font-size="14.00"> &#160;Exports</text>
<g id="clust1" class="cluster">
<title>cluster_SearchModule</title>
<polygon fill="none" stroke="black" stroke-dasharray="1,5" points="8,-70 8,-268 583,-268 583,-70 8,-70"/>
</g>
<g id="clust2" class="cluster">
<title>cluster_SearchModule_declarations</title>
<polygon fill="none" stroke="black" points="423,-78 423,-130 575,-130 575,-78 423,-78"/>
</g>
<g id="clust4" class="cluster">
<title>cluster_SearchModule_imports</title>
<polygon fill="none" stroke="black" points="16,-78 16,-130 415,-130 415,-78 16,-78"/>
</g>
<g id="clust5" class="cluster">
<title>cluster_SearchModule_exports</title>
<polygon fill="none" stroke="black" points="101,-208 101,-260 505,-260 505,-208 101,-208"/>
</g>
<!-- ContainerComponent -->
<g id="node1" class="node">
<title>ContainerComponent</title>
<polygon fill="#ffffb3" stroke="black" points="567.04,-122 430.96,-122 430.96,-86 567.04,-86 567.04,-122"/>
<text text-anchor="middle" x="499" y="-99.8" font-family="Times,serif" font-size="14.00">ContainerComponent</text>
</g>
<!-- SearchModule -->
<g id="node2" class="node">
<title>SearchModule</title>
<polygon fill="#8dd3c7" stroke="black" points="335.64,-187 332.64,-191 311.64,-191 308.64,-187 238.36,-187 238.36,-151 335.64,-151 335.64,-187"/>
<text text-anchor="middle" x="287" y="-164.8" font-family="Times,serif" font-size="14.00">SearchModule</text>
</g>
<!-- ContainerComponent&#45;&gt;SearchModule -->
<g id="edge1" class="edge">
<title>ContainerComponent&#45;&gt;SearchModule</title>
<path fill="none" stroke="black" d="M463.88,-122.02C463.88,-139.37 463.88,-163 463.88,-163 463.88,-163 345.8,-163 345.8,-163"/>
<polygon fill="black" stroke="black" points="345.8,-159.5 335.8,-163 345.8,-166.5 345.8,-159.5"/>
</g>
<!-- ContainerComponent  -->
<g id="node6" class="node">
<title>ContainerComponent </title>
<polygon fill="#fb8072" stroke="black" points="497.04,-252 356.96,-252 356.96,-216 497.04,-216 497.04,-252"/>
<text text-anchor="middle" x="427" y="-229.8" font-family="Times,serif" font-size="14.00">ContainerComponent </text>
</g>
<!-- SearchModule&#45;&gt;ContainerComponent  -->
<g id="edge5" class="edge">
<title>SearchModule&#45;&gt;ContainerComponent </title>
<path fill="none" stroke="black" stroke-dasharray="5,2" d="M335.88,-175C359.15,-175 381.98,-175 381.98,-175 381.98,-175 381.98,-205.98 381.98,-205.98"/>
<polygon fill="black" stroke="black" points="378.48,-205.98 381.98,-215.98 385.48,-205.98 378.48,-205.98"/>
</g>
<!-- HeaderModule  -->
<g id="node7" class="node">
<title>HeaderModule </title>
<polygon fill="#fb8072" stroke="black" points="338.96,-252 235.04,-252 235.04,-216 338.96,-216 338.96,-252"/>
<text text-anchor="middle" x="287" y="-229.8" font-family="Times,serif" font-size="14.00">HeaderModule </text>
</g>
<!-- SearchModule&#45;&gt;HeaderModule  -->
<g id="edge6" class="edge">
<title>SearchModule&#45;&gt;HeaderModule </title>
<path fill="none" stroke="black" stroke-dasharray="5,2" d="M287,-187.11C287,-187.11 287,-205.99 287,-205.99"/>
<polygon fill="black" stroke="black" points="283.5,-205.99 287,-215.99 290.5,-205.99 283.5,-205.99"/>
</g>
<!-- SidenavModule  -->
<g id="node8" class="node">
<title>SidenavModule </title>
<polygon fill="#fb8072" stroke="black" points="217.15,-252 108.85,-252 108.85,-216 217.15,-216 217.15,-252"/>
<text text-anchor="middle" x="163" y="-229.8" font-family="Times,serif" font-size="14.00">SidenavModule </text>
</g>
<!-- SearchModule&#45;&gt;SidenavModule  -->
<g id="edge7" class="edge">
<title>SearchModule&#45;&gt;SidenavModule </title>
<path fill="none" stroke="black" stroke-dasharray="5,2" d="M238.12,-175C210.66,-175 181.85,-175 181.85,-175 181.85,-175 181.85,-205.98 181.85,-205.98"/>
<polygon fill="black" stroke="black" points="178.35,-205.98 181.85,-215.98 185.35,-205.98 178.35,-205.98"/>
</g>
<!-- HeaderModule -->
<g id="node3" class="node">
<title>HeaderModule</title>
<polygon fill="#8dd3c7" stroke="black" points="406.96,-122 403.96,-126 382.96,-126 379.96,-122 307.04,-122 307.04,-86 406.96,-86 406.96,-122"/>
<text text-anchor="middle" x="357" y="-99.8" font-family="Times,serif" font-size="14.00">HeaderModule</text>
</g>
<!-- HeaderModule&#45;&gt;SearchModule -->
<g id="edge2" class="edge">
<title>HeaderModule&#45;&gt;SearchModule</title>
<path fill="none" stroke="black" d="M321.42,-122.11C321.42,-122.11 321.42,-140.99 321.42,-140.99"/>
<polygon fill="black" stroke="black" points="317.92,-140.99 321.42,-150.99 324.92,-140.99 317.92,-140.99"/>
</g>
<!-- SearchRoutingModule -->
<g id="node4" class="node">
<title>SearchRoutingModule</title>
<polygon fill="#8dd3c7" stroke="black" points="289.25,-122 286.25,-126 265.25,-126 262.25,-122 146.75,-122 146.75,-86 289.25,-86 289.25,-122"/>
<text text-anchor="middle" x="218" y="-99.8" font-family="Times,serif" font-size="14.00">SearchRoutingModule</text>
</g>
<!-- SearchRoutingModule&#45;&gt;SearchModule -->
<g id="edge3" class="edge">
<title>SearchRoutingModule&#45;&gt;SearchModule</title>
<path fill="none" stroke="black" d="M263.78,-122.11C263.78,-122.11 263.78,-140.99 263.78,-140.99"/>
<polygon fill="black" stroke="black" points="260.28,-140.99 263.78,-150.99 267.28,-140.99 260.28,-140.99"/>
</g>
<!-- SidenavModule -->
<g id="node5" class="node">
<title>SidenavModule</title>
<polygon fill="#8dd3c7" stroke="black" points="128.15,-122 125.15,-126 104.15,-126 101.15,-122 23.85,-122 23.85,-86 128.15,-86 128.15,-122"/>
<text text-anchor="middle" x="76" y="-99.8" font-family="Times,serif" font-size="14.00">SidenavModule</text>
</g>
<!-- SidenavModule&#45;&gt;SearchModule -->
<g id="edge4" class="edge">
<title>SidenavModule&#45;&gt;SearchModule</title>
<path fill="none" stroke="black" d="M118.62,-122.02C118.62,-139.37 118.62,-163 118.62,-163 118.62,-163 228.3,-163 228.3,-163"/>
<polygon fill="black" stroke="black" points="228.3,-166.5 238.3,-163 228.3,-159.5 228.3,-166.5"/>
</g>
</g>
</svg>
