<?xml version="1.0" encoding="UTF-8" standalone="no"?>
<!DOCTYPE svg PUBLIC "-//W3C//DTD SVG 1.1//EN"
 "http://www.w3.org/Graphics/SVG/1.1/DTD/svg11.dtd">
<!-- Generated by graphviz version 2.44.1 (20200629.0846)
 -->
<!-- Title: dependencies Pages: 1 -->
<svg width="567pt" height="284pt"
 viewBox="0.00 0.00 567.00 284.00" xmlns="http://www.w3.org/2000/svg" xmlns:xlink="http://www.w3.org/1999/xlink">
<g id="graph0" class="graph" transform="scale(1 1) rotate(0) translate(4 280)">
<title>dependencies</title>
<polygon fill="white" stroke="transparent" points="-4,4 -4,-280 563,-280 563,4 -4,4"/>
<text text-anchor="start" x="258.51" y="-42.4" font-family="sans-serif" font-weight="bold" font-size="14.00">Legend</text>
<polygon fill="#ffffb3" stroke="transparent" points="45.5,-10 45.5,-30 65.5,-30 65.5,-10 45.5,-10"/>
<text text-anchor="start" x="69.13" y="-15.4" font-family="sans-serif" font-size="14.00"> &#160;Declarations</text>
<polygon fill="#8dd3c7" stroke="transparent" points="158.5,-10 158.5,-30 178.5,-30 178.5,-10 158.5,-10"/>
<text text-anchor="start" x="182.23" y="-15.4" font-family="sans-serif" font-size="14.00"> &#160;Module</text>
<polygon fill="#80b1d3" stroke="transparent" points="244.5,-10 244.5,-30 264.5,-30 264.5,-10 244.5,-10"/>
<text text-anchor="start" x="268.28" y="-15.4" font-family="sans-serif" font-size="14.00"> &#160;Bootstrap</text>
<polygon fill="#fdb462" stroke="transparent" points="341.5,-10 341.5,-30 361.5,-30 361.5,-10 341.5,-10"/>
<text text-anchor="start" x="365.17" y="-15.4" font-family="sans-serif" font-size="14.00"> &#160;Providers</text>
<polygon fill="#fb8072" stroke="transparent" points="437.5,-10 437.5,-30 457.5,-30 457.5,-10 437.5,-10"/>
<text text-anchor="start" x="461.23" y="-15.4" font-family="sans-serif" font-size="14.00"> &#160;Exports</text>
<g id="clust1" class="cluster">
<title>cluster_AppModule</title>
<polygon fill="none" stroke="black" stroke-dasharray="1,5" points="8,-70 8,-268 551,-268 551,-70 8,-70"/>
</g>
<g id="clust2" class="cluster">
<title>cluster_AppModule_declarations</title>
<polygon fill="none" stroke="black" points="421,-78 421,-130 543,-130 543,-78 421,-78"/>
</g>
<g id="clust6" class="cluster">
<title>cluster_AppModule_bootstrap</title>
<polygon fill="none" stroke="black" points="209,-208 209,-260 333,-260 333,-208 209,-208"/>
</g>
<g id="clust4" class="cluster">
<title>cluster_AppModule_imports</title>
<polygon fill="none" stroke="black" points="16,-78 16,-130 413,-130 413,-78 16,-78"/>
</g>
<!-- AppComponent -->
<g id="node1" class="node">
<title>AppComponent</title>
<polygon fill="#ffffb3" stroke="black" points="534.94,-122 429.06,-122 429.06,-86 534.94,-86 534.94,-122"/>
<text text-anchor="middle" x="482" y="-99.8" font-family="Times,serif" font-size="14.00">AppComponent</text>
</g>
<!-- AppModule -->
<g id="node2" class="node">
<title>AppModule</title>
<polygon fill="#8dd3c7" stroke="black" points="312.66,-187 309.66,-191 288.66,-191 285.66,-187 229.34,-187 229.34,-151 312.66,-151 312.66,-187"/>
<text text-anchor="middle" x="271" y="-164.8" font-family="Times,serif" font-size="14.00">AppModule</text>
</g>
<!-- AppComponent&#45;&gt;AppModule -->
<g id="edge1" class="edge">
<title>AppComponent&#45;&gt;AppModule</title>
<path fill="none" stroke="black" d="M482,-122.11C482,-141.34 482,-169 482,-169 482,-169 322.69,-169 322.69,-169"/>
<polygon fill="black" stroke="black" points="322.69,-165.5 312.69,-169 322.69,-172.5 322.69,-165.5"/>
</g>
<!-- AppComponent  -->
<g id="node6" class="node">
<title>AppComponent </title>
<polygon fill="#80b1d3" stroke="black" points="325.44,-252 216.56,-252 216.56,-216 325.44,-216 325.44,-252"/>
<text text-anchor="middle" x="271" y="-229.8" font-family="Times,serif" font-size="14.00">AppComponent </text>
</g>
<!-- AppModule&#45;&gt;AppComponent  -->
<g id="edge5" class="edge">
<title>AppModule&#45;&gt;AppComponent </title>
<path fill="none" stroke="black" stroke-dasharray="1,5" d="M271,-187.11C271,-187.11 271,-205.99 271,-205.99"/>
<polygon fill="black" stroke="black" points="267.5,-205.99 271,-215.99 274.5,-205.99 267.5,-205.99"/>
</g>
<!-- AppRoutingModule -->
<g id="node3" class="node">
<title>AppRoutingModule</title>
<polygon fill="#8dd3c7" stroke="black" points="405.27,-122 402.27,-126 381.27,-126 378.27,-122 276.73,-122 276.73,-86 405.27,-86 405.27,-122"/>
<text text-anchor="middle" x="341" y="-99.8" font-family="Times,serif" font-size="14.00">AppRoutingModule</text>
</g>
<!-- AppRoutingModule&#45;&gt;AppModule -->
<g id="edge2" class="edge">
<title>AppRoutingModule&#45;&gt;AppModule</title>
<path fill="none" stroke="black" d="M294.72,-122.11C294.72,-122.11 294.72,-140.99 294.72,-140.99"/>
<polygon fill="black" stroke="black" points="291.22,-140.99 294.72,-150.99 298.22,-140.99 291.22,-140.99"/>
</g>
<!-- ContainerModule -->
<g id="node4" class="node">
<title>ContainerModule</title>
<polygon fill="#8dd3c7" stroke="black" points="258.26,-122 255.26,-126 234.26,-126 231.26,-122 143.74,-122 143.74,-86 258.26,-86 258.26,-122"/>
<text text-anchor="middle" x="201" y="-99.8" font-family="Times,serif" font-size="14.00">ContainerModule</text>
</g>
<!-- ContainerModule&#45;&gt;AppModule -->
<g id="edge3" class="edge">
<title>ContainerModule&#45;&gt;AppModule</title>
<path fill="none" stroke="black" d="M243.78,-122.11C243.78,-122.11 243.78,-140.99 243.78,-140.99"/>
<polygon fill="black" stroke="black" points="240.28,-140.99 243.78,-150.99 247.28,-140.99 240.28,-140.99"/>
</g>
<!-- FeatureModule -->
<g id="node5" class="node">
<title>FeatureModule</title>
<polygon fill="#8dd3c7" stroke="black" points="125.53,-122 122.53,-126 101.53,-126 98.53,-122 24.47,-122 24.47,-86 125.53,-86 125.53,-122"/>
<text text-anchor="middle" x="75" y="-99.8" font-family="Times,serif" font-size="14.00">FeatureModule</text>
</g>
<!-- FeatureModule&#45;&gt;AppModule -->
<g id="edge4" class="edge">
<title>FeatureModule&#45;&gt;AppModule</title>
<path fill="none" stroke="black" d="M75,-122.11C75,-141.34 75,-169 75,-169 75,-169 218.95,-169 218.95,-169"/>
<polygon fill="black" stroke="black" points="218.95,-172.5 228.95,-169 218.95,-165.5 218.95,-172.5"/>
</g>
</g>
</svg>
