<?xml version="1.0" encoding="UTF-8" standalone="no"?>
<!DOCTYPE svg PUBLIC "-//W3C//DTD SVG 1.1//EN"
 "http://www.w3.org/Graphics/SVG/1.1/DTD/svg11.dtd">
<!-- Generated by graphviz version 2.44.1 (20200629.0846)
 -->
<!-- Title: dependencies Pages: 1 -->
<svg width="504pt" height="284pt"
 viewBox="0.00 0.00 504.00 284.00" xmlns="http://www.w3.org/2000/svg" xmlns:xlink="http://www.w3.org/1999/xlink">
<g id="graph0" class="graph" transform="scale(1 1) rotate(0) translate(4 280)">
<title>dependencies</title>
<polygon fill="white" stroke="transparent" points="-4,4 -4,-280 500,-280 500,4 -4,4"/>
<text text-anchor="start" x="227.01" y="-42.4" font-family="sans-serif" font-weight="bold" font-size="14.00">Legend</text>
<polygon fill="#ffffb3" stroke="transparent" points="14,-10 14,-30 34,-30 34,-10 14,-10"/>
<text text-anchor="start" x="37.63" y="-15.4" font-family="sans-serif" font-size="14.00"> &#160;Declarations</text>
<polygon fill="#8dd3c7" stroke="transparent" points="127,-10 127,-30 147,-30 147,-10 127,-10"/>
<text text-anchor="start" x="150.73" y="-15.4" font-family="sans-serif" font-size="14.00"> &#160;Module</text>
<polygon fill="#80b1d3" stroke="transparent" points="213,-10 213,-30 233,-30 233,-10 213,-10"/>
<text text-anchor="start" x="236.78" y="-15.4" font-family="sans-serif" font-size="14.00"> &#160;Bootstrap</text>
<polygon fill="#fdb462" stroke="transparent" points="310,-10 310,-30 330,-30 330,-10 310,-10"/>
<text text-anchor="start" x="333.67" y="-15.4" font-family="sans-serif" font-size="14.00"> &#160;Providers</text>
<polygon fill="#fb8072" stroke="transparent" points="406,-10 406,-30 426,-30 426,-10 406,-10"/>
<text text-anchor="start" x="429.73" y="-15.4" font-family="sans-serif" font-size="14.00"> &#160;Exports</text>
<g id="clust1" class="cluster">
<title>cluster_FavoritesModule</title>
<polygon fill="none" stroke="black" stroke-dasharray="1,5" points="78,-70 78,-268 418,-268 418,-70 78,-70"/>
</g>
<g id="clust5" class="cluster">
<title>cluster_FavoritesModule_exports</title>
<polygon fill="none" stroke="black" points="168,-208 168,-260 316,-260 316,-208 168,-208"/>
</g>
<g id="clust4" class="cluster">
<title>cluster_FavoritesModule_imports</title>
<polygon fill="none" stroke="black" points="238,-78 238,-130 410,-130 410,-78 238,-78"/>
</g>
<g id="clust2" class="cluster">
<title>cluster_FavoritesModule_declarations</title>
<polygon fill="none" stroke="black" points="86,-78 86,-130 230,-130 230,-78 86,-78"/>
</g>
<!-- ForecastComponent -->
<g id="node1" class="node">
<title>ForecastComponent</title>
<polygon fill="#ffffb3" stroke="black" points="222.25,-122 93.75,-122 93.75,-86 222.25,-86 222.25,-122"/>
<text text-anchor="middle" x="158" y="-99.8" font-family="Times,serif" font-size="14.00">ForecastComponent</text>
</g>
<!-- FavoritesModule -->
<g id="node2" class="node">
<title>FavoritesModule</title>
<polygon fill="#8dd3c7" stroke="black" points="297.65,-187 294.65,-191 273.65,-191 270.65,-187 186.35,-187 186.35,-151 297.65,-151 297.65,-187"/>
<text text-anchor="middle" x="242" y="-164.8" font-family="Times,serif" font-size="14.00">FavoritesModule</text>
</g>
<!-- ForecastComponent&#45;&gt;FavoritesModule -->
<g id="edge1" class="edge">
<title>ForecastComponent&#45;&gt;FavoritesModule</title>
<path fill="none" stroke="black" d="M204.28,-122.11C204.28,-122.11 204.28,-140.99 204.28,-140.99"/>
<polygon fill="black" stroke="black" points="200.78,-140.99 204.28,-150.99 207.78,-140.99 200.78,-140.99"/>
</g>
<!-- ForecastComponent  -->
<g id="node4" class="node">
<title>ForecastComponent </title>
<polygon fill="#fb8072" stroke="black" points="308.25,-252 175.75,-252 175.75,-216 308.25,-216 308.25,-252"/>
<text text-anchor="middle" x="242" y="-229.8" font-family="Times,serif" font-size="14.00">ForecastComponent </text>
</g>
<!-- FavoritesModule&#45;&gt;ForecastComponent  -->
<g id="edge3" class="edge">
<title>FavoritesModule&#45;&gt;ForecastComponent </title>
<path fill="none" stroke="black" stroke-dasharray="5,2" d="M242,-187.11C242,-187.11 242,-205.99 242,-205.99"/>
<polygon fill="black" stroke="black" points="238.5,-205.99 242,-215.99 245.5,-205.99 238.5,-205.99"/>
</g>
<!-- FavoritesRoutingModule -->
<g id="node3" class="node">
<title>FavoritesRoutingModule</title>
<polygon fill="#8dd3c7" stroke="black" points="402.27,-122 399.27,-126 378.27,-126 375.27,-122 245.73,-122 245.73,-86 402.27,-86 402.27,-122"/>
<text text-anchor="middle" x="324" y="-99.8" font-family="Times,serif" font-size="14.00">FavoritesRoutingModule</text>
</g>
<!-- FavoritesRoutingModule&#45;&gt;FavoritesModule -->
<g id="edge2" class="edge">
<title>FavoritesRoutingModule&#45;&gt;FavoritesModule</title>
<path fill="none" stroke="black" d="M271.72,-122.11C271.72,-122.11 271.72,-140.99 271.72,-140.99"/>
<polygon fill="black" stroke="black" points="268.22,-140.99 271.72,-150.99 275.22,-140.99 268.22,-140.99"/>
</g>
</g>
</svg>
