<?xml version="1.0" encoding="UTF-8" standalone="no"?>
<!DOCTYPE svg PUBLIC "-//W3C//DTD SVG 1.1//EN"
 "http://www.w3.org/Graphics/SVG/1.1/DTD/svg11.dtd">
<!-- Generated by graphviz version 2.44.1 (20200629.0846)
 -->
<!-- Title: dependencies Pages: 1 -->
<svg width="848pt" height="284pt"
 viewBox="0.00 0.00 848.00 284.00" xmlns="http://www.w3.org/2000/svg" xmlns:xlink="http://www.w3.org/1999/xlink">
<g id="graph0" class="graph" transform="scale(1 1) rotate(0) translate(4 280)">
<title>dependencies</title>
<polygon fill="white" stroke="transparent" points="-4,4 -4,-280 844,-280 844,4 -4,4"/>
<text text-anchor="start" x="399.01" y="-42.4" font-family="sans-serif" font-weight="bold" font-size="14.00">Legend</text>
<polygon fill="#ffffb3" stroke="transparent" points="186,-10 186,-30 206,-30 206,-10 186,-10"/>
<text text-anchor="start" x="209.63" y="-15.4" font-family="sans-serif" font-size="14.00"> &#160;Declarations</text>
<polygon fill="#8dd3c7" stroke="transparent" points="299,-10 299,-30 319,-30 319,-10 299,-10"/>
<text text-anchor="start" x="322.73" y="-15.4" font-family="sans-serif" font-size="14.00"> &#160;Module</text>
<polygon fill="#80b1d3" stroke="transparent" points="385,-10 385,-30 405,-30 405,-10 385,-10"/>
<text text-anchor="start" x="408.78" y="-15.4" font-family="sans-serif" font-size="14.00"> &#160;Bootstrap</text>
<polygon fill="#fdb462" stroke="transparent" points="482,-10 482,-30 502,-30 502,-10 482,-10"/>
<text text-anchor="start" x="505.67" y="-15.4" font-family="sans-serif" font-size="14.00"> &#160;Providers</text>
<polygon fill="#fb8072" stroke="transparent" points="578,-10 578,-30 598,-30 598,-10 578,-10"/>
<text text-anchor="start" x="601.73" y="-15.4" font-family="sans-serif" font-size="14.00"> &#160;Exports</text>
<g id="clust1" class="cluster">
<title>cluster_FavoritesModule</title>
<polygon fill="none" stroke="black" stroke-dasharray="1,5" points="8,-70 8,-268 832,-268 832,-70 8,-70"/>
</g>
<g id="clust2" class="cluster">
<title>cluster_FavoritesModule_declarations</title>
<polygon fill="none" stroke="black" points="672,-78 672,-130 824,-130 824,-78 672,-78"/>
</g>
<g id="clust4" class="cluster">
<title>cluster_FavoritesModule_imports</title>
<polygon fill="none" stroke="black" points="16,-78 16,-130 664,-130 664,-78 16,-78"/>
</g>
<g id="clust5" class="cluster">
<title>cluster_FavoritesModule_exports</title>
<polygon fill="none" stroke="black" points="71,-208 71,-260 717,-260 717,-208 71,-208"/>
</g>
<!-- ContainerComponent -->
<g id="node1" class="node">
<title>ContainerComponent</title>
<polygon fill="#ffffb3" stroke="black" points="816.04,-122 679.96,-122 679.96,-86 816.04,-86 816.04,-122"/>
<text text-anchor="middle" x="748" y="-99.8" font-family="Times,serif" font-size="14.00">ContainerComponent</text>
</g>
<!-- FavoritesModule -->
<g id="node2" class="node">
<title>FavoritesModule</title>
<polygon fill="#8dd3c7" stroke="black" points="431.65,-187 428.65,-191 407.65,-191 404.65,-187 320.35,-187 320.35,-151 431.65,-151 431.65,-187"/>
<text text-anchor="middle" x="376" y="-164.8" font-family="Times,serif" font-size="14.00">FavoritesModule</text>
</g>
<!-- ContainerComponent&#45;&gt;FavoritesModule -->
<g id="edge1" class="edge">
<title>ContainerComponent&#45;&gt;FavoritesModule</title>
<path fill="none" stroke="black" d="M694.38,-122.27C694.38,-140.56 694.38,-166 694.38,-166 694.38,-166 441.82,-166 441.82,-166"/>
<polygon fill="black" stroke="black" points="441.82,-162.5 431.82,-166 441.82,-169.5 441.82,-162.5"/>
</g>
<!-- ContainerComponent  -->
<g id="node8" class="node">
<title>ContainerComponent </title>
<polygon fill="#fb8072" stroke="black" points="709.04,-252 568.96,-252 568.96,-216 709.04,-216 709.04,-252"/>
<text text-anchor="middle" x="639" y="-229.8" font-family="Times,serif" font-size="14.00">ContainerComponent </text>
</g>
<!-- FavoritesModule&#45;&gt;ContainerComponent  -->
<g id="edge7" class="edge">
<title>FavoritesModule&#45;&gt;ContainerComponent </title>
<path fill="none" stroke="black" stroke-dasharray="5,2" d="M431.79,-173C501.76,-173 612.68,-173 612.68,-173 612.68,-173 612.68,-205.7 612.68,-205.7"/>
<polygon fill="black" stroke="black" points="609.18,-205.7 612.68,-215.7 616.18,-205.7 609.18,-205.7"/>
</g>
<!-- FeatureModule  -->
<g id="node9" class="node">
<title>FeatureModule </title>
<polygon fill="#fb8072" stroke="black" points="550.53,-252 445.47,-252 445.47,-216 550.53,-216 550.53,-252"/>
<text text-anchor="middle" x="498" y="-229.8" font-family="Times,serif" font-size="14.00">FeatureModule </text>
</g>
<!-- FavoritesModule&#45;&gt;FeatureModule  -->
<g id="edge8" class="edge">
<title>FavoritesModule&#45;&gt;FeatureModule </title>
<path fill="none" stroke="black" stroke-dasharray="5,2" d="M431.99,-180C449.16,-180 463.62,-180 463.62,-180 463.62,-180 463.62,-205.72 463.62,-205.72"/>
<polygon fill="black" stroke="black" points="460.13,-205.72 463.62,-215.72 467.13,-205.72 460.13,-205.72"/>
</g>
<!-- HeaderModule  -->
<g id="node10" class="node">
<title>HeaderModule </title>
<polygon fill="#fb8072" stroke="black" points="427.96,-252 324.04,-252 324.04,-216 427.96,-216 427.96,-252"/>
<text text-anchor="middle" x="376" y="-229.8" font-family="Times,serif" font-size="14.00">HeaderModule </text>
</g>
<!-- FavoritesModule&#45;&gt;HeaderModule  -->
<g id="edge9" class="edge">
<title>FavoritesModule&#45;&gt;HeaderModule </title>
<path fill="none" stroke="black" stroke-dasharray="5,2" d="M376,-187.11C376,-187.11 376,-205.99 376,-205.99"/>
<polygon fill="black" stroke="black" points="372.5,-205.99 376,-215.99 379.5,-205.99 372.5,-205.99"/>
</g>
<!-- SearchModule  -->
<g id="node11" class="node">
<title>SearchModule </title>
<polygon fill="#fb8072" stroke="black" points="306.64,-252 205.36,-252 205.36,-216 306.64,-216 306.64,-252"/>
<text text-anchor="middle" x="256" y="-229.8" font-family="Times,serif" font-size="14.00">SearchModule </text>
</g>
<!-- FavoritesModule&#45;&gt;SearchModule  -->
<g id="edge10" class="edge">
<title>FavoritesModule&#45;&gt;SearchModule </title>
<path fill="none" stroke="black" stroke-dasharray="5,2" d="M320.28,-180C301.07,-180 284.29,-180 284.29,-180 284.29,-180 284.29,-205.72 284.29,-205.72"/>
<polygon fill="black" stroke="black" points="280.79,-205.72 284.29,-215.72 287.79,-205.72 280.79,-205.72"/>
</g>
<!-- SidenavModule  -->
<g id="node12" class="node">
<title>SidenavModule </title>
<polygon fill="#fb8072" stroke="black" points="187.15,-252 78.85,-252 78.85,-216 187.15,-216 187.15,-252"/>
<text text-anchor="middle" x="133" y="-229.8" font-family="Times,serif" font-size="14.00">SidenavModule </text>
</g>
<!-- FavoritesModule&#45;&gt;SidenavModule  -->
<g id="edge11" class="edge">
<title>FavoritesModule&#45;&gt;SidenavModule </title>
<path fill="none" stroke="black" stroke-dasharray="5,2" d="M320.17,-173C258.14,-173 166.63,-173 166.63,-173 166.63,-173 166.63,-205.7 166.63,-205.7"/>
<polygon fill="black" stroke="black" points="163.13,-205.7 166.63,-215.7 170.13,-205.7 163.13,-205.7"/>
</g>
<!-- FavoritesRoutingModule -->
<g id="node3" class="node">
<title>FavoritesRoutingModule</title>
<polygon fill="#8dd3c7" stroke="black" points="656.27,-122 653.27,-126 632.27,-126 629.27,-122 499.73,-122 499.73,-86 656.27,-86 656.27,-122"/>
<text text-anchor="middle" x="578" y="-99.8" font-family="Times,serif" font-size="14.00">FavoritesRoutingModule</text>
</g>
<!-- FavoritesRoutingModule&#45;&gt;FavoritesModule -->
<g id="edge2" class="edge">
<title>FavoritesRoutingModule&#45;&gt;FavoritesModule</title>
<path fill="none" stroke="black" d="M525.07,-122.01C525.07,-138.05 525.07,-159 525.07,-159 525.07,-159 441.93,-159 441.93,-159"/>
<polygon fill="black" stroke="black" points="441.93,-155.5 431.93,-159 441.93,-162.5 441.93,-155.5"/>
</g>
<!-- FeatureModule -->
<g id="node4" class="node">
<title>FeatureModule</title>
<polygon fill="#8dd3c7" stroke="black" points="481.53,-122 478.53,-126 457.53,-126 454.53,-122 380.47,-122 380.47,-86 481.53,-86 481.53,-122"/>
<text text-anchor="middle" x="431" y="-99.8" font-family="Times,serif" font-size="14.00">FeatureModule</text>
</g>
<!-- FeatureModule&#45;&gt;FavoritesModule -->
<g id="edge3" class="edge">
<title>FeatureModule&#45;&gt;FavoritesModule</title>
<path fill="none" stroke="black" d="M406.03,-122.11C406.03,-122.11 406.03,-140.99 406.03,-140.99"/>
<polygon fill="black" stroke="black" points="402.53,-140.99 406.03,-150.99 409.53,-140.99 402.53,-140.99"/>
</g>
<!-- HeaderModule -->
<g id="node5" class="node">
<title>HeaderModule</title>
<polygon fill="#8dd3c7" stroke="black" points="361.96,-122 358.96,-126 337.96,-126 334.96,-122 262.04,-122 262.04,-86 361.96,-86 361.96,-122"/>
<text text-anchor="middle" x="312" y="-99.8" font-family="Times,serif" font-size="14.00">HeaderModule</text>
</g>
<!-- HeaderModule&#45;&gt;FavoritesModule -->
<g id="edge4" class="edge">
<title>HeaderModule&#45;&gt;FavoritesModule</title>
<path fill="none" stroke="black" d="M341.08,-122.11C341.08,-122.11 341.08,-140.99 341.08,-140.99"/>
<polygon fill="black" stroke="black" points="337.58,-140.99 341.08,-150.99 344.58,-140.99 337.58,-140.99"/>
</g>
<!-- SearchModule -->
<g id="node6" class="node">
<title>SearchModule</title>
<polygon fill="#8dd3c7" stroke="black" points="243.64,-122 240.64,-126 219.64,-126 216.64,-122 146.36,-122 146.36,-86 243.64,-86 243.64,-122"/>
<text text-anchor="middle" x="195" y="-99.8" font-family="Times,serif" font-size="14.00">SearchModule</text>
</g>
<!-- SearchModule&#45;&gt;FavoritesModule -->
<g id="edge5" class="edge">
<title>SearchModule&#45;&gt;FavoritesModule</title>
<path fill="none" stroke="black" d="M224.62,-122.01C224.62,-138.05 224.62,-159 224.62,-159 224.62,-159 310.06,-159 310.06,-159"/>
<polygon fill="black" stroke="black" points="310.06,-162.5 320.06,-159 310.06,-155.5 310.06,-162.5"/>
</g>
<!-- SidenavModule -->
<g id="node7" class="node">
<title>SidenavModule</title>
<polygon fill="#8dd3c7" stroke="black" points="128.15,-122 125.15,-126 104.15,-126 101.15,-122 23.85,-122 23.85,-86 128.15,-86 128.15,-122"/>
<text text-anchor="middle" x="76" y="-99.8" font-family="Times,serif" font-size="14.00">SidenavModule</text>
</g>
<!-- SidenavModule&#45;&gt;FavoritesModule -->
<g id="edge6" class="edge">
<title>SidenavModule&#45;&gt;FavoritesModule</title>
<path fill="none" stroke="black" d="M103.62,-122.27C103.62,-140.56 103.62,-166 103.62,-166 103.62,-166 310.22,-166 310.22,-166"/>
<polygon fill="black" stroke="black" points="310.22,-169.5 320.22,-166 310.22,-162.5 310.22,-169.5"/>
</g>
</g>
</svg>
