<?xml version="1.0" encoding="UTF-8" standalone="no"?>
<!DOCTYPE svg PUBLIC "-//W3C//DTD SVG 1.1//EN"
 "http://www.w3.org/Graphics/SVG/1.1/DTD/svg11.dtd">
<!-- Generated by graphviz version 2.44.1 (20200629.0846)
 -->
<!-- Title: dependencies Pages: 1 -->
<svg width="848pt" height="284pt"
 viewBox="0.00 0.00 848.00 284.00" xmlns="http://www.w3.org/2000/svg" xmlns:xlink="http://www.w3.org/1999/xlink">
<g id="graph0" class="graph" transform="scale(1 1) rotate(0) translate(4 280)">
<title>dependencies</title>
<polygon fill="white" stroke="transparent" points="-4,4 -4,-280 844,-280 844,4 -4,4"/>
<text text-anchor="start" x="399.01" y="-42.4" font-family="sans-serif" font-weight="bold" font-size="14.00">Legend</text>
<polygon fill="#ffffb3" stroke="transparent" points="186,-10 186,-30 206,-30 206,-10 186,-10"/>
<text text-anchor="start" x="209.63" y="-15.4" font-family="sans-serif" font-size="14.00"> &#160;Declarations</text>
<polygon fill="#8dd3c7" stroke="transparent" points="299,-10 299,-30 319,-30 319,-10 299,-10"/>
<text text-anchor="start" x="322.73" y="-15.4" font-family="sans-serif" font-size="14.00"> &#160;Module</text>
<polygon fill="#80b1d3" stroke="transparent" points="385,-10 385,-30 405,-30 405,-10 385,-10"/>
<text text-anchor="start" x="408.78" y="-15.4" font-family="sans-serif" font-size="14.00"> &#160;Bootstrap</text>
<polygon fill="#fdb462" stroke="transparent" points="482,-10 482,-30 502,-30 502,-10 482,-10"/>
<text text-anchor="start" x="505.67" y="-15.4" font-family="sans-serif" font-size="14.00"> &#160;Providers</text>
<polygon fill="#fb8072" stroke="transparent" points="578,-10 578,-30 598,-30 598,-10 578,-10"/>
<text text-anchor="start" x="601.73" y="-15.4" font-family="sans-serif" font-size="14.00"> &#160;Exports</text>
<g id="clust1" class="cluster">
<title>cluster_FavoritesModule</title>
<polygon fill="none" stroke="black" stroke-dasharray="1,5" points="8,-70 8,-268 832,-268 832,-70 8,-70"/>
</g>
<g id="clust5" class="cluster">
<title>cluster_FavoritesModule_exports</title>
<polygon fill="none" stroke="black" points="108,-208 108,-260 754,-260 754,-208 108,-208"/>
</g>
<g id="clust4" class="cluster">
<title>cluster_FavoritesModule_imports</title>
<polygon fill="none" stroke="black" points="176,-78 176,-130 824,-130 824,-78 176,-78"/>
</g>
<g id="clust2" class="cluster">
<title>cluster_FavoritesModule_declarations</title>
<polygon fill="none" stroke="black" points="16,-78 16,-130 168,-130 168,-78 16,-78"/>
</g>
<!-- ContainerComponent -->
<g id="node1" class="node">
<title>ContainerComponent</title>
<polygon fill="#ffffb3" stroke="black" points="160.04,-122 23.96,-122 23.96,-86 160.04,-86 160.04,-122"/>
<text text-anchor="middle" x="92" y="-99.8" font-family="Times,serif" font-size="14.00">ContainerComponent</text>
</g>
<!-- FavoritesModule -->
<g id="node2" class="node">
<title>FavoritesModule</title>
<polygon fill="#8dd3c7" stroke="black" points="468.65,-187 465.65,-191 444.65,-191 441.65,-187 357.35,-187 357.35,-151 468.65,-151 468.65,-187"/>
<text text-anchor="middle" x="413" y="-164.8" font-family="Times,serif" font-size="14.00">FavoritesModule</text>
</g>
<!-- ContainerComponent&#45;&gt;FavoritesModule -->
<g id="edge1" class="edge">
<title>ContainerComponent&#45;&gt;FavoritesModule</title>
<path fill="none" stroke="black" d="M138.1,-122.27C138.1,-140.56 138.1,-166 138.1,-166 138.1,-166 347.04,-166 347.04,-166"/>
<polygon fill="black" stroke="black" points="347.04,-169.5 357.04,-166 347.04,-162.5 347.04,-169.5"/>
</g>
<!-- ContainerComponent  -->
<g id="node8" class="node">
<title>ContainerComponent </title>
<polygon fill="#fb8072" stroke="black" points="746.04,-252 605.96,-252 605.96,-216 746.04,-216 746.04,-252"/>
<text text-anchor="middle" x="676" y="-229.8" font-family="Times,serif" font-size="14.00">ContainerComponent </text>
</g>
<!-- FavoritesModule&#45;&gt;ContainerComponent  -->
<g id="edge7" class="edge">
<title>FavoritesModule&#45;&gt;ContainerComponent </title>
<path fill="none" stroke="black" stroke-dasharray="5,2" d="M468.68,-173C531.16,-173 623.87,-173 623.87,-173 623.87,-173 623.87,-205.7 623.87,-205.7"/>
<polygon fill="black" stroke="black" points="620.37,-205.7 623.87,-215.7 627.37,-205.7 620.37,-205.7"/>
</g>
<!-- FeatureModule  -->
<g id="node9" class="node">
<title>FeatureModule </title>
<polygon fill="#fb8072" stroke="black" points="587.53,-252 482.47,-252 482.47,-216 587.53,-216 587.53,-252"/>
<text text-anchor="middle" x="535" y="-229.8" font-family="Times,serif" font-size="14.00">FeatureModule </text>
</g>
<!-- FavoritesModule&#45;&gt;FeatureModule  -->
<g id="edge8" class="edge">
<title>FavoritesModule&#45;&gt;FeatureModule </title>
<path fill="none" stroke="black" stroke-dasharray="5,2" d="M468.75,-180C486.79,-180 502.23,-180 502.23,-180 502.23,-180 502.23,-205.72 502.23,-205.72"/>
<polygon fill="black" stroke="black" points="498.73,-205.72 502.23,-215.72 505.73,-205.72 498.73,-205.72"/>
</g>
<!-- HeaderModule  -->
<g id="node10" class="node">
<title>HeaderModule </title>
<polygon fill="#fb8072" stroke="black" points="464.96,-252 361.04,-252 361.04,-216 464.96,-216 464.96,-252"/>
<text text-anchor="middle" x="413" y="-229.8" font-family="Times,serif" font-size="14.00">HeaderModule </text>
</g>
<!-- FavoritesModule&#45;&gt;HeaderModule  -->
<g id="edge9" class="edge">
<title>FavoritesModule&#45;&gt;HeaderModule </title>
<path fill="none" stroke="black" stroke-dasharray="5,2" d="M413,-187.11C413,-187.11 413,-205.99 413,-205.99"/>
<polygon fill="black" stroke="black" points="409.5,-205.99 413,-215.99 416.5,-205.99 409.5,-205.99"/>
</g>
<!-- SearchModule  -->
<g id="node11" class="node">
<title>SearchModule </title>
<polygon fill="#fb8072" stroke="black" points="343.64,-252 242.36,-252 242.36,-216 343.64,-216 343.64,-252"/>
<text text-anchor="middle" x="293" y="-229.8" font-family="Times,serif" font-size="14.00">SearchModule </text>
</g>
<!-- FavoritesModule&#45;&gt;SearchModule  -->
<g id="edge10" class="edge">
<title>FavoritesModule&#45;&gt;SearchModule </title>
<path fill="none" stroke="black" stroke-dasharray="5,2" d="M357.19,-180C339.7,-180 324.88,-180 324.88,-180 324.88,-180 324.88,-205.72 324.88,-205.72"/>
<polygon fill="black" stroke="black" points="321.38,-205.72 324.88,-215.72 328.38,-205.72 321.38,-205.72"/>
</g>
<!-- SidenavModule  -->
<g id="node12" class="node">
<title>SidenavModule </title>
<polygon fill="#fb8072" stroke="black" points="224.15,-252 115.85,-252 115.85,-216 224.15,-216 224.15,-252"/>
<text text-anchor="middle" x="170" y="-229.8" font-family="Times,serif" font-size="14.00">SidenavModule </text>
</g>
<!-- FavoritesModule&#45;&gt;SidenavModule  -->
<g id="edge11" class="edge">
<title>FavoritesModule&#45;&gt;SidenavModule </title>
<path fill="none" stroke="black" stroke-dasharray="5,2" d="M357.23,-173C295.28,-173 203.88,-173 203.88,-173 203.88,-173 203.88,-205.7 203.88,-205.7"/>
<polygon fill="black" stroke="black" points="200.38,-205.7 203.88,-215.7 207.38,-205.7 200.38,-205.7"/>
</g>
<!-- FavoritesRoutingModule -->
<g id="node3" class="node">
<title>FavoritesRoutingModule</title>
<polygon fill="#8dd3c7" stroke="black" points="816.27,-122 813.27,-126 792.27,-126 789.27,-122 659.73,-122 659.73,-86 816.27,-86 816.27,-122"/>
<text text-anchor="middle" x="738" y="-99.8" font-family="Times,serif" font-size="14.00">FavoritesRoutingModule</text>
</g>
<!-- FavoritesRoutingModule&#45;&gt;FavoritesModule -->
<g id="edge2" class="edge">
<title>FavoritesRoutingModule&#45;&gt;FavoritesModule</title>
<path fill="none" stroke="black" d="M702.82,-122.27C702.82,-140.56 702.82,-166 702.82,-166 702.82,-166 478.88,-166 478.88,-166"/>
<polygon fill="black" stroke="black" points="478.88,-162.5 468.88,-166 478.88,-169.5 478.88,-162.5"/>
</g>
<!-- FeatureModule -->
<g id="node4" class="node">
<title>FeatureModule</title>
<polygon fill="#8dd3c7" stroke="black" points="641.53,-122 638.53,-126 617.53,-126 614.53,-122 540.47,-122 540.47,-86 641.53,-86 641.53,-122"/>
<text text-anchor="middle" x="591" y="-99.8" font-family="Times,serif" font-size="14.00">FeatureModule</text>
</g>
<!-- FeatureModule&#45;&gt;FavoritesModule -->
<g id="edge3" class="edge">
<title>FeatureModule&#45;&gt;FavoritesModule</title>
<path fill="none" stroke="black" d="M563.88,-122.01C563.88,-138.05 563.88,-159 563.88,-159 563.88,-159 478.75,-159 478.75,-159"/>
<polygon fill="black" stroke="black" points="478.75,-155.5 468.75,-159 478.75,-162.5 478.75,-155.5"/>
</g>
<!-- HeaderModule -->
<g id="node5" class="node">
<title>HeaderModule</title>
<polygon fill="#8dd3c7" stroke="black" points="521.96,-122 518.96,-126 497.96,-126 494.96,-122 422.04,-122 422.04,-86 521.96,-86 521.96,-122"/>
<text text-anchor="middle" x="472" y="-99.8" font-family="Times,serif" font-size="14.00">HeaderModule</text>
</g>
<!-- HeaderModule&#45;&gt;FavoritesModule -->
<g id="edge4" class="edge">
<title>HeaderModule&#45;&gt;FavoritesModule</title>
<path fill="none" stroke="black" d="M445.42,-122.11C445.42,-122.11 445.42,-140.99 445.42,-140.99"/>
<polygon fill="black" stroke="black" points="441.92,-140.99 445.42,-150.99 448.92,-140.99 441.92,-140.99"/>
</g>
<!-- SearchModule -->
<g id="node6" class="node">
<title>SearchModule</title>
<polygon fill="#8dd3c7" stroke="black" points="403.64,-122 400.64,-126 379.64,-126 376.64,-122 306.36,-122 306.36,-86 403.64,-86 403.64,-122"/>
<text text-anchor="middle" x="355" y="-99.8" font-family="Times,serif" font-size="14.00">SearchModule</text>
</g>
<!-- SearchModule&#45;&gt;FavoritesModule -->
<g id="edge5" class="edge">
<title>SearchModule&#45;&gt;FavoritesModule</title>
<path fill="none" stroke="black" d="M380.5,-122.11C380.5,-122.11 380.5,-140.99 380.5,-140.99"/>
<polygon fill="black" stroke="black" points="377,-140.99 380.5,-150.99 384,-140.99 377,-140.99"/>
</g>
<!-- SidenavModule -->
<g id="node7" class="node">
<title>SidenavModule</title>
<polygon fill="#8dd3c7" stroke="black" points="288.15,-122 285.15,-126 264.15,-126 261.15,-122 183.85,-122 183.85,-86 288.15,-86 288.15,-122"/>
<text text-anchor="middle" x="236" y="-99.8" font-family="Times,serif" font-size="14.00">SidenavModule</text>
</g>
<!-- SidenavModule&#45;&gt;FavoritesModule -->
<g id="edge6" class="edge">
<title>SidenavModule&#45;&gt;FavoritesModule</title>
<path fill="none" stroke="black" d="M265.38,-122.01C265.38,-138.05 265.38,-159 265.38,-159 265.38,-159 347.19,-159 347.19,-159"/>
<polygon fill="black" stroke="black" points="347.19,-162.5 357.19,-159 347.19,-155.5 347.19,-162.5"/>
</g>
</g>
</svg>
