<?xml version="1.0" encoding="UTF-8" standalone="no"?>
<!DOCTYPE svg PUBLIC "-//W3C//DTD SVG 1.1//EN"
 "http://www.w3.org/Graphics/SVG/1.1/DTD/svg11.dtd">
<!-- Generated by graphviz version 2.44.1 (20200629.0846)
 -->
<!-- Title: dependencies Pages: 1 -->
<svg width="732pt" height="284pt"
 viewBox="0.00 0.00 732.00 284.00" xmlns="http://www.w3.org/2000/svg" xmlns:xlink="http://www.w3.org/1999/xlink">
<g id="graph0" class="graph" transform="scale(1 1) rotate(0) translate(4 280)">
<title>dependencies</title>
<polygon fill="white" stroke="transparent" points="-4,4 -4,-280 728,-280 728,4 -4,4"/>
<text text-anchor="start" x="341.01" y="-42.4" font-family="sans-serif" font-weight="bold" font-size="14.00">Legend</text>
<polygon fill="#ffffb3" stroke="transparent" points="128,-10 128,-30 148,-30 148,-10 128,-10"/>
<text text-anchor="start" x="151.63" y="-15.4" font-family="sans-serif" font-size="14.00"> &#160;Declarations</text>
<polygon fill="#8dd3c7" stroke="transparent" points="241,-10 241,-30 261,-30 261,-10 241,-10"/>
<text text-anchor="start" x="264.73" y="-15.4" font-family="sans-serif" font-size="14.00"> &#160;Module</text>
<polygon fill="#80b1d3" stroke="transparent" points="327,-10 327,-30 347,-30 347,-10 327,-10"/>
<text text-anchor="start" x="350.78" y="-15.4" font-family="sans-serif" font-size="14.00"> &#160;Bootstrap</text>
<polygon fill="#fdb462" stroke="transparent" points="424,-10 424,-30 444,-30 444,-10 424,-10"/>
<text text-anchor="start" x="447.67" y="-15.4" font-family="sans-serif" font-size="14.00"> &#160;Providers</text>
<polygon fill="#fb8072" stroke="transparent" points="520,-10 520,-30 540,-30 540,-10 520,-10"/>
<text text-anchor="start" x="543.73" y="-15.4" font-family="sans-serif" font-size="14.00"> &#160;Exports</text>
<g id="clust1" class="cluster">
<title>cluster_FavoritesModule</title>
<polygon fill="none" stroke="black" stroke-dasharray="1,5" points="8,-70 8,-268 716,-268 716,-70 8,-70"/>
</g>
<g id="clust4" class="cluster">
<title>cluster_FavoritesModule_imports</title>
<polygon fill="none" stroke="black" points="176,-78 176,-130 708,-130 708,-78 176,-78"/>
</g>
<g id="clust5" class="cluster">
<title>cluster_FavoritesModule_exports</title>
<polygon fill="none" stroke="black" points="109,-208 109,-260 636,-260 636,-208 109,-208"/>
</g>
<g id="clust2" class="cluster">
<title>cluster_FavoritesModule_declarations</title>
<polygon fill="none" stroke="black" points="16,-78 16,-130 168,-130 168,-78 16,-78"/>
</g>
<!-- ContainerComponent -->
<g id="node1" class="node">
<title>ContainerComponent</title>
<polygon fill="#ffffb3" stroke="black" points="160.04,-122 23.96,-122 23.96,-86 160.04,-86 160.04,-122"/>
<text text-anchor="middle" x="92" y="-99.8" font-family="Times,serif" font-size="14.00">ContainerComponent</text>
</g>
<!-- FavoritesModule -->
<g id="node2" class="node">
<title>FavoritesModule</title>
<polygon fill="#8dd3c7" stroke="black" points="411.65,-187 408.65,-191 387.65,-191 384.65,-187 300.35,-187 300.35,-151 411.65,-151 411.65,-187"/>
<text text-anchor="middle" x="356" y="-164.8" font-family="Times,serif" font-size="14.00">FavoritesModule</text>
</g>
<!-- ContainerComponent&#45;&gt;FavoritesModule -->
<g id="edge1" class="edge">
<title>ContainerComponent&#45;&gt;FavoritesModule</title>
<path fill="none" stroke="black" d="M138.6,-122.11C138.6,-141.34 138.6,-169 138.6,-169 138.6,-169 290.3,-169 290.3,-169"/>
<polygon fill="black" stroke="black" points="290.3,-172.5 300.3,-169 290.3,-165.5 290.3,-172.5"/>
</g>
<!-- ContainerComponent  -->
<g id="node7" class="node">
<title>ContainerComponent </title>
<polygon fill="#fb8072" stroke="black" points="628.04,-252 487.96,-252 487.96,-216 628.04,-216 628.04,-252"/>
<text text-anchor="middle" x="558" y="-229.8" font-family="Times,serif" font-size="14.00">ContainerComponent </text>
</g>
<!-- FavoritesModule&#45;&gt;ContainerComponent  -->
<g id="edge6" class="edge">
<title>FavoritesModule&#45;&gt;ContainerComponent </title>
<path fill="none" stroke="black" stroke-dasharray="5,2" d="M411.75,-178C454.73,-178 506.87,-178 506.87,-178 506.87,-178 506.87,-205.97 506.87,-205.97"/>
<polygon fill="black" stroke="black" points="503.37,-205.97 506.87,-215.97 510.37,-205.97 503.37,-205.97"/>
</g>
<!-- FeatureModule  -->
<g id="node8" class="node">
<title>FeatureModule </title>
<polygon fill="#fb8072" stroke="black" points="469.53,-252 364.47,-252 364.47,-216 469.53,-216 469.53,-252"/>
<text text-anchor="middle" x="417" y="-229.8" font-family="Times,serif" font-size="14.00">FeatureModule </text>
</g>
<!-- FavoritesModule&#45;&gt;FeatureModule  -->
<g id="edge7" class="edge">
<title>FavoritesModule&#45;&gt;FeatureModule </title>
<path fill="none" stroke="black" stroke-dasharray="5,2" d="M388.16,-187.11C388.16,-187.11 388.16,-205.99 388.16,-205.99"/>
<polygon fill="black" stroke="black" points="384.66,-205.99 388.16,-215.99 391.66,-205.99 384.66,-205.99"/>
</g>
<!-- HeaderModule  -->
<g id="node9" class="node">
<title>HeaderModule </title>
<polygon fill="#fb8072" stroke="black" points="346.96,-252 243.04,-252 243.04,-216 346.96,-216 346.96,-252"/>
<text text-anchor="middle" x="295" y="-229.8" font-family="Times,serif" font-size="14.00">HeaderModule </text>
</g>
<!-- FavoritesModule&#45;&gt;HeaderModule  -->
<g id="edge8" class="edge">
<title>FavoritesModule&#45;&gt;HeaderModule </title>
<path fill="none" stroke="black" stroke-dasharray="5,2" d="M323.45,-187.11C323.45,-187.11 323.45,-205.99 323.45,-205.99"/>
<polygon fill="black" stroke="black" points="319.95,-205.99 323.45,-215.99 326.95,-205.99 319.95,-205.99"/>
</g>
<!-- SidenavModule  -->
<g id="node10" class="node">
<title>SidenavModule </title>
<polygon fill="#fb8072" stroke="black" points="225.15,-252 116.85,-252 116.85,-216 225.15,-216 225.15,-252"/>
<text text-anchor="middle" x="171" y="-229.8" font-family="Times,serif" font-size="14.00">SidenavModule </text>
</g>
<!-- FavoritesModule&#45;&gt;SidenavModule  -->
<g id="edge9" class="edge">
<title>FavoritesModule&#45;&gt;SidenavModule </title>
<path fill="none" stroke="black" stroke-dasharray="5,2" d="M299.97,-178C256.78,-178 204.38,-178 204.38,-178 204.38,-178 204.38,-205.97 204.38,-205.97"/>
<polygon fill="black" stroke="black" points="200.88,-205.97 204.38,-215.97 207.88,-205.97 200.88,-205.97"/>
</g>
<!-- FavoritesRoutingModule -->
<g id="node3" class="node">
<title>FavoritesRoutingModule</title>
<polygon fill="#8dd3c7" stroke="black" points="700.27,-122 697.27,-126 676.27,-126 673.27,-122 543.73,-122 543.73,-86 700.27,-86 700.27,-122"/>
<text text-anchor="middle" x="622" y="-99.8" font-family="Times,serif" font-size="14.00">FavoritesRoutingModule</text>
</g>
<!-- FavoritesRoutingModule&#45;&gt;FavoritesModule -->
<g id="edge2" class="edge">
<title>FavoritesRoutingModule&#45;&gt;FavoritesModule</title>
<path fill="none" stroke="black" d="M585.82,-122.11C585.82,-141.34 585.82,-169 585.82,-169 585.82,-169 421.93,-169 421.93,-169"/>
<polygon fill="black" stroke="black" points="421.93,-165.5 411.93,-169 421.93,-172.5 421.93,-165.5"/>
</g>
<!-- FeatureModule -->
<g id="node4" class="node">
<title>FeatureModule</title>
<polygon fill="#8dd3c7" stroke="black" points="525.53,-122 522.53,-126 501.53,-126 498.53,-122 424.47,-122 424.47,-86 525.53,-86 525.53,-122"/>
<text text-anchor="middle" x="475" y="-99.8" font-family="Times,serif" font-size="14.00">FeatureModule</text>
</g>
<!-- FeatureModule&#45;&gt;FavoritesModule -->
<g id="edge3" class="edge">
<title>FeatureModule&#45;&gt;FavoritesModule</title>
<path fill="none" stroke="black" d="M446.88,-122.03C446.88,-138.4 446.88,-160 446.88,-160 446.88,-160 421.74,-160 421.74,-160"/>
<polygon fill="black" stroke="black" points="421.74,-156.5 411.74,-160 421.74,-163.5 421.74,-156.5"/>
</g>
<!-- HeaderModule -->
<g id="node5" class="node">
<title>HeaderModule</title>
<polygon fill="#8dd3c7" stroke="black" points="405.96,-122 402.96,-126 381.96,-126 378.96,-122 306.04,-122 306.04,-86 405.96,-86 405.96,-122"/>
<text text-anchor="middle" x="356" y="-99.8" font-family="Times,serif" font-size="14.00">HeaderModule</text>
</g>
<!-- HeaderModule&#45;&gt;FavoritesModule -->
<g id="edge4" class="edge">
<title>HeaderModule&#45;&gt;FavoritesModule</title>
<path fill="none" stroke="black" d="M356,-122.11C356,-122.11 356,-140.99 356,-140.99"/>
<polygon fill="black" stroke="black" points="352.5,-140.99 356,-150.99 359.5,-140.99 352.5,-140.99"/>
</g>
<!-- SidenavModule -->
<g id="node6" class="node">
<title>SidenavModule</title>
<polygon fill="#8dd3c7" stroke="black" points="288.15,-122 285.15,-126 264.15,-126 261.15,-122 183.85,-122 183.85,-86 288.15,-86 288.15,-122"/>
<text text-anchor="middle" x="236" y="-99.8" font-family="Times,serif" font-size="14.00">SidenavModule</text>
</g>
<!-- SidenavModule&#45;&gt;FavoritesModule -->
<g id="edge5" class="edge">
<title>SidenavModule&#45;&gt;FavoritesModule</title>
<path fill="none" stroke="black" d="M265.8,-122.03C265.8,-138.4 265.8,-160 265.8,-160 265.8,-160 290.16,-160 290.16,-160"/>
<polygon fill="black" stroke="black" points="290.16,-163.5 300.16,-160 290.16,-156.5 290.16,-163.5"/>
</g>
</g>
</svg>
