<?xml version="1.0" encoding="UTF-8" standalone="no"?>
<!DOCTYPE svg PUBLIC "-//W3C//DTD SVG 1.1//EN"
 "http://www.w3.org/Graphics/SVG/1.1/DTD/svg11.dtd">
<!-- Generated by graphviz version 2.44.1 (20200629.0846)
 -->
<!-- Title: dependencies Pages: 1 -->
<svg width="504pt" height="284pt"
 viewBox="0.00 0.00 504.00 284.00" xmlns="http://www.w3.org/2000/svg" xmlns:xlink="http://www.w3.org/1999/xlink">
<g id="graph0" class="graph" transform="scale(1 1) rotate(0) translate(4 280)">
<title>dependencies</title>
<polygon fill="white" stroke="transparent" points="-4,4 -4,-280 500,-280 500,4 -4,4"/>
<text text-anchor="start" x="227.01" y="-42.4" font-family="sans-serif" font-weight="bold" font-size="14.00">Legend</text>
<polygon fill="#ffffb3" stroke="transparent" points="14,-10 14,-30 34,-30 34,-10 14,-10"/>
<text text-anchor="start" x="37.63" y="-15.4" font-family="sans-serif" font-size="14.00"> &#160;Declarations</text>
<polygon fill="#8dd3c7" stroke="transparent" points="127,-10 127,-30 147,-30 147,-10 127,-10"/>
<text text-anchor="start" x="150.73" y="-15.4" font-family="sans-serif" font-size="14.00"> &#160;Module</text>
<polygon fill="#80b1d3" stroke="transparent" points="213,-10 213,-30 233,-30 233,-10 213,-10"/>
<text text-anchor="start" x="236.78" y="-15.4" font-family="sans-serif" font-size="14.00"> &#160;Bootstrap</text>
<polygon fill="#fdb462" stroke="transparent" points="310,-10 310,-30 330,-30 330,-10 310,-10"/>
<text text-anchor="start" x="333.67" y="-15.4" font-family="sans-serif" font-size="14.00"> &#160;Providers</text>
<polygon fill="#fb8072" stroke="transparent" points="406,-10 406,-30 426,-30 426,-10 406,-10"/>
<text text-anchor="start" x="429.73" y="-15.4" font-family="sans-serif" font-size="14.00"> &#160;Exports</text>
<g id="clust1" class="cluster">
<title>cluster_FavoritesModule</title>
<polygon fill="none" stroke="black" stroke-dasharray="1,5" points="75,-70 75,-268 421,-268 421,-70 75,-70"/>
</g>
<g id="clust2" class="cluster">
<title>cluster_FavoritesModule_declarations</title>
<polygon fill="none" stroke="black" points="263,-78 263,-130 413,-130 413,-78 263,-78"/>
</g>
<g id="clust5" class="cluster">
<title>cluster_FavoritesModule_exports</title>
<polygon fill="none" stroke="black" points="177,-208 177,-260 329,-260 329,-208 177,-208"/>
</g>
<g id="clust4" class="cluster">
<title>cluster_FavoritesModule_imports</title>
<polygon fill="none" stroke="black" points="83,-78 83,-130 255,-130 255,-78 83,-78"/>
</g>
<!-- FavoritesComponent -->
<g id="node1" class="node">
<title>FavoritesComponent</title>
<polygon fill="#ffffb3" stroke="black" points="404.93,-122 271.07,-122 271.07,-86 404.93,-86 404.93,-122"/>
<text text-anchor="middle" x="338" y="-99.8" font-family="Times,serif" font-size="14.00">FavoritesComponent</text>
</g>
<!-- FavoritesModule -->
<g id="node2" class="node">
<title>FavoritesModule</title>
<polygon fill="#8dd3c7" stroke="black" points="308.65,-187 305.65,-191 284.65,-191 281.65,-187 197.35,-187 197.35,-151 308.65,-151 308.65,-187"/>
<text text-anchor="middle" x="253" y="-164.8" font-family="Times,serif" font-size="14.00">FavoritesModule</text>
</g>
<!-- FavoritesComponent&#45;&gt;FavoritesModule -->
<g id="edge1" class="edge">
<title>FavoritesComponent&#45;&gt;FavoritesModule</title>
<path fill="none" stroke="black" d="M290.05,-122.11C290.05,-122.11 290.05,-140.99 290.05,-140.99"/>
<polygon fill="black" stroke="black" points="286.55,-140.99 290.05,-150.99 293.55,-140.99 286.55,-140.99"/>
</g>
<!-- FavoritesComponent  -->
<g id="node4" class="node">
<title>FavoritesComponent </title>
<polygon fill="#fb8072" stroke="black" points="321.43,-252 184.57,-252 184.57,-216 321.43,-216 321.43,-252"/>
<text text-anchor="middle" x="253" y="-229.8" font-family="Times,serif" font-size="14.00">FavoritesComponent </text>
</g>
<!-- FavoritesModule&#45;&gt;FavoritesComponent  -->
<g id="edge3" class="edge">
<title>FavoritesModule&#45;&gt;FavoritesComponent </title>
<path fill="none" stroke="black" stroke-dasharray="5,2" d="M253,-187.11C253,-187.11 253,-205.99 253,-205.99"/>
<polygon fill="black" stroke="black" points="249.5,-205.99 253,-215.99 256.5,-205.99 249.5,-205.99"/>
</g>
<!-- FavoritesRoutingModule -->
<g id="node3" class="node">
<title>FavoritesRoutingModule</title>
<polygon fill="#8dd3c7" stroke="black" points="247.27,-122 244.27,-126 223.27,-126 220.27,-122 90.73,-122 90.73,-86 247.27,-86 247.27,-122"/>
<text text-anchor="middle" x="169" y="-99.8" font-family="Times,serif" font-size="14.00">FavoritesRoutingModule</text>
</g>
<!-- FavoritesRoutingModule&#45;&gt;FavoritesModule -->
<g id="edge2" class="edge">
<title>FavoritesRoutingModule&#45;&gt;FavoritesModule</title>
<path fill="none" stroke="black" d="M222.28,-122.11C222.28,-122.11 222.28,-140.99 222.28,-140.99"/>
<polygon fill="black" stroke="black" points="218.78,-140.99 222.28,-150.99 225.78,-140.99 218.78,-140.99"/>
</g>
</g>
</svg>
