<?xml version="1.0" encoding="UTF-8" standalone="no"?>
<!DOCTYPE svg PUBLIC "-//W3C//DTD SVG 1.1//EN"
 "http://www.w3.org/Graphics/SVG/1.1/DTD/svg11.dtd">
<!-- Generated by graphviz version 2.44.1 (20200629.0846)
 -->
<!-- Title: dependencies Pages: 1 -->
<svg width="612pt" height="284pt"
 viewBox="0.00 0.00 612.00 284.00" xmlns="http://www.w3.org/2000/svg" xmlns:xlink="http://www.w3.org/1999/xlink">
<g id="graph0" class="graph" transform="scale(1 1) rotate(0) translate(4 280)">
<title>dependencies</title>
<polygon fill="white" stroke="transparent" points="-4,4 -4,-280 608,-280 608,4 -4,4"/>
<text text-anchor="start" x="281.01" y="-42.4" font-family="sans-serif" font-weight="bold" font-size="14.00">Legend</text>
<polygon fill="#ffffb3" stroke="transparent" points="68,-10 68,-30 88,-30 88,-10 68,-10"/>
<text text-anchor="start" x="91.63" y="-15.4" font-family="sans-serif" font-size="14.00"> &#160;Declarations</text>
<polygon fill="#8dd3c7" stroke="transparent" points="181,-10 181,-30 201,-30 201,-10 181,-10"/>
<text text-anchor="start" x="204.73" y="-15.4" font-family="sans-serif" font-size="14.00"> &#160;Module</text>
<polygon fill="#80b1d3" stroke="transparent" points="267,-10 267,-30 287,-30 287,-10 267,-10"/>
<text text-anchor="start" x="290.78" y="-15.4" font-family="sans-serif" font-size="14.00"> &#160;Bootstrap</text>
<polygon fill="#fdb462" stroke="transparent" points="364,-10 364,-30 384,-30 384,-10 364,-10"/>
<text text-anchor="start" x="387.67" y="-15.4" font-family="sans-serif" font-size="14.00"> &#160;Providers</text>
<polygon fill="#fb8072" stroke="transparent" points="460,-10 460,-30 480,-30 480,-10 460,-10"/>
<text text-anchor="start" x="483.73" y="-15.4" font-family="sans-serif" font-size="14.00"> &#160;Exports</text>
<g id="clust1" class="cluster">
<title>cluster_FavoritesModule</title>
<polygon fill="none" stroke="black" stroke-dasharray="1,5" points="8,-70 8,-268 596,-268 596,-70 8,-70"/>
</g>
<g id="clust2" class="cluster">
<title>cluster_FavoritesModule_declarations</title>
<polygon fill="none" stroke="black" points="436,-78 436,-130 588,-130 588,-78 436,-78"/>
</g>
<g id="clust5" class="cluster">
<title>cluster_FavoritesModule_exports</title>
<polygon fill="none" stroke="black" points="86,-208 86,-260 490,-260 490,-208 86,-208"/>
</g>
<g id="clust4" class="cluster">
<title>cluster_FavoritesModule_imports</title>
<polygon fill="none" stroke="black" points="16,-78 16,-130 428,-130 428,-78 16,-78"/>
</g>
<!-- ContainerComponent -->
<g id="node1" class="node">
<title>ContainerComponent</title>
<polygon fill="#ffffb3" stroke="black" points="580.04,-122 443.96,-122 443.96,-86 580.04,-86 580.04,-122"/>
<text text-anchor="middle" x="512" y="-99.8" font-family="Times,serif" font-size="14.00">ContainerComponent</text>
</g>
<!-- FavoritesModule -->
<g id="node2" class="node">
<title>FavoritesModule</title>
<polygon fill="#8dd3c7" stroke="black" points="327.65,-187 324.65,-191 303.65,-191 300.65,-187 216.35,-187 216.35,-151 327.65,-151 327.65,-187"/>
<text text-anchor="middle" x="272" y="-164.8" font-family="Times,serif" font-size="14.00">FavoritesModule</text>
</g>
<!-- ContainerComponent&#45;&gt;FavoritesModule -->
<g id="edge1" class="edge">
<title>ContainerComponent&#45;&gt;FavoritesModule</title>
<path fill="none" stroke="black" d="M462.88,-122.02C462.88,-139.37 462.88,-163 462.88,-163 462.88,-163 337.72,-163 337.72,-163"/>
<polygon fill="black" stroke="black" points="337.72,-159.5 327.72,-163 337.72,-166.5 337.72,-159.5"/>
</g>
<!-- ContainerComponent  -->
<g id="node6" class="node">
<title>ContainerComponent </title>
<polygon fill="#fb8072" stroke="black" points="482.04,-252 341.96,-252 341.96,-216 482.04,-216 482.04,-252"/>
<text text-anchor="middle" x="412" y="-229.8" font-family="Times,serif" font-size="14.00">ContainerComponent </text>
</g>
<!-- FavoritesModule&#45;&gt;ContainerComponent  -->
<g id="edge5" class="edge">
<title>FavoritesModule&#45;&gt;ContainerComponent </title>
<path fill="none" stroke="black" stroke-dasharray="5,2" d="M327.87,-175C354.73,-175 381.18,-175 381.18,-175 381.18,-175 381.18,-205.98 381.18,-205.98"/>
<polygon fill="black" stroke="black" points="377.68,-205.98 381.18,-215.98 384.68,-205.98 377.68,-205.98"/>
</g>
<!-- HeaderModule  -->
<g id="node7" class="node">
<title>HeaderModule </title>
<polygon fill="#fb8072" stroke="black" points="323.96,-252 220.04,-252 220.04,-216 323.96,-216 323.96,-252"/>
<text text-anchor="middle" x="272" y="-229.8" font-family="Times,serif" font-size="14.00">HeaderModule </text>
</g>
<!-- FavoritesModule&#45;&gt;HeaderModule  -->
<g id="edge6" class="edge">
<title>FavoritesModule&#45;&gt;HeaderModule </title>
<path fill="none" stroke="black" stroke-dasharray="5,2" d="M272,-187.11C272,-187.11 272,-205.99 272,-205.99"/>
<polygon fill="black" stroke="black" points="268.5,-205.99 272,-215.99 275.5,-205.99 268.5,-205.99"/>
</g>
<!-- SidenavModule  -->
<g id="node8" class="node">
<title>SidenavModule </title>
<polygon fill="#fb8072" stroke="black" points="202.15,-252 93.85,-252 93.85,-216 202.15,-216 202.15,-252"/>
<text text-anchor="middle" x="148" y="-229.8" font-family="Times,serif" font-size="14.00">SidenavModule </text>
</g>
<!-- FavoritesModule&#45;&gt;SidenavModule  -->
<g id="edge7" class="edge">
<title>FavoritesModule&#45;&gt;SidenavModule </title>
<path fill="none" stroke="black" stroke-dasharray="5,2" d="M216.16,-175C194.16,-175 174.05,-175 174.05,-175 174.05,-175 174.05,-205.98 174.05,-205.98"/>
<polygon fill="black" stroke="black" points="170.55,-205.98 174.05,-215.98 177.55,-205.98 170.55,-205.98"/>
</g>
<!-- FavoritesRoutingModule -->
<g id="node3" class="node">
<title>FavoritesRoutingModule</title>
<polygon fill="#8dd3c7" stroke="black" points="420.27,-122 417.27,-126 396.27,-126 393.27,-122 263.73,-122 263.73,-86 420.27,-86 420.27,-122"/>
<text text-anchor="middle" x="342" y="-99.8" font-family="Times,serif" font-size="14.00">FavoritesRoutingModule</text>
</g>
<!-- FavoritesRoutingModule&#45;&gt;FavoritesModule -->
<g id="edge2" class="edge">
<title>FavoritesRoutingModule&#45;&gt;FavoritesModule</title>
<path fill="none" stroke="black" d="M295.72,-122.11C295.72,-122.11 295.72,-140.99 295.72,-140.99"/>
<polygon fill="black" stroke="black" points="292.22,-140.99 295.72,-150.99 299.22,-140.99 292.22,-140.99"/>
</g>
<!-- HeaderModule -->
<g id="node4" class="node">
<title>HeaderModule</title>
<polygon fill="#8dd3c7" stroke="black" points="245.96,-122 242.96,-126 221.96,-126 218.96,-122 146.04,-122 146.04,-86 245.96,-86 245.96,-122"/>
<text text-anchor="middle" x="196" y="-99.8" font-family="Times,serif" font-size="14.00">HeaderModule</text>
</g>
<!-- HeaderModule&#45;&gt;FavoritesModule -->
<g id="edge3" class="edge">
<title>HeaderModule&#45;&gt;FavoritesModule</title>
<path fill="none" stroke="black" d="M231.08,-122.11C231.08,-122.11 231.08,-140.99 231.08,-140.99"/>
<polygon fill="black" stroke="black" points="227.58,-140.99 231.08,-150.99 234.58,-140.99 227.58,-140.99"/>
</g>
<!-- SidenavModule -->
<g id="node5" class="node">
<title>SidenavModule</title>
<polygon fill="#8dd3c7" stroke="black" points="128.15,-122 125.15,-126 104.15,-126 101.15,-122 23.85,-122 23.85,-86 128.15,-86 128.15,-122"/>
<text text-anchor="middle" x="76" y="-99.8" font-family="Times,serif" font-size="14.00">SidenavModule</text>
</g>
<!-- SidenavModule&#45;&gt;FavoritesModule -->
<g id="edge4" class="edge">
<title>SidenavModule&#45;&gt;FavoritesModule</title>
<path fill="none" stroke="black" d="M111.12,-122.02C111.12,-139.37 111.12,-163 111.12,-163 111.12,-163 206.19,-163 206.19,-163"/>
<polygon fill="black" stroke="black" points="206.19,-166.5 216.19,-163 206.19,-159.5 206.19,-166.5"/>
</g>
</g>
</svg>
