<?xml version="1.0" encoding="UTF-8" standalone="no"?>
<!DOCTYPE svg PUBLIC "-//W3C//DTD SVG 1.1//EN"
 "http://www.w3.org/Graphics/SVG/1.1/DTD/svg11.dtd">
<!-- Generated by graphviz version 2.44.1 (20200629.0846)
 -->
<!-- Title: dependencies Pages: 1 -->
<svg width="718pt" height="284pt"
 viewBox="0.00 0.00 718.00 284.00" xmlns="http://www.w3.org/2000/svg" xmlns:xlink="http://www.w3.org/1999/xlink">
<g id="graph0" class="graph" transform="scale(1 1) rotate(0) translate(4 280)">
<title>dependencies</title>
<polygon fill="white" stroke="transparent" points="-4,4 -4,-280 714,-280 714,4 -4,4"/>
<text text-anchor="start" x="334.01" y="-42.4" font-family="sans-serif" font-weight="bold" font-size="14.00">Legend</text>
<polygon fill="#ffffb3" stroke="transparent" points="121,-10 121,-30 141,-30 141,-10 121,-10"/>
<text text-anchor="start" x="144.63" y="-15.4" font-family="sans-serif" font-size="14.00"> &#160;Declarations</text>
<polygon fill="#8dd3c7" stroke="transparent" points="234,-10 234,-30 254,-30 254,-10 234,-10"/>
<text text-anchor="start" x="257.73" y="-15.4" font-family="sans-serif" font-size="14.00"> &#160;Module</text>
<polygon fill="#80b1d3" stroke="transparent" points="320,-10 320,-30 340,-30 340,-10 320,-10"/>
<text text-anchor="start" x="343.78" y="-15.4" font-family="sans-serif" font-size="14.00"> &#160;Bootstrap</text>
<polygon fill="#fdb462" stroke="transparent" points="417,-10 417,-30 437,-30 437,-10 417,-10"/>
<text text-anchor="start" x="440.67" y="-15.4" font-family="sans-serif" font-size="14.00"> &#160;Providers</text>
<polygon fill="#fb8072" stroke="transparent" points="513,-10 513,-30 533,-30 533,-10 513,-10"/>
<text text-anchor="start" x="536.73" y="-15.4" font-family="sans-serif" font-size="14.00"> &#160;Exports</text>
<g id="clust1" class="cluster">
<title>cluster_HeaderModule</title>
<polygon fill="none" stroke="black" stroke-dasharray="1,5" points="8,-70 8,-268 702,-268 702,-70 8,-70"/>
</g>
<g id="clust2" class="cluster">
<title>cluster_HeaderModule_declarations</title>
<polygon fill="none" stroke="black" points="542,-78 542,-130 694,-130 694,-78 542,-78"/>
</g>
<g id="clust5" class="cluster">
<title>cluster_HeaderModule_exports</title>
<polygon fill="none" stroke="black" points="29,-208 29,-260 675,-260 675,-208 29,-208"/>
</g>
<g id="clust4" class="cluster">
<title>cluster_HeaderModule_imports</title>
<polygon fill="none" stroke="black" points="16,-78 16,-195 534,-195 534,-78 16,-78"/>
</g>
<!-- ContainerComponent -->
<g id="node1" class="node">
<title>ContainerComponent</title>
<polygon fill="#ffffb3" stroke="black" points="686.04,-122 549.96,-122 549.96,-86 686.04,-86 686.04,-122"/>
<text text-anchor="middle" x="618" y="-99.8" font-family="Times,serif" font-size="14.00">ContainerComponent</text>
</g>
<!-- HeaderModule -->
<g id="node2" class="node">
<title>HeaderModule</title>
<polygon fill="#8dd3c7" stroke="black" points="383.96,-187 380.96,-191 359.96,-191 356.96,-187 284.04,-187 284.04,-151 383.96,-151 383.96,-187"/>
<text text-anchor="middle" x="334" y="-164.8" font-family="Times,serif" font-size="14.00">HeaderModule</text>
</g>
<!-- ContainerComponent&#45;&gt;HeaderModule -->
<g id="edge1" class="edge">
<title>ContainerComponent&#45;&gt;HeaderModule</title>
<path fill="none" stroke="black" d="M608.38,-122.27C608.38,-140.56 608.38,-166 608.38,-166 608.38,-166 394.01,-166 394.01,-166"/>
<polygon fill="black" stroke="black" points="394.01,-162.5 384.01,-166 394.01,-169.5 394.01,-162.5"/>
</g>
<!-- HeaderModule&#45;&gt;HeaderModule -->
<g id="edge3" class="edge">
<title>HeaderModule&#45;&gt;HeaderModule</title>
<path fill="none" stroke="black" d="M350.66,-150.76C350.66,-143.57 350.66,-137 350.66,-137 350.66,-137 394.61,-137 394.61,-137 394.61,-137 394.61,-202 394.61,-202 394.61,-202 350.66,-202 350.66,-202 350.66,-202 350.66,-197.04 350.66,-197.04"/>
<polygon fill="black" stroke="black" points="354.16,-197.04 350.66,-187.04 347.16,-197.04 354.16,-197.04"/>
</g>
<!-- ContainerComponent  -->
<g id="node7" class="node">
<title>ContainerComponent </title>
<polygon fill="#fb8072" stroke="black" points="667.04,-252 526.96,-252 526.96,-216 667.04,-216 667.04,-252"/>
<text text-anchor="middle" x="597" y="-229.8" font-family="Times,serif" font-size="14.00">ContainerComponent </text>
</g>
<!-- HeaderModule&#45;&gt;ContainerComponent  -->
<g id="edge7" class="edge">
<title>HeaderModule&#45;&gt;ContainerComponent </title>
<path fill="none" stroke="black" stroke-dasharray="5,2" d="M383.99,-173C444.49,-173 538.36,-173 538.36,-173 538.36,-173 538.36,-205.7 538.36,-205.7"/>
<polygon fill="black" stroke="black" points="534.86,-205.7 538.36,-215.7 541.86,-205.7 534.86,-205.7"/>
</g>
<!-- FeatureModule  -->
<g id="node8" class="node">
<title>FeatureModule </title>
<polygon fill="#fb8072" stroke="black" points="508.53,-252 403.47,-252 403.47,-216 508.53,-216 508.53,-252"/>
<text text-anchor="middle" x="456" y="-229.8" font-family="Times,serif" font-size="14.00">FeatureModule </text>
</g>
<!-- HeaderModule&#45;&gt;FeatureModule  -->
<g id="edge8" class="edge">
<title>HeaderModule&#45;&gt;FeatureModule </title>
<path fill="none" stroke="black" stroke-dasharray="5,2" d="M384.15,-180C400.9,-180 415.39,-180 415.39,-180 415.39,-180 415.39,-205.72 415.39,-205.72"/>
<polygon fill="black" stroke="black" points="411.89,-205.72 415.39,-215.72 418.89,-205.72 411.89,-205.72"/>
</g>
<!-- HeaderModule  -->
<g id="node9" class="node">
<title>HeaderModule </title>
<polygon fill="#fb8072" stroke="black" points="385.96,-252 282.04,-252 282.04,-216 385.96,-216 385.96,-252"/>
<text text-anchor="middle" x="334" y="-229.8" font-family="Times,serif" font-size="14.00">HeaderModule </text>
</g>
<!-- HeaderModule&#45;&gt;HeaderModule  -->
<g id="edge9" class="edge">
<title>HeaderModule&#45;&gt;HeaderModule </title>
<path fill="none" stroke="black" stroke-dasharray="5,2" d="M317.34,-187.11C317.34,-187.11 317.34,-205.99 317.34,-205.99"/>
<polygon fill="black" stroke="black" points="313.84,-205.99 317.34,-215.99 320.84,-205.99 313.84,-205.99"/>
</g>
<!-- SearchModule  -->
<g id="node10" class="node">
<title>SearchModule </title>
<polygon fill="#fb8072" stroke="black" points="264.64,-252 163.36,-252 163.36,-216 264.64,-216 264.64,-252"/>
<text text-anchor="middle" x="214" y="-229.8" font-family="Times,serif" font-size="14.00">SearchModule </text>
</g>
<!-- HeaderModule&#45;&gt;SearchModule  -->
<g id="edge10" class="edge">
<title>HeaderModule&#45;&gt;SearchModule </title>
<path fill="none" stroke="black" stroke-dasharray="5,2" d="M283.86,-180C267.12,-180 252.64,-180 252.64,-180 252.64,-180 252.64,-205.72 252.64,-205.72"/>
<polygon fill="black" stroke="black" points="249.14,-205.72 252.64,-215.72 256.14,-205.72 249.14,-205.72"/>
</g>
<!-- SidenavModule  -->
<g id="node11" class="node">
<title>SidenavModule </title>
<polygon fill="#fb8072" stroke="black" points="145.15,-252 36.85,-252 36.85,-216 145.15,-216 145.15,-252"/>
<text text-anchor="middle" x="91" y="-229.8" font-family="Times,serif" font-size="14.00">SidenavModule </text>
</g>
<!-- HeaderModule&#45;&gt;SidenavModule  -->
<g id="edge11" class="edge">
<title>HeaderModule&#45;&gt;SidenavModule </title>
<path fill="none" stroke="black" stroke-dasharray="5,2" d="M283.96,-173C225.51,-173 136.7,-173 136.7,-173 136.7,-173 136.7,-205.7 136.7,-205.7"/>
<polygon fill="black" stroke="black" points="133.2,-205.7 136.7,-215.7 140.2,-205.7 133.2,-205.7"/>
</g>
<!-- FeatureModule -->
<g id="node3" class="node">
<title>FeatureModule</title>
<polygon fill="#8dd3c7" stroke="black" points="525.53,-122 522.53,-126 501.53,-126 498.53,-122 424.47,-122 424.47,-86 525.53,-86 525.53,-122"/>
<text text-anchor="middle" x="475" y="-99.8" font-family="Times,serif" font-size="14.00">FeatureModule</text>
</g>
<!-- FeatureModule&#45;&gt;HeaderModule -->
<g id="edge2" class="edge">
<title>FeatureModule&#45;&gt;HeaderModule</title>
<path fill="none" stroke="black" d="M466.38,-122.01C466.38,-138.05 466.38,-159 466.38,-159 466.38,-159 394.05,-159 394.05,-159"/>
<polygon fill="black" stroke="black" points="394.05,-155.5 384.05,-159 394.05,-162.5 394.05,-155.5"/>
</g>
<!-- HeaderRoutingModule -->
<g id="node4" class="node">
<title>HeaderRoutingModule</title>
<polygon fill="#8dd3c7" stroke="black" points="406.58,-122 403.58,-126 382.58,-126 379.58,-122 261.42,-122 261.42,-86 406.58,-86 406.58,-122"/>
<text text-anchor="middle" x="334" y="-99.8" font-family="Times,serif" font-size="14.00">HeaderRoutingModule</text>
</g>
<!-- HeaderRoutingModule&#45;&gt;HeaderModule -->
<g id="edge4" class="edge">
<title>HeaderRoutingModule&#45;&gt;HeaderModule</title>
<path fill="none" stroke="black" d="M317.34,-122.11C317.34,-122.11 317.34,-140.99 317.34,-140.99"/>
<polygon fill="black" stroke="black" points="313.84,-140.99 317.34,-150.99 320.84,-140.99 313.84,-140.99"/>
</g>
<!-- SearchModule -->
<g id="node5" class="node">
<title>SearchModule</title>
<polygon fill="#8dd3c7" stroke="black" points="243.64,-122 240.64,-126 219.64,-126 216.64,-122 146.36,-122 146.36,-86 243.64,-86 243.64,-122"/>
<text text-anchor="middle" x="195" y="-99.8" font-family="Times,serif" font-size="14.00">SearchModule</text>
</g>
<!-- SearchModule&#45;&gt;HeaderModule -->
<g id="edge5" class="edge">
<title>SearchModule&#45;&gt;HeaderModule</title>
<path fill="none" stroke="black" d="M203.62,-122.01C203.62,-138.05 203.62,-159 203.62,-159 203.62,-159 273.97,-159 273.97,-159"/>
<polygon fill="black" stroke="black" points="273.97,-162.5 283.97,-159 273.97,-155.5 273.97,-162.5"/>
</g>
<!-- SidenavModule -->
<g id="node6" class="node">
<title>SidenavModule</title>
<polygon fill="#8dd3c7" stroke="black" points="128.15,-122 125.15,-126 104.15,-126 101.15,-122 23.85,-122 23.85,-86 128.15,-86 128.15,-122"/>
<text text-anchor="middle" x="76" y="-99.8" font-family="Times,serif" font-size="14.00">SidenavModule</text>
</g>
<!-- SidenavModule&#45;&gt;HeaderModule -->
<g id="edge6" class="edge">
<title>SidenavModule&#45;&gt;HeaderModule</title>
<path fill="none" stroke="black" d="M82.62,-122.27C82.62,-140.56 82.62,-166 82.62,-166 82.62,-166 274.04,-166 274.04,-166"/>
<polygon fill="black" stroke="black" points="274.04,-169.5 284.04,-166 274.04,-162.5 274.04,-169.5"/>
</g>
</g>
</svg>
