<?xml version="1.0" encoding="UTF-8" standalone="no"?>
<!DOCTYPE svg PUBLIC "-//W3C//DTD SVG 1.1//EN"
 "http://www.w3.org/Graphics/SVG/1.1/DTD/svg11.dtd">
<!-- Generated by graphviz version 2.44.1 (20200629.0846)
 -->
<!-- Title: dependencies Pages: 1 -->
<svg width="504pt" height="284pt"
 viewBox="0.00 0.00 504.00 284.00" xmlns="http://www.w3.org/2000/svg" xmlns:xlink="http://www.w3.org/1999/xlink">
<g id="graph0" class="graph" transform="scale(1 1) rotate(0) translate(4 280)">
<title>dependencies</title>
<polygon fill="white" stroke="transparent" points="-4,4 -4,-280 500,-280 500,4 -4,4"/>
<text text-anchor="start" x="227.01" y="-42.4" font-family="sans-serif" font-weight="bold" font-size="14.00">Legend</text>
<polygon fill="#ffffb3" stroke="transparent" points="14,-10 14,-30 34,-30 34,-10 14,-10"/>
<text text-anchor="start" x="37.63" y="-15.4" font-family="sans-serif" font-size="14.00"> &#160;Declarations</text>
<polygon fill="#8dd3c7" stroke="transparent" points="127,-10 127,-30 147,-30 147,-10 127,-10"/>
<text text-anchor="start" x="150.73" y="-15.4" font-family="sans-serif" font-size="14.00"> &#160;Module</text>
<polygon fill="#80b1d3" stroke="transparent" points="213,-10 213,-30 233,-30 233,-10 213,-10"/>
<text text-anchor="start" x="236.78" y="-15.4" font-family="sans-serif" font-size="14.00"> &#160;Bootstrap</text>
<polygon fill="#fdb462" stroke="transparent" points="310,-10 310,-30 330,-30 330,-10 310,-10"/>
<text text-anchor="start" x="333.67" y="-15.4" font-family="sans-serif" font-size="14.00"> &#160;Providers</text>
<polygon fill="#fb8072" stroke="transparent" points="406,-10 406,-30 426,-30 426,-10 406,-10"/>
<text text-anchor="start" x="429.73" y="-15.4" font-family="sans-serif" font-size="14.00"> &#160;Exports</text>
<g id="clust1" class="cluster">
<title>cluster_HeaderModule</title>
<polygon fill="none" stroke="black" stroke-dasharray="1,5" points="23.5,-70 23.5,-268 472.5,-268 472.5,-70 23.5,-70"/>
</g>
<g id="clust5" class="cluster">
<title>cluster_HeaderModule_exports</title>
<polygon fill="none" stroke="black" points="179.5,-208 179.5,-260 327.5,-260 327.5,-208 179.5,-208"/>
</g>
<g id="clust2" class="cluster">
<title>cluster_HeaderModule_declarations</title>
<polygon fill="none" stroke="black" points="320.5,-78 320.5,-130 464.5,-130 464.5,-78 320.5,-78"/>
</g>
<g id="clust4" class="cluster">
<title>cluster_HeaderModule_imports</title>
<polygon fill="none" stroke="black" points="31.5,-78 31.5,-130 312.5,-130 312.5,-78 31.5,-78"/>
</g>
<!-- ForecastComponent -->
<g id="node1" class="node">
<title>ForecastComponent</title>
<polygon fill="#ffffb3" stroke="black" points="456.75,-122 328.25,-122 328.25,-86 456.75,-86 456.75,-122"/>
<text text-anchor="middle" x="392.5" y="-99.8" font-family="Times,serif" font-size="14.00">ForecastComponent</text>
</g>
<!-- HeaderModule -->
<g id="node2" class="node">
<title>HeaderModule</title>
<polygon fill="#8dd3c7" stroke="black" points="303.46,-187 300.46,-191 279.46,-191 276.46,-187 203.54,-187 203.54,-151 303.46,-151 303.46,-187"/>
<text text-anchor="middle" x="253.5" y="-164.8" font-family="Times,serif" font-size="14.00">HeaderModule</text>
</g>
<!-- ForecastComponent&#45;&gt;HeaderModule -->
<g id="edge1" class="edge">
<title>ForecastComponent&#45;&gt;HeaderModule</title>
<path fill="none" stroke="black" d="M392.5,-122.11C392.5,-141.34 392.5,-169 392.5,-169 392.5,-169 313.68,-169 313.68,-169"/>
<polygon fill="black" stroke="black" points="313.68,-165.5 303.68,-169 313.68,-172.5 313.68,-165.5"/>
</g>
<!-- ForecastComponent  -->
<g id="node5" class="node">
<title>ForecastComponent </title>
<polygon fill="#fb8072" stroke="black" points="319.75,-252 187.25,-252 187.25,-216 319.75,-216 319.75,-252"/>
<text text-anchor="middle" x="253.5" y="-229.8" font-family="Times,serif" font-size="14.00">ForecastComponent </text>
</g>
<!-- HeaderModule&#45;&gt;ForecastComponent  -->
<g id="edge4" class="edge">
<title>HeaderModule&#45;&gt;ForecastComponent </title>
<path fill="none" stroke="black" stroke-dasharray="5,2" d="M253.5,-187.11C253.5,-187.11 253.5,-205.99 253.5,-205.99"/>
<polygon fill="black" stroke="black" points="250,-205.99 253.5,-215.99 257,-205.99 250,-205.99"/>
</g>
<!-- FeatureModule -->
<g id="node3" class="node">
<title>FeatureModule</title>
<polygon fill="#8dd3c7" stroke="black" points="304.03,-122 301.03,-126 280.03,-126 277.03,-122 202.97,-122 202.97,-86 304.03,-86 304.03,-122"/>
<text text-anchor="middle" x="253.5" y="-99.8" font-family="Times,serif" font-size="14.00">FeatureModule</text>
</g>
<!-- FeatureModule&#45;&gt;HeaderModule -->
<g id="edge2" class="edge">
<title>FeatureModule&#45;&gt;HeaderModule</title>
<path fill="none" stroke="black" d="M253.5,-122.11C253.5,-122.11 253.5,-140.99 253.5,-140.99"/>
<polygon fill="black" stroke="black" points="250,-140.99 253.5,-150.99 257,-140.99 250,-140.99"/>
</g>
<!-- HeaderRoutingModule -->
<g id="node4" class="node">
<title>HeaderRoutingModule</title>
<polygon fill="#8dd3c7" stroke="black" points="185.08,-122 182.08,-126 161.08,-126 158.08,-122 39.92,-122 39.92,-86 185.08,-86 185.08,-122"/>
<text text-anchor="middle" x="112.5" y="-99.8" font-family="Times,serif" font-size="14.00">HeaderRoutingModule</text>
</g>
<!-- HeaderRoutingModule&#45;&gt;HeaderModule -->
<g id="edge3" class="edge">
<title>HeaderRoutingModule&#45;&gt;HeaderModule</title>
<path fill="none" stroke="black" d="M112.5,-122.11C112.5,-141.34 112.5,-169 112.5,-169 112.5,-169 193.39,-169 193.39,-169"/>
<polygon fill="black" stroke="black" points="193.39,-172.5 203.39,-169 193.39,-165.5 193.39,-172.5"/>
</g>
</g>
</svg>
