<?xml version="1.0" encoding="UTF-8" standalone="no"?>
<!DOCTYPE svg PUBLIC "-//W3C//DTD SVG 1.1//EN"
 "http://www.w3.org/Graphics/SVG/1.1/DTD/svg11.dtd">
<!-- Generated by graphviz version 2.44.1 (20200629.0846)
 -->
<!-- Title: dependencies Pages: 1 -->
<svg width="504pt" height="284pt"
 viewBox="0.00 0.00 504.00 284.00" xmlns="http://www.w3.org/2000/svg" xmlns:xlink="http://www.w3.org/1999/xlink">
<g id="graph0" class="graph" transform="scale(1 1) rotate(0) translate(4 280)">
<title>dependencies</title>
<polygon fill="white" stroke="transparent" points="-4,4 -4,-280 500,-280 500,4 -4,4"/>
<text text-anchor="start" x="227.01" y="-42.4" font-family="sans-serif" font-weight="bold" font-size="14.00">Legend</text>
<polygon fill="#ffffb3" stroke="transparent" points="14,-10 14,-30 34,-30 34,-10 14,-10"/>
<text text-anchor="start" x="37.63" y="-15.4" font-family="sans-serif" font-size="14.00"> &#160;Declarations</text>
<polygon fill="#8dd3c7" stroke="transparent" points="127,-10 127,-30 147,-30 147,-10 127,-10"/>
<text text-anchor="start" x="150.73" y="-15.4" font-family="sans-serif" font-size="14.00"> &#160;Module</text>
<polygon fill="#80b1d3" stroke="transparent" points="213,-10 213,-30 233,-30 233,-10 213,-10"/>
<text text-anchor="start" x="236.78" y="-15.4" font-family="sans-serif" font-size="14.00"> &#160;Bootstrap</text>
<polygon fill="#fdb462" stroke="transparent" points="310,-10 310,-30 330,-30 330,-10 310,-10"/>
<text text-anchor="start" x="333.67" y="-15.4" font-family="sans-serif" font-size="14.00"> &#160;Providers</text>
<polygon fill="#fb8072" stroke="transparent" points="406,-10 406,-30 426,-30 426,-10 406,-10"/>
<text text-anchor="start" x="429.73" y="-15.4" font-family="sans-serif" font-size="14.00"> &#160;Exports</text>
<g id="clust1" class="cluster">
<title>cluster_HeaderModule</title>
<polygon fill="none" stroke="black" stroke-dasharray="1,5" points="80,-70 80,-268 416,-268 416,-70 80,-70"/>
</g>
<g id="clust2" class="cluster">
<title>cluster_HeaderModule_declarations</title>
<polygon fill="none" stroke="black" points="258,-78 258,-130 408,-130 408,-78 258,-78"/>
</g>
<g id="clust5" class="cluster">
<title>cluster_HeaderModule_exports</title>
<polygon fill="none" stroke="black" points="174,-208 174,-260 326,-260 326,-208 174,-208"/>
</g>
<g id="clust4" class="cluster">
<title>cluster_HeaderModule_imports</title>
<polygon fill="none" stroke="black" points="88,-78 88,-130 250,-130 250,-78 88,-78"/>
</g>
<!-- FavoritesComponent -->
<g id="node1" class="node">
<title>FavoritesComponent</title>
<polygon fill="#ffffb3" stroke="black" points="399.93,-122 266.07,-122 266.07,-86 399.93,-86 399.93,-122"/>
<text text-anchor="middle" x="333" y="-99.8" font-family="Times,serif" font-size="14.00">FavoritesComponent</text>
</g>
<!-- HeaderModule -->
<g id="node2" class="node">
<title>HeaderModule</title>
<polygon fill="#8dd3c7" stroke="black" points="299.96,-187 296.96,-191 275.96,-191 272.96,-187 200.04,-187 200.04,-151 299.96,-151 299.96,-187"/>
<text text-anchor="middle" x="250" y="-164.8" font-family="Times,serif" font-size="14.00">HeaderModule</text>
</g>
<!-- FavoritesComponent&#45;&gt;HeaderModule -->
<g id="edge1" class="edge">
<title>FavoritesComponent&#45;&gt;HeaderModule</title>
<path fill="none" stroke="black" d="M283.13,-122.11C283.13,-122.11 283.13,-140.99 283.13,-140.99"/>
<polygon fill="black" stroke="black" points="279.63,-140.99 283.13,-150.99 286.63,-140.99 279.63,-140.99"/>
</g>
<!-- FavoritesComponent  -->
<g id="node4" class="node">
<title>FavoritesComponent </title>
<polygon fill="#fb8072" stroke="black" points="318.43,-252 181.57,-252 181.57,-216 318.43,-216 318.43,-252"/>
<text text-anchor="middle" x="250" y="-229.8" font-family="Times,serif" font-size="14.00">FavoritesComponent </text>
</g>
<!-- HeaderModule&#45;&gt;FavoritesComponent  -->
<g id="edge3" class="edge">
<title>HeaderModule&#45;&gt;FavoritesComponent </title>
<path fill="none" stroke="black" stroke-dasharray="5,2" d="M250,-187.11C250,-187.11 250,-205.99 250,-205.99"/>
<polygon fill="black" stroke="black" points="246.5,-205.99 250,-215.99 253.5,-205.99 246.5,-205.99"/>
</g>
<!-- HeaderRoutingModule -->
<g id="node3" class="node">
<title>HeaderRoutingModule</title>
<polygon fill="#8dd3c7" stroke="black" points="241.58,-122 238.58,-126 217.58,-126 214.58,-122 96.42,-122 96.42,-86 241.58,-86 241.58,-122"/>
<text text-anchor="middle" x="169" y="-99.8" font-family="Times,serif" font-size="14.00">HeaderRoutingModule</text>
</g>
<!-- HeaderRoutingModule&#45;&gt;HeaderModule -->
<g id="edge2" class="edge">
<title>HeaderRoutingModule&#45;&gt;HeaderModule</title>
<path fill="none" stroke="black" d="M220.78,-122.11C220.78,-122.11 220.78,-140.99 220.78,-140.99"/>
<polygon fill="black" stroke="black" points="217.28,-140.99 220.78,-150.99 224.28,-140.99 217.28,-140.99"/>
</g>
</g>
</svg>
