<?xml version="1.0" encoding="UTF-8" standalone="no"?>
<!DOCTYPE svg PUBLIC "-//W3C//DTD SVG 1.1//EN"
 "http://www.w3.org/Graphics/SVG/1.1/DTD/svg11.dtd">
<!-- Generated by graphviz version 2.44.1 (20200629.0846)
 -->
<!-- Title: dependencies Pages: 1 -->
<svg width="504pt" height="284pt"
 viewBox="0.00 0.00 504.00 284.00" xmlns="http://www.w3.org/2000/svg" xmlns:xlink="http://www.w3.org/1999/xlink">
<g id="graph0" class="graph" transform="scale(1 1) rotate(0) translate(4 280)">
<title>dependencies</title>
<polygon fill="white" stroke="transparent" points="-4,4 -4,-280 500,-280 500,4 -4,4"/>
<text text-anchor="start" x="227.01" y="-42.4" font-family="sans-serif" font-weight="bold" font-size="14.00">Legend</text>
<polygon fill="#ffffb3" stroke="transparent" points="14,-10 14,-30 34,-30 34,-10 14,-10"/>
<text text-anchor="start" x="37.63" y="-15.4" font-family="sans-serif" font-size="14.00"> &#160;Declarations</text>
<polygon fill="#8dd3c7" stroke="transparent" points="127,-10 127,-30 147,-30 147,-10 127,-10"/>
<text text-anchor="start" x="150.73" y="-15.4" font-family="sans-serif" font-size="14.00"> &#160;Module</text>
<polygon fill="#80b1d3" stroke="transparent" points="213,-10 213,-30 233,-30 233,-10 213,-10"/>
<text text-anchor="start" x="236.78" y="-15.4" font-family="sans-serif" font-size="14.00"> &#160;Bootstrap</text>
<polygon fill="#fdb462" stroke="transparent" points="310,-10 310,-30 330,-30 330,-10 310,-10"/>
<text text-anchor="start" x="333.67" y="-15.4" font-family="sans-serif" font-size="14.00"> &#160;Providers</text>
<polygon fill="#fb8072" stroke="transparent" points="406,-10 406,-30 426,-30 426,-10 406,-10"/>
<text text-anchor="start" x="429.73" y="-15.4" font-family="sans-serif" font-size="14.00"> &#160;Exports</text>
<g id="clust1" class="cluster">
<title>cluster_HeaderModule</title>
<polygon fill="none" stroke="black" stroke-dasharray="1,5" points="18,-70 18,-268 478,-268 478,-70 18,-70"/>
</g>
<g id="clust2" class="cluster">
<title>cluster_HeaderModule_declarations</title>
<polygon fill="none" stroke="black" points="318,-78 318,-130 470,-130 470,-78 318,-78"/>
</g>
<g id="clust5" class="cluster">
<title>cluster_HeaderModule_exports</title>
<polygon fill="none" stroke="black" points="43,-208 43,-260 447,-260 447,-208 43,-208"/>
</g>
<g id="clust4" class="cluster">
<title>cluster_HeaderModule_imports</title>
<polygon fill="none" stroke="black" points="26,-78 26,-195 310,-195 310,-78 26,-78"/>
</g>
<!-- ContainerComponent -->
<g id="node1" class="node">
<title>ContainerComponent</title>
<polygon fill="#ffffb3" stroke="black" points="462.04,-122 325.96,-122 325.96,-86 462.04,-86 462.04,-122"/>
<text text-anchor="middle" x="394" y="-99.8" font-family="Times,serif" font-size="14.00">ContainerComponent</text>
</g>
<!-- HeaderModule -->
<g id="node2" class="node">
<title>HeaderModule</title>
<polygon fill="#8dd3c7" stroke="black" points="278.96,-187 275.96,-191 254.96,-191 251.96,-187 179.04,-187 179.04,-151 278.96,-151 278.96,-187"/>
<text text-anchor="middle" x="229" y="-164.8" font-family="Times,serif" font-size="14.00">HeaderModule</text>
</g>
<!-- ContainerComponent&#45;&gt;HeaderModule -->
<g id="edge1" class="edge">
<title>ContainerComponent&#45;&gt;HeaderModule</title>
<path fill="none" stroke="black" d="M382.38,-122.02C382.38,-139.37 382.38,-163 382.38,-163 382.38,-163 289.22,-163 289.22,-163"/>
<polygon fill="black" stroke="black" points="289.22,-159.5 279.22,-163 289.22,-166.5 289.22,-159.5"/>
</g>
<!-- HeaderModule&#45;&gt;HeaderModule -->
<g id="edge2" class="edge">
<title>HeaderModule&#45;&gt;HeaderModule</title>
<path fill="none" stroke="black" d="M212.34,-150.76C212.34,-143.57 212.34,-137 212.34,-137 212.34,-137 168.17,-137 168.17,-137 168.17,-137 168.17,-202 168.17,-202 168.17,-202 212.34,-202 212.34,-202 212.34,-202 212.34,-197.04 212.34,-197.04"/>
<polygon fill="black" stroke="black" points="215.84,-197.04 212.34,-187.04 208.84,-197.04 215.84,-197.04"/>
</g>
<!-- ContainerComponent  -->
<g id="node5" class="node">
<title>ContainerComponent </title>
<polygon fill="#fb8072" stroke="black" points="439.04,-252 298.96,-252 298.96,-216 439.04,-216 439.04,-252"/>
<text text-anchor="middle" x="369" y="-229.8" font-family="Times,serif" font-size="14.00">ContainerComponent </text>
</g>
<!-- HeaderModule&#45;&gt;ContainerComponent  -->
<g id="edge5" class="edge">
<title>HeaderModule&#45;&gt;ContainerComponent </title>
<path fill="none" stroke="black" stroke-dasharray="5,2" d="M279.21,-175C297.44,-175 313.63,-175 313.63,-175 313.63,-175 313.63,-205.98 313.63,-205.98"/>
<polygon fill="black" stroke="black" points="310.13,-205.98 313.63,-215.98 317.13,-205.98 310.13,-205.98"/>
</g>
<!-- HeaderModule  -->
<g id="node6" class="node">
<title>HeaderModule </title>
<polygon fill="#fb8072" stroke="black" points="280.96,-252 177.04,-252 177.04,-216 280.96,-216 280.96,-252"/>
<text text-anchor="middle" x="229" y="-229.8" font-family="Times,serif" font-size="14.00">HeaderModule </text>
</g>
<!-- HeaderModule&#45;&gt;HeaderModule  -->
<g id="edge6" class="edge">
<title>HeaderModule&#45;&gt;HeaderModule </title>
<path fill="none" stroke="black" stroke-dasharray="5,2" d="M245.66,-187.11C245.66,-187.11 245.66,-205.99 245.66,-205.99"/>
<polygon fill="black" stroke="black" points="242.16,-205.99 245.66,-215.99 249.16,-205.99 242.16,-205.99"/>
</g>
<!-- SidenavModule  -->
<g id="node7" class="node">
<title>SidenavModule </title>
<polygon fill="#fb8072" stroke="black" points="159.15,-252 50.85,-252 50.85,-216 159.15,-216 159.15,-252"/>
<text text-anchor="middle" x="105" y="-229.8" font-family="Times,serif" font-size="14.00">SidenavModule </text>
</g>
<!-- HeaderModule&#45;&gt;SidenavModule  -->
<g id="edge7" class="edge">
<title>HeaderModule&#45;&gt;SidenavModule </title>
<path fill="none" stroke="black" stroke-dasharray="5,2" d="M178.71,-175C161.92,-175 147.39,-175 147.39,-175 147.39,-175 147.39,-205.98 147.39,-205.98"/>
<polygon fill="black" stroke="black" points="143.89,-205.98 147.39,-215.98 150.89,-205.98 143.89,-205.98"/>
</g>
<!-- HeaderRoutingModule -->
<g id="node3" class="node">
<title>HeaderRoutingModule</title>
<polygon fill="#8dd3c7" stroke="black" points="301.58,-122 298.58,-126 277.58,-126 274.58,-122 156.42,-122 156.42,-86 301.58,-86 301.58,-122"/>
<text text-anchor="middle" x="229" y="-99.8" font-family="Times,serif" font-size="14.00">HeaderRoutingModule</text>
</g>
<!-- HeaderRoutingModule&#45;&gt;HeaderModule -->
<g id="edge3" class="edge">
<title>HeaderRoutingModule&#45;&gt;HeaderModule</title>
<path fill="none" stroke="black" d="M245.66,-122.11C245.66,-122.11 245.66,-140.99 245.66,-140.99"/>
<polygon fill="black" stroke="black" points="242.16,-140.99 245.66,-150.99 249.16,-140.99 242.16,-140.99"/>
</g>
<!-- SidenavModule -->
<g id="node4" class="node">
<title>SidenavModule</title>
<polygon fill="#8dd3c7" stroke="black" points="138.15,-122 135.15,-126 114.15,-126 111.15,-122 33.85,-122 33.85,-86 138.15,-86 138.15,-122"/>
<text text-anchor="middle" x="86" y="-99.8" font-family="Times,serif" font-size="14.00">SidenavModule</text>
</g>
<!-- SidenavModule&#45;&gt;HeaderModule -->
<g id="edge4" class="edge">
<title>SidenavModule&#45;&gt;HeaderModule</title>
<path fill="none" stroke="black" d="M94.62,-122.02C94.62,-139.37 94.62,-163 94.62,-163 94.62,-163 168.96,-163 168.96,-163"/>
<polygon fill="black" stroke="black" points="168.96,-166.5 178.96,-163 168.96,-159.5 168.96,-166.5"/>
</g>
</g>
</svg>
