<?xml version="1.0" encoding="UTF-8" standalone="no"?>
<!DOCTYPE svg PUBLIC "-//W3C//DTD SVG 1.1//EN"
 "http://www.w3.org/Graphics/SVG/1.1/DTD/svg11.dtd">
<!-- Generated by graphviz version 2.44.1 (20200629.0846)
 -->
<!-- Title: dependencies Pages: 1 -->
<svg width="603pt" height="284pt"
 viewBox="0.00 0.00 603.00 284.00" xmlns="http://www.w3.org/2000/svg" xmlns:xlink="http://www.w3.org/1999/xlink">
<g id="graph0" class="graph" transform="scale(1 1) rotate(0) translate(4 280)">
<title>dependencies</title>
<polygon fill="white" stroke="transparent" points="-4,4 -4,-280 599,-280 599,4 -4,4"/>
<text text-anchor="start" x="276.51" y="-42.4" font-family="sans-serif" font-weight="bold" font-size="14.00">Legend</text>
<polygon fill="#ffffb3" stroke="transparent" points="63.5,-10 63.5,-30 83.5,-30 83.5,-10 63.5,-10"/>
<text text-anchor="start" x="87.13" y="-15.4" font-family="sans-serif" font-size="14.00"> &#160;Declarations</text>
<polygon fill="#8dd3c7" stroke="transparent" points="176.5,-10 176.5,-30 196.5,-30 196.5,-10 176.5,-10"/>
<text text-anchor="start" x="200.23" y="-15.4" font-family="sans-serif" font-size="14.00"> &#160;Module</text>
<polygon fill="#80b1d3" stroke="transparent" points="262.5,-10 262.5,-30 282.5,-30 282.5,-10 262.5,-10"/>
<text text-anchor="start" x="286.28" y="-15.4" font-family="sans-serif" font-size="14.00"> &#160;Bootstrap</text>
<polygon fill="#fdb462" stroke="transparent" points="359.5,-10 359.5,-30 379.5,-30 379.5,-10 359.5,-10"/>
<text text-anchor="start" x="383.17" y="-15.4" font-family="sans-serif" font-size="14.00"> &#160;Providers</text>
<polygon fill="#fb8072" stroke="transparent" points="455.5,-10 455.5,-30 475.5,-30 475.5,-10 455.5,-10"/>
<text text-anchor="start" x="479.23" y="-15.4" font-family="sans-serif" font-size="14.00"> &#160;Exports</text>
<g id="clust1" class="cluster">
<title>cluster_HeaderModule</title>
<polygon fill="none" stroke="black" stroke-dasharray="1,5" points="8,-70 8,-268 587,-268 587,-70 8,-70"/>
</g>
<g id="clust2" class="cluster">
<title>cluster_HeaderModule_declarations</title>
<polygon fill="none" stroke="black" points="427,-78 427,-130 579,-130 579,-78 427,-78"/>
</g>
<g id="clust4" class="cluster">
<title>cluster_HeaderModule_imports</title>
<polygon fill="none" stroke="black" points="16,-78 16,-195 419,-195 419,-78 16,-78"/>
</g>
<g id="clust5" class="cluster">
<title>cluster_HeaderModule_exports</title>
<polygon fill="none" stroke="black" points="95,-208 95,-260 499,-260 499,-208 95,-208"/>
</g>
<!-- ContainerComponent -->
<g id="node1" class="node">
<title>ContainerComponent</title>
<polygon fill="#ffffb3" stroke="black" points="571.04,-122 434.96,-122 434.96,-86 571.04,-86 571.04,-122"/>
<text text-anchor="middle" x="503" y="-99.8" font-family="Times,serif" font-size="14.00">ContainerComponent</text>
</g>
<!-- HeaderModule -->
<g id="node2" class="node">
<title>HeaderModule</title>
<polygon fill="#8dd3c7" stroke="black" points="330.96,-187 327.96,-191 306.96,-191 303.96,-187 231.04,-187 231.04,-151 330.96,-151 330.96,-187"/>
<text text-anchor="middle" x="281" y="-164.8" font-family="Times,serif" font-size="14.00">HeaderModule</text>
</g>
<!-- ContainerComponent&#45;&gt;HeaderModule -->
<g id="edge1" class="edge">
<title>ContainerComponent&#45;&gt;HeaderModule</title>
<path fill="none" stroke="black" d="M462.88,-122.02C462.88,-139.37 462.88,-163 462.88,-163 462.88,-163 341.18,-163 341.18,-163"/>
<polygon fill="black" stroke="black" points="341.18,-159.5 331.18,-163 341.18,-166.5 341.18,-159.5"/>
</g>
<!-- HeaderModule&#45;&gt;HeaderModule -->
<g id="edge3" class="edge">
<title>HeaderModule&#45;&gt;HeaderModule</title>
<path fill="none" stroke="black" d="M323.73,-150.76C323.73,-143.57 323.73,-137 323.73,-137 323.73,-137 341.86,-137 341.86,-137 341.86,-137 341.86,-202 341.86,-202 341.86,-202 297.66,-202 297.66,-202 297.66,-202 297.66,-197.04 297.66,-197.04"/>
<polygon fill="black" stroke="black" points="301.16,-197.04 297.66,-187.04 294.16,-197.04 301.16,-197.04"/>
</g>
<!-- ContainerComponent  -->
<g id="node6" class="node">
<title>ContainerComponent </title>
<polygon fill="#fb8072" stroke="black" points="491.04,-252 350.96,-252 350.96,-216 491.04,-216 491.04,-252"/>
<text text-anchor="middle" x="421" y="-229.8" font-family="Times,serif" font-size="14.00">ContainerComponent </text>
</g>
<!-- HeaderModule&#45;&gt;ContainerComponent  -->
<g id="edge6" class="edge">
<title>HeaderModule&#45;&gt;ContainerComponent </title>
<path fill="none" stroke="black" stroke-dasharray="5,2" d="M331.23,-175C356.1,-175 380.87,-175 380.87,-175 380.87,-175 380.87,-205.98 380.87,-205.98"/>
<polygon fill="black" stroke="black" points="377.37,-205.98 380.87,-215.98 384.37,-205.98 377.37,-205.98"/>
</g>
<!-- HeaderModule  -->
<g id="node7" class="node">
<title>HeaderModule </title>
<polygon fill="#fb8072" stroke="black" points="332.96,-252 229.04,-252 229.04,-216 332.96,-216 332.96,-252"/>
<text text-anchor="middle" x="281" y="-229.8" font-family="Times,serif" font-size="14.00">HeaderModule </text>
</g>
<!-- HeaderModule&#45;&gt;HeaderModule  -->
<g id="edge7" class="edge">
<title>HeaderModule&#45;&gt;HeaderModule </title>
<path fill="none" stroke="black" stroke-dasharray="5,2" d="M264.34,-187.11C264.34,-187.11 264.34,-205.99 264.34,-205.99"/>
<polygon fill="black" stroke="black" points="260.84,-205.99 264.34,-215.99 267.84,-205.99 260.84,-205.99"/>
</g>
<!-- SidenavModule  -->
<g id="node8" class="node">
<title>SidenavModule </title>
<polygon fill="#fb8072" stroke="black" points="211.15,-252 102.85,-252 102.85,-216 211.15,-216 211.15,-252"/>
<text text-anchor="middle" x="157" y="-229.8" font-family="Times,serif" font-size="14.00">SidenavModule </text>
</g>
<!-- HeaderModule&#45;&gt;SidenavModule  -->
<g id="edge8" class="edge">
<title>HeaderModule&#45;&gt;SidenavModule </title>
<path fill="none" stroke="black" stroke-dasharray="5,2" d="M230.78,-175C204.93,-175 178.77,-175 178.77,-175 178.77,-175 178.77,-205.98 178.77,-205.98"/>
<polygon fill="black" stroke="black" points="175.27,-205.98 178.77,-215.98 182.27,-205.98 175.27,-205.98"/>
</g>
<!-- FeatureModule -->
<g id="node3" class="node">
<title>FeatureModule</title>
<polygon fill="#8dd3c7" stroke="black" points="410.53,-122 407.53,-126 386.53,-126 383.53,-122 309.47,-122 309.47,-86 410.53,-86 410.53,-122"/>
<text text-anchor="middle" x="360" y="-99.8" font-family="Times,serif" font-size="14.00">FeatureModule</text>
</g>
<!-- FeatureModule&#45;&gt;HeaderModule -->
<g id="edge2" class="edge">
<title>FeatureModule&#45;&gt;HeaderModule</title>
<path fill="none" stroke="black" d="M316.48,-122.11C316.48,-122.11 316.48,-140.99 316.48,-140.99"/>
<polygon fill="black" stroke="black" points="312.98,-140.99 316.48,-150.99 319.98,-140.99 312.98,-140.99"/>
</g>
<!-- HeaderRoutingModule -->
<g id="node4" class="node">
<title>HeaderRoutingModule</title>
<polygon fill="#8dd3c7" stroke="black" points="291.58,-122 288.58,-126 267.58,-126 264.58,-122 146.42,-122 146.42,-86 291.58,-86 291.58,-122"/>
<text text-anchor="middle" x="219" y="-99.8" font-family="Times,serif" font-size="14.00">HeaderRoutingModule</text>
</g>
<!-- HeaderRoutingModule&#45;&gt;HeaderModule -->
<g id="edge4" class="edge">
<title>HeaderRoutingModule&#45;&gt;HeaderModule</title>
<path fill="none" stroke="black" d="M261.28,-122.11C261.28,-122.11 261.28,-140.99 261.28,-140.99"/>
<polygon fill="black" stroke="black" points="257.78,-140.99 261.28,-150.99 264.78,-140.99 257.78,-140.99"/>
</g>
<!-- SidenavModule -->
<g id="node5" class="node">
<title>SidenavModule</title>
<polygon fill="#8dd3c7" stroke="black" points="128.15,-122 125.15,-126 104.15,-126 101.15,-122 23.85,-122 23.85,-86 128.15,-86 128.15,-122"/>
<text text-anchor="middle" x="76" y="-99.8" font-family="Times,serif" font-size="14.00">SidenavModule</text>
</g>
<!-- SidenavModule&#45;&gt;HeaderModule -->
<g id="edge5" class="edge">
<title>SidenavModule&#45;&gt;HeaderModule</title>
<path fill="none" stroke="black" d="M115.62,-122.02C115.62,-139.37 115.62,-163 115.62,-163 115.62,-163 220.93,-163 220.93,-163"/>
<polygon fill="black" stroke="black" points="220.93,-166.5 230.93,-163 220.93,-159.5 220.93,-166.5"/>
</g>
</g>
</svg>
