<?xml version="1.0" encoding="UTF-8" standalone="no"?>
<!DOCTYPE svg PUBLIC "-//W3C//DTD SVG 1.1//EN"
 "http://www.w3.org/Graphics/SVG/1.1/DTD/svg11.dtd">
<!-- Generated by graphviz version 2.44.1 (20200629.0846)
 -->
<!-- Title: dependencies Pages: 1 -->
<svg width="603pt" height="284pt"
 viewBox="0.00 0.00 603.00 284.00" xmlns="http://www.w3.org/2000/svg" xmlns:xlink="http://www.w3.org/1999/xlink">
<g id="graph0" class="graph" transform="scale(1 1) rotate(0) translate(4 280)">
<title>dependencies</title>
<polygon fill="white" stroke="transparent" points="-4,4 -4,-280 599,-280 599,4 -4,4"/>
<text text-anchor="start" x="276.51" y="-42.4" font-family="sans-serif" font-weight="bold" font-size="14.00">Legend</text>
<polygon fill="#ffffb3" stroke="transparent" points="63.5,-10 63.5,-30 83.5,-30 83.5,-10 63.5,-10"/>
<text text-anchor="start" x="87.13" y="-15.4" font-family="sans-serif" font-size="14.00"> &#160;Declarations</text>
<polygon fill="#8dd3c7" stroke="transparent" points="176.5,-10 176.5,-30 196.5,-30 196.5,-10 176.5,-10"/>
<text text-anchor="start" x="200.23" y="-15.4" font-family="sans-serif" font-size="14.00"> &#160;Module</text>
<polygon fill="#80b1d3" stroke="transparent" points="262.5,-10 262.5,-30 282.5,-30 282.5,-10 262.5,-10"/>
<text text-anchor="start" x="286.28" y="-15.4" font-family="sans-serif" font-size="14.00"> &#160;Bootstrap</text>
<polygon fill="#fdb462" stroke="transparent" points="359.5,-10 359.5,-30 379.5,-30 379.5,-10 359.5,-10"/>
<text text-anchor="start" x="383.17" y="-15.4" font-family="sans-serif" font-size="14.00"> &#160;Providers</text>
<polygon fill="#fb8072" stroke="transparent" points="455.5,-10 455.5,-30 475.5,-30 475.5,-10 455.5,-10"/>
<text text-anchor="start" x="479.23" y="-15.4" font-family="sans-serif" font-size="14.00"> &#160;Exports</text>
<g id="clust1" class="cluster">
<title>cluster_HeaderModule</title>
<polygon fill="none" stroke="black" stroke-dasharray="1,5" points="8,-70 8,-268 587,-268 587,-70 8,-70"/>
</g>
<g id="clust4" class="cluster">
<title>cluster_HeaderModule_imports</title>
<polygon fill="none" stroke="black" points="176,-78 176,-195 579,-195 579,-78 176,-78"/>
</g>
<g id="clust2" class="cluster">
<title>cluster_HeaderModule_declarations</title>
<polygon fill="none" stroke="black" points="16,-78 16,-130 168,-130 168,-78 16,-78"/>
</g>
<g id="clust5" class="cluster">
<title>cluster_HeaderModule_exports</title>
<polygon fill="none" stroke="black" points="33,-208 33,-260 560,-260 560,-208 33,-208"/>
</g>
<!-- ContainerComponent -->
<g id="node1" class="node">
<title>ContainerComponent</title>
<polygon fill="#ffffb3" stroke="black" points="160.04,-122 23.96,-122 23.96,-86 160.04,-86 160.04,-122"/>
<text text-anchor="middle" x="92" y="-99.8" font-family="Times,serif" font-size="14.00">ContainerComponent</text>
</g>
<!-- HeaderModule -->
<g id="node2" class="node">
<title>HeaderModule</title>
<polygon fill="#8dd3c7" stroke="black" points="337.96,-187 334.96,-191 313.96,-191 310.96,-187 238.04,-187 238.04,-151 337.96,-151 337.96,-187"/>
<text text-anchor="middle" x="288" y="-164.8" font-family="Times,serif" font-size="14.00">HeaderModule</text>
</g>
<!-- ContainerComponent&#45;&gt;HeaderModule -->
<g id="edge1" class="edge">
<title>ContainerComponent&#45;&gt;HeaderModule</title>
<path fill="none" stroke="black" d="M154.67,-122.02C154.67,-139.37 154.67,-163 154.67,-163 154.67,-163 227.97,-163 227.97,-163"/>
<polygon fill="black" stroke="black" points="227.97,-166.5 237.97,-163 227.97,-159.5 227.97,-166.5"/>
</g>
<!-- HeaderModule&#45;&gt;HeaderModule -->
<g id="edge3" class="edge">
<title>HeaderModule&#45;&gt;HeaderModule</title>
<path fill="none" stroke="black" d="M254.79,-150.76C254.79,-143.57 254.79,-137 254.79,-137 254.79,-137 210.85,-137 210.85,-137 210.85,-137 210.85,-202 210.85,-202 210.85,-202 248.92,-202 248.92,-202 248.92,-202 248.92,-197.04 248.92,-197.04"/>
<polygon fill="black" stroke="black" points="252.42,-197.04 248.92,-187.04 245.42,-197.04 252.42,-197.04"/>
</g>
<!-- ContainerComponent  -->
<g id="node6" class="node">
<title>ContainerComponent </title>
<polygon fill="#fb8072" stroke="black" points="552.04,-252 411.96,-252 411.96,-216 552.04,-216 552.04,-252"/>
<text text-anchor="middle" x="482" y="-229.8" font-family="Times,serif" font-size="14.00">ContainerComponent </text>
</g>
<!-- HeaderModule&#45;&gt;ContainerComponent  -->
<g id="edge6" class="edge">
<title>HeaderModule&#45;&gt;ContainerComponent </title>
<path fill="none" stroke="black" stroke-dasharray="5,2" d="M338.28,-175C379.74,-175 431.76,-175 431.76,-175 431.76,-175 431.76,-205.98 431.76,-205.98"/>
<polygon fill="black" stroke="black" points="428.26,-205.98 431.76,-215.98 435.26,-205.98 428.26,-205.98"/>
</g>
<!-- FeatureModule  -->
<g id="node7" class="node">
<title>FeatureModule </title>
<polygon fill="#fb8072" stroke="black" points="393.53,-252 288.47,-252 288.47,-216 393.53,-216 393.53,-252"/>
<text text-anchor="middle" x="341" y="-229.8" font-family="Times,serif" font-size="14.00">FeatureModule </text>
</g>
<!-- HeaderModule&#45;&gt;FeatureModule  -->
<g id="edge7" class="edge">
<title>HeaderModule&#45;&gt;FeatureModule </title>
<path fill="none" stroke="black" stroke-dasharray="5,2" d="M313.23,-187.11C313.23,-187.11 313.23,-205.99 313.23,-205.99"/>
<polygon fill="black" stroke="black" points="309.73,-205.99 313.23,-215.99 316.73,-205.99 309.73,-205.99"/>
</g>
<!-- HeaderModule  -->
<g id="node8" class="node">
<title>HeaderModule </title>
<polygon fill="#fb8072" stroke="black" points="270.96,-252 167.04,-252 167.04,-216 270.96,-216 270.96,-252"/>
<text text-anchor="middle" x="219" y="-229.8" font-family="Times,serif" font-size="14.00">HeaderModule </text>
</g>
<!-- HeaderModule&#45;&gt;HeaderModule  -->
<g id="edge8" class="edge">
<title>HeaderModule&#45;&gt;HeaderModule </title>
<path fill="none" stroke="black" stroke-dasharray="5,2" d="M259.83,-187.11C259.83,-187.11 259.83,-205.99 259.83,-205.99"/>
<polygon fill="black" stroke="black" points="256.33,-205.99 259.83,-215.99 263.33,-205.99 256.33,-205.99"/>
</g>
<!-- SidenavModule  -->
<g id="node9" class="node">
<title>SidenavModule </title>
<polygon fill="#fb8072" stroke="black" points="149.15,-252 40.85,-252 40.85,-216 149.15,-216 149.15,-252"/>
<text text-anchor="middle" x="95" y="-229.8" font-family="Times,serif" font-size="14.00">SidenavModule </text>
</g>
<!-- HeaderModule&#45;&gt;SidenavModule  -->
<g id="edge9" class="edge">
<title>HeaderModule&#45;&gt;SidenavModule </title>
<path fill="none" stroke="black" stroke-dasharray="5,2" d="M237.8,-175C180.61,-175 95,-175 95,-175 95,-175 95,-205.98 95,-205.98"/>
<polygon fill="black" stroke="black" points="91.5,-205.98 95,-215.98 98.5,-205.98 91.5,-205.98"/>
</g>
<!-- FeatureModule -->
<g id="node3" class="node">
<title>FeatureModule</title>
<polygon fill="#8dd3c7" stroke="black" points="570.53,-122 567.53,-126 546.53,-126 543.53,-122 469.47,-122 469.47,-86 570.53,-86 570.53,-122"/>
<text text-anchor="middle" x="520" y="-99.8" font-family="Times,serif" font-size="14.00">FeatureModule</text>
</g>
<!-- FeatureModule&#45;&gt;HeaderModule -->
<g id="edge2" class="edge">
<title>FeatureModule&#45;&gt;HeaderModule</title>
<path fill="none" stroke="black" d="M510.63,-122.02C510.63,-139.37 510.63,-163 510.63,-163 510.63,-163 347.96,-163 347.96,-163"/>
<polygon fill="black" stroke="black" points="347.96,-159.5 337.96,-163 347.96,-166.5 347.96,-159.5"/>
</g>
<!-- HeaderRoutingModule -->
<g id="node4" class="node">
<title>HeaderRoutingModule</title>
<polygon fill="#8dd3c7" stroke="black" points="451.58,-122 448.58,-126 427.58,-126 424.58,-122 306.42,-122 306.42,-86 451.58,-86 451.58,-122"/>
<text text-anchor="middle" x="379" y="-99.8" font-family="Times,serif" font-size="14.00">HeaderRoutingModule</text>
</g>
<!-- HeaderRoutingModule&#45;&gt;HeaderModule -->
<g id="edge4" class="edge">
<title>HeaderRoutingModule&#45;&gt;HeaderModule</title>
<path fill="none" stroke="black" d="M322.22,-122.11C322.22,-122.11 322.22,-140.99 322.22,-140.99"/>
<polygon fill="black" stroke="black" points="318.72,-140.99 322.22,-150.99 325.72,-140.99 318.72,-140.99"/>
</g>
<!-- SidenavModule -->
<g id="node5" class="node">
<title>SidenavModule</title>
<polygon fill="#8dd3c7" stroke="black" points="288.15,-122 285.15,-126 264.15,-126 261.15,-122 183.85,-122 183.85,-86 288.15,-86 288.15,-122"/>
<text text-anchor="middle" x="236" y="-99.8" font-family="Times,serif" font-size="14.00">SidenavModule</text>
</g>
<!-- SidenavModule&#45;&gt;HeaderModule -->
<g id="edge5" class="edge">
<title>SidenavModule&#45;&gt;HeaderModule</title>
<path fill="none" stroke="black" d="M271.56,-122.11C271.56,-122.11 271.56,-140.99 271.56,-140.99"/>
<polygon fill="black" stroke="black" points="268.06,-140.99 271.56,-150.99 275.06,-140.99 268.06,-140.99"/>
</g>
</g>
</svg>
