<?xml version="1.0" encoding="UTF-8" standalone="no"?>
<!DOCTYPE svg PUBLIC "-//W3C//DTD SVG 1.1//EN"
 "http://www.w3.org/Graphics/SVG/1.1/DTD/svg11.dtd">
<!-- Generated by graphviz version 2.44.1 (20200629.0846)
 -->
<!-- Title: dependencies Pages: 1 -->
<svg width="504pt" height="284pt"
 viewBox="0.00 0.00 504.00 284.00" xmlns="http://www.w3.org/2000/svg" xmlns:xlink="http://www.w3.org/1999/xlink">
<g id="graph0" class="graph" transform="scale(1 1) rotate(0) translate(4 280)">
<title>dependencies</title>
<polygon fill="white" stroke="transparent" points="-4,4 -4,-280 500,-280 500,4 -4,4"/>
<text text-anchor="start" x="227.01" y="-42.4" font-family="sans-serif" font-weight="bold" font-size="14.00">Legend</text>
<polygon fill="#ffffb3" stroke="transparent" points="14,-10 14,-30 34,-30 34,-10 14,-10"/>
<text text-anchor="start" x="37.63" y="-15.4" font-family="sans-serif" font-size="14.00"> &#160;Declarations</text>
<polygon fill="#8dd3c7" stroke="transparent" points="127,-10 127,-30 147,-30 147,-10 127,-10"/>
<text text-anchor="start" x="150.73" y="-15.4" font-family="sans-serif" font-size="14.00"> &#160;Module</text>
<polygon fill="#80b1d3" stroke="transparent" points="213,-10 213,-30 233,-30 233,-10 213,-10"/>
<text text-anchor="start" x="236.78" y="-15.4" font-family="sans-serif" font-size="14.00"> &#160;Bootstrap</text>
<polygon fill="#fdb462" stroke="transparent" points="310,-10 310,-30 330,-30 330,-10 310,-10"/>
<text text-anchor="start" x="333.67" y="-15.4" font-family="sans-serif" font-size="14.00"> &#160;Providers</text>
<polygon fill="#fb8072" stroke="transparent" points="406,-10 406,-30 426,-30 426,-10 406,-10"/>
<text text-anchor="start" x="429.73" y="-15.4" font-family="sans-serif" font-size="14.00"> &#160;Exports</text>
<g id="clust1" class="cluster">
<title>cluster_HeaderModule</title>
<polygon fill="none" stroke="black" stroke-dasharray="1,5" points="20.5,-70 20.5,-268 475.5,-268 475.5,-70 20.5,-70"/>
</g>
<g id="clust4" class="cluster">
<title>cluster_HeaderModule_imports</title>
<polygon fill="none" stroke="black" points="186.5,-78 186.5,-130 467.5,-130 467.5,-78 186.5,-78"/>
</g>
<g id="clust5" class="cluster">
<title>cluster_HeaderModule_exports</title>
<polygon fill="none" stroke="black" points="191.5,-208 191.5,-260 343.5,-260 343.5,-208 191.5,-208"/>
</g>
<g id="clust2" class="cluster">
<title>cluster_HeaderModule_declarations</title>
<polygon fill="none" stroke="black" points="28.5,-78 28.5,-130 178.5,-130 178.5,-78 28.5,-78"/>
</g>
<!-- FavoritesComponent -->
<g id="node1" class="node">
<title>FavoritesComponent</title>
<polygon fill="#ffffb3" stroke="black" points="170.43,-122 36.57,-122 36.57,-86 170.43,-86 170.43,-122"/>
<text text-anchor="middle" x="103.5" y="-99.8" font-family="Times,serif" font-size="14.00">FavoritesComponent</text>
</g>
<!-- HeaderModule -->
<g id="node2" class="node">
<title>HeaderModule</title>
<polygon fill="#8dd3c7" stroke="black" points="317.46,-187 314.46,-191 293.46,-191 290.46,-187 217.54,-187 217.54,-151 317.46,-151 317.46,-187"/>
<text text-anchor="middle" x="267.5" y="-164.8" font-family="Times,serif" font-size="14.00">HeaderModule</text>
</g>
<!-- FavoritesComponent&#45;&gt;HeaderModule -->
<g id="edge1" class="edge">
<title>FavoritesComponent&#45;&gt;HeaderModule</title>
<path fill="none" stroke="black" d="M103.5,-122.11C103.5,-141.34 103.5,-169 103.5,-169 103.5,-169 207.4,-169 207.4,-169"/>
<polygon fill="black" stroke="black" points="207.4,-172.5 217.4,-169 207.4,-165.5 207.4,-172.5"/>
</g>
<!-- FavoritesComponent  -->
<g id="node5" class="node">
<title>FavoritesComponent </title>
<polygon fill="#fb8072" stroke="black" points="335.93,-252 199.07,-252 199.07,-216 335.93,-216 335.93,-252"/>
<text text-anchor="middle" x="267.5" y="-229.8" font-family="Times,serif" font-size="14.00">FavoritesComponent </text>
</g>
<!-- HeaderModule&#45;&gt;FavoritesComponent  -->
<g id="edge4" class="edge">
<title>HeaderModule&#45;&gt;FavoritesComponent </title>
<path fill="none" stroke="black" stroke-dasharray="5,2" d="M267.5,-187.11C267.5,-187.11 267.5,-205.99 267.5,-205.99"/>
<polygon fill="black" stroke="black" points="264,-205.99 267.5,-215.99 271,-205.99 264,-205.99"/>
</g>
<!-- FeatureModule -->
<g id="node3" class="node">
<title>FeatureModule</title>
<polygon fill="#8dd3c7" stroke="black" points="459.03,-122 456.03,-126 435.03,-126 432.03,-122 357.97,-122 357.97,-86 459.03,-86 459.03,-122"/>
<text text-anchor="middle" x="408.5" y="-99.8" font-family="Times,serif" font-size="14.00">FeatureModule</text>
</g>
<!-- FeatureModule&#45;&gt;HeaderModule -->
<g id="edge2" class="edge">
<title>FeatureModule&#45;&gt;HeaderModule</title>
<path fill="none" stroke="black" d="M408.5,-122.11C408.5,-141.34 408.5,-169 408.5,-169 408.5,-169 327.61,-169 327.61,-169"/>
<polygon fill="black" stroke="black" points="327.61,-165.5 317.61,-169 327.61,-172.5 327.61,-165.5"/>
</g>
<!-- HeaderRoutingModule -->
<g id="node4" class="node">
<title>HeaderRoutingModule</title>
<polygon fill="#8dd3c7" stroke="black" points="340.08,-122 337.08,-126 316.08,-126 313.08,-122 194.92,-122 194.92,-86 340.08,-86 340.08,-122"/>
<text text-anchor="middle" x="267.5" y="-99.8" font-family="Times,serif" font-size="14.00">HeaderRoutingModule</text>
</g>
<!-- HeaderRoutingModule&#45;&gt;HeaderModule -->
<g id="edge3" class="edge">
<title>HeaderRoutingModule&#45;&gt;HeaderModule</title>
<path fill="none" stroke="black" d="M267.5,-122.11C267.5,-122.11 267.5,-140.99 267.5,-140.99"/>
<polygon fill="black" stroke="black" points="264,-140.99 267.5,-150.99 271,-140.99 264,-140.99"/>
</g>
</g>
</svg>
