<?xml version="1.0" encoding="UTF-8" standalone="no"?>
<!DOCTYPE svg PUBLIC "-//W3C//DTD SVG 1.1//EN"
 "http://www.w3.org/Graphics/SVG/1.1/DTD/svg11.dtd">
<!-- Generated by graphviz version 2.44.1 (20200629.0846)
 -->
<!-- Title: dependencies Pages: 1 -->
<svg width="603pt" height="284pt"
 viewBox="0.00 0.00 603.00 284.00" xmlns="http://www.w3.org/2000/svg" xmlns:xlink="http://www.w3.org/1999/xlink">
<g id="graph0" class="graph" transform="scale(1 1) rotate(0) translate(4 280)">
<title>dependencies</title>
<polygon fill="white" stroke="transparent" points="-4,4 -4,-280 599,-280 599,4 -4,4"/>
<text text-anchor="start" x="276.51" y="-42.4" font-family="sans-serif" font-weight="bold" font-size="14.00">Legend</text>
<polygon fill="#ffffb3" stroke="transparent" points="63.5,-10 63.5,-30 83.5,-30 83.5,-10 63.5,-10"/>
<text text-anchor="start" x="87.13" y="-15.4" font-family="sans-serif" font-size="14.00"> &#160;Declarations</text>
<polygon fill="#8dd3c7" stroke="transparent" points="176.5,-10 176.5,-30 196.5,-30 196.5,-10 176.5,-10"/>
<text text-anchor="start" x="200.23" y="-15.4" font-family="sans-serif" font-size="14.00"> &#160;Module</text>
<polygon fill="#80b1d3" stroke="transparent" points="262.5,-10 262.5,-30 282.5,-30 282.5,-10 262.5,-10"/>
<text text-anchor="start" x="286.28" y="-15.4" font-family="sans-serif" font-size="14.00"> &#160;Bootstrap</text>
<polygon fill="#fdb462" stroke="transparent" points="359.5,-10 359.5,-30 379.5,-30 379.5,-10 359.5,-10"/>
<text text-anchor="start" x="383.17" y="-15.4" font-family="sans-serif" font-size="14.00"> &#160;Providers</text>
<polygon fill="#fb8072" stroke="transparent" points="455.5,-10 455.5,-30 475.5,-30 475.5,-10 455.5,-10"/>
<text text-anchor="start" x="479.23" y="-15.4" font-family="sans-serif" font-size="14.00"> &#160;Exports</text>
<g id="clust1" class="cluster">
<title>cluster_HeaderModule</title>
<polygon fill="none" stroke="black" stroke-dasharray="1,5" points="8,-70 8,-268 587,-268 587,-70 8,-70"/>
</g>
<g id="clust5" class="cluster">
<title>cluster_HeaderModule_exports</title>
<polygon fill="none" stroke="black" points="112,-208 112,-260 516,-260 516,-208 112,-208"/>
</g>
<g id="clust4" class="cluster">
<title>cluster_HeaderModule_imports</title>
<polygon fill="none" stroke="black" points="176,-78 176,-195 579,-195 579,-78 176,-78"/>
</g>
<g id="clust2" class="cluster">
<title>cluster_HeaderModule_declarations</title>
<polygon fill="none" stroke="black" points="16,-78 16,-130 168,-130 168,-78 16,-78"/>
</g>
<!-- ContainerComponent -->
<g id="node1" class="node">
<title>ContainerComponent</title>
<polygon fill="#ffffb3" stroke="black" points="160.04,-122 23.96,-122 23.96,-86 160.04,-86 160.04,-122"/>
<text text-anchor="middle" x="92" y="-99.8" font-family="Times,serif" font-size="14.00">ContainerComponent</text>
</g>
<!-- HeaderModule -->
<g id="node2" class="node">
<title>HeaderModule</title>
<polygon fill="#8dd3c7" stroke="black" points="347.96,-187 344.96,-191 323.96,-191 320.96,-187 248.04,-187 248.04,-151 347.96,-151 347.96,-187"/>
<text text-anchor="middle" x="298" y="-164.8" font-family="Times,serif" font-size="14.00">HeaderModule</text>
</g>
<!-- ContainerComponent&#45;&gt;HeaderModule -->
<g id="edge1" class="edge">
<title>ContainerComponent&#45;&gt;HeaderModule</title>
<path fill="none" stroke="black" d="M140.1,-122.02C140.1,-139.37 140.1,-163 140.1,-163 140.1,-163 238.04,-163 238.04,-163"/>
<polygon fill="black" stroke="black" points="238.04,-166.5 248.04,-163 238.04,-159.5 238.04,-166.5"/>
</g>
<!-- HeaderModule&#45;&gt;HeaderModule -->
<g id="edge3" class="edge">
<title>HeaderModule&#45;&gt;HeaderModule</title>
<path fill="none" stroke="black" d="M261.46,-150.76C261.46,-143.57 261.46,-137 261.46,-137 261.46,-137 237.17,-137 237.17,-137 237.17,-137 237.17,-202 237.17,-202 237.17,-202 281.34,-202 281.34,-202 281.34,-202 281.34,-197.04 281.34,-197.04"/>
<polygon fill="black" stroke="black" points="284.84,-197.04 281.34,-187.04 277.84,-197.04 284.84,-197.04"/>
</g>
<!-- ContainerComponent  -->
<g id="node6" class="node">
<title>ContainerComponent </title>
<polygon fill="#fb8072" stroke="black" points="508.04,-252 367.96,-252 367.96,-216 508.04,-216 508.04,-252"/>
<text text-anchor="middle" x="438" y="-229.8" font-family="Times,serif" font-size="14.00">ContainerComponent </text>
</g>
<!-- HeaderModule&#45;&gt;ContainerComponent  -->
<g id="edge6" class="edge">
<title>HeaderModule&#45;&gt;ContainerComponent </title>
<path fill="none" stroke="black" stroke-dasharray="5,2" d="M348,-175C377.75,-175 409.76,-175 409.76,-175 409.76,-175 409.76,-205.98 409.76,-205.98"/>
<polygon fill="black" stroke="black" points="406.26,-205.98 409.76,-215.98 413.26,-205.98 406.26,-205.98"/>
</g>
<!-- HeaderModule  -->
<g id="node7" class="node">
<title>HeaderModule </title>
<polygon fill="#fb8072" stroke="black" points="349.96,-252 246.04,-252 246.04,-216 349.96,-216 349.96,-252"/>
<text text-anchor="middle" x="298" y="-229.8" font-family="Times,serif" font-size="14.00">HeaderModule </text>
</g>
<!-- HeaderModule&#45;&gt;HeaderModule  -->
<g id="edge7" class="edge">
<title>HeaderModule&#45;&gt;HeaderModule </title>
<path fill="none" stroke="black" stroke-dasharray="5,2" d="M314.66,-187.11C314.66,-187.11 314.66,-205.99 314.66,-205.99"/>
<polygon fill="black" stroke="black" points="311.16,-205.99 314.66,-215.99 318.16,-205.99 311.16,-205.99"/>
</g>
<!-- SidenavModule  -->
<g id="node8" class="node">
<title>SidenavModule </title>
<polygon fill="#fb8072" stroke="black" points="228.15,-252 119.85,-252 119.85,-216 228.15,-216 228.15,-252"/>
<text text-anchor="middle" x="174" y="-229.8" font-family="Times,serif" font-size="14.00">SidenavModule </text>
</g>
<!-- HeaderModule&#45;&gt;SidenavModule  -->
<g id="edge8" class="edge">
<title>HeaderModule&#45;&gt;SidenavModule </title>
<path fill="none" stroke="black" stroke-dasharray="5,2" d="M247.89,-175C226.29,-175 205.88,-175 205.88,-175 205.88,-175 205.88,-205.98 205.88,-205.98"/>
<polygon fill="black" stroke="black" points="202.38,-205.98 205.88,-215.98 209.38,-205.98 202.38,-205.98"/>
</g>
<!-- FeatureModule -->
<g id="node3" class="node">
<title>FeatureModule</title>
<polygon fill="#8dd3c7" stroke="black" points="570.53,-122 567.53,-126 546.53,-126 543.53,-122 469.47,-122 469.47,-86 570.53,-86 570.53,-122"/>
<text text-anchor="middle" x="520" y="-99.8" font-family="Times,serif" font-size="14.00">FeatureModule</text>
</g>
<!-- FeatureModule&#45;&gt;HeaderModule -->
<g id="edge2" class="edge">
<title>FeatureModule&#45;&gt;HeaderModule</title>
<path fill="none" stroke="black" d="M488.63,-122.02C488.63,-139.37 488.63,-163 488.63,-163 488.63,-163 358.09,-163 358.09,-163"/>
<polygon fill="black" stroke="black" points="358.09,-159.5 348.09,-163 358.09,-166.5 358.09,-159.5"/>
</g>
<!-- HeaderRoutingModule -->
<g id="node4" class="node">
<title>HeaderRoutingModule</title>
<polygon fill="#8dd3c7" stroke="black" points="451.58,-122 448.58,-126 427.58,-126 424.58,-122 306.42,-122 306.42,-86 451.58,-86 451.58,-122"/>
<text text-anchor="middle" x="379" y="-99.8" font-family="Times,serif" font-size="14.00">HeaderRoutingModule</text>
</g>
<!-- HeaderRoutingModule&#45;&gt;HeaderModule -->
<g id="edge4" class="edge">
<title>HeaderRoutingModule&#45;&gt;HeaderModule</title>
<path fill="none" stroke="black" d="M327.22,-122.11C327.22,-122.11 327.22,-140.99 327.22,-140.99"/>
<polygon fill="black" stroke="black" points="323.72,-140.99 327.22,-150.99 330.72,-140.99 323.72,-140.99"/>
</g>
<!-- SidenavModule -->
<g id="node5" class="node">
<title>SidenavModule</title>
<polygon fill="#8dd3c7" stroke="black" points="288.15,-122 285.15,-126 264.15,-126 261.15,-122 183.85,-122 183.85,-86 288.15,-86 288.15,-122"/>
<text text-anchor="middle" x="236" y="-99.8" font-family="Times,serif" font-size="14.00">SidenavModule</text>
</g>
<!-- SidenavModule&#45;&gt;HeaderModule -->
<g id="edge5" class="edge">
<title>SidenavModule&#45;&gt;HeaderModule</title>
<path fill="none" stroke="black" d="M274.89,-122.11C274.89,-122.11 274.89,-140.99 274.89,-140.99"/>
<polygon fill="black" stroke="black" points="271.39,-140.99 274.89,-150.99 278.39,-140.99 271.39,-140.99"/>
</g>
</g>
</svg>
