<?xml version="1.0" encoding="UTF-8" standalone="no"?>
<!DOCTYPE svg PUBLIC "-//W3C//DTD SVG 1.1//EN"
 "http://www.w3.org/Graphics/SVG/1.1/DTD/svg11.dtd">
<!-- Generated by graphviz version 2.44.1 (20200629.0846)
 -->
<!-- Title: dependencies Pages: 1 -->
<svg width="504pt" height="284pt"
 viewBox="0.00 0.00 504.00 284.00" xmlns="http://www.w3.org/2000/svg" xmlns:xlink="http://www.w3.org/1999/xlink">
<g id="graph0" class="graph" transform="scale(1 1) rotate(0) translate(4 280)">
<title>dependencies</title>
<polygon fill="white" stroke="transparent" points="-4,4 -4,-280 500,-280 500,4 -4,4"/>
<text text-anchor="start" x="227.01" y="-42.4" font-family="sans-serif" font-weight="bold" font-size="14.00">Legend</text>
<polygon fill="#ffffb3" stroke="transparent" points="14,-10 14,-30 34,-30 34,-10 14,-10"/>
<text text-anchor="start" x="37.63" y="-15.4" font-family="sans-serif" font-size="14.00"> &#160;Declarations</text>
<polygon fill="#8dd3c7" stroke="transparent" points="127,-10 127,-30 147,-30 147,-10 127,-10"/>
<text text-anchor="start" x="150.73" y="-15.4" font-family="sans-serif" font-size="14.00"> &#160;Module</text>
<polygon fill="#80b1d3" stroke="transparent" points="213,-10 213,-30 233,-30 233,-10 213,-10"/>
<text text-anchor="start" x="236.78" y="-15.4" font-family="sans-serif" font-size="14.00"> &#160;Bootstrap</text>
<polygon fill="#fdb462" stroke="transparent" points="310,-10 310,-30 330,-30 330,-10 310,-10"/>
<text text-anchor="start" x="333.67" y="-15.4" font-family="sans-serif" font-size="14.00"> &#160;Providers</text>
<polygon fill="#fb8072" stroke="transparent" points="406,-10 406,-30 426,-30 426,-10 406,-10"/>
<text text-anchor="start" x="429.73" y="-15.4" font-family="sans-serif" font-size="14.00"> &#160;Exports</text>
<g id="clust1" class="cluster">
<title>cluster_SidenavModule</title>
<polygon fill="none" stroke="black" stroke-dasharray="1,5" points="38,-70 38,-268 458,-268 458,-70 38,-70"/>
</g>
<g id="clust4" class="cluster">
<title>cluster_SidenavModule_imports</title>
<polygon fill="none" stroke="black" points="206,-78 206,-195 442,-195 442,-78 206,-78"/>
</g>
<g id="clust5" class="cluster">
<title>cluster_SidenavModule_exports</title>
<polygon fill="none" stroke="black" points="46,-208 46,-260 450,-260 450,-208 46,-208"/>
</g>
<g id="clust2" class="cluster">
<title>cluster_SidenavModule_declarations</title>
<polygon fill="none" stroke="black" points="46,-78 46,-130 198,-130 198,-78 46,-78"/>
</g>
<!-- ContainerComponent -->
<g id="node1" class="node">
<title>ContainerComponent</title>
<polygon fill="#ffffb3" stroke="black" points="190.04,-122 53.96,-122 53.96,-86 190.04,-86 190.04,-122"/>
<text text-anchor="middle" x="122" y="-99.8" font-family="Times,serif" font-size="14.00">ContainerComponent</text>
</g>
<!-- SidenavModule -->
<g id="node2" class="node">
<title>SidenavModule</title>
<polygon fill="#8dd3c7" stroke="black" points="318.15,-187 315.15,-191 294.15,-191 291.15,-187 213.85,-187 213.85,-151 318.15,-151 318.15,-187"/>
<text text-anchor="middle" x="266" y="-164.8" font-family="Times,serif" font-size="14.00">SidenavModule</text>
</g>
<!-- ContainerComponent&#45;&gt;SidenavModule -->
<g id="edge1" class="edge">
<title>ContainerComponent&#45;&gt;SidenavModule</title>
<path fill="none" stroke="black" d="M185.27,-122.02C185.27,-139.37 185.27,-163 185.27,-163 185.27,-163 203.51,-163 203.51,-163"/>
<polygon fill="black" stroke="black" points="203.51,-166.5 213.51,-163 203.51,-159.5 203.51,-166.5"/>
</g>
<!-- SidenavModule&#45;&gt;SidenavModule -->
<g id="edge4" class="edge">
<title>SidenavModule&#45;&gt;SidenavModule</title>
<path fill="none" stroke="black" d="M280.66,-150.76C280.66,-143.57 280.66,-137 280.66,-137 280.66,-137 325.28,-137 325.28,-137 325.28,-137 325.28,-202 325.28,-202 325.28,-202 312.88,-202 312.88,-202 312.88,-202 312.88,-197.04 312.88,-197.04"/>
<polygon fill="black" stroke="black" points="316.38,-197.04 312.88,-187.04 309.38,-197.04 316.38,-197.04"/>
</g>
<!-- ContainerComponent  -->
<g id="node5" class="node">
<title>ContainerComponent </title>
<polygon fill="#fb8072" stroke="black" points="442.04,-252 301.96,-252 301.96,-216 442.04,-216 442.04,-252"/>
<text text-anchor="middle" x="372" y="-229.8" font-family="Times,serif" font-size="14.00">ContainerComponent </text>
</g>
<!-- SidenavModule&#45;&gt;ContainerComponent  -->
<g id="edge5" class="edge">
<title>SidenavModule&#45;&gt;ContainerComponent </title>
<path fill="none" stroke="black" stroke-dasharray="5,2" d="M307.43,-187.11C307.43,-187.11 307.43,-205.99 307.43,-205.99"/>
<polygon fill="black" stroke="black" points="303.93,-205.99 307.43,-215.99 310.93,-205.99 303.93,-205.99"/>
</g>
<!-- HeaderModule  -->
<g id="node6" class="node">
<title>HeaderModule </title>
<polygon fill="#fb8072" stroke="black" points="283.96,-252 180.04,-252 180.04,-216 283.96,-216 283.96,-252"/>
<text text-anchor="middle" x="232" y="-229.8" font-family="Times,serif" font-size="14.00">HeaderModule </text>
</g>
<!-- SidenavModule&#45;&gt;HeaderModule  -->
<g id="edge6" class="edge">
<title>SidenavModule&#45;&gt;HeaderModule </title>
<path fill="none" stroke="black" stroke-dasharray="5,2" d="M248.7,-187.11C248.7,-187.11 248.7,-205.99 248.7,-205.99"/>
<polygon fill="black" stroke="black" points="245.2,-205.99 248.7,-215.99 252.2,-205.99 245.2,-205.99"/>
</g>
<!-- SidenavModule  -->
<g id="node7" class="node">
<title>SidenavModule </title>
<polygon fill="#fb8072" stroke="black" points="162.15,-252 53.85,-252 53.85,-216 162.15,-216 162.15,-252"/>
<text text-anchor="middle" x="108" y="-229.8" font-family="Times,serif" font-size="14.00">SidenavModule </text>
</g>
<!-- SidenavModule&#45;&gt;SidenavModule  -->
<g id="edge7" class="edge">
<title>SidenavModule&#45;&gt;SidenavModule </title>
<path fill="none" stroke="black" stroke-dasharray="5,2" d="M213.83,-175C167.81,-175 108,-175 108,-175 108,-175 108,-205.98 108,-205.98"/>
<polygon fill="black" stroke="black" points="104.5,-205.98 108,-215.98 111.5,-205.98 104.5,-205.98"/>
</g>
<!-- FeatureModule -->
<g id="node3" class="node">
<title>FeatureModule</title>
<polygon fill="#8dd3c7" stroke="black" points="433.53,-122 430.53,-126 409.53,-126 406.53,-122 332.47,-122 332.47,-86 433.53,-86 433.53,-122"/>
<text text-anchor="middle" x="383" y="-99.8" font-family="Times,serif" font-size="14.00">FeatureModule</text>
</g>
<!-- FeatureModule&#45;&gt;SidenavModule -->
<g id="edge2" class="edge">
<title>FeatureModule&#45;&gt;SidenavModule</title>
<path fill="none" stroke="black" d="M383,-122.11C383,-141.34 383,-169 383,-169 383,-169 328.34,-169 328.34,-169"/>
<polygon fill="black" stroke="black" points="328.34,-165.5 318.34,-169 328.34,-172.5 328.34,-165.5"/>
</g>
<!-- HeaderModule -->
<g id="node4" class="node">
<title>HeaderModule</title>
<polygon fill="#8dd3c7" stroke="black" points="313.96,-122 310.96,-126 289.96,-126 286.96,-122 214.04,-122 214.04,-86 313.96,-86 313.96,-122"/>
<text text-anchor="middle" x="264" y="-99.8" font-family="Times,serif" font-size="14.00">HeaderModule</text>
</g>
<!-- HeaderModule&#45;&gt;SidenavModule -->
<g id="edge3" class="edge">
<title>HeaderModule&#45;&gt;SidenavModule</title>
<path fill="none" stroke="black" d="M247.34,-122.11C247.34,-122.11 247.34,-140.99 247.34,-140.99"/>
<polygon fill="black" stroke="black" points="243.84,-140.99 247.34,-150.99 250.84,-140.99 243.84,-140.99"/>
</g>
</g>
</svg>
