<?xml version="1.0" encoding="UTF-8" standalone="no"?>
<!DOCTYPE svg PUBLIC "-//W3C//DTD SVG 1.1//EN"
 "http://www.w3.org/Graphics/SVG/1.1/DTD/svg11.dtd">
<!-- Generated by graphviz version 2.44.1 (20200629.0846)
 -->
<!-- Title: dependencies Pages: 1 -->
<svg width="504pt" height="284pt"
 viewBox="0.00 0.00 504.00 284.00" xmlns="http://www.w3.org/2000/svg" xmlns:xlink="http://www.w3.org/1999/xlink">
<g id="graph0" class="graph" transform="scale(1 1) rotate(0) translate(4 280)">
<title>dependencies</title>
<polygon fill="white" stroke="transparent" points="-4,4 -4,-280 500,-280 500,4 -4,4"/>
<text text-anchor="start" x="227.01" y="-42.4" font-family="sans-serif" font-weight="bold" font-size="14.00">Legend</text>
<polygon fill="#ffffb3" stroke="transparent" points="14,-10 14,-30 34,-30 34,-10 14,-10"/>
<text text-anchor="start" x="37.63" y="-15.4" font-family="sans-serif" font-size="14.00"> &#160;Declarations</text>
<polygon fill="#8dd3c7" stroke="transparent" points="127,-10 127,-30 147,-30 147,-10 127,-10"/>
<text text-anchor="start" x="150.73" y="-15.4" font-family="sans-serif" font-size="14.00"> &#160;Module</text>
<polygon fill="#80b1d3" stroke="transparent" points="213,-10 213,-30 233,-30 233,-10 213,-10"/>
<text text-anchor="start" x="236.78" y="-15.4" font-family="sans-serif" font-size="14.00"> &#160;Bootstrap</text>
<polygon fill="#fdb462" stroke="transparent" points="310,-10 310,-30 330,-30 330,-10 310,-10"/>
<text text-anchor="start" x="333.67" y="-15.4" font-family="sans-serif" font-size="14.00"> &#160;Providers</text>
<polygon fill="#fb8072" stroke="transparent" points="406,-10 406,-30 426,-30 426,-10 406,-10"/>
<text text-anchor="start" x="429.73" y="-15.4" font-family="sans-serif" font-size="14.00"> &#160;Exports</text>
<g id="clust1" class="cluster">
<title>cluster_SidenavModule</title>
<polygon fill="none" stroke="black" stroke-dasharray="1,5" points="38,-70 38,-268 458,-268 458,-70 38,-70"/>
</g>
<g id="clust5" class="cluster">
<title>cluster_SidenavModule_exports</title>
<polygon fill="none" stroke="black" points="46,-208 46,-260 450,-260 450,-208 46,-208"/>
</g>
<g id="clust2" class="cluster">
<title>cluster_SidenavModule_declarations</title>
<polygon fill="none" stroke="black" points="298,-78 298,-130 450,-130 450,-78 298,-78"/>
</g>
<g id="clust4" class="cluster">
<title>cluster_SidenavModule_imports</title>
<polygon fill="none" stroke="black" points="152,-78 152,-195 290,-195 290,-78 152,-78"/>
</g>
<!-- ContainerComponent -->
<g id="node1" class="node">
<title>ContainerComponent</title>
<polygon fill="#ffffb3" stroke="black" points="442.04,-122 305.96,-122 305.96,-86 442.04,-86 442.04,-122"/>
<text text-anchor="middle" x="374" y="-99.8" font-family="Times,serif" font-size="14.00">ContainerComponent</text>
</g>
<!-- SidenavModule -->
<g id="node2" class="node">
<title>SidenavModule</title>
<polygon fill="#8dd3c7" stroke="black" points="264.15,-187 261.15,-191 240.15,-191 237.15,-187 159.85,-187 159.85,-151 264.15,-151 264.15,-187"/>
<text text-anchor="middle" x="212" y="-164.8" font-family="Times,serif" font-size="14.00">SidenavModule</text>
</g>
<!-- ContainerComponent&#45;&gt;SidenavModule -->
<g id="edge1" class="edge">
<title>ContainerComponent&#45;&gt;SidenavModule</title>
<path fill="none" stroke="black" d="M351.16,-122.02C351.16,-139.37 351.16,-163 351.16,-163 351.16,-163 274.21,-163 274.21,-163"/>
<polygon fill="black" stroke="black" points="274.21,-159.5 264.21,-163 274.21,-166.5 274.21,-159.5"/>
</g>
<!-- SidenavModule&#45;&gt;SidenavModule -->
<g id="edge3" class="edge">
<title>SidenavModule&#45;&gt;SidenavModule</title>
<path fill="none" stroke="black" d="M228.66,-150.76C228.66,-143.57 228.66,-137 228.66,-137 228.66,-137 274.03,-137 274.03,-137 274.03,-137 274.03,-202 274.03,-202 274.03,-202 236.31,-202 236.31,-202 236.31,-202 236.31,-197.04 236.31,-197.04"/>
<polygon fill="black" stroke="black" points="239.81,-197.04 236.31,-187.04 232.81,-197.04 239.81,-197.04"/>
</g>
<!-- ContainerComponent  -->
<g id="node4" class="node">
<title>ContainerComponent </title>
<polygon fill="#fb8072" stroke="black" points="442.04,-252 301.96,-252 301.96,-216 442.04,-216 442.04,-252"/>
<text text-anchor="middle" x="372" y="-229.8" font-family="Times,serif" font-size="14.00">ContainerComponent </text>
</g>
<!-- SidenavModule&#45;&gt;ContainerComponent  -->
<g id="edge4" class="edge">
<title>SidenavModule&#45;&gt;ContainerComponent </title>
<path fill="none" stroke="black" stroke-dasharray="5,2" d="M264.4,-175C318.98,-175 396.59,-175 396.59,-175 396.59,-175 396.59,-205.98 396.59,-205.98"/>
<polygon fill="black" stroke="black" points="393.09,-205.98 396.59,-215.98 400.09,-205.98 393.09,-205.98"/>
</g>
<!-- HeaderModule  -->
<g id="node5" class="node">
<title>HeaderModule </title>
<polygon fill="#fb8072" stroke="black" points="283.96,-252 180.04,-252 180.04,-216 283.96,-216 283.96,-252"/>
<text text-anchor="middle" x="232" y="-229.8" font-family="Times,serif" font-size="14.00">HeaderModule </text>
</g>
<!-- SidenavModule&#45;&gt;HeaderModule  -->
<g id="edge5" class="edge">
<title>SidenavModule&#45;&gt;HeaderModule </title>
<path fill="none" stroke="black" stroke-dasharray="5,2" d="M208.29,-187.11C208.29,-187.11 208.29,-205.99 208.29,-205.99"/>
<polygon fill="black" stroke="black" points="204.79,-205.99 208.29,-215.99 211.79,-205.99 204.79,-205.99"/>
</g>
<!-- SidenavModule  -->
<g id="node6" class="node">
<title>SidenavModule </title>
<polygon fill="#fb8072" stroke="black" points="162.15,-252 53.85,-252 53.85,-216 162.15,-216 162.15,-252"/>
<text text-anchor="middle" x="108" y="-229.8" font-family="Times,serif" font-size="14.00">SidenavModule </text>
</g>
<!-- SidenavModule&#45;&gt;SidenavModule  -->
<g id="edge6" class="edge">
<title>SidenavModule&#45;&gt;SidenavModule </title>
<path fill="none" stroke="black" stroke-dasharray="5,2" d="M171.17,-187.11C171.17,-206.34 171.17,-234 171.17,-234 171.17,-234 170.27,-234 170.27,-234"/>
<polygon fill="black" stroke="black" points="172.12,-230.5 162.12,-234 172.12,-237.5 172.12,-230.5"/>
</g>
<!-- HeaderModule -->
<g id="node3" class="node">
<title>HeaderModule</title>
<polygon fill="#8dd3c7" stroke="black" points="261.96,-122 258.96,-126 237.96,-126 234.96,-122 162.04,-122 162.04,-86 261.96,-86 261.96,-122"/>
<text text-anchor="middle" x="212" y="-99.8" font-family="Times,serif" font-size="14.00">HeaderModule</text>
</g>
<!-- HeaderModule&#45;&gt;SidenavModule -->
<g id="edge2" class="edge">
<title>HeaderModule&#45;&gt;SidenavModule</title>
<path fill="none" stroke="black" d="M195.34,-122.11C195.34,-122.11 195.34,-140.99 195.34,-140.99"/>
<polygon fill="black" stroke="black" points="191.84,-140.99 195.34,-150.99 198.84,-140.99 191.84,-140.99"/>
</g>
</g>
</svg>
