<?xml version="1.0" encoding="UTF-8" standalone="no"?>
<!DOCTYPE svg PUBLIC "-//W3C//DTD SVG 1.1//EN"
 "http://www.w3.org/Graphics/SVG/1.1/DTD/svg11.dtd">
<!-- Generated by graphviz version 2.44.1 (20200629.0846)
 -->
<!-- Title: dependencies Pages: 1 -->
<svg width="686pt" height="284pt"
 viewBox="0.00 0.00 686.00 284.00" xmlns="http://www.w3.org/2000/svg" xmlns:xlink="http://www.w3.org/1999/xlink">
<g id="graph0" class="graph" transform="scale(1 1) rotate(0) translate(4 280)">
<title>dependencies</title>
<polygon fill="white" stroke="transparent" points="-4,4 -4,-280 682,-280 682,4 -4,4"/>
<text text-anchor="start" x="318.01" y="-42.4" font-family="sans-serif" font-weight="bold" font-size="14.00">Legend</text>
<polygon fill="#ffffb3" stroke="transparent" points="105,-10 105,-30 125,-30 125,-10 105,-10"/>
<text text-anchor="start" x="128.63" y="-15.4" font-family="sans-serif" font-size="14.00"> &#160;Declarations</text>
<polygon fill="#8dd3c7" stroke="transparent" points="218,-10 218,-30 238,-30 238,-10 218,-10"/>
<text text-anchor="start" x="241.73" y="-15.4" font-family="sans-serif" font-size="14.00"> &#160;Module</text>
<polygon fill="#80b1d3" stroke="transparent" points="304,-10 304,-30 324,-30 324,-10 304,-10"/>
<text text-anchor="start" x="327.78" y="-15.4" font-family="sans-serif" font-size="14.00"> &#160;Bootstrap</text>
<polygon fill="#fdb462" stroke="transparent" points="401,-10 401,-30 421,-30 421,-10 401,-10"/>
<text text-anchor="start" x="424.67" y="-15.4" font-family="sans-serif" font-size="14.00"> &#160;Providers</text>
<polygon fill="#fb8072" stroke="transparent" points="497,-10 497,-30 517,-30 517,-10 497,-10"/>
<text text-anchor="start" x="520.73" y="-15.4" font-family="sans-serif" font-size="14.00"> &#160;Exports</text>
<g id="clust1" class="cluster">
<title>cluster_SidenavModule</title>
<polygon fill="none" stroke="black" stroke-dasharray="1,5" points="8,-70 8,-268 670,-268 670,-70 8,-70"/>
</g>
<g id="clust5" class="cluster">
<title>cluster_SidenavModule_exports</title>
<polygon fill="none" stroke="black" points="16,-208 16,-260 662,-260 662,-208 16,-208"/>
</g>
<g id="clust2" class="cluster">
<title>cluster_SidenavModule_declarations</title>
<polygon fill="none" stroke="black" points="457,-78 457,-130 609,-130 609,-78 457,-78"/>
</g>
<g id="clust4" class="cluster">
<title>cluster_SidenavModule_imports</title>
<polygon fill="none" stroke="black" points="97,-78 97,-195 449,-195 449,-78 97,-78"/>
</g>
<!-- ContainerComponent -->
<g id="node1" class="node">
<title>ContainerComponent</title>
<polygon fill="#ffffb3" stroke="black" points="601.04,-122 464.96,-122 464.96,-86 601.04,-86 601.04,-122"/>
<text text-anchor="middle" x="533" y="-99.8" font-family="Times,serif" font-size="14.00">ContainerComponent</text>
</g>
<!-- SidenavModule -->
<g id="node2" class="node">
<title>SidenavModule</title>
<polygon fill="#8dd3c7" stroke="black" points="373.15,-187 370.15,-191 349.15,-191 346.15,-187 268.85,-187 268.85,-151 373.15,-151 373.15,-187"/>
<text text-anchor="middle" x="321" y="-164.8" font-family="Times,serif" font-size="14.00">SidenavModule</text>
</g>
<!-- ContainerComponent&#45;&gt;SidenavModule -->
<g id="edge1" class="edge">
<title>ContainerComponent&#45;&gt;SidenavModule</title>
<path fill="none" stroke="black" d="M480.12,-122.03C480.12,-138.4 480.12,-160 480.12,-160 480.12,-160 383.54,-160 383.54,-160"/>
<polygon fill="black" stroke="black" points="383.54,-156.5 373.54,-160 383.54,-163.5 383.54,-156.5"/>
</g>
<!-- SidenavModule&#45;&gt;SidenavModule -->
<g id="edge5" class="edge">
<title>SidenavModule&#45;&gt;SidenavModule</title>
<path fill="none" stroke="black" d="M361.96,-150.76C361.96,-143.57 361.96,-137 361.96,-137 361.96,-137 381.91,-137 381.91,-137 381.91,-137 381.91,-202 381.91,-202 381.91,-202 338.24,-202 338.24,-202 338.24,-202 338.24,-197.04 338.24,-197.04"/>
<polygon fill="black" stroke="black" points="341.74,-197.04 338.24,-187.04 334.74,-197.04 341.74,-197.04"/>
</g>
<!-- ContainerComponent  -->
<g id="node6" class="node">
<title>ContainerComponent </title>
<polygon fill="#fb8072" stroke="black" points="654.04,-252 513.96,-252 513.96,-216 654.04,-216 654.04,-252"/>
<text text-anchor="middle" x="584" y="-229.8" font-family="Times,serif" font-size="14.00">ContainerComponent </text>
</g>
<!-- SidenavModule&#45;&gt;ContainerComponent  -->
<g id="edge6" class="edge">
<title>SidenavModule&#45;&gt;ContainerComponent </title>
<path fill="none" stroke="black" stroke-dasharray="5,2" d="M373.22,-169C442.9,-169 557.62,-169 557.62,-169 557.62,-169 557.62,-205.89 557.62,-205.89"/>
<polygon fill="black" stroke="black" points="554.13,-205.89 557.62,-215.89 561.13,-205.89 554.13,-205.89"/>
</g>
<!-- FeatureModule  -->
<g id="node7" class="node">
<title>FeatureModule </title>
<polygon fill="#fb8072" stroke="black" points="495.53,-252 390.47,-252 390.47,-216 495.53,-216 495.53,-252"/>
<text text-anchor="middle" x="443" y="-229.8" font-family="Times,serif" font-size="14.00">FeatureModule </text>
</g>
<!-- SidenavModule&#45;&gt;FeatureModule  -->
<g id="edge7" class="edge">
<title>SidenavModule&#45;&gt;FeatureModule </title>
<path fill="none" stroke="black" stroke-dasharray="5,2" d="M373.29,-178C395.18,-178 415.62,-178 415.62,-178 415.62,-178 415.62,-205.97 415.62,-205.97"/>
<polygon fill="black" stroke="black" points="412.13,-205.97 415.62,-215.97 419.13,-205.97 412.13,-205.97"/>
</g>
<!-- HeaderModule  -->
<g id="node8" class="node">
<title>HeaderModule </title>
<polygon fill="#fb8072" stroke="black" points="372.96,-252 269.04,-252 269.04,-216 372.96,-216 372.96,-252"/>
<text text-anchor="middle" x="321" y="-229.8" font-family="Times,serif" font-size="14.00">HeaderModule </text>
</g>
<!-- SidenavModule&#45;&gt;HeaderModule  -->
<g id="edge8" class="edge">
<title>SidenavModule&#45;&gt;HeaderModule </title>
<path fill="none" stroke="black" stroke-dasharray="5,2" d="M303.76,-187.11C303.76,-187.11 303.76,-205.99 303.76,-205.99"/>
<polygon fill="black" stroke="black" points="300.26,-205.99 303.76,-215.99 307.26,-205.99 300.26,-205.99"/>
</g>
<!-- SearchModule  -->
<g id="node9" class="node">
<title>SearchModule </title>
<polygon fill="#fb8072" stroke="black" points="251.64,-252 150.36,-252 150.36,-216 251.64,-216 251.64,-252"/>
<text text-anchor="middle" x="201" y="-229.8" font-family="Times,serif" font-size="14.00">SearchModule </text>
</g>
<!-- SidenavModule&#45;&gt;SearchModule  -->
<g id="edge9" class="edge">
<title>SidenavModule&#45;&gt;SearchModule </title>
<path fill="none" stroke="black" stroke-dasharray="5,2" d="M268.8,-178C251.37,-178 236.29,-178 236.29,-178 236.29,-178 236.29,-205.97 236.29,-205.97"/>
<polygon fill="black" stroke="black" points="232.79,-205.97 236.29,-215.97 239.79,-205.97 232.79,-205.97"/>
</g>
<!-- SidenavModule  -->
<g id="node10" class="node">
<title>SidenavModule </title>
<polygon fill="#fb8072" stroke="black" points="132.15,-252 23.85,-252 23.85,-216 132.15,-216 132.15,-252"/>
<text text-anchor="middle" x="78" y="-229.8" font-family="Times,serif" font-size="14.00">SidenavModule </text>
</g>
<!-- SidenavModule&#45;&gt;SidenavModule  -->
<g id="edge10" class="edge">
<title>SidenavModule&#45;&gt;SidenavModule </title>
<path fill="none" stroke="black" stroke-dasharray="5,2" d="M268.62,-169C208.66,-169 118.63,-169 118.63,-169 118.63,-169 118.63,-205.89 118.63,-205.89"/>
<polygon fill="black" stroke="black" points="115.13,-205.89 118.63,-215.89 122.13,-205.89 115.13,-205.89"/>
</g>
<!-- FeatureModule -->
<g id="node3" class="node">
<title>FeatureModule</title>
<polygon fill="#8dd3c7" stroke="black" points="440.53,-122 437.53,-126 416.53,-126 413.53,-122 339.47,-122 339.47,-86 440.53,-86 440.53,-122"/>
<text text-anchor="middle" x="390" y="-99.8" font-family="Times,serif" font-size="14.00">FeatureModule</text>
</g>
<!-- FeatureModule&#45;&gt;SidenavModule -->
<g id="edge2" class="edge">
<title>FeatureModule&#45;&gt;SidenavModule</title>
<path fill="none" stroke="black" d="M350.6,-122.11C350.6,-122.11 350.6,-140.99 350.6,-140.99"/>
<polygon fill="black" stroke="black" points="347.1,-140.99 350.6,-150.99 354.1,-140.99 347.1,-140.99"/>
</g>
<!-- HeaderModule -->
<g id="node4" class="node">
<title>HeaderModule</title>
<polygon fill="#8dd3c7" stroke="black" points="320.96,-122 317.96,-126 296.96,-126 293.96,-122 221.04,-122 221.04,-86 320.96,-86 320.96,-122"/>
<text text-anchor="middle" x="271" y="-99.8" font-family="Times,serif" font-size="14.00">HeaderModule</text>
</g>
<!-- HeaderModule&#45;&gt;SidenavModule -->
<g id="edge3" class="edge">
<title>HeaderModule&#45;&gt;SidenavModule</title>
<path fill="none" stroke="black" d="M294.83,-122.11C294.83,-122.11 294.83,-140.99 294.83,-140.99"/>
<polygon fill="black" stroke="black" points="291.33,-140.99 294.83,-150.99 298.33,-140.99 291.33,-140.99"/>
</g>
<!-- SearchModule -->
<g id="node5" class="node">
<title>SearchModule</title>
<polygon fill="#8dd3c7" stroke="black" points="202.64,-122 199.64,-126 178.64,-126 175.64,-122 105.36,-122 105.36,-86 202.64,-86 202.64,-122"/>
<text text-anchor="middle" x="154" y="-99.8" font-family="Times,serif" font-size="14.00">SearchModule</text>
</g>
<!-- SearchModule&#45;&gt;SidenavModule -->
<g id="edge4" class="edge">
<title>SearchModule&#45;&gt;SidenavModule</title>
<path fill="none" stroke="black" d="M176.62,-122.03C176.62,-138.4 176.62,-160 176.62,-160 176.62,-160 258.47,-160 258.47,-160"/>
<polygon fill="black" stroke="black" points="258.47,-163.5 268.47,-160 258.47,-156.5 258.47,-163.5"/>
</g>
</g>
</svg>
