<?xml version="1.0" encoding="UTF-8" standalone="no"?>
<!DOCTYPE svg PUBLIC "-//W3C//DTD SVG 1.1//EN"
 "http://www.w3.org/Graphics/SVG/1.1/DTD/svg11.dtd">
<!-- Generated by graphviz version 2.44.1 (20200629.0846)
 -->
<!-- Title: dependencies Pages: 1 -->
<svg width="567pt" height="284pt"
 viewBox="0.00 0.00 567.00 284.00" xmlns="http://www.w3.org/2000/svg" xmlns:xlink="http://www.w3.org/1999/xlink">
<g id="graph0" class="graph" transform="scale(1 1) rotate(0) translate(4 280)">
<title>dependencies</title>
<polygon fill="white" stroke="transparent" points="-4,4 -4,-280 563,-280 563,4 -4,4"/>
<text text-anchor="start" x="258.51" y="-42.4" font-family="sans-serif" font-weight="bold" font-size="14.00">Legend</text>
<polygon fill="#ffffb3" stroke="transparent" points="45.5,-10 45.5,-30 65.5,-30 65.5,-10 45.5,-10"/>
<text text-anchor="start" x="69.13" y="-15.4" font-family="sans-serif" font-size="14.00"> &#160;Declarations</text>
<polygon fill="#8dd3c7" stroke="transparent" points="158.5,-10 158.5,-30 178.5,-30 178.5,-10 158.5,-10"/>
<text text-anchor="start" x="182.23" y="-15.4" font-family="sans-serif" font-size="14.00"> &#160;Module</text>
<polygon fill="#80b1d3" stroke="transparent" points="244.5,-10 244.5,-30 264.5,-30 264.5,-10 244.5,-10"/>
<text text-anchor="start" x="268.28" y="-15.4" font-family="sans-serif" font-size="14.00"> &#160;Bootstrap</text>
<polygon fill="#fdb462" stroke="transparent" points="341.5,-10 341.5,-30 361.5,-30 361.5,-10 341.5,-10"/>
<text text-anchor="start" x="365.17" y="-15.4" font-family="sans-serif" font-size="14.00"> &#160;Providers</text>
<polygon fill="#fb8072" stroke="transparent" points="437.5,-10 437.5,-30 457.5,-30 457.5,-10 437.5,-10"/>
<text text-anchor="start" x="461.23" y="-15.4" font-family="sans-serif" font-size="14.00"> &#160;Exports</text>
<g id="clust1" class="cluster">
<title>cluster_SidenavModule</title>
<polygon fill="none" stroke="black" stroke-dasharray="1,5" points="8,-70 8,-268 551,-268 551,-70 8,-70"/>
</g>
<g id="clust4" class="cluster">
<title>cluster_SidenavModule_imports</title>
<polygon fill="none" stroke="black" points="220,-78 220,-195 456,-195 456,-78 220,-78"/>
</g>
<g id="clust2" class="cluster">
<title>cluster_SidenavModule_declarations</title>
<polygon fill="none" stroke="black" points="60,-78 60,-130 212,-130 212,-78 60,-78"/>
</g>
<g id="clust5" class="cluster">
<title>cluster_SidenavModule_exports</title>
<polygon fill="none" stroke="black" points="16,-208 16,-260 543,-260 543,-208 16,-208"/>
</g>
<!-- ContainerComponent -->
<g id="node1" class="node">
<title>ContainerComponent</title>
<polygon fill="#ffffb3" stroke="black" points="204.04,-122 67.96,-122 67.96,-86 204.04,-86 204.04,-122"/>
<text text-anchor="middle" x="136" y="-99.8" font-family="Times,serif" font-size="14.00">ContainerComponent</text>
</g>
<!-- SidenavModule -->
<g id="node2" class="node">
<title>SidenavModule</title>
<polygon fill="#8dd3c7" stroke="black" points="332.15,-187 329.15,-191 308.15,-191 305.15,-187 227.85,-187 227.85,-151 332.15,-151 332.15,-187"/>
<text text-anchor="middle" x="280" y="-164.8" font-family="Times,serif" font-size="14.00">SidenavModule</text>
</g>
<!-- ContainerComponent&#45;&gt;SidenavModule -->
<g id="edge1" class="edge">
<title>ContainerComponent&#45;&gt;SidenavModule</title>
<path fill="none" stroke="black" d="M177.27,-122.02C177.27,-139.37 177.27,-163 177.27,-163 177.27,-163 217.73,-163 217.73,-163"/>
<polygon fill="black" stroke="black" points="217.73,-166.5 227.73,-163 217.73,-159.5 217.73,-166.5"/>
</g>
<!-- SidenavModule&#45;&gt;SidenavModule -->
<g id="edge4" class="edge">
<title>SidenavModule&#45;&gt;SidenavModule</title>
<path fill="none" stroke="black" d="M261.34,-150.76C261.34,-143.57 261.34,-137 261.34,-137 261.34,-137 215.97,-137 215.97,-137 215.97,-137 215.97,-202 215.97,-202 215.97,-202 236.36,-202 236.36,-202 236.36,-202 236.36,-197.04 236.36,-197.04"/>
<polygon fill="black" stroke="black" points="239.86,-197.04 236.36,-187.04 232.86,-197.04 239.86,-197.04"/>
</g>
<!-- ContainerComponent  -->
<g id="node5" class="node">
<title>ContainerComponent </title>
<polygon fill="#fb8072" stroke="black" points="535.04,-252 394.96,-252 394.96,-216 535.04,-216 535.04,-252"/>
<text text-anchor="middle" x="465" y="-229.8" font-family="Times,serif" font-size="14.00">ContainerComponent </text>
</g>
<!-- SidenavModule&#45;&gt;ContainerComponent  -->
<g id="edge5" class="edge">
<title>SidenavModule&#45;&gt;ContainerComponent </title>
<path fill="none" stroke="black" stroke-dasharray="5,2" d="M332.24,-175C372.51,-175 421.37,-175 421.37,-175 421.37,-175 421.37,-205.98 421.37,-205.98"/>
<polygon fill="black" stroke="black" points="417.87,-205.98 421.37,-215.98 424.87,-205.98 417.87,-205.98"/>
</g>
<!-- FeatureModule  -->
<g id="node6" class="node">
<title>FeatureModule </title>
<polygon fill="#fb8072" stroke="black" points="376.53,-252 271.47,-252 271.47,-216 376.53,-216 376.53,-252"/>
<text text-anchor="middle" x="324" y="-229.8" font-family="Times,serif" font-size="14.00">FeatureModule </text>
</g>
<!-- SidenavModule&#45;&gt;FeatureModule  -->
<g id="edge6" class="edge">
<title>SidenavModule&#45;&gt;FeatureModule </title>
<path fill="none" stroke="black" stroke-dasharray="5,2" d="M301.91,-187.11C301.91,-187.11 301.91,-205.99 301.91,-205.99"/>
<polygon fill="black" stroke="black" points="298.41,-205.99 301.91,-215.99 305.41,-205.99 298.41,-205.99"/>
</g>
<!-- HeaderModule  -->
<g id="node7" class="node">
<title>HeaderModule </title>
<polygon fill="#fb8072" stroke="black" points="253.96,-252 150.04,-252 150.04,-216 253.96,-216 253.96,-252"/>
<text text-anchor="middle" x="202" y="-229.8" font-family="Times,serif" font-size="14.00">HeaderModule </text>
</g>
<!-- SidenavModule&#45;&gt;HeaderModule  -->
<g id="edge7" class="edge">
<title>SidenavModule&#45;&gt;HeaderModule </title>
<path fill="none" stroke="black" stroke-dasharray="5,2" d="M245.04,-187.11C245.04,-187.11 245.04,-205.99 245.04,-205.99"/>
<polygon fill="black" stroke="black" points="241.54,-205.99 245.04,-215.99 248.54,-205.99 241.54,-205.99"/>
</g>
<!-- SidenavModule  -->
<g id="node8" class="node">
<title>SidenavModule </title>
<polygon fill="#fb8072" stroke="black" points="132.15,-252 23.85,-252 23.85,-216 132.15,-216 132.15,-252"/>
<text text-anchor="middle" x="78" y="-229.8" font-family="Times,serif" font-size="14.00">SidenavModule </text>
</g>
<!-- SidenavModule&#45;&gt;SidenavModule  -->
<g id="edge8" class="edge">
<title>SidenavModule&#45;&gt;SidenavModule </title>
<path fill="none" stroke="black" stroke-dasharray="5,2" d="M227.42,-175C174.27,-175 99.9,-175 99.9,-175 99.9,-175 99.9,-205.98 99.9,-205.98"/>
<polygon fill="black" stroke="black" points="96.4,-205.98 99.9,-215.98 103.4,-205.98 96.4,-205.98"/>
</g>
<!-- FeatureModule -->
<g id="node3" class="node">
<title>FeatureModule</title>
<polygon fill="#8dd3c7" stroke="black" points="447.53,-122 444.53,-126 423.53,-126 420.53,-122 346.47,-122 346.47,-86 447.53,-86 447.53,-122"/>
<text text-anchor="middle" x="397" y="-99.8" font-family="Times,serif" font-size="14.00">FeatureModule</text>
</g>
<!-- FeatureModule&#45;&gt;SidenavModule -->
<g id="edge2" class="edge">
<title>FeatureModule&#45;&gt;SidenavModule</title>
<path fill="none" stroke="black" d="M361.38,-122.02C361.38,-139.37 361.38,-163 361.38,-163 361.38,-163 342.46,-163 342.46,-163"/>
<polygon fill="black" stroke="black" points="342.46,-159.5 332.46,-163 342.46,-166.5 342.46,-159.5"/>
</g>
<!-- HeaderModule -->
<g id="node4" class="node">
<title>HeaderModule</title>
<polygon fill="#8dd3c7" stroke="black" points="327.96,-122 324.96,-126 303.96,-126 300.96,-122 228.04,-122 228.04,-86 327.96,-86 327.96,-122"/>
<text text-anchor="middle" x="278" y="-99.8" font-family="Times,serif" font-size="14.00">HeaderModule</text>
</g>
<!-- HeaderModule&#45;&gt;SidenavModule -->
<g id="edge3" class="edge">
<title>HeaderModule&#45;&gt;SidenavModule</title>
<path fill="none" stroke="black" d="M294.66,-122.11C294.66,-122.11 294.66,-140.99 294.66,-140.99"/>
<polygon fill="black" stroke="black" points="291.16,-140.99 294.66,-150.99 298.16,-140.99 291.16,-140.99"/>
</g>
</g>
</svg>
