<?xml version="1.0" encoding="UTF-8" standalone="no"?>
<!DOCTYPE svg PUBLIC "-//W3C//DTD SVG 1.1//EN"
 "http://www.w3.org/Graphics/SVG/1.1/DTD/svg11.dtd">
<!-- Generated by graphviz version 2.44.1 (20200629.0846)
 -->
<!-- Title: dependencies Pages: 1 -->
<svg width="686pt" height="284pt"
 viewBox="0.00 0.00 686.00 284.00" xmlns="http://www.w3.org/2000/svg" xmlns:xlink="http://www.w3.org/1999/xlink">
<g id="graph0" class="graph" transform="scale(1 1) rotate(0) translate(4 280)">
<title>dependencies</title>
<polygon fill="white" stroke="transparent" points="-4,4 -4,-280 682,-280 682,4 -4,4"/>
<text text-anchor="start" x="318.01" y="-42.4" font-family="sans-serif" font-weight="bold" font-size="14.00">Legend</text>
<polygon fill="#ffffb3" stroke="transparent" points="105,-10 105,-30 125,-30 125,-10 105,-10"/>
<text text-anchor="start" x="128.63" y="-15.4" font-family="sans-serif" font-size="14.00"> &#160;Declarations</text>
<polygon fill="#8dd3c7" stroke="transparent" points="218,-10 218,-30 238,-30 238,-10 218,-10"/>
<text text-anchor="start" x="241.73" y="-15.4" font-family="sans-serif" font-size="14.00"> &#160;Module</text>
<polygon fill="#80b1d3" stroke="transparent" points="304,-10 304,-30 324,-30 324,-10 304,-10"/>
<text text-anchor="start" x="327.78" y="-15.4" font-family="sans-serif" font-size="14.00"> &#160;Bootstrap</text>
<polygon fill="#fdb462" stroke="transparent" points="401,-10 401,-30 421,-30 421,-10 401,-10"/>
<text text-anchor="start" x="424.67" y="-15.4" font-family="sans-serif" font-size="14.00"> &#160;Providers</text>
<polygon fill="#fb8072" stroke="transparent" points="497,-10 497,-30 517,-30 517,-10 497,-10"/>
<text text-anchor="start" x="520.73" y="-15.4" font-family="sans-serif" font-size="14.00"> &#160;Exports</text>
<g id="clust1" class="cluster">
<title>cluster_SidenavModule</title>
<polygon fill="none" stroke="black" stroke-dasharray="1,5" points="8,-70 8,-268 670,-268 670,-70 8,-70"/>
</g>
<g id="clust4" class="cluster">
<title>cluster_SidenavModule_imports</title>
<polygon fill="none" stroke="black" points="219,-78 219,-195 571,-195 571,-78 219,-78"/>
</g>
<g id="clust2" class="cluster">
<title>cluster_SidenavModule_declarations</title>
<polygon fill="none" stroke="black" points="59,-78 59,-130 211,-130 211,-78 59,-78"/>
</g>
<g id="clust5" class="cluster">
<title>cluster_SidenavModule_exports</title>
<polygon fill="none" stroke="black" points="16,-208 16,-260 662,-260 662,-208 16,-208"/>
</g>
<!-- ContainerComponent -->
<g id="node1" class="node">
<title>ContainerComponent</title>
<polygon fill="#ffffb3" stroke="black" points="203.04,-122 66.96,-122 66.96,-86 203.04,-86 203.04,-122"/>
<text text-anchor="middle" x="135" y="-99.8" font-family="Times,serif" font-size="14.00">ContainerComponent</text>
</g>
<!-- SidenavModule -->
<g id="node2" class="node">
<title>SidenavModule</title>
<polygon fill="#8dd3c7" stroke="black" points="373.15,-187 370.15,-191 349.15,-191 346.15,-187 268.85,-187 268.85,-151 373.15,-151 373.15,-187"/>
<text text-anchor="middle" x="321" y="-164.8" font-family="Times,serif" font-size="14.00">SidenavModule</text>
</g>
<!-- ContainerComponent&#45;&gt;SidenavModule -->
<g id="edge1" class="edge">
<title>ContainerComponent&#45;&gt;SidenavModule</title>
<path fill="none" stroke="black" d="M176.85,-122.03C176.85,-138.4 176.85,-160 176.85,-160 176.85,-160 258.55,-160 258.55,-160"/>
<polygon fill="black" stroke="black" points="258.55,-163.5 268.55,-160 258.55,-156.5 258.55,-163.5"/>
</g>
<!-- SidenavModule&#45;&gt;SidenavModule -->
<g id="edge5" class="edge">
<title>SidenavModule&#45;&gt;SidenavModule</title>
<path fill="none" stroke="black" d="M363.22,-150.76C363.22,-143.57 363.22,-137 363.22,-137 363.22,-137 381.91,-137 381.91,-137 381.91,-137 381.91,-202 381.91,-202 381.91,-202 338.24,-202 338.24,-202 338.24,-202 338.24,-197.04 338.24,-197.04"/>
<polygon fill="black" stroke="black" points="341.74,-197.04 338.24,-187.04 334.74,-197.04 341.74,-197.04"/>
</g>
<!-- ContainerComponent  -->
<g id="node6" class="node">
<title>ContainerComponent </title>
<polygon fill="#fb8072" stroke="black" points="654.04,-252 513.96,-252 513.96,-216 654.04,-216 654.04,-252"/>
<text text-anchor="middle" x="584" y="-229.8" font-family="Times,serif" font-size="14.00">ContainerComponent </text>
</g>
<!-- SidenavModule&#45;&gt;ContainerComponent  -->
<g id="edge6" class="edge">
<title>SidenavModule&#45;&gt;ContainerComponent </title>
<path fill="none" stroke="black" stroke-dasharray="5,2" d="M373.34,-169C437.66,-169 538.37,-169 538.37,-169 538.37,-169 538.37,-205.89 538.37,-205.89"/>
<polygon fill="black" stroke="black" points="534.87,-205.89 538.37,-215.89 541.87,-205.89 534.87,-205.89"/>
</g>
<!-- FeatureModule  -->
<g id="node7" class="node">
<title>FeatureModule </title>
<polygon fill="#fb8072" stroke="black" points="495.53,-252 390.47,-252 390.47,-216 495.53,-216 495.53,-252"/>
<text text-anchor="middle" x="443" y="-229.8" font-family="Times,serif" font-size="14.00">FeatureModule </text>
</g>
<!-- SidenavModule&#45;&gt;FeatureModule  -->
<g id="edge7" class="edge">
<title>SidenavModule&#45;&gt;FeatureModule </title>
<path fill="none" stroke="black" stroke-dasharray="5,2" d="M373.35,-178C395.7,-178 416.73,-178 416.73,-178 416.73,-178 416.73,-205.97 416.73,-205.97"/>
<polygon fill="black" stroke="black" points="413.23,-205.97 416.73,-215.97 420.23,-205.97 413.23,-205.97"/>
</g>
<!-- HeaderModule  -->
<g id="node8" class="node">
<title>HeaderModule </title>
<polygon fill="#fb8072" stroke="black" points="372.96,-252 269.04,-252 269.04,-216 372.96,-216 372.96,-252"/>
<text text-anchor="middle" x="321" y="-229.8" font-family="Times,serif" font-size="14.00">HeaderModule </text>
</g>
<!-- SidenavModule&#45;&gt;HeaderModule  -->
<g id="edge8" class="edge">
<title>SidenavModule&#45;&gt;HeaderModule </title>
<path fill="none" stroke="black" stroke-dasharray="5,2" d="M303.76,-187.11C303.76,-187.11 303.76,-205.99 303.76,-205.99"/>
<polygon fill="black" stroke="black" points="300.26,-205.99 303.76,-215.99 307.26,-205.99 300.26,-205.99"/>
</g>
<!-- SearchModule  -->
<g id="node9" class="node">
<title>SearchModule </title>
<polygon fill="#fb8072" stroke="black" points="251.64,-252 150.36,-252 150.36,-216 251.64,-216 251.64,-252"/>
<text text-anchor="middle" x="201" y="-229.8" font-family="Times,serif" font-size="14.00">SearchModule </text>
</g>
<!-- SidenavModule&#45;&gt;SearchModule  -->
<g id="edge9" class="edge">
<title>SidenavModule&#45;&gt;SearchModule </title>
<path fill="none" stroke="black" stroke-dasharray="5,2" d="M268.84,-178C252.85,-178 239.38,-178 239.38,-178 239.38,-178 239.38,-205.97 239.38,-205.97"/>
<polygon fill="black" stroke="black" points="235.88,-205.97 239.38,-215.97 242.88,-205.97 235.88,-205.97"/>
</g>
<!-- SidenavModule  -->
<g id="node10" class="node">
<title>SidenavModule </title>
<polygon fill="#fb8072" stroke="black" points="132.15,-252 23.85,-252 23.85,-216 132.15,-216 132.15,-252"/>
<text text-anchor="middle" x="78" y="-229.8" font-family="Times,serif" font-size="14.00">SidenavModule </text>
</g>
<!-- SidenavModule&#45;&gt;SidenavModule  -->
<g id="edge10" class="edge">
<title>SidenavModule&#45;&gt;SidenavModule </title>
<path fill="none" stroke="black" stroke-dasharray="5,2" d="M268.77,-169C203.25,-169 99.4,-169 99.4,-169 99.4,-169 99.4,-205.89 99.4,-205.89"/>
<polygon fill="black" stroke="black" points="95.9,-205.89 99.4,-215.89 102.9,-205.89 95.9,-205.89"/>
</g>
<!-- FeatureModule -->
<g id="node3" class="node">
<title>FeatureModule</title>
<polygon fill="#8dd3c7" stroke="black" points="562.53,-122 559.53,-126 538.53,-126 535.53,-122 461.47,-122 461.47,-86 562.53,-86 562.53,-122"/>
<text text-anchor="middle" x="512" y="-99.8" font-family="Times,serif" font-size="14.00">FeatureModule</text>
</g>
<!-- FeatureModule&#45;&gt;SidenavModule -->
<g id="edge2" class="edge">
<title>FeatureModule&#45;&gt;SidenavModule</title>
<path fill="none" stroke="black" d="M478.38,-122.03C478.38,-138.4 478.38,-160 478.38,-160 478.38,-160 383.4,-160 383.4,-160"/>
<polygon fill="black" stroke="black" points="383.4,-156.5 373.4,-160 383.4,-163.5 383.4,-156.5"/>
</g>
<!-- HeaderModule -->
<g id="node4" class="node">
<title>HeaderModule</title>
<polygon fill="#8dd3c7" stroke="black" points="442.96,-122 439.96,-126 418.96,-126 415.96,-122 343.04,-122 343.04,-86 442.96,-86 442.96,-122"/>
<text text-anchor="middle" x="393" y="-99.8" font-family="Times,serif" font-size="14.00">HeaderModule</text>
</g>
<!-- HeaderModule&#45;&gt;SidenavModule -->
<g id="edge3" class="edge">
<title>HeaderModule&#45;&gt;SidenavModule</title>
<path fill="none" stroke="black" d="M353.12,-122.11C353.12,-122.11 353.12,-140.99 353.12,-140.99"/>
<polygon fill="black" stroke="black" points="349.62,-140.99 353.12,-150.99 356.62,-140.99 349.62,-140.99"/>
</g>
<!-- SearchModule -->
<g id="node5" class="node">
<title>SearchModule</title>
<polygon fill="#8dd3c7" stroke="black" points="324.64,-122 321.64,-126 300.64,-126 297.64,-122 227.36,-122 227.36,-86 324.64,-86 324.64,-122"/>
<text text-anchor="middle" x="276" y="-99.8" font-family="Times,serif" font-size="14.00">SearchModule</text>
</g>
<!-- SearchModule&#45;&gt;SidenavModule -->
<g id="edge4" class="edge">
<title>SearchModule&#45;&gt;SidenavModule</title>
<path fill="none" stroke="black" d="M296.75,-122.11C296.75,-122.11 296.75,-140.99 296.75,-140.99"/>
<polygon fill="black" stroke="black" points="293.25,-140.99 296.75,-150.99 300.25,-140.99 293.25,-140.99"/>
</g>
</g>
</svg>
