<?xml version="1.0" encoding="UTF-8" standalone="no"?>
<!DOCTYPE svg PUBLIC "-//W3C//DTD SVG 1.1//EN"
 "http://www.w3.org/Graphics/SVG/1.1/DTD/svg11.dtd">
<!-- Generated by graphviz version 2.44.1 (20200629.0846)
 -->
<!-- Title: dependencies Pages: 1 -->
<svg width="504pt" height="284pt"
 viewBox="0.00 0.00 504.00 284.00" xmlns="http://www.w3.org/2000/svg" xmlns:xlink="http://www.w3.org/1999/xlink">
<g id="graph0" class="graph" transform="scale(1 1) rotate(0) translate(4 280)">
<title>dependencies</title>
<polygon fill="white" stroke="transparent" points="-4,4 -4,-280 500,-280 500,4 -4,4"/>
<text text-anchor="start" x="227.01" y="-42.4" font-family="sans-serif" font-weight="bold" font-size="14.00">Legend</text>
<polygon fill="#ffffb3" stroke="transparent" points="14,-10 14,-30 34,-30 34,-10 14,-10"/>
<text text-anchor="start" x="37.63" y="-15.4" font-family="sans-serif" font-size="14.00"> &#160;Declarations</text>
<polygon fill="#8dd3c7" stroke="transparent" points="127,-10 127,-30 147,-30 147,-10 127,-10"/>
<text text-anchor="start" x="150.73" y="-15.4" font-family="sans-serif" font-size="14.00"> &#160;Module</text>
<polygon fill="#80b1d3" stroke="transparent" points="213,-10 213,-30 233,-30 233,-10 213,-10"/>
<text text-anchor="start" x="236.78" y="-15.4" font-family="sans-serif" font-size="14.00"> &#160;Bootstrap</text>
<polygon fill="#fdb462" stroke="transparent" points="310,-10 310,-30 330,-30 330,-10 310,-10"/>
<text text-anchor="start" x="333.67" y="-15.4" font-family="sans-serif" font-size="14.00"> &#160;Providers</text>
<polygon fill="#fb8072" stroke="transparent" points="406,-10 406,-30 426,-30 426,-10 406,-10"/>
<text text-anchor="start" x="429.73" y="-15.4" font-family="sans-serif" font-size="14.00"> &#160;Exports</text>
<g id="clust1" class="cluster">
<title>cluster_SidenavModule</title>
<polygon fill="none" stroke="black" stroke-dasharray="1,5" points="105,-70 105,-268 391,-268 391,-70 105,-70"/>
</g>
<g id="clust4" class="cluster">
<title>cluster_SidenavModule_imports</title>
<polygon fill="none" stroke="black" points="265,-78 265,-130 383,-130 383,-78 265,-78"/>
</g>
<g id="clust5" class="cluster">
<title>cluster_SidenavModule_exports</title>
<polygon fill="none" stroke="black" points="174,-208 174,-260 322,-260 322,-208 174,-208"/>
</g>
<g id="clust2" class="cluster">
<title>cluster_SidenavModule_declarations</title>
<polygon fill="none" stroke="black" points="113,-78 113,-130 257,-130 257,-78 113,-78"/>
</g>
<!-- ForecastComponent -->
<g id="node1" class="node">
<title>ForecastComponent</title>
<polygon fill="#ffffb3" stroke="black" points="249.25,-122 120.75,-122 120.75,-86 249.25,-86 249.25,-122"/>
<text text-anchor="middle" x="185" y="-99.8" font-family="Times,serif" font-size="14.00">ForecastComponent</text>
</g>
<!-- SidenavModule -->
<g id="node2" class="node">
<title>SidenavModule</title>
<polygon fill="#8dd3c7" stroke="black" points="300.15,-187 297.15,-191 276.15,-191 273.15,-187 195.85,-187 195.85,-151 300.15,-151 300.15,-187"/>
<text text-anchor="middle" x="248" y="-164.8" font-family="Times,serif" font-size="14.00">SidenavModule</text>
</g>
<!-- ForecastComponent&#45;&gt;SidenavModule -->
<g id="edge1" class="edge">
<title>ForecastComponent&#45;&gt;SidenavModule</title>
<path fill="none" stroke="black" d="M222.53,-122.11C222.53,-122.11 222.53,-140.99 222.53,-140.99"/>
<polygon fill="black" stroke="black" points="219.03,-140.99 222.53,-150.99 226.03,-140.99 219.03,-140.99"/>
</g>
<!-- ForecastComponent  -->
<g id="node4" class="node">
<title>ForecastComponent </title>
<polygon fill="#fb8072" stroke="black" points="314.25,-252 181.75,-252 181.75,-216 314.25,-216 314.25,-252"/>
<text text-anchor="middle" x="248" y="-229.8" font-family="Times,serif" font-size="14.00">ForecastComponent </text>
</g>
<!-- SidenavModule&#45;&gt;ForecastComponent  -->
<g id="edge3" class="edge">
<title>SidenavModule&#45;&gt;ForecastComponent </title>
<path fill="none" stroke="black" stroke-dasharray="5,2" d="M248,-187.11C248,-187.11 248,-205.99 248,-205.99"/>
<polygon fill="black" stroke="black" points="244.5,-205.99 248,-215.99 251.5,-205.99 244.5,-205.99"/>
</g>
<!-- FeatureModule -->
<g id="node3" class="node">
<title>FeatureModule</title>
<polygon fill="#8dd3c7" stroke="black" points="374.53,-122 371.53,-126 350.53,-126 347.53,-122 273.47,-122 273.47,-86 374.53,-86 374.53,-122"/>
<text text-anchor="middle" x="324" y="-99.8" font-family="Times,serif" font-size="14.00">FeatureModule</text>
</g>
<!-- FeatureModule&#45;&gt;SidenavModule -->
<g id="edge2" class="edge">
<title>FeatureModule&#45;&gt;SidenavModule</title>
<path fill="none" stroke="black" d="M286.78,-122.11C286.78,-122.11 286.78,-140.99 286.78,-140.99"/>
<polygon fill="black" stroke="black" points="283.28,-140.99 286.78,-150.99 290.28,-140.99 283.28,-140.99"/>
</g>
</g>
</svg>
